M48
; DRILL file {KiCad 9.0.3} date 2025-11-04T17:07:11+0100
; FORMAT={-:-/ absolute / metric / decimal}
; #@! TF.CreationDate,2025-11-04T17:07:11+01:00
; #@! TF.GenerationSoftware,Kicad,Pcbnew,9.0.3
; #@! TF.FileFunction,Plated,1,2,PTH
FMAT,2
METRIC
; #@! TA.AperFunction,Plated,PTH,ViaDrill
T1C0.400
; #@! TA.AperFunction,Plated,PTH,ComponentDrill
T2C0.800
; #@! TA.AperFunction,Plated,PTH,ComponentDrill
T3C1.001
; #@! TA.AperFunction,Plated,PTH,ComponentDrill
T4C1.200
; #@! TA.AperFunction,Plated,PTH,ComponentDrill
T5C1.350
; #@! TA.AperFunction,Plated,PTH,ComponentDrill
T6C1.400
; #@! TA.AperFunction,Plated,PTH,ComponentDrill
T7C1.800
; #@! TA.AperFunction,Plated,PTH,ComponentDrill
T8C2.100
; #@! TA.AperFunction,Plated,PTH,ComponentDrill
T9C3.200
%
G90
G05
T1
X48.5Y-106.0
X51.5Y-52.5
X51.5Y-113.5
X52.0Y-46.5
X54.0Y-46.0
X54.5Y-100.0
X55.0Y-107.0
X55.5Y-113.0
X55.75Y-59.75
X57.578Y-59.578
X58.0Y-55.0
X59.0Y-61.0
X59.0Y-62.5
X59.0Y-99.0
X64.0Y-62.0
X67.5Y-82.5
X68.0Y-96.5
X69.0Y-97.0
X71.0Y-92.0
X72.5Y-92.0
X73.0Y-78.0
X74.5Y-78.0
X86.5Y-52.5
X87.0Y-50.5
T2
X51.5Y-62.347
X51.5Y-65.847
X57.0Y-93.653
X57.0Y-97.153
X78.5Y-121.5
X78.5Y-125.0
T3
X50.0Y-71.0
X79.0Y-88.0
X79.5Y-77.0
X90.5Y-57.0
X93.5Y-100.5
T4
X71.0Y-65.676
X71.0Y-70.676
T5
X65.0Y-123.5
T6
X53.5Y-76.34
X53.5Y-81.42
X53.5Y-86.5
X90.0Y-62.18
X90.0Y-67.26
X90.0Y-72.34
X90.0Y-77.42
X90.0Y-82.5
X90.0Y-87.58
T7
X64.65Y-104.0
X88.35Y-104.0
T8
X72.0Y-34.3
X72.0Y-58.0
T9
X52.5Y-36.0
X52.5Y-124.0
X90.5Y-36.0
X90.5Y-124.0
M30
