%TF.GenerationSoftware,KiCad,Pcbnew,9.0.3*%
%TF.CreationDate,2025-11-03T22:49:57+01:00*%
%TF.ProjectId,Alim_12V-5V,416c696d-5f31-4325-962d-35562e6b6963,rev?*%
%TF.SameCoordinates,Original*%
%TF.FileFunction,Copper,L1,Top*%
%TF.FilePolarity,Positive*%
%FSLAX46Y46*%
G04 Gerber Fmt 4.6, Leading zero omitted, Abs format (unit mm)*
G04 Created by KiCad (PCBNEW 9.0.3) date 2025-11-03 22:49:57*
%MOMM*%
%LPD*%
G01*
G04 APERTURE LIST*
G04 Aperture macros list*
%AMRoundRect*
0 Rectangle with rounded corners*
0 $1 Rounding radius*
0 $2 $3 $4 $5 $6 $7 $8 $9 X,Y pos of 4 corners*
0 Add a 4 corners polygon primitive as box body*
4,1,4,$2,$3,$4,$5,$6,$7,$8,$9,$2,$3,0*
0 Add four circle primitives for the rounded corners*
1,1,$1+$1,$2,$3*
1,1,$1+$1,$4,$5*
1,1,$1+$1,$6,$7*
1,1,$1+$1,$8,$9*
0 Add four rect primitives between the rounded corners*
20,1,$1+$1,$2,$3,$4,$5,0*
20,1,$1+$1,$4,$5,$6,$7,0*
20,1,$1+$1,$6,$7,$8,$9,0*
20,1,$1+$1,$8,$9,$2,$3,0*%
%AMOutline4P*
0 Free polygon, 4 corners , with rotation*
0 The origin of the aperture is its center*
0 number of corners: always 4*
0 $1 to $8 corner X, Y*
0 $9 Rotation angle, in degrees counterclockwise*
0 create outline with 4 corners*
4,1,4,$1,$2,$3,$4,$5,$6,$7,$8,$1,$2,$9*%
G04 Aperture macros list end*
%TA.AperFunction,SMDPad,CuDef*%
%ADD10RoundRect,0.250000X-0.350000X-0.450000X0.350000X-0.450000X0.350000X0.450000X-0.350000X0.450000X0*%
%TD*%
%TA.AperFunction,SMDPad,CuDef*%
%ADD11RoundRect,0.250000X-0.300000X2.050000X-0.300000X-2.050000X0.300000X-2.050000X0.300000X2.050000X0*%
%TD*%
%TA.AperFunction,SMDPad,CuDef*%
%ADD12RoundRect,0.250002X-5.149998X4.449998X-5.149998X-4.449998X5.149998X-4.449998X5.149998X4.449998X0*%
%TD*%
%TA.AperFunction,SMDPad,CuDef*%
%ADD13RoundRect,0.250000X-0.450000X0.350000X-0.450000X-0.350000X0.450000X-0.350000X0.450000X0.350000X0*%
%TD*%
%TA.AperFunction,SMDPad,CuDef*%
%ADD14RoundRect,0.250000X0.450000X-0.350000X0.450000X0.350000X-0.450000X0.350000X-0.450000X-0.350000X0*%
%TD*%
%TA.AperFunction,ComponentPad*%
%ADD15RoundRect,0.250000X-0.550000X0.550000X-0.550000X-0.550000X0.550000X-0.550000X0.550000X0.550000X0*%
%TD*%
%TA.AperFunction,ComponentPad*%
%ADD16C,1.600000*%
%TD*%
%TA.AperFunction,SMDPad,CuDef*%
%ADD17Outline4P,-2.150000X-1.800000X2.150000X-0.800000X2.150000X0.800000X-2.150000X1.800000X270.000000*%
%TD*%
%TA.AperFunction,SMDPad,CuDef*%
%ADD18Outline4P,-2.150000X-1.800000X2.150000X-0.800000X2.150000X0.800000X-2.150000X1.800000X90.000000*%
%TD*%
%TA.AperFunction,SMDPad,CuDef*%
%ADD19RoundRect,0.250000X0.350000X0.450000X-0.350000X0.450000X-0.350000X-0.450000X0.350000X-0.450000X0*%
%TD*%
%TA.AperFunction,ComponentPad*%
%ADD20C,2.499360*%
%TD*%
%TA.AperFunction,ComponentPad*%
%ADD21C,4.200000*%
%TD*%
%TA.AperFunction,ComponentPad*%
%ADD22C,8.000000*%
%TD*%
%TA.AperFunction,ComponentPad*%
%ADD23RoundRect,0.250001X-0.949999X0.949999X-0.949999X-0.949999X0.949999X-0.949999X0.949999X0.949999X0*%
%TD*%
%TA.AperFunction,ComponentPad*%
%ADD24C,2.400000*%
%TD*%
%TA.AperFunction,ComponentPad*%
%ADD25C,4.000500*%
%TD*%
%TA.AperFunction,ComponentPad*%
%ADD26RoundRect,0.250000X0.550000X-0.550000X0.550000X0.550000X-0.550000X0.550000X-0.550000X-0.550000X0*%
%TD*%
%TA.AperFunction,ComponentPad*%
%ADD27R,5.000000X3.000000*%
%TD*%
%TA.AperFunction,ComponentPad*%
%ADD28O,5.000000X3.000000*%
%TD*%
%TA.AperFunction,SMDPad,CuDef*%
%ADD29RoundRect,0.250000X0.300000X-2.050000X0.300000X2.050000X-0.300000X2.050000X-0.300000X-2.050000X0*%
%TD*%
%TA.AperFunction,SMDPad,CuDef*%
%ADD30RoundRect,0.250002X5.149998X-4.449998X5.149998X4.449998X-5.149998X4.449998X-5.149998X-4.449998X0*%
%TD*%
%TA.AperFunction,ComponentPad*%
%ADD31R,5.000000X2.999999*%
%TD*%
%TA.AperFunction,ComponentPad*%
%ADD32O,5.000000X2.999999*%
%TD*%
%TA.AperFunction,ViaPad*%
%ADD33C,0.800000*%
%TD*%
%TA.AperFunction,Conductor*%
%ADD34C,1.600000*%
%TD*%
%TA.AperFunction,Conductor*%
%ADD35C,0.800000*%
%TD*%
%TA.AperFunction,Conductor*%
%ADD36C,0.700000*%
%TD*%
%TA.AperFunction,Conductor*%
%ADD37C,1.200000*%
%TD*%
G04 APERTURE END LIST*
D10*
%TO.P,R4,1*%
%TO.N,Net-(U1-FB)*%
X60500000Y-62500000D03*
%TO.P,R4,2*%
%TO.N,GND*%
X62500000Y-62500000D03*
%TD*%
D11*
%TO.P,U2,1,VIN*%
%TO.N,/DCDC3612/+36V*%
X56900000Y-103350000D03*
%TO.P,U2,2,OUT*%
%TO.N,Net-(D2-K)*%
X55200000Y-103350000D03*
%TO.P,U2,3,GND*%
%TO.N,GND*%
X53500000Y-103350000D03*
D12*
X53500000Y-112500000D03*
D11*
%TO.P,U2,4,FB*%
%TO.N,Net-(U2-FB)*%
X51800000Y-103350000D03*
%TO.P,U2,5,~{ON}/OFF*%
%TO.N,GND*%
X50100000Y-103350000D03*
%TD*%
D10*
%TO.P,R1,1*%
%TO.N,Net-(U2-FB)*%
X64500000Y-84500000D03*
%TO.P,R1,2*%
%TO.N,GND*%
X66500000Y-84500000D03*
%TD*%
D13*
%TO.P,R7,1*%
%TO.N,/DCDC365/+5V*%
X81000000Y-64500000D03*
%TO.P,R7,2*%
%TO.N,/+5V*%
X81000000Y-66500000D03*
%TD*%
D14*
%TO.P,R6,1*%
%TO.N,/DCDC3612/+12V*%
X93500000Y-96000000D03*
%TO.P,R6,2*%
%TO.N,/+12V*%
X93500000Y-94000000D03*
%TD*%
D15*
%TO.P,Cout1,1*%
%TO.N,/DCDC3612/+12V*%
X78500000Y-121500000D03*
D16*
%TO.P,Cout1,2*%
%TO.N,GND*%
X78500000Y-125000000D03*
%TD*%
D17*
%TO.P,D1,1,K*%
%TO.N,Net-(D1-K)*%
X89500000Y-45100000D03*
D18*
%TO.P,D1,2,A*%
%TO.N,GND*%
X89500000Y-51500000D03*
%TD*%
D19*
%TO.P,R3,1*%
%TO.N,/DCDC365/+5V*%
X62500000Y-66000000D03*
%TO.P,R3,2*%
%TO.N,Net-(U1-FB)*%
X60500000Y-66000000D03*
%TD*%
D14*
%TO.P,R5,1*%
%TO.N,+36V*%
X57500000Y-70500000D03*
%TO.P,R5,2*%
%TO.N,/DCDC365/+36V*%
X57500000Y-68500000D03*
%TD*%
D19*
%TO.P,R2,1*%
%TO.N,/DCDC3612/+12V*%
X66500000Y-88000000D03*
%TO.P,R2,2*%
%TO.N,Net-(U2-FB)*%
X64500000Y-88000000D03*
%TD*%
D20*
%TO.P,5V,1,1*%
%TO.N,/+5V*%
X79500000Y-77000000D03*
%TD*%
D21*
%TO.P,L2,1,1*%
%TO.N,Net-(D2-K)*%
X64650000Y-104000000D03*
%TO.P,L2,2,2*%
%TO.N,/DCDC3612/+12V*%
X88350000Y-104000000D03*
%TD*%
D22*
%TO.P,H1,1*%
%TO.N,N/C*%
X52500000Y-124000000D03*
%TD*%
D23*
%TO.P,Cout2,1*%
%TO.N,/DCDC365/+5V*%
X71000000Y-65676041D03*
D24*
%TO.P,Cout2,2*%
%TO.N,GND*%
X71000000Y-70676041D03*
%TD*%
D22*
%TO.P,H4,1*%
%TO.N,N/C*%
X52500000Y-36000000D03*
%TD*%
D13*
%TO.P,R0,1*%
%TO.N,+36V*%
X49500000Y-95000000D03*
%TO.P,R0,2*%
%TO.N,/DCDC3612/+36V*%
X49500000Y-97000000D03*
%TD*%
D20*
%TO.P,12V,1,1*%
%TO.N,/+12V*%
X79000000Y-88000000D03*
%TD*%
D22*
%TO.P,H2,1*%
%TO.N,N/C*%
X90500000Y-124000000D03*
%TD*%
D20*
%TO.P,Out 5V,1,1*%
%TO.N,/DCDC365/+5V*%
X90500000Y-57000000D03*
%TD*%
D25*
%TO.P,TP1,1,1*%
%TO.N,GND*%
X65000000Y-123500000D03*
%TD*%
D26*
%TO.P,Cin1,1*%
%TO.N,/DCDC3612/+36V*%
X57000000Y-97152651D03*
D16*
%TO.P,Cin1,2*%
%TO.N,GND*%
X57000000Y-93652651D03*
%TD*%
D27*
%TO.P,J1,1,Pin_1*%
%TO.N,GND*%
X53500000Y-76340000D03*
D28*
%TO.P,J1,2,Pin_2*%
%TO.N,+36V*%
X53500000Y-81420000D03*
%TO.P,J1,3,Pin_3*%
%TO.N,GND*%
X53500000Y-86500000D03*
%TD*%
D29*
%TO.P,U1,1,VIN*%
%TO.N,/DCDC365/+36V*%
X49600000Y-56122349D03*
%TO.P,U1,2,OUT*%
%TO.N,Net-(D1-K)*%
X51300000Y-56122349D03*
%TO.P,U1,3,GND*%
%TO.N,GND*%
X53000000Y-56122349D03*
D30*
X53000000Y-46972349D03*
D29*
%TO.P,U1,4,FB*%
%TO.N,Net-(U1-FB)*%
X54700000Y-56122349D03*
%TO.P,U1,5,~{ON}/OFF*%
%TO.N,GND*%
X56400000Y-56122349D03*
%TD*%
D22*
%TO.P,H3,1*%
%TO.N,N/C*%
X90500000Y-36000000D03*
%TD*%
D31*
%TO.P,J2,1,Pin_1*%
%TO.N,/+12V*%
X90000000Y-87580000D03*
D32*
%TO.P,J2,2,Pin_2*%
%TO.N,GND*%
X90000000Y-82500000D03*
%TO.P,J2,3,Pin_3*%
%TO.N,/+5V*%
X90000000Y-77420000D03*
D28*
%TO.P,J2,4,Pin_4*%
%TO.N,GND*%
X90000000Y-72340000D03*
D32*
%TO.P,J2,5,Pin_5*%
%TO.N,/+5V*%
X90000000Y-67260000D03*
%TO.P,J2,6,Pin_6*%
%TO.N,GND*%
X90000000Y-62180000D03*
%TD*%
D18*
%TO.P,D2,1,K*%
%TO.N,Net-(D2-K)*%
X73500000Y-87200000D03*
D17*
%TO.P,D2,2,A*%
%TO.N,GND*%
X73500000Y-80800000D03*
%TD*%
D15*
%TO.P,Cin2,1*%
%TO.N,/DCDC365/+36V*%
X51500000Y-62347349D03*
D16*
%TO.P,Cin2,2*%
%TO.N,GND*%
X51500000Y-65847349D03*
%TD*%
D20*
%TO.P,TP4,1,1*%
%TO.N,+36V*%
X50000000Y-71000000D03*
%TD*%
D21*
%TO.P,L1,1,1*%
%TO.N,Net-(D1-K)*%
X72000000Y-34300000D03*
%TO.P,L1,2,2*%
%TO.N,/DCDC365/+5V*%
X72000000Y-58000000D03*
%TD*%
D20*
%TO.P,Out 12V,1,1*%
%TO.N,/DCDC3612/+12V*%
X93500000Y-100500000D03*
%TD*%
D33*
%TO.N,GND*%
X51500000Y-113500000D03*
X58000000Y-55000000D03*
X87000000Y-50500000D03*
X55500000Y-113000000D03*
X67500000Y-82500000D03*
X48500000Y-106000000D03*
X51500000Y-52500000D03*
X73000000Y-78000000D03*
X52000000Y-46500000D03*
X86500000Y-52500000D03*
X64000000Y-62000000D03*
X54000000Y-46000000D03*
X55000000Y-107000000D03*
X74500000Y-78000000D03*
%TO.N,Net-(D2-K)*%
X72500000Y-92000000D03*
X68000000Y-96500000D03*
X71000000Y-92000000D03*
X69000000Y-97000000D03*
%TO.N,Net-(U2-FB)*%
X59000000Y-99000000D03*
X54500000Y-100000000D03*
%TO.N,Net-(U1-FB)*%
X59000000Y-62500000D03*
X55750000Y-59750000D03*
%TD*%
D34*
%TO.N,/DCDC3612/+36V*%
X49500000Y-97000000D02*
X56847349Y-97000000D01*
X56847349Y-97000000D02*
X57000000Y-97152651D01*
X57000000Y-97152651D02*
X57000000Y-103250000D01*
X57000000Y-103250000D02*
X56900000Y-103350000D01*
D35*
%TO.N,GND*%
X87500000Y-51500000D02*
X86500000Y-52500000D01*
X73500000Y-80800000D02*
X73500000Y-79000000D01*
X53000000Y-46972349D02*
X52472349Y-46972349D01*
X50100000Y-109100000D02*
X53500000Y-112500000D01*
X62500000Y-62500000D02*
X63500000Y-62500000D01*
X53000000Y-54000000D02*
X51500000Y-52500000D01*
X55000000Y-112500000D02*
X55500000Y-113000000D01*
X63500000Y-62500000D02*
X64000000Y-62000000D01*
X56400000Y-56122349D02*
X56400000Y-50372349D01*
X50100000Y-103350000D02*
X50100000Y-104400000D01*
X53500000Y-105500000D02*
X55000000Y-107000000D01*
X89500000Y-51500000D02*
X88000000Y-51500000D01*
X56877651Y-56122349D02*
X58000000Y-55000000D01*
X53500000Y-112500000D02*
X52500000Y-112500000D01*
X53500000Y-112500000D02*
X53500000Y-103350000D01*
X66500000Y-83500000D02*
X67500000Y-82500000D01*
X66500000Y-84500000D02*
X66500000Y-83500000D01*
X73500000Y-79000000D02*
X74500000Y-78000000D01*
X53000000Y-46972349D02*
X53027651Y-46972349D01*
X73500000Y-78500000D02*
X73000000Y-78000000D01*
X52500000Y-112500000D02*
X51500000Y-113500000D01*
X73500000Y-80800000D02*
X73500000Y-78500000D01*
X53027651Y-46972349D02*
X54000000Y-46000000D01*
X53000000Y-56122349D02*
X53000000Y-46972349D01*
X53500000Y-103350000D02*
X53500000Y-105500000D01*
X50100000Y-104400000D02*
X48500000Y-106000000D01*
X88000000Y-51500000D02*
X87000000Y-50500000D01*
X53000000Y-56122349D02*
X53000000Y-54000000D01*
X56400000Y-56122349D02*
X56877651Y-56122349D01*
X53500000Y-112500000D02*
X55000000Y-112500000D01*
X50100000Y-103350000D02*
X50100000Y-109100000D01*
X56400000Y-50372349D02*
X53000000Y-46972349D01*
X89500000Y-51500000D02*
X87500000Y-51500000D01*
X52472349Y-46972349D02*
X52000000Y-46500000D01*
D36*
%TO.N,Net-(D2-K)*%
X72500000Y-92000000D02*
X72500000Y-91000000D01*
X69000000Y-99650000D02*
X69000000Y-97000000D01*
X62449000Y-106201000D02*
X56201000Y-106201000D01*
X55200000Y-105200000D02*
X55200000Y-103350000D01*
X71000000Y-92000000D02*
X71500000Y-92000000D01*
X64650000Y-104000000D02*
X69000000Y-99650000D01*
X69000000Y-97000000D02*
X68500000Y-97000000D01*
X64650000Y-104000000D02*
X62449000Y-106201000D01*
X71500000Y-92000000D02*
X72500000Y-91000000D01*
X68500000Y-97000000D02*
X68000000Y-96500000D01*
X72500000Y-88200000D02*
X73500000Y-87200000D01*
X56201000Y-106201000D02*
X55200000Y-105200000D01*
X72500000Y-91000000D02*
X72500000Y-88200000D01*
%TO.N,Net-(U2-FB)*%
X51800000Y-101560288D02*
X51800000Y-103350000D01*
X64500000Y-93500000D02*
X59000000Y-99000000D01*
X64500000Y-84500000D02*
X64500000Y-88000000D01*
X53360288Y-100000000D02*
X51800000Y-101560288D01*
X64500000Y-88000000D02*
X64500000Y-93500000D01*
X54500000Y-100000000D02*
X53360288Y-100000000D01*
D34*
%TO.N,/DCDC365/+36V*%
X49600000Y-60447349D02*
X49600000Y-56122349D01*
X57500000Y-68347349D02*
X51500000Y-62347349D01*
X57500000Y-68500000D02*
X57500000Y-68347349D01*
X51500000Y-62347349D02*
X49600000Y-60447349D01*
D36*
%TO.N,/DCDC3612/+12V*%
X78500000Y-106000000D02*
X78500000Y-121500000D01*
X80500000Y-104000000D02*
X78500000Y-106000000D01*
X88350000Y-104000000D02*
X90000000Y-104000000D01*
X66500000Y-88000000D02*
X66500000Y-90000000D01*
X80500000Y-104000000D02*
X88350000Y-104000000D01*
X90000000Y-104000000D02*
X93500000Y-100500000D01*
X93500000Y-100500000D02*
X93500000Y-96000000D01*
X66500000Y-90000000D02*
X80500000Y-104000000D01*
D37*
%TO.N,/DCDC365/+5V*%
X72176041Y-64500000D02*
X71000000Y-65676041D01*
X62823959Y-65676041D02*
X62500000Y-66000000D01*
X71000000Y-65676041D02*
X62823959Y-65676041D01*
X72000000Y-64676041D02*
X71000000Y-65676041D01*
X81000000Y-64500000D02*
X72176041Y-64500000D01*
X83000000Y-64500000D02*
X90500000Y-57000000D01*
X81000000Y-64500000D02*
X83000000Y-64500000D01*
X72000000Y-58000000D02*
X72000000Y-64676041D01*
D36*
%TO.N,Net-(D1-K)*%
X51300000Y-58300000D02*
X51300000Y-56122349D01*
X82800000Y-45100000D02*
X72000000Y-34300000D01*
X89500000Y-45100000D02*
X82800000Y-45100000D01*
X57000000Y-61500000D02*
X54500000Y-61500000D01*
X54500000Y-61500000D02*
X51300000Y-58300000D01*
X72000000Y-34300000D02*
X72000000Y-46500000D01*
X72000000Y-46500000D02*
X57000000Y-61500000D01*
%TO.N,Net-(U1-FB)*%
X54700000Y-58700000D02*
X54700000Y-56122349D01*
X60500000Y-62500000D02*
X60500000Y-66000000D01*
X55750000Y-59750000D02*
X54700000Y-58700000D01*
X60500000Y-62500000D02*
X59000000Y-62500000D01*
%TD*%
%TA.AperFunction,Conductor*%
%TO.N,/+5V*%
G36*
X96242539Y-30220185D02*
G01*
X96288294Y-30272989D01*
X96299500Y-30324500D01*
X96299500Y-78862500D01*
X96279815Y-78929539D01*
X96227011Y-78975294D01*
X96175500Y-78986500D01*
X92561289Y-78986500D01*
X92494250Y-78966815D01*
X92448495Y-78914011D01*
X92438551Y-78844853D01*
X92467576Y-78781297D01*
X92473608Y-78774819D01*
X92506901Y-78741525D01*
X92506907Y-78741518D01*
X92666500Y-78533532D01*
X92666511Y-78533516D01*
X92797590Y-78306482D01*
X92797595Y-78306471D01*
X92897924Y-78064255D01*
X92965778Y-77811016D01*
X92984345Y-77670000D01*
X90654121Y-77670000D01*
X90673099Y-77624182D01*
X90700000Y-77488944D01*
X90700000Y-77351056D01*
X90673099Y-77215818D01*
X90654121Y-77170000D01*
X92984345Y-77170000D01*
X92984345Y-77169999D01*
X92965778Y-77028983D01*
X92897924Y-76775744D01*
X92797595Y-76533528D01*
X92797590Y-76533517D01*
X92666511Y-76306483D01*
X92666500Y-76306467D01*
X92506907Y-76098481D01*
X92506901Y-76098474D01*
X92321526Y-75913099D01*
X92321519Y-75913093D01*
X92113533Y-75753500D01*
X92113517Y-75753489D01*
X91886483Y-75622410D01*
X91886472Y-75622405D01*
X91644256Y-75522076D01*
X91391021Y-75454223D01*
X91391010Y-75454221D01*
X91131095Y-75420001D01*
X90250000Y-75420001D01*
X90250000Y-76765879D01*
X90204182Y-76746901D01*
X90068944Y-76720000D01*
X89931056Y-76720000D01*
X89795818Y-76746901D01*
X89750000Y-76765879D01*
X89750000Y-75420001D01*
X88868904Y-75420001D01*
X88608989Y-75454221D01*
X88608978Y-75454223D01*
X88355743Y-75522076D01*
X88113527Y-75622405D01*
X88113516Y-75622410D01*
X87886482Y-75753489D01*
X87886466Y-75753500D01*
X87678480Y-75913093D01*
X87678473Y-75913099D01*
X87493098Y-76098474D01*
X87493092Y-76098481D01*
X87333499Y-76306467D01*
X87333488Y-76306483D01*
X87202409Y-76533517D01*
X87202404Y-76533528D01*
X87102075Y-76775744D01*
X87034221Y-77028983D01*
X87015654Y-77169999D01*
X87015655Y-77170000D01*
X89345879Y-77170000D01*
X89326901Y-77215818D01*
X89300000Y-77351056D01*
X89300000Y-77488944D01*
X89326901Y-77624182D01*
X89345879Y-77670000D01*
X87015655Y-77670000D01*
X87034221Y-77811016D01*
X87102075Y-78064255D01*
X87202404Y-78306471D01*
X87202409Y-78306482D01*
X87333488Y-78533516D01*
X87333499Y-78533532D01*
X87493092Y-78741518D01*
X87493098Y-78741525D01*
X87526392Y-78774819D01*
X87559877Y-78836142D01*
X87554893Y-78905834D01*
X87513021Y-78961767D01*
X87447557Y-78986184D01*
X87438711Y-78986500D01*
X79707726Y-78986500D01*
X79640687Y-78966815D01*
X79594932Y-78914011D01*
X79584988Y-78844853D01*
X79614013Y-78781297D01*
X79672791Y-78743523D01*
X79691540Y-78739561D01*
X79842074Y-78719742D01*
X80063627Y-78660377D01*
X80275517Y-78572609D01*
X80275526Y-78572605D01*
X80474152Y-78457928D01*
X80547835Y-78401388D01*
X80547835Y-78401387D01*
X79629720Y-77483273D01*
X79693140Y-77466280D01*
X79807241Y-77400404D01*
X79900404Y-77307241D01*
X79966280Y-77193140D01*
X79983273Y-77129720D01*
X80901387Y-78047835D01*
X80901388Y-78047835D01*
X80957928Y-77974152D01*
X81072605Y-77775526D01*
X81072609Y-77775517D01*
X81160377Y-77563627D01*
X81219742Y-77342074D01*
X81239325Y-77193332D01*
X81239325Y-77193331D01*
X81249679Y-77114687D01*
X81249680Y-77114673D01*
X81249680Y-76885326D01*
X81249679Y-76885312D01*
X81219742Y-76657925D01*
X81160377Y-76436372D01*
X81072609Y-76224482D01*
X81072605Y-76224473D01*
X80957930Y-76025850D01*
X80957919Y-76025833D01*
X80901389Y-75952163D01*
X80901387Y-75952163D01*
X79983272Y-76870278D01*
X79966280Y-76806860D01*
X79900404Y-76692759D01*
X79807241Y-76599596D01*
X79693140Y-76533720D01*
X79629718Y-76516726D01*
X80547835Y-75598610D01*
X80474156Y-75542074D01*
X80474149Y-75542069D01*
X80275526Y-75427394D01*
X80275517Y-75427390D01*
X80063627Y-75339622D01*
X79842074Y-75280257D01*
X79614687Y-75250320D01*
X79385312Y-75250320D01*
X79157925Y-75280257D01*
X78936372Y-75339622D01*
X78724482Y-75427390D01*
X78724472Y-75427394D01*
X78525844Y-75542072D01*
X78452163Y-75598609D01*
X78452163Y-75598610D01*
X79370279Y-76516726D01*
X79306860Y-76533720D01*
X79192759Y-76599596D01*
X79099596Y-76692759D01*
X79033720Y-76806860D01*
X79016726Y-76870279D01*
X78098610Y-75952163D01*
X78098609Y-75952163D01*
X78042072Y-76025844D01*
X77927394Y-76224472D01*
X77927390Y-76224482D01*
X77839622Y-76436372D01*
X77780257Y-76657925D01*
X77750320Y-76885312D01*
X77750320Y-77114687D01*
X77780257Y-77342074D01*
X77839622Y-77563627D01*
X77927390Y-77775517D01*
X77927394Y-77775526D01*
X78042069Y-77974149D01*
X78042074Y-77974156D01*
X78098610Y-78047835D01*
X79016726Y-77129719D01*
X79033720Y-77193140D01*
X79099596Y-77307241D01*
X79192759Y-77400404D01*
X79306860Y-77466280D01*
X79370279Y-77483273D01*
X78452163Y-78401387D01*
X78452163Y-78401389D01*
X78525833Y-78457919D01*
X78525850Y-78457930D01*
X78724473Y-78572605D01*
X78724482Y-78572609D01*
X78936372Y-78660377D01*
X79157925Y-78719742D01*
X79308460Y-78739561D01*
X79372356Y-78767828D01*
X79410827Y-78826152D01*
X79411658Y-78896017D01*
X79374586Y-78955240D01*
X79311380Y-78985019D01*
X79292274Y-78986500D01*
X75899960Y-78986500D01*
X75832921Y-78966815D01*
X75787166Y-78914011D01*
X75777222Y-78844853D01*
X75779180Y-78834425D01*
X75808008Y-78710468D01*
X75813257Y-78672006D01*
X75798667Y-78526513D01*
X75770827Y-78457919D01*
X75743679Y-78391028D01*
X75743674Y-78391020D01*
X75652744Y-78276518D01*
X75652742Y-78276516D01*
X75533232Y-78192266D01*
X75492498Y-78178384D01*
X75435393Y-78138125D01*
X75409119Y-78073383D01*
X75408500Y-78061013D01*
X75408500Y-77910520D01*
X75408499Y-77910516D01*
X75381646Y-77775517D01*
X75373587Y-77735000D01*
X75344343Y-77664399D01*
X75305103Y-77569664D01*
X75305101Y-77569662D01*
X75305101Y-77569660D01*
X75205678Y-77420864D01*
X75205675Y-77420860D01*
X75079139Y-77294324D01*
X75079135Y-77294321D01*
X74930342Y-77194900D01*
X74930329Y-77194893D01*
X74765004Y-77126414D01*
X74764992Y-77126411D01*
X74589484Y-77091500D01*
X74589480Y-77091500D01*
X74589479Y-77091500D01*
X74410521Y-77091500D01*
X74410516Y-77091500D01*
X74235006Y-77126411D01*
X74234993Y-77126415D01*
X74201842Y-77140146D01*
X74186574Y-77146471D01*
X74069668Y-77194894D01*
X74069666Y-77194895D01*
X73920865Y-77294321D01*
X73920861Y-77294324D01*
X73837681Y-77377505D01*
X73776358Y-77410990D01*
X73706666Y-77406006D01*
X73662319Y-77377505D01*
X73579138Y-77294324D01*
X73579134Y-77294321D01*
X73430342Y-77194900D01*
X73430329Y-77194893D01*
X73265001Y-77126413D01*
X73264992Y-77126410D01*
X73089483Y-77091500D01*
X73089479Y-77091500D01*
X72910521Y-77091500D01*
X72910516Y-77091500D01*
X72735007Y-77126410D01*
X72734998Y-77126413D01*
X72569670Y-77194893D01*
X72569657Y-77194900D01*
X72420865Y-77294321D01*
X72420861Y-77294324D01*
X72294324Y-77420861D01*
X72294321Y-77420865D01*
X72227102Y-77521465D01*
X72173489Y-77566270D01*
X72104164Y-77574977D01*
X72041137Y-77544822D01*
X72004418Y-77485379D01*
X72000000Y-77452574D01*
X72000000Y-72208362D01*
X86991500Y-72208362D01*
X86991500Y-72471637D01*
X86991501Y-72471653D01*
X87025865Y-72732678D01*
X87094009Y-72986995D01*
X87194761Y-73230234D01*
X87194769Y-73230250D01*
X87326409Y-73458256D01*
X87486687Y-73667136D01*
X87486693Y-73667143D01*
X87672856Y-73853306D01*
X87672863Y-73853312D01*
X87881743Y-74013590D01*
X88109749Y-74145230D01*
X88109765Y-74145238D01*
X88261451Y-74208068D01*
X88353003Y-74245990D01*
X88607320Y-74314134D01*
X88868356Y-74348500D01*
X88868363Y-74348500D01*
X91131637Y-74348500D01*
X91131644Y-74348500D01*
X91392680Y-74314134D01*
X91646997Y-74245990D01*
X91830099Y-74170146D01*
X91890234Y-74145238D01*
X91890237Y-74145236D01*
X91890243Y-74145234D01*
X92118257Y-74013590D01*
X92327138Y-73853311D01*
X92513311Y-73667138D01*
X92673590Y-73458257D01*
X92805234Y-73230243D01*
X92905990Y-72986997D01*
X92974134Y-72732680D01*
X93008500Y-72471644D01*
X93008500Y-72208356D01*
X92974134Y-71947320D01*
X92905990Y-71693003D01*
X92868068Y-71601451D01*
X92805238Y-71449765D01*
X92805230Y-71449749D01*
X92673590Y-71221743D01*
X92513312Y-71012863D01*
X92513306Y-71012856D01*
X92327143Y-70826693D01*
X92327136Y-70826687D01*
X92118256Y-70666409D01*
X91890250Y-70534769D01*
X91890234Y-70534761D01*
X91646995Y-70434009D01*
X91392678Y-70365865D01*
X91131653Y-70331501D01*
X91131650Y-70331500D01*
X91131644Y-70331500D01*
X88868356Y-70331500D01*
X88868350Y-70331500D01*
X88868346Y-70331501D01*
X88607321Y-70365865D01*
X88353004Y-70434009D01*
X88109765Y-70534761D01*
X88109749Y-70534769D01*
X87881743Y-70666409D01*
X87672863Y-70826687D01*
X87672856Y-70826693D01*
X87486693Y-71012856D01*
X87486687Y-71012863D01*
X87326409Y-71221743D01*
X87194769Y-71449749D01*
X87194761Y-71449765D01*
X87094009Y-71693004D01*
X87025865Y-71947321D01*
X86991501Y-72208346D01*
X86991500Y-72208362D01*
X72000000Y-72208362D01*
X72000000Y-72123381D01*
X72019685Y-72056342D01*
X72048514Y-72025005D01*
X72128909Y-71963316D01*
X72287275Y-71804950D01*
X72423614Y-71627269D01*
X72535595Y-71433313D01*
X72621302Y-71226399D01*
X72679267Y-71010068D01*
X72708500Y-70788022D01*
X72708500Y-70564060D01*
X72679267Y-70342014D01*
X72621302Y-70125683D01*
X72535595Y-69918769D01*
X72535593Y-69918766D01*
X72535591Y-69918761D01*
X72423618Y-69724820D01*
X72423614Y-69724813D01*
X72287275Y-69547132D01*
X72287270Y-69547126D01*
X72128918Y-69388774D01*
X72128909Y-69388766D01*
X72048513Y-69327075D01*
X72007310Y-69270647D01*
X72000000Y-69228700D01*
X72000000Y-67496547D01*
X72019685Y-67429508D01*
X72072489Y-67383753D01*
X72098046Y-67375293D01*
X72104415Y-67373928D01*
X72104425Y-67373928D01*
X72272738Y-67318156D01*
X72423651Y-67225071D01*
X72549030Y-67099692D01*
X72642115Y-66948779D01*
X72658283Y-66899986D01*
X79800001Y-66899986D01*
X79810494Y-67002697D01*
X79865641Y-67169119D01*
X79865643Y-67169124D01*
X79957684Y-67318345D01*
X80081654Y-67442315D01*
X80230875Y-67534356D01*
X80230880Y-67534358D01*
X80397302Y-67589505D01*
X80397309Y-67589506D01*
X80500019Y-67599999D01*
X80749999Y-67599999D01*
X81250000Y-67599999D01*
X81499972Y-67599999D01*
X81499986Y-67599998D01*
X81602697Y-67589505D01*
X81769119Y-67534358D01*
X81769124Y-67534356D01*
X81918345Y-67442315D01*
X81977859Y-67382802D01*
X82042315Y-67318345D01*
X82134356Y-67169124D01*
X82134358Y-67169119D01*
X82186915Y-67010513D01*
X82186916Y-67010511D01*
X82187086Y-67009999D01*
X87015654Y-67009999D01*
X87015655Y-67010000D01*
X89345879Y-67010000D01*
X89326901Y-67055818D01*
X89300000Y-67191056D01*
X89300000Y-67328944D01*
X89326901Y-67464182D01*
X89345879Y-67510000D01*
X87015655Y-67510000D01*
X87034221Y-67651016D01*
X87102075Y-67904255D01*
X87202404Y-68146471D01*
X87202409Y-68146482D01*
X87333488Y-68373516D01*
X87333499Y-68373532D01*
X87493092Y-68581518D01*
X87493098Y-68581525D01*
X87678473Y-68766900D01*
X87678480Y-68766906D01*
X87886466Y-68926499D01*
X87886482Y-68926510D01*
X88113516Y-69057589D01*
X88113527Y-69057594D01*
X88355743Y-69157923D01*
X88608978Y-69225776D01*
X88608989Y-69225778D01*
X88868904Y-69259998D01*
X88868919Y-69259999D01*
X89750000Y-69259999D01*
X89750000Y-67914120D01*
X89795818Y-67933099D01*
X89931056Y-67960000D01*
X90068944Y-67960000D01*
X90204182Y-67933099D01*
X90250000Y-67914120D01*
X90250000Y-69259999D01*
X91131081Y-69259999D01*
X91131095Y-69259998D01*
X91391010Y-69225778D01*
X91391021Y-69225776D01*
X91644256Y-69157923D01*
X91886472Y-69057594D01*
X91886483Y-69057589D01*
X92113517Y-68926510D01*
X92113533Y-68926499D01*
X92321519Y-68766906D01*
X92321526Y-68766900D01*
X92506901Y-68581525D01*
X92506907Y-68581518D01*
X92666500Y-68373532D01*
X92666511Y-68373516D01*
X92797590Y-68146482D01*
X92797595Y-68146471D01*
X92897924Y-67904255D01*
X92965778Y-67651016D01*
X92984345Y-67510000D01*
X90654121Y-67510000D01*
X90673099Y-67464182D01*
X90700000Y-67328944D01*
X90700000Y-67191056D01*
X90673099Y-67055818D01*
X90654121Y-67010000D01*
X92984345Y-67010000D01*
X92984345Y-67009999D01*
X92965778Y-66868983D01*
X92897924Y-66615744D01*
X92797595Y-66373528D01*
X92797590Y-66373517D01*
X92666511Y-66146483D01*
X92666500Y-66146467D01*
X92506907Y-65938481D01*
X92506901Y-65938474D01*
X92321526Y-65753099D01*
X92321519Y-65753093D01*
X92113533Y-65593500D01*
X92113517Y-65593489D01*
X91886483Y-65462410D01*
X91886472Y-65462405D01*
X91644256Y-65362076D01*
X91391021Y-65294223D01*
X91391010Y-65294221D01*
X91131095Y-65260001D01*
X90250000Y-65260001D01*
X90250000Y-66605879D01*
X90204182Y-66586901D01*
X90068944Y-66560000D01*
X89931056Y-66560000D01*
X89795818Y-66586901D01*
X89750000Y-66605879D01*
X89750000Y-65260001D01*
X88868904Y-65260001D01*
X88608989Y-65294221D01*
X88608978Y-65294223D01*
X88355743Y-65362076D01*
X88113527Y-65462405D01*
X88113516Y-65462410D01*
X87886482Y-65593489D01*
X87886466Y-65593500D01*
X87678480Y-65753093D01*
X87678473Y-65753099D01*
X87493098Y-65938474D01*
X87493092Y-65938481D01*
X87333499Y-66146467D01*
X87333488Y-66146483D01*
X87202409Y-66373517D01*
X87202404Y-66373528D01*
X87102075Y-66615744D01*
X87034221Y-66868983D01*
X87015654Y-67009999D01*
X82187086Y-67009999D01*
X82189504Y-67002699D01*
X82189506Y-67002690D01*
X82199999Y-66899986D01*
X82200000Y-66899973D01*
X82200000Y-66750000D01*
X81250000Y-66750000D01*
X81250000Y-67599999D01*
X80749999Y-67599999D01*
X80750000Y-67599998D01*
X80750000Y-66750000D01*
X79800001Y-66750000D01*
X79800001Y-66899986D01*
X72658283Y-66899986D01*
X72697887Y-66780466D01*
X72708500Y-66676585D01*
X72708500Y-65732500D01*
X72728185Y-65665461D01*
X72780989Y-65619706D01*
X72832500Y-65608500D01*
X79780631Y-65608500D01*
X79847670Y-65628185D01*
X79893425Y-65680989D01*
X79903369Y-65750147D01*
X79886170Y-65797596D01*
X79865645Y-65830871D01*
X79865641Y-65830880D01*
X79810494Y-65997302D01*
X79810493Y-65997309D01*
X79800000Y-66100013D01*
X79800000Y-66250000D01*
X82199999Y-66250000D01*
X82199999Y-66100028D01*
X82199998Y-66100013D01*
X82189505Y-65997302D01*
X82134358Y-65830880D01*
X82134354Y-65830871D01*
X82113830Y-65797596D01*
X82095390Y-65730204D01*
X82116313Y-65663540D01*
X82169955Y-65618771D01*
X82219369Y-65608500D01*
X83087240Y-65608500D01*
X83087241Y-65608500D01*
X83259574Y-65581205D01*
X83425517Y-65527288D01*
X83425518Y-65527287D01*
X83425522Y-65527286D01*
X83552855Y-65462405D01*
X83580981Y-65448074D01*
X83722139Y-65345517D01*
X86786306Y-62281349D01*
X86847627Y-62247866D01*
X86917319Y-62252850D01*
X86973252Y-62294722D01*
X86996924Y-62352846D01*
X87025865Y-62572677D01*
X87094012Y-62827003D01*
X87194759Y-63070231D01*
X87194765Y-63070243D01*
X87326409Y-63298257D01*
X87486689Y-63507137D01*
X87486693Y-63507142D01*
X87672856Y-63693305D01*
X87672860Y-63693308D01*
X87672862Y-63693310D01*
X87881742Y-63853590D01*
X88109756Y-63985234D01*
X88109761Y-63985236D01*
X88109767Y-63985239D01*
X88352995Y-64085986D01*
X88352997Y-64085986D01*
X88353003Y-64085989D01*
X88607319Y-64154133D01*
X88868355Y-64188499D01*
X88868362Y-64188499D01*
X91131638Y-64188499D01*
X91131645Y-64188499D01*
X91392681Y-64154133D01*
X91646997Y-64085989D01*
X91890244Y-63985234D01*
X92118258Y-63853590D01*
X92327138Y-63693310D01*
X92513311Y-63507137D01*
X92673591Y-63298257D01*
X92805235Y-63070243D01*
X92905990Y-62826996D01*
X92974134Y-62572680D01*
X93008500Y-62311644D01*
X93008500Y-62048356D01*
X92974134Y-61787320D01*
X92905990Y-61533004D01*
X92805235Y-61289757D01*
X92673591Y-61061743D01*
X92513311Y-60852863D01*
X92513309Y-60852861D01*
X92513306Y-60852857D01*
X92327143Y-60666694D01*
X92327138Y-60666690D01*
X92118258Y-60506410D01*
X91890244Y-60374766D01*
X91890232Y-60374760D01*
X91647004Y-60274013D01*
X91392677Y-60205866D01*
X91131654Y-60171502D01*
X91131651Y-60171501D01*
X91131645Y-60171501D01*
X91131638Y-60171501D01*
X89195517Y-60171501D01*
X89128478Y-60151816D01*
X89082723Y-60099012D01*
X89072779Y-60029854D01*
X89101804Y-59966298D01*
X89107836Y-59959820D01*
X89326759Y-59740897D01*
X90274995Y-58792659D01*
X90336316Y-58759176D01*
X90378859Y-58757403D01*
X90380944Y-58757677D01*
X90384763Y-58758180D01*
X90384770Y-58758180D01*
X90615230Y-58758180D01*
X90615237Y-58758180D01*
X90843740Y-58728097D01*
X91066361Y-58668445D01*
X91279291Y-58580247D01*
X91478888Y-58465010D01*
X91661736Y-58324706D01*
X91824706Y-58161736D01*
X91965010Y-57978888D01*
X92080247Y-57779291D01*
X92168445Y-57566361D01*
X92228097Y-57343740D01*
X92258180Y-57115237D01*
X92258180Y-56884763D01*
X92228097Y-56656260D01*
X92168445Y-56433639D01*
X92080247Y-56220709D01*
X91965010Y-56021112D01*
X91848489Y-55869259D01*
X91824707Y-55838265D01*
X91824701Y-55838258D01*
X91661741Y-55675298D01*
X91661734Y-55675292D01*
X91478887Y-55534989D01*
X91279294Y-55419754D01*
X91279284Y-55419750D01*
X91066365Y-55331556D01*
X91019547Y-55319011D01*
X90843740Y-55271903D01*
X90843737Y-55271902D01*
X90843735Y-55271902D01*
X90615246Y-55241821D01*
X90615243Y-55241820D01*
X90615237Y-55241820D01*
X90384763Y-55241820D01*
X90384757Y-55241820D01*
X90384753Y-55241821D01*
X90156264Y-55271902D01*
X89933634Y-55331556D01*
X89720715Y-55419750D01*
X89720705Y-55419754D01*
X89521112Y-55534989D01*
X89338265Y-55675292D01*
X89338258Y-55675298D01*
X89175298Y-55838258D01*
X89175292Y-55838265D01*
X89034989Y-56021112D01*
X88919754Y-56220705D01*
X88919750Y-56220715D01*
X88831556Y-56433634D01*
X88771902Y-56656264D01*
X88741821Y-56884753D01*
X88741820Y-56884769D01*
X88741820Y-57115241D01*
X88742597Y-57121147D01*
X88731826Y-57190182D01*
X88707338Y-57225004D01*
X82577163Y-63355181D01*
X82515840Y-63388666D01*
X82489482Y-63391500D01*
X73232500Y-63391500D01*
X73165461Y-63371815D01*
X73119706Y-63319011D01*
X73108500Y-63267500D01*
X73108500Y-60439305D01*
X73128185Y-60372266D01*
X73178699Y-60327585D01*
X73263763Y-60286620D01*
X73263763Y-60286619D01*
X73263769Y-60286617D01*
X73511842Y-60130742D01*
X73511846Y-60130739D01*
X73740897Y-59948078D01*
X73740899Y-59948075D01*
X73740904Y-59948072D01*
X73948072Y-59740904D01*
X74130742Y-59511842D01*
X74286617Y-59263769D01*
X74413737Y-58999803D01*
X74510502Y-58723263D01*
X74575696Y-58437628D01*
X74608500Y-58146490D01*
X74608500Y-57853510D01*
X74575696Y-57562372D01*
X74510502Y-57276737D01*
X74413737Y-57000197D01*
X74286617Y-56736231D01*
X74130742Y-56488158D01*
X74130740Y-56488155D01*
X74130739Y-56488153D01*
X73948078Y-56259102D01*
X73740897Y-56051921D01*
X73511846Y-55869260D01*
X73511844Y-55869259D01*
X73263766Y-55713381D01*
X72999806Y-55586264D01*
X72723274Y-55489501D01*
X72723262Y-55489497D01*
X72437631Y-55424304D01*
X72437615Y-55424302D01*
X72146494Y-55391500D01*
X72146490Y-55391500D01*
X72124000Y-55391500D01*
X72056961Y-55371815D01*
X72011206Y-55319011D01*
X72000000Y-55267500D01*
X72000000Y-52410516D01*
X85591500Y-52410516D01*
X85591500Y-52589483D01*
X85626410Y-52764992D01*
X85626413Y-52765001D01*
X85694893Y-52930329D01*
X85694900Y-52930342D01*
X85794321Y-53079134D01*
X85794324Y-53079138D01*
X85920861Y-53205675D01*
X85920865Y-53205678D01*
X86069657Y-53305099D01*
X86069670Y-53305106D01*
X86150323Y-53338513D01*
X86235000Y-53373587D01*
X86235002Y-53373587D01*
X86235007Y-53373589D01*
X86410516Y-53408499D01*
X86410520Y-53408500D01*
X86410521Y-53408500D01*
X86589480Y-53408500D01*
X86589481Y-53408499D01*
X86647986Y-53396862D01*
X86764992Y-53373589D01*
X86764995Y-53373587D01*
X86765000Y-53373587D01*
X86930336Y-53305103D01*
X87057763Y-53219957D01*
X87124437Y-53199081D01*
X87191818Y-53217565D01*
X87238508Y-53269543D01*
X87249685Y-53338513D01*
X87247429Y-53351148D01*
X87191992Y-53589532D01*
X87191990Y-53589540D01*
X87186742Y-53627994D01*
X87201332Y-53773485D01*
X87201334Y-53773492D01*
X87256320Y-53908971D01*
X87256322Y-53908975D01*
X87256323Y-53908976D01*
X87347257Y-54023483D01*
X87466768Y-54107734D01*
X87605174Y-54154902D01*
X87643826Y-54158500D01*
X87643836Y-54158500D01*
X91356162Y-54158500D01*
X91356170Y-54158500D01*
X91394825Y-54154901D01*
X91533231Y-54107734D01*
X91652742Y-54023484D01*
X91743676Y-53908976D01*
X91798666Y-53773487D01*
X91813257Y-53627995D01*
X91808006Y-53589528D01*
X90785572Y-49193062D01*
X90757734Y-49116768D01*
X90673483Y-48997257D01*
X90673482Y-48997256D01*
X90558979Y-48906325D01*
X90558971Y-48906320D01*
X90423492Y-48851334D01*
X90423484Y-48851332D01*
X90382389Y-48846320D01*
X90342870Y-48841500D01*
X90342865Y-48841500D01*
X88657135Y-48841500D01*
X88576515Y-48851333D01*
X88576507Y-48851335D01*
X88441026Y-48906322D01*
X88441018Y-48906327D01*
X88326516Y-48997257D01*
X88326515Y-48997258D01*
X88242265Y-49116768D01*
X88214428Y-49193060D01*
X88031690Y-49978826D01*
X87997331Y-50039664D01*
X87935536Y-50072269D01*
X87865923Y-50066288D01*
X87823232Y-50038419D01*
X87579138Y-49794324D01*
X87579134Y-49794321D01*
X87430342Y-49694900D01*
X87430329Y-49694893D01*
X87265001Y-49626413D01*
X87264992Y-49626410D01*
X87089483Y-49591500D01*
X87089479Y-49591500D01*
X86910521Y-49591500D01*
X86910516Y-49591500D01*
X86735007Y-49626410D01*
X86734998Y-49626413D01*
X86569670Y-49694893D01*
X86569657Y-49694900D01*
X86420865Y-49794321D01*
X86420861Y-49794324D01*
X86294324Y-49920861D01*
X86294321Y-49920865D01*
X86194900Y-50069657D01*
X86194893Y-50069670D01*
X86126413Y-50234998D01*
X86126410Y-50235007D01*
X86091500Y-50410516D01*
X86091500Y-50589483D01*
X86126410Y-50764992D01*
X86126413Y-50765001D01*
X86194893Y-50930329D01*
X86194900Y-50930342D01*
X86294321Y-51079134D01*
X86294324Y-51079138D01*
X86377505Y-51162319D01*
X86410990Y-51223642D01*
X86406006Y-51293334D01*
X86377505Y-51337681D01*
X85794324Y-51920861D01*
X85794321Y-51920865D01*
X85694900Y-52069657D01*
X85694893Y-52069670D01*
X85626413Y-52234998D01*
X85626410Y-52235007D01*
X85591500Y-52410516D01*
X72000000Y-52410516D01*
X72000000Y-47765463D01*
X72019685Y-47698424D01*
X72036319Y-47677782D01*
X72230873Y-47483228D01*
X72547259Y-47166842D01*
X72547262Y-47166841D01*
X72666841Y-47047262D01*
X72760793Y-46906652D01*
X72825508Y-46750415D01*
X72858500Y-46584555D01*
X72858500Y-36851163D01*
X72864132Y-36831981D01*
X72864846Y-36812004D01*
X72873774Y-36799144D01*
X72878185Y-36784124D01*
X72893292Y-36771033D01*
X72904694Y-36754612D01*
X72925763Y-36742896D01*
X72930989Y-36738369D01*
X72935047Y-36736602D01*
X72938256Y-36735272D01*
X72999803Y-36713737D01*
X73058556Y-36685442D01*
X73061759Y-36684116D01*
X73093171Y-36680738D01*
X73124349Y-36675604D01*
X73127651Y-36677031D01*
X73131228Y-36676647D01*
X73159485Y-36690791D01*
X73188484Y-36703326D01*
X73193297Y-36707716D01*
X73193708Y-36707922D01*
X73193926Y-36708290D01*
X73196893Y-36710996D01*
X82128818Y-45642920D01*
X82128839Y-45642943D01*
X82252735Y-45766839D01*
X82393351Y-45860795D01*
X82503822Y-45906553D01*
X82503823Y-45906553D01*
X82549584Y-45925508D01*
X82715440Y-45958499D01*
X82715443Y-45958500D01*
X82715445Y-45958500D01*
X87779110Y-45958500D01*
X87846149Y-45978185D01*
X87891904Y-46030989D01*
X87899887Y-46054412D01*
X88214428Y-47406938D01*
X88214429Y-47406942D01*
X88214430Y-47406944D01*
X88242264Y-47483228D01*
X88242265Y-47483229D01*
X88242266Y-47483232D01*
X88304220Y-47571114D01*
X88326516Y-47602742D01*
X88326517Y-47602743D01*
X88441017Y-47693672D01*
X88441024Y-47693677D01*
X88441026Y-47693677D01*
X88441028Y-47693679D01*
X88576507Y-47748665D01*
X88576509Y-47748665D01*
X88576513Y-47748667D01*
X88657130Y-47758500D01*
X90342869Y-47758499D01*
X90423487Y-47748666D01*
X90558976Y-47693676D01*
X90673484Y-47602742D01*
X90757734Y-47483231D01*
X90785573Y-47406935D01*
X91808008Y-43010468D01*
X91813257Y-42972006D01*
X91798667Y-42826513D01*
X91743677Y-42691024D01*
X91652743Y-42576517D01*
X91592987Y-42534391D01*
X91533231Y-42492265D01*
X91443988Y-42461852D01*
X91394826Y-42445098D01*
X91394824Y-42445097D01*
X91394822Y-42445097D01*
X91356187Y-42441501D01*
X91356182Y-42441500D01*
X91356174Y-42441500D01*
X87643830Y-42441500D01*
X87643820Y-42441500D01*
X87605178Y-42445098D01*
X87605175Y-42445099D01*
X87466771Y-42492265D01*
X87466767Y-42492267D01*
X87347258Y-42576515D01*
X87347257Y-42576516D01*
X87256327Y-42691018D01*
X87256322Y-42691026D01*
X87201334Y-42826510D01*
X87186742Y-42972006D01*
X87191993Y-43010470D01*
X87442911Y-44089412D01*
X87438923Y-44159168D01*
X87397856Y-44215695D01*
X87332747Y-44241045D01*
X87322134Y-44241500D01*
X83206964Y-44241500D01*
X83139925Y-44221815D01*
X83119283Y-44205181D01*
X74802233Y-35888130D01*
X74717256Y-35803153D01*
X85991500Y-35803153D01*
X85991500Y-36196846D01*
X86025813Y-36589042D01*
X86025813Y-36589044D01*
X86072032Y-36851163D01*
X86094176Y-36976748D01*
X86196071Y-37357024D01*
X86330721Y-37726972D01*
X86330724Y-37726979D01*
X86330725Y-37726981D01*
X86497097Y-38083768D01*
X86497102Y-38083777D01*
X86693947Y-38424723D01*
X86693951Y-38424729D01*
X86693958Y-38424740D01*
X86919759Y-38747217D01*
X87102673Y-38965204D01*
X87172819Y-39048800D01*
X87451200Y-39327181D01*
X87576593Y-39432399D01*
X87752782Y-39580240D01*
X88075259Y-39806041D01*
X88075266Y-39806045D01*
X88075277Y-39806053D01*
X88394814Y-39990537D01*
X88416216Y-40002894D01*
X88416231Y-40002902D01*
X88574803Y-40076845D01*
X88773028Y-40169279D01*
X89142976Y-40303929D01*
X89523252Y-40405824D01*
X89910962Y-40474187D01*
X90303153Y-40508499D01*
X90303154Y-40508500D01*
X90303155Y-40508500D01*
X90696846Y-40508500D01*
X90696846Y-40508499D01*
X91089038Y-40474187D01*
X91476748Y-40405824D01*
X91857024Y-40303929D01*
X92226972Y-40169279D01*
X92583777Y-40002898D01*
X92924723Y-39806053D01*
X93247216Y-39580241D01*
X93548800Y-39327181D01*
X93827181Y-39048800D01*
X94080241Y-38747216D01*
X94306053Y-38424723D01*
X94502898Y-38083777D01*
X94669279Y-37726972D01*
X94803929Y-37357024D01*
X94905824Y-36976748D01*
X94974187Y-36589038D01*
X95008500Y-36196845D01*
X95008500Y-35803155D01*
X94974187Y-35410962D01*
X94964391Y-35355408D01*
X94954587Y-35299803D01*
X94905824Y-35023252D01*
X94803929Y-34642976D01*
X94669279Y-34273028D01*
X94502898Y-33916223D01*
X94306053Y-33575277D01*
X94306045Y-33575266D01*
X94306041Y-33575259D01*
X94080240Y-33252782D01*
X93827178Y-32951197D01*
X93548802Y-32672821D01*
X93247217Y-32419759D01*
X92924740Y-32193958D01*
X92924729Y-32193951D01*
X92924723Y-32193947D01*
X92611977Y-32013383D01*
X92583783Y-31997105D01*
X92583768Y-31997097D01*
X92226981Y-31830725D01*
X92226979Y-31830724D01*
X92226972Y-31830721D01*
X91857024Y-31696071D01*
X91569433Y-31619011D01*
X91476749Y-31594176D01*
X91476738Y-31594174D01*
X91089043Y-31525813D01*
X90696846Y-31491500D01*
X90696845Y-31491500D01*
X90303155Y-31491500D01*
X90303154Y-31491500D01*
X89910957Y-31525813D01*
X89910955Y-31525813D01*
X89523261Y-31594174D01*
X89523250Y-31594176D01*
X89319460Y-31648782D01*
X89142976Y-31696071D01*
X89142973Y-31696072D01*
X89142972Y-31696072D01*
X89065406Y-31724304D01*
X88773028Y-31830721D01*
X88773024Y-31830722D01*
X88773018Y-31830725D01*
X88416231Y-31997097D01*
X88416216Y-31997105D01*
X88075285Y-32193942D01*
X88075259Y-32193958D01*
X87752782Y-32419759D01*
X87451197Y-32672821D01*
X87172821Y-32951197D01*
X86919759Y-33252782D01*
X86693958Y-33575259D01*
X86693942Y-33575285D01*
X86497105Y-33916216D01*
X86497097Y-33916231D01*
X86330725Y-34273018D01*
X86330722Y-34273024D01*
X86330721Y-34273028D01*
X86196071Y-34642976D01*
X86170709Y-34737628D01*
X86094176Y-35023250D01*
X86094174Y-35023261D01*
X86025813Y-35410955D01*
X86025813Y-35410957D01*
X85991500Y-35803153D01*
X74717256Y-35803153D01*
X74410996Y-35496893D01*
X74377511Y-35435570D01*
X74382495Y-35365878D01*
X74386952Y-35355421D01*
X74413737Y-35299803D01*
X74510502Y-35023263D01*
X74575696Y-34737628D01*
X74608500Y-34446490D01*
X74608500Y-34153510D01*
X74575696Y-33862372D01*
X74510502Y-33576737D01*
X74413737Y-33300197D01*
X74286617Y-33036231D01*
X74130742Y-32788158D01*
X74130740Y-32788155D01*
X74130739Y-32788153D01*
X73948078Y-32559102D01*
X73740897Y-32351921D01*
X73511846Y-32169260D01*
X73511844Y-32169259D01*
X73263766Y-32013381D01*
X72999806Y-31886264D01*
X72723274Y-31789501D01*
X72723262Y-31789497D01*
X72437631Y-31724304D01*
X72437615Y-31724302D01*
X72146494Y-31691500D01*
X72146490Y-31691500D01*
X72124000Y-31691500D01*
X72056961Y-31671815D01*
X72011206Y-31619011D01*
X72000000Y-31567500D01*
X72000000Y-30324500D01*
X72019685Y-30257461D01*
X72072489Y-30211706D01*
X72124000Y-30200500D01*
X96175500Y-30200500D01*
X96242539Y-30220185D01*
G37*
%TD.AperFunction*%
%TD*%
%TA.AperFunction,Conductor*%
%TO.N,/+12V*%
G36*
X96242539Y-79519685D02*
G01*
X96288294Y-79572489D01*
X96299500Y-79624000D01*
X96299500Y-129675500D01*
X96279815Y-129742539D01*
X96227011Y-129788294D01*
X96175500Y-129799500D01*
X72124000Y-129799500D01*
X72056961Y-129779815D01*
X72011206Y-129727011D01*
X72000000Y-129675500D01*
X72000000Y-124897019D01*
X77191500Y-124897019D01*
X77191500Y-125102980D01*
X77223719Y-125306408D01*
X77287367Y-125502294D01*
X77380873Y-125685806D01*
X77501926Y-125852423D01*
X77501930Y-125852428D01*
X77647571Y-125998069D01*
X77647576Y-125998073D01*
X77765539Y-126083777D01*
X77814197Y-126119129D01*
X77931128Y-126178709D01*
X77997705Y-126212632D01*
X77997707Y-126212632D01*
X77997710Y-126212634D01*
X78102707Y-126246749D01*
X78193591Y-126276280D01*
X78295305Y-126292390D01*
X78397019Y-126308500D01*
X78397020Y-126308500D01*
X78602980Y-126308500D01*
X78602981Y-126308500D01*
X78806408Y-126276280D01*
X79002290Y-126212634D01*
X79185803Y-126119129D01*
X79352430Y-125998068D01*
X79498068Y-125852430D01*
X79619129Y-125685803D01*
X79712634Y-125502290D01*
X79776280Y-125306408D01*
X79808500Y-125102981D01*
X79808500Y-124897019D01*
X79776280Y-124693592D01*
X79712634Y-124497710D01*
X79712632Y-124497707D01*
X79712632Y-124497705D01*
X79678709Y-124431128D01*
X79619129Y-124314197D01*
X79533869Y-124196846D01*
X79498073Y-124147576D01*
X79498069Y-124147571D01*
X79352428Y-124001930D01*
X79352423Y-124001926D01*
X79213212Y-123900783D01*
X79213189Y-123900768D01*
X79185802Y-123880870D01*
X79033275Y-123803153D01*
X85991500Y-123803153D01*
X85991500Y-124196846D01*
X86025813Y-124589042D01*
X86025813Y-124589044D01*
X86094174Y-124976738D01*
X86094176Y-124976748D01*
X86196071Y-125357024D01*
X86330721Y-125726972D01*
X86330724Y-125726979D01*
X86330725Y-125726981D01*
X86497097Y-126083768D01*
X86497105Y-126083783D01*
X86626846Y-126308500D01*
X86693947Y-126424723D01*
X86693951Y-126424729D01*
X86693958Y-126424740D01*
X86919759Y-126747217D01*
X87102673Y-126965204D01*
X87172819Y-127048800D01*
X87451200Y-127327181D01*
X87576593Y-127432399D01*
X87752782Y-127580240D01*
X88075259Y-127806041D01*
X88075266Y-127806045D01*
X88075277Y-127806053D01*
X88394814Y-127990537D01*
X88416216Y-128002894D01*
X88416231Y-128002902D01*
X88574803Y-128076845D01*
X88773028Y-128169279D01*
X89142976Y-128303929D01*
X89523252Y-128405824D01*
X89910962Y-128474187D01*
X90303153Y-128508499D01*
X90303154Y-128508500D01*
X90303155Y-128508500D01*
X90696846Y-128508500D01*
X90696846Y-128508499D01*
X91089038Y-128474187D01*
X91476748Y-128405824D01*
X91857024Y-128303929D01*
X92226972Y-128169279D01*
X92583777Y-128002898D01*
X92924723Y-127806053D01*
X93247216Y-127580241D01*
X93548800Y-127327181D01*
X93827181Y-127048800D01*
X94080241Y-126747216D01*
X94306053Y-126424723D01*
X94502898Y-126083777D01*
X94669279Y-125726972D01*
X94803929Y-125357024D01*
X94905824Y-124976748D01*
X94974187Y-124589038D01*
X95008500Y-124196845D01*
X95008500Y-123803155D01*
X94974187Y-123410962D01*
X94905824Y-123023252D01*
X94803929Y-122642976D01*
X94669279Y-122273028D01*
X94502898Y-121916223D01*
X94306053Y-121575277D01*
X94306045Y-121575266D01*
X94306041Y-121575259D01*
X94080240Y-121252782D01*
X93827178Y-120951197D01*
X93548802Y-120672821D01*
X93247217Y-120419759D01*
X92924740Y-120193958D01*
X92924729Y-120193951D01*
X92924723Y-120193947D01*
X92823429Y-120135465D01*
X92583783Y-119997105D01*
X92583768Y-119997097D01*
X92226981Y-119830725D01*
X92226979Y-119830724D01*
X92226972Y-119830721D01*
X91857024Y-119696071D01*
X91615940Y-119631472D01*
X91476749Y-119594176D01*
X91476738Y-119594174D01*
X91089043Y-119525813D01*
X90696846Y-119491500D01*
X90696845Y-119491500D01*
X90303155Y-119491500D01*
X90303154Y-119491500D01*
X89910957Y-119525813D01*
X89910955Y-119525813D01*
X89523261Y-119594174D01*
X89523250Y-119594176D01*
X89319460Y-119648782D01*
X89142976Y-119696071D01*
X89142973Y-119696072D01*
X89142972Y-119696072D01*
X88936332Y-119771282D01*
X88773028Y-119830721D01*
X88773024Y-119830722D01*
X88773018Y-119830725D01*
X88416231Y-119997097D01*
X88416216Y-119997105D01*
X88075285Y-120193942D01*
X88075259Y-120193958D01*
X87752782Y-120419759D01*
X87451197Y-120672821D01*
X87172821Y-120951197D01*
X86919759Y-121252782D01*
X86693958Y-121575259D01*
X86693942Y-121575285D01*
X86497105Y-121916216D01*
X86497097Y-121916231D01*
X86330725Y-122273018D01*
X86330722Y-122273024D01*
X86330721Y-122273028D01*
X86196071Y-122642976D01*
X86194449Y-122649030D01*
X86094176Y-123023250D01*
X86094174Y-123023261D01*
X86025813Y-123410955D01*
X86025813Y-123410957D01*
X85991500Y-123803153D01*
X79033275Y-123803153D01*
X79002294Y-123787367D01*
X78806408Y-123723719D01*
X78630794Y-123695905D01*
X78602981Y-123691500D01*
X78397019Y-123691500D01*
X78372550Y-123695375D01*
X78193591Y-123723719D01*
X77997705Y-123787367D01*
X77814193Y-123880873D01*
X77647576Y-124001926D01*
X77647571Y-124001930D01*
X77501930Y-124147571D01*
X77501926Y-124147576D01*
X77380873Y-124314193D01*
X77287367Y-124497705D01*
X77223719Y-124693591D01*
X77191500Y-124897019D01*
X72000000Y-124897019D01*
X72000000Y-97013465D01*
X72019685Y-96946426D01*
X72072489Y-96900671D01*
X72141647Y-96890727D01*
X72205203Y-96919752D01*
X72211681Y-96925784D01*
X79198215Y-103912318D01*
X79231700Y-103973641D01*
X79226716Y-104043333D01*
X79198215Y-104087680D01*
X77935297Y-105350599D01*
X77833161Y-105452734D01*
X77833158Y-105452737D01*
X77739210Y-105593341D01*
X77739205Y-105593351D01*
X77693445Y-105703825D01*
X77693444Y-105703824D01*
X77678087Y-105740904D01*
X77678085Y-105740911D01*
X77674492Y-105749584D01*
X77674490Y-105749590D01*
X77641500Y-105915440D01*
X77641500Y-120179896D01*
X77621815Y-120246935D01*
X77582597Y-120285434D01*
X77476351Y-120350967D01*
X77476347Y-120350970D01*
X77350971Y-120476346D01*
X77257886Y-120627259D01*
X77257884Y-120627264D01*
X77202113Y-120795572D01*
X77191500Y-120899447D01*
X77191500Y-122100537D01*
X77191501Y-122100553D01*
X77202113Y-122204426D01*
X77257885Y-122372738D01*
X77350970Y-122523652D01*
X77476348Y-122649030D01*
X77627262Y-122742115D01*
X77795574Y-122797887D01*
X77899455Y-122808500D01*
X79100544Y-122808499D01*
X79204426Y-122797887D01*
X79372738Y-122742115D01*
X79523652Y-122649030D01*
X79649030Y-122523652D01*
X79742115Y-122372738D01*
X79797887Y-122204426D01*
X79808500Y-122100545D01*
X79808499Y-120899456D01*
X79797887Y-120795574D01*
X79742115Y-120627262D01*
X79649030Y-120476348D01*
X79523652Y-120350970D01*
X79523648Y-120350967D01*
X79417403Y-120285434D01*
X79370678Y-120233486D01*
X79358500Y-120179896D01*
X79358500Y-106406964D01*
X79378185Y-106339925D01*
X79394819Y-106319283D01*
X80819283Y-104894819D01*
X80880606Y-104861334D01*
X80906964Y-104858500D01*
X85798836Y-104858500D01*
X85865875Y-104878185D01*
X85911630Y-104930989D01*
X85915877Y-104941545D01*
X85936260Y-104999796D01*
X85936266Y-104999810D01*
X86063381Y-105263766D01*
X86219259Y-105511844D01*
X86219260Y-105511846D01*
X86401921Y-105740897D01*
X86609102Y-105948078D01*
X86838153Y-106130739D01*
X86838156Y-106130740D01*
X86838158Y-106130742D01*
X87086231Y-106286617D01*
X87350197Y-106413737D01*
X87557892Y-106486412D01*
X87626725Y-106510498D01*
X87626737Y-106510502D01*
X87912372Y-106575696D01*
X88203505Y-106608499D01*
X88203506Y-106608500D01*
X88203510Y-106608500D01*
X88496494Y-106608500D01*
X88496494Y-106608499D01*
X88787628Y-106575696D01*
X89073263Y-106510502D01*
X89349803Y-106413737D01*
X89613769Y-106286617D01*
X89861842Y-106130742D01*
X89861846Y-106130739D01*
X90090897Y-105948078D01*
X90090899Y-105948075D01*
X90090904Y-105948072D01*
X90298072Y-105740904D01*
X90327642Y-105703825D01*
X90480739Y-105511846D01*
X90480740Y-105511844D01*
X90480742Y-105511842D01*
X90636617Y-105263769D01*
X90763737Y-104999803D01*
X90860502Y-104723263D01*
X90925696Y-104437628D01*
X90939786Y-104312573D01*
X90966852Y-104248160D01*
X90975315Y-104238786D01*
X92971362Y-102242738D01*
X93032683Y-102209255D01*
X93091133Y-102210645D01*
X93156260Y-102228097D01*
X93384763Y-102258180D01*
X93384770Y-102258180D01*
X93615230Y-102258180D01*
X93615237Y-102258180D01*
X93843740Y-102228097D01*
X94066361Y-102168445D01*
X94279291Y-102080247D01*
X94478888Y-101965010D01*
X94661736Y-101824706D01*
X94824706Y-101661736D01*
X94965010Y-101478888D01*
X95080247Y-101279291D01*
X95168445Y-101066361D01*
X95228097Y-100843740D01*
X95258180Y-100615237D01*
X95258180Y-100384763D01*
X95228097Y-100156260D01*
X95168445Y-99933639D01*
X95080247Y-99720709D01*
X94965010Y-99521112D01*
X94824706Y-99338264D01*
X94824701Y-99338258D01*
X94661741Y-99175298D01*
X94661734Y-99175292D01*
X94478887Y-99034989D01*
X94420500Y-99001279D01*
X94372284Y-98950712D01*
X94358500Y-98893892D01*
X94358500Y-97058422D01*
X94378185Y-96991383D01*
X94417407Y-96952881D01*
X94423652Y-96949030D01*
X94549030Y-96823652D01*
X94642115Y-96672738D01*
X94697887Y-96504426D01*
X94708500Y-96400545D01*
X94708499Y-95599456D01*
X94697887Y-95495574D01*
X94642115Y-95327262D01*
X94549030Y-95176348D01*
X94454352Y-95081670D01*
X94420867Y-95020347D01*
X94425851Y-94950655D01*
X94454352Y-94906307D01*
X94542317Y-94818342D01*
X94634356Y-94669124D01*
X94634358Y-94669119D01*
X94689505Y-94502697D01*
X94689506Y-94502690D01*
X94699999Y-94399986D01*
X94700000Y-94399973D01*
X94700000Y-94250000D01*
X92300001Y-94250000D01*
X92300001Y-94399986D01*
X92310494Y-94502697D01*
X92365641Y-94669119D01*
X92365643Y-94669124D01*
X92457684Y-94818345D01*
X92545647Y-94906308D01*
X92579132Y-94967631D01*
X92574148Y-95037323D01*
X92545648Y-95081670D01*
X92450969Y-95176349D01*
X92357886Y-95327259D01*
X92357884Y-95327264D01*
X92302113Y-95495572D01*
X92291500Y-95599447D01*
X92291500Y-96400537D01*
X92291501Y-96400553D01*
X92302113Y-96504426D01*
X92357885Y-96672738D01*
X92450970Y-96823652D01*
X92576348Y-96949030D01*
X92582592Y-96952881D01*
X92629319Y-97004825D01*
X92641500Y-97058422D01*
X92641500Y-98893892D01*
X92621815Y-98960931D01*
X92579500Y-99001279D01*
X92521112Y-99034989D01*
X92338265Y-99175292D01*
X92338258Y-99175298D01*
X92175298Y-99338258D01*
X92175292Y-99338265D01*
X92034989Y-99521112D01*
X91919754Y-99720705D01*
X91919750Y-99720715D01*
X91831556Y-99933634D01*
X91831555Y-99933639D01*
X91771903Y-100156260D01*
X91741820Y-100384763D01*
X91741820Y-100615237D01*
X91771903Y-100843740D01*
X91789352Y-100908863D01*
X91787690Y-100978712D01*
X91757259Y-101028637D01*
X90497665Y-102288230D01*
X90436342Y-102321715D01*
X90366650Y-102316731D01*
X90313036Y-102277860D01*
X90298076Y-102259100D01*
X90090897Y-102051921D01*
X89861846Y-101869260D01*
X89861844Y-101869259D01*
X89613766Y-101713381D01*
X89349806Y-101586264D01*
X89073274Y-101489501D01*
X89073262Y-101489497D01*
X88787631Y-101424304D01*
X88787615Y-101424302D01*
X88496494Y-101391500D01*
X88496490Y-101391500D01*
X88203510Y-101391500D01*
X88203506Y-101391500D01*
X87912384Y-101424302D01*
X87912368Y-101424304D01*
X87626737Y-101489497D01*
X87626725Y-101489501D01*
X87350193Y-101586264D01*
X87086233Y-101713381D01*
X86838155Y-101869259D01*
X86838153Y-101869260D01*
X86609102Y-102051921D01*
X86401921Y-102259102D01*
X86219260Y-102488153D01*
X86219259Y-102488155D01*
X86063381Y-102736233D01*
X85936266Y-103000189D01*
X85936260Y-103000203D01*
X85915877Y-103058455D01*
X85875155Y-103115231D01*
X85810202Y-103140978D01*
X85798836Y-103141500D01*
X80906965Y-103141500D01*
X80839926Y-103121815D01*
X80819284Y-103105181D01*
X72036319Y-94322216D01*
X72002834Y-94260893D01*
X72000000Y-94234535D01*
X72000000Y-93600013D01*
X92300000Y-93600013D01*
X92300000Y-93750000D01*
X93250000Y-93750000D01*
X93750000Y-93750000D01*
X94699999Y-93750000D01*
X94699999Y-93600028D01*
X94699998Y-93600013D01*
X94689505Y-93497302D01*
X94634358Y-93330880D01*
X94634356Y-93330875D01*
X94542315Y-93181654D01*
X94418345Y-93057684D01*
X94269124Y-92965643D01*
X94269119Y-92965641D01*
X94102697Y-92910494D01*
X94102690Y-92910493D01*
X93999986Y-92900000D01*
X93750000Y-92900000D01*
X93750000Y-93750000D01*
X93250000Y-93750000D01*
X93250000Y-92900000D01*
X93000029Y-92900000D01*
X93000012Y-92900001D01*
X92897302Y-92910494D01*
X92730880Y-92965641D01*
X92730875Y-92965643D01*
X92581654Y-93057684D01*
X92457684Y-93181654D01*
X92365643Y-93330875D01*
X92365641Y-93330880D01*
X92310494Y-93497302D01*
X92310493Y-93497309D01*
X92300000Y-93600013D01*
X72000000Y-93600013D01*
X72000000Y-92961825D01*
X72019685Y-92894786D01*
X72072489Y-92849031D01*
X72141647Y-92839087D01*
X72171445Y-92847261D01*
X72235000Y-92873587D01*
X72410516Y-92908499D01*
X72410520Y-92908500D01*
X72410521Y-92908500D01*
X72589480Y-92908500D01*
X72589481Y-92908499D01*
X72765000Y-92873587D01*
X72930336Y-92805102D01*
X73079135Y-92705678D01*
X73205678Y-92579135D01*
X73305102Y-92430336D01*
X73373587Y-92265000D01*
X73408500Y-92089479D01*
X73408500Y-91910521D01*
X73373587Y-91735000D01*
X73367938Y-91721362D01*
X73358500Y-91673911D01*
X73358500Y-91084560D01*
X73358501Y-91084555D01*
X73358501Y-90915445D01*
X73358500Y-90915439D01*
X73358500Y-89982500D01*
X73378185Y-89915461D01*
X73430989Y-89869706D01*
X73482500Y-89858500D01*
X75356162Y-89858500D01*
X75356170Y-89858500D01*
X75394825Y-89854901D01*
X75533231Y-89807734D01*
X75652742Y-89723484D01*
X75743676Y-89608976D01*
X75798666Y-89473487D01*
X75813257Y-89327995D01*
X75812451Y-89322093D01*
X75809756Y-89302350D01*
X75808006Y-89289528D01*
X75481444Y-87885312D01*
X77250320Y-87885312D01*
X77250320Y-88114687D01*
X77280257Y-88342074D01*
X77339622Y-88563627D01*
X77427390Y-88775517D01*
X77427394Y-88775526D01*
X77542069Y-88974149D01*
X77542074Y-88974156D01*
X77598610Y-89047835D01*
X78516726Y-88129719D01*
X78533720Y-88193140D01*
X78599596Y-88307241D01*
X78692759Y-88400404D01*
X78806860Y-88466280D01*
X78870279Y-88483273D01*
X77952163Y-89401387D01*
X77952163Y-89401389D01*
X78025833Y-89457919D01*
X78025850Y-89457930D01*
X78224473Y-89572605D01*
X78224482Y-89572609D01*
X78436372Y-89660377D01*
X78657925Y-89719742D01*
X78885312Y-89749679D01*
X78885327Y-89749680D01*
X79114673Y-89749680D01*
X79114687Y-89749679D01*
X79342074Y-89719742D01*
X79563627Y-89660377D01*
X79775517Y-89572609D01*
X79775526Y-89572605D01*
X79974152Y-89457928D01*
X80047835Y-89401388D01*
X80047835Y-89401387D01*
X79129720Y-88483273D01*
X79193140Y-88466280D01*
X79307241Y-88400404D01*
X79400404Y-88307241D01*
X79466280Y-88193140D01*
X79483273Y-88129720D01*
X80401387Y-89047835D01*
X80401388Y-89047835D01*
X80457928Y-88974152D01*
X80572605Y-88775526D01*
X80572609Y-88775517D01*
X80660377Y-88563627D01*
X80719742Y-88342074D01*
X80749679Y-88114687D01*
X80749680Y-88114673D01*
X80749680Y-87885326D01*
X80749678Y-87885309D01*
X80737766Y-87794823D01*
X80719742Y-87657925D01*
X80660377Y-87436372D01*
X80572609Y-87224482D01*
X80572605Y-87224473D01*
X80457930Y-87025850D01*
X80457919Y-87025833D01*
X80401389Y-86952163D01*
X80401387Y-86952163D01*
X79483272Y-87870278D01*
X79466280Y-87806860D01*
X79400404Y-87692759D01*
X79307241Y-87599596D01*
X79193140Y-87533720D01*
X79129718Y-87516726D01*
X80047835Y-86598610D01*
X79974156Y-86542074D01*
X79974149Y-86542069D01*
X79775526Y-86427394D01*
X79775517Y-86427390D01*
X79563627Y-86339622D01*
X79342074Y-86280257D01*
X79114687Y-86250320D01*
X78885312Y-86250320D01*
X78657925Y-86280257D01*
X78436372Y-86339622D01*
X78224482Y-86427390D01*
X78224472Y-86427394D01*
X78025844Y-86542072D01*
X77952163Y-86598609D01*
X77952163Y-86598610D01*
X78870279Y-87516726D01*
X78806860Y-87533720D01*
X78692759Y-87599596D01*
X78599596Y-87692759D01*
X78533720Y-87806860D01*
X78516726Y-87870279D01*
X77598610Y-86952163D01*
X77598609Y-86952163D01*
X77542072Y-87025844D01*
X77427394Y-87224472D01*
X77427390Y-87224482D01*
X77339622Y-87436372D01*
X77280257Y-87657925D01*
X77250320Y-87885312D01*
X75481444Y-87885312D01*
X75050477Y-86032155D01*
X87000000Y-86032155D01*
X87000000Y-87330000D01*
X89345879Y-87330000D01*
X89326901Y-87375818D01*
X89300000Y-87511056D01*
X89300000Y-87648944D01*
X89326901Y-87784182D01*
X89345879Y-87830000D01*
X87000000Y-87830000D01*
X87000000Y-89127844D01*
X87006401Y-89187372D01*
X87006403Y-89187379D01*
X87056645Y-89322086D01*
X87056649Y-89322093D01*
X87142809Y-89437187D01*
X87142812Y-89437190D01*
X87257906Y-89523350D01*
X87257913Y-89523354D01*
X87392620Y-89573596D01*
X87392627Y-89573598D01*
X87452155Y-89579999D01*
X87452172Y-89580000D01*
X89750000Y-89580000D01*
X89750000Y-88234120D01*
X89795818Y-88253099D01*
X89931056Y-88280000D01*
X90068944Y-88280000D01*
X90204182Y-88253099D01*
X90250000Y-88234120D01*
X90250000Y-89580000D01*
X92547828Y-89580000D01*
X92547844Y-89579999D01*
X92607372Y-89573598D01*
X92607379Y-89573596D01*
X92742086Y-89523354D01*
X92742093Y-89523350D01*
X92857187Y-89437190D01*
X92857190Y-89437187D01*
X92943350Y-89322093D01*
X92943354Y-89322086D01*
X92993596Y-89187379D01*
X92993598Y-89187372D01*
X92999999Y-89127844D01*
X93000000Y-89127827D01*
X93000000Y-87830000D01*
X90654121Y-87830000D01*
X90673099Y-87784182D01*
X90700000Y-87648944D01*
X90700000Y-87511056D01*
X90673099Y-87375818D01*
X90654121Y-87330000D01*
X93000000Y-87330000D01*
X93000000Y-86032172D01*
X92999999Y-86032155D01*
X92993598Y-85972627D01*
X92993596Y-85972620D01*
X92943354Y-85837913D01*
X92943350Y-85837906D01*
X92857190Y-85722812D01*
X92857187Y-85722809D01*
X92742093Y-85636649D01*
X92742086Y-85636645D01*
X92607379Y-85586403D01*
X92607372Y-85586401D01*
X92547844Y-85580000D01*
X90250000Y-85580000D01*
X90250000Y-86925879D01*
X90204182Y-86906901D01*
X90068944Y-86880000D01*
X89931056Y-86880000D01*
X89795818Y-86906901D01*
X89750000Y-86925879D01*
X89750000Y-85580000D01*
X87452155Y-85580000D01*
X87392627Y-85586401D01*
X87392620Y-85586403D01*
X87257913Y-85636645D01*
X87257906Y-85636649D01*
X87142812Y-85722809D01*
X87142809Y-85722812D01*
X87056649Y-85837906D01*
X87056645Y-85837913D01*
X87006403Y-85972620D01*
X87006401Y-85972627D01*
X87000000Y-86032155D01*
X75050477Y-86032155D01*
X74785572Y-84893062D01*
X74757734Y-84816768D01*
X74673483Y-84697257D01*
X74673482Y-84697256D01*
X74558979Y-84606325D01*
X74558971Y-84606320D01*
X74423492Y-84551334D01*
X74423484Y-84551332D01*
X74382389Y-84546320D01*
X74342870Y-84541500D01*
X74342865Y-84541500D01*
X72657135Y-84541500D01*
X72576515Y-84551333D01*
X72576507Y-84551335D01*
X72441026Y-84606322D01*
X72441018Y-84606327D01*
X72326516Y-84697257D01*
X72326515Y-84697258D01*
X72242264Y-84816769D01*
X72240487Y-84821642D01*
X72199014Y-84877872D01*
X72133725Y-84902754D01*
X72065349Y-84888388D01*
X72015593Y-84839335D01*
X72000000Y-84779136D01*
X72000000Y-83220863D01*
X72019685Y-83153824D01*
X72072489Y-83108069D01*
X72141647Y-83098125D01*
X72205203Y-83127150D01*
X72240489Y-83178363D01*
X72242264Y-83183229D01*
X72326516Y-83302742D01*
X72326517Y-83302743D01*
X72441017Y-83393672D01*
X72441024Y-83393677D01*
X72441026Y-83393677D01*
X72441028Y-83393679D01*
X72576507Y-83448665D01*
X72576509Y-83448665D01*
X72576513Y-83448667D01*
X72657130Y-83458500D01*
X74342869Y-83458499D01*
X74423487Y-83448666D01*
X74558976Y-83393676D01*
X74673484Y-83302742D01*
X74757734Y-83183231D01*
X74785573Y-83106935D01*
X74957336Y-82368356D01*
X86991500Y-82368356D01*
X86991500Y-82631644D01*
X87025866Y-82892680D01*
X87083276Y-83106938D01*
X87094012Y-83147003D01*
X87194759Y-83390231D01*
X87194766Y-83390245D01*
X87228496Y-83448667D01*
X87326409Y-83618257D01*
X87486689Y-83827137D01*
X87486693Y-83827142D01*
X87672856Y-84013305D01*
X87672860Y-84013308D01*
X87672862Y-84013310D01*
X87881742Y-84173590D01*
X88109756Y-84305234D01*
X88109761Y-84305236D01*
X88109767Y-84305239D01*
X88352995Y-84405986D01*
X88352997Y-84405986D01*
X88353003Y-84405989D01*
X88607319Y-84474133D01*
X88868355Y-84508499D01*
X88868362Y-84508499D01*
X91131638Y-84508499D01*
X91131645Y-84508499D01*
X91392681Y-84474133D01*
X91646997Y-84405989D01*
X91890244Y-84305234D01*
X92118258Y-84173590D01*
X92327138Y-84013310D01*
X92513311Y-83827137D01*
X92673591Y-83618257D01*
X92805235Y-83390243D01*
X92905990Y-83146996D01*
X92974134Y-82892680D01*
X93008500Y-82631644D01*
X93008500Y-82368356D01*
X92974134Y-82107320D01*
X92905990Y-81853004D01*
X92805235Y-81609757D01*
X92673591Y-81381743D01*
X92513311Y-81172863D01*
X92513309Y-81172861D01*
X92513306Y-81172857D01*
X92327143Y-80986694D01*
X92327138Y-80986690D01*
X92118258Y-80826410D01*
X91890244Y-80694766D01*
X91890232Y-80694760D01*
X91647004Y-80594013D01*
X91392677Y-80525866D01*
X91131654Y-80491502D01*
X91131651Y-80491501D01*
X91131645Y-80491501D01*
X88868355Y-80491501D01*
X88868349Y-80491501D01*
X88868345Y-80491502D01*
X88607322Y-80525866D01*
X88352995Y-80594013D01*
X88109767Y-80694760D01*
X88109753Y-80694767D01*
X87881748Y-80826406D01*
X87881741Y-80826411D01*
X87672856Y-80986694D01*
X87486693Y-81172857D01*
X87326410Y-81381742D01*
X87326405Y-81381749D01*
X87194766Y-81609754D01*
X87194759Y-81609768D01*
X87094012Y-81852996D01*
X87025865Y-82107323D01*
X86995732Y-82336209D01*
X86991500Y-82368356D01*
X74957336Y-82368356D01*
X75602091Y-79595912D01*
X75636449Y-79535074D01*
X75698245Y-79502469D01*
X75722868Y-79500000D01*
X96175500Y-79500000D01*
X96242539Y-79519685D01*
G37*
%TD.AperFunction*%
%TD*%
%TA.AperFunction,Conductor*%
%TO.N,+36V*%
G36*
X71429539Y-30220185D02*
G01*
X71475294Y-30272989D01*
X71486500Y-30324500D01*
X71486500Y-31567507D01*
X71492987Y-31627834D01*
X71480582Y-31696594D01*
X71432972Y-31747731D01*
X71397292Y-31761981D01*
X71276734Y-31789498D01*
X71276725Y-31789501D01*
X71000193Y-31886264D01*
X70736233Y-32013381D01*
X70488155Y-32169259D01*
X70488153Y-32169260D01*
X70259102Y-32351921D01*
X70051921Y-32559102D01*
X69869260Y-32788153D01*
X69869259Y-32788155D01*
X69713381Y-33036233D01*
X69586264Y-33300193D01*
X69489501Y-33576725D01*
X69489497Y-33576737D01*
X69424304Y-33862368D01*
X69424302Y-33862384D01*
X69391500Y-34153505D01*
X69391500Y-34446494D01*
X69424302Y-34737615D01*
X69424304Y-34737631D01*
X69489497Y-35023262D01*
X69489501Y-35023274D01*
X69586264Y-35299806D01*
X69713381Y-35563766D01*
X69869259Y-35811844D01*
X69869260Y-35811846D01*
X70051921Y-36040897D01*
X70259102Y-36248078D01*
X70488153Y-36430739D01*
X70488156Y-36430740D01*
X70488158Y-36430742D01*
X70633314Y-36521950D01*
X70736233Y-36586618D01*
X71000197Y-36713737D01*
X71000198Y-36713738D01*
X71043734Y-36728971D01*
X71058453Y-36734121D01*
X71115229Y-36774842D01*
X71140978Y-36839794D01*
X71141500Y-36851163D01*
X71141500Y-46093035D01*
X71121815Y-46160074D01*
X71105181Y-46180716D01*
X56680716Y-60605181D01*
X56653788Y-60619884D01*
X56627970Y-60636477D01*
X56621769Y-60637368D01*
X56619393Y-60638666D01*
X56593035Y-60641500D01*
X56442676Y-60641500D01*
X56375637Y-60621815D01*
X56329882Y-60569011D01*
X56319938Y-60499853D01*
X56348963Y-60436297D01*
X56354995Y-60429819D01*
X56455675Y-60329138D01*
X56455678Y-60329135D01*
X56555102Y-60180336D01*
X56623587Y-60015000D01*
X56658500Y-59839479D01*
X56658500Y-59660521D01*
X56623587Y-59485000D01*
X56555102Y-59319664D01*
X56555100Y-59319661D01*
X56555098Y-59319657D01*
X56455678Y-59170865D01*
X56455675Y-59170861D01*
X56427343Y-59142529D01*
X56393858Y-59081206D01*
X56398842Y-59011514D01*
X56440714Y-58955581D01*
X56506178Y-58931164D01*
X56515024Y-58930848D01*
X56750537Y-58930848D01*
X56750544Y-58930848D01*
X56854426Y-58920236D01*
X57022738Y-58864464D01*
X57173652Y-58771379D01*
X57299030Y-58646001D01*
X57392115Y-58495087D01*
X57447887Y-58326775D01*
X57458500Y-58222894D01*
X57458499Y-56877674D01*
X57478184Y-56810636D01*
X57494818Y-56789994D01*
X58705675Y-55579138D01*
X58705675Y-55579137D01*
X58705678Y-55579135D01*
X58805102Y-55430336D01*
X58810762Y-55416671D01*
X58873587Y-55265000D01*
X58908500Y-55089479D01*
X58908500Y-54910521D01*
X58873587Y-54735000D01*
X58805102Y-54569664D01*
X58805100Y-54569661D01*
X58805098Y-54569657D01*
X58705678Y-54420865D01*
X58705675Y-54420861D01*
X58579138Y-54294324D01*
X58579134Y-54294321D01*
X58430342Y-54194901D01*
X58430332Y-54194896D01*
X58265000Y-54126413D01*
X58264992Y-54126411D01*
X58089483Y-54091500D01*
X58089479Y-54091500D01*
X57910520Y-54091500D01*
X57881397Y-54097292D01*
X57881396Y-54097291D01*
X57735005Y-54126411D01*
X57734995Y-54126414D01*
X57629951Y-54169925D01*
X57560482Y-54177394D01*
X57498003Y-54146119D01*
X57462351Y-54086030D01*
X57458499Y-54055364D01*
X57458499Y-54021811D01*
X57458498Y-54021795D01*
X57458178Y-54018665D01*
X57447887Y-53917923D01*
X57447401Y-53916456D01*
X57392117Y-53749615D01*
X57326961Y-53643980D01*
X57308500Y-53578883D01*
X57308500Y-52304849D01*
X57328185Y-52237810D01*
X57380989Y-52192055D01*
X57432500Y-52180849D01*
X58200539Y-52180849D01*
X58200544Y-52180849D01*
X58304425Y-52170236D01*
X58472737Y-52114463D01*
X58623651Y-52021379D01*
X58749030Y-51896000D01*
X58842114Y-51745086D01*
X58897887Y-51576774D01*
X58908500Y-51472893D01*
X58908500Y-42471805D01*
X58897887Y-42367924D01*
X58842114Y-42199612D01*
X58749030Y-42048698D01*
X58623651Y-41923319D01*
X58472737Y-41830235D01*
X58472734Y-41830234D01*
X58304426Y-41774462D01*
X58304419Y-41774461D01*
X58200551Y-41763849D01*
X58200544Y-41763849D01*
X47799456Y-41763849D01*
X47799448Y-41763849D01*
X47695580Y-41774461D01*
X47695573Y-41774462D01*
X47527265Y-41830234D01*
X47527260Y-41830236D01*
X47376347Y-41923320D01*
X47250971Y-42048696D01*
X47157887Y-42199609D01*
X47157885Y-42199614D01*
X47102113Y-42367922D01*
X47102112Y-42367929D01*
X47091500Y-42471797D01*
X47091500Y-51472900D01*
X47101519Y-51570959D01*
X47102113Y-51576774D01*
X47157886Y-51745086D01*
X47250970Y-51896000D01*
X47376349Y-52021379D01*
X47527263Y-52114463D01*
X47695575Y-52170236D01*
X47799456Y-52180849D01*
X50486090Y-52180849D01*
X50553129Y-52200534D01*
X50598884Y-52253338D01*
X50608828Y-52322496D01*
X50607707Y-52329040D01*
X50591500Y-52410516D01*
X50591500Y-52589483D01*
X50626410Y-52764992D01*
X50626413Y-52765001D01*
X50694893Y-52930329D01*
X50694900Y-52930342D01*
X50794321Y-53079134D01*
X50794324Y-53079138D01*
X50849191Y-53134005D01*
X50882676Y-53195328D01*
X50877692Y-53265020D01*
X50835820Y-53320953D01*
X50800515Y-53339392D01*
X50677262Y-53380234D01*
X50677259Y-53380235D01*
X50578085Y-53441407D01*
X50526348Y-53473319D01*
X50526346Y-53473320D01*
X50520201Y-53477111D01*
X50519446Y-53475887D01*
X50462103Y-53499015D01*
X50393462Y-53485968D01*
X50376862Y-53475299D01*
X50222740Y-53380235D01*
X50222735Y-53380233D01*
X50054427Y-53324462D01*
X49950546Y-53313849D01*
X49249462Y-53313849D01*
X49249446Y-53313850D01*
X49145572Y-53324462D01*
X48977264Y-53380233D01*
X48977259Y-53380235D01*
X48826346Y-53473320D01*
X48700971Y-53598695D01*
X48607886Y-53749608D01*
X48607884Y-53749613D01*
X48552113Y-53917921D01*
X48541500Y-54021796D01*
X48541500Y-55312806D01*
X48521815Y-55379845D01*
X48517819Y-55385690D01*
X48480871Y-55436545D01*
X48480870Y-55436547D01*
X48387367Y-55620054D01*
X48323719Y-55815940D01*
X48300449Y-55962864D01*
X48291500Y-56019368D01*
X48291500Y-60344367D01*
X48291500Y-60550331D01*
X48305890Y-60641184D01*
X48312830Y-60685001D01*
X48323720Y-60753757D01*
X48387367Y-60949643D01*
X48440331Y-61053589D01*
X48449238Y-61071069D01*
X48466645Y-61105233D01*
X48480870Y-61133150D01*
X48480871Y-61133152D01*
X48601928Y-61299776D01*
X50155181Y-62853029D01*
X50188666Y-62914352D01*
X50191500Y-62940698D01*
X50191500Y-62947881D01*
X50191501Y-62947903D01*
X50202113Y-63051776D01*
X50211179Y-63079135D01*
X50257885Y-63220087D01*
X50350970Y-63371001D01*
X50476348Y-63496379D01*
X50627262Y-63589464D01*
X50795574Y-63645236D01*
X50899455Y-63655849D01*
X50906628Y-63655848D01*
X50973667Y-63675526D01*
X50994319Y-63692167D01*
X51629320Y-64327168D01*
X51662805Y-64388491D01*
X51657821Y-64458183D01*
X51615949Y-64514116D01*
X51550485Y-64538533D01*
X51541639Y-64538849D01*
X51397019Y-64538849D01*
X51372550Y-64542724D01*
X51193591Y-64571068D01*
X50997705Y-64634716D01*
X50814193Y-64728222D01*
X50647576Y-64849275D01*
X50647571Y-64849279D01*
X50501930Y-64994920D01*
X50501926Y-64994925D01*
X50380873Y-65161542D01*
X50287367Y-65345054D01*
X50223719Y-65540940D01*
X50191500Y-65744368D01*
X50191500Y-65950329D01*
X50223719Y-66153757D01*
X50287367Y-66349643D01*
X50329523Y-66432377D01*
X50364256Y-66500544D01*
X50380873Y-66533155D01*
X50501926Y-66699772D01*
X50501930Y-66699777D01*
X50647571Y-66845418D01*
X50647576Y-66845422D01*
X50755252Y-66923652D01*
X50814197Y-66966478D01*
X50931128Y-67026058D01*
X50997705Y-67059981D01*
X50997707Y-67059981D01*
X50997710Y-67059983D01*
X51102707Y-67094098D01*
X51193591Y-67123629D01*
X51295305Y-67139739D01*
X51397019Y-67155849D01*
X51397020Y-67155849D01*
X51602980Y-67155849D01*
X51602981Y-67155849D01*
X51806408Y-67123629D01*
X52002290Y-67059983D01*
X52185803Y-66966478D01*
X52352430Y-66845417D01*
X52498068Y-66699779D01*
X52619129Y-66533152D01*
X52712634Y-66349639D01*
X52776280Y-66153757D01*
X52808500Y-65950330D01*
X52808500Y-65805710D01*
X52828185Y-65738671D01*
X52880989Y-65692916D01*
X52950147Y-65682972D01*
X53013703Y-65711997D01*
X53020181Y-65718029D01*
X56258096Y-68955944D01*
X56281502Y-68988529D01*
X56285540Y-68996671D01*
X56287366Y-69002290D01*
X56323496Y-69073200D01*
X56323851Y-69073915D01*
X56323925Y-69074336D01*
X56330470Y-69090006D01*
X56357885Y-69172737D01*
X56357886Y-69172740D01*
X56450971Y-69323653D01*
X56545647Y-69418329D01*
X56579132Y-69479652D01*
X56574148Y-69549344D01*
X56545648Y-69593691D01*
X56457682Y-69681657D01*
X56365643Y-69830875D01*
X56365641Y-69830880D01*
X56310494Y-69997302D01*
X56310493Y-69997309D01*
X56300000Y-70100013D01*
X56300000Y-70250000D01*
X58699999Y-70250000D01*
X58699999Y-70100028D01*
X58699998Y-70100013D01*
X58689505Y-69997302D01*
X58634358Y-69830880D01*
X58634356Y-69830875D01*
X58542315Y-69681654D01*
X58454352Y-69593691D01*
X58420867Y-69532368D01*
X58425851Y-69462676D01*
X58454348Y-69418333D01*
X58549030Y-69323652D01*
X58642115Y-69172738D01*
X58669531Y-69089996D01*
X58676750Y-69072714D01*
X58712631Y-69002295D01*
X58712634Y-69002290D01*
X58776280Y-68806408D01*
X58808500Y-68602981D01*
X58808500Y-68244368D01*
X58783674Y-68087622D01*
X58776280Y-68040940D01*
X58712632Y-67845054D01*
X58619129Y-67661546D01*
X58498068Y-67494918D01*
X52844818Y-61841668D01*
X52811333Y-61780345D01*
X52808499Y-61753987D01*
X52808499Y-61746811D01*
X52808498Y-61746795D01*
X52807293Y-61734996D01*
X52797887Y-61642923D01*
X52742115Y-61474611D01*
X52649030Y-61323697D01*
X52523652Y-61198319D01*
X52407076Y-61126414D01*
X52372740Y-61105235D01*
X52372735Y-61105233D01*
X52204427Y-61049462D01*
X52100552Y-61038849D01*
X52100545Y-61038849D01*
X52093360Y-61038849D01*
X52026321Y-61019164D01*
X52005679Y-61002530D01*
X50944819Y-59941669D01*
X50911334Y-59880346D01*
X50908500Y-59853988D01*
X50908500Y-59421964D01*
X50928185Y-59354925D01*
X50980989Y-59309170D01*
X51050147Y-59299226D01*
X51113703Y-59328251D01*
X51120181Y-59334283D01*
X53828818Y-62042920D01*
X53828839Y-62042943D01*
X53952735Y-62166839D01*
X54093351Y-62260795D01*
X54203822Y-62306553D01*
X54203823Y-62306553D01*
X54249584Y-62325508D01*
X54415440Y-62358499D01*
X54415443Y-62358500D01*
X54415445Y-62358500D01*
X57084557Y-62358500D01*
X57084558Y-62358499D01*
X57250416Y-62325508D01*
X57296176Y-62306553D01*
X57406652Y-62260793D01*
X57547262Y-62166841D01*
X57666841Y-62047262D01*
X57666841Y-62047261D01*
X71274819Y-48439283D01*
X71336142Y-48405798D01*
X71405834Y-48410782D01*
X71461767Y-48452654D01*
X71486184Y-48518118D01*
X71486500Y-48526964D01*
X71486500Y-55267507D01*
X71492987Y-55327834D01*
X71480582Y-55396594D01*
X71432972Y-55447731D01*
X71397292Y-55461981D01*
X71276734Y-55489498D01*
X71276725Y-55489501D01*
X71000193Y-55586264D01*
X70736233Y-55713381D01*
X70488155Y-55869259D01*
X70488153Y-55869260D01*
X70259102Y-56051921D01*
X70051921Y-56259102D01*
X69869260Y-56488153D01*
X69869259Y-56488155D01*
X69713381Y-56736233D01*
X69586264Y-57000193D01*
X69489501Y-57276725D01*
X69489497Y-57276737D01*
X69424304Y-57562368D01*
X69424302Y-57562384D01*
X69391500Y-57853505D01*
X69391500Y-58146494D01*
X69424302Y-58437615D01*
X69424304Y-58437631D01*
X69489497Y-58723262D01*
X69489501Y-58723274D01*
X69586264Y-58999806D01*
X69713381Y-59263766D01*
X69869259Y-59511844D01*
X69869260Y-59511846D01*
X70051921Y-59740897D01*
X70259102Y-59948078D01*
X70488153Y-60130739D01*
X70488156Y-60130740D01*
X70488158Y-60130742D01*
X70545381Y-60166698D01*
X70736236Y-60286620D01*
X70821301Y-60327585D01*
X70873161Y-60374407D01*
X70891500Y-60439305D01*
X70891500Y-63843541D01*
X70871815Y-63910580D01*
X70819011Y-63956335D01*
X70767500Y-63967541D01*
X69999448Y-63967541D01*
X69895571Y-63978154D01*
X69727264Y-64033924D01*
X69727261Y-64033925D01*
X69576352Y-64127008D01*
X69576348Y-64127011D01*
X69450970Y-64252389D01*
X69450967Y-64252393D01*
X69357889Y-64403294D01*
X69357883Y-64403307D01*
X69331628Y-64482544D01*
X69291856Y-64539989D01*
X69227341Y-64566813D01*
X69213922Y-64567541D01*
X62911200Y-64567541D01*
X62736717Y-64567541D01*
X62612337Y-64587241D01*
X62612331Y-64587242D01*
X62564383Y-64594836D01*
X62398445Y-64648751D01*
X62398442Y-64648752D01*
X62242979Y-64727966D01*
X62188123Y-64767820D01*
X62122316Y-64791298D01*
X62115247Y-64791500D01*
X62099465Y-64791500D01*
X62099445Y-64791501D01*
X61995572Y-64802113D01*
X61827264Y-64857884D01*
X61827259Y-64857886D01*
X61676346Y-64950971D01*
X61587681Y-65039637D01*
X61579735Y-65043975D01*
X61574310Y-65051223D01*
X61549550Y-65060457D01*
X61526358Y-65073122D01*
X61517328Y-65072476D01*
X61508846Y-65075640D01*
X61483025Y-65070023D01*
X61456666Y-65068138D01*
X61447612Y-65062319D01*
X61440573Y-65060788D01*
X61412319Y-65039637D01*
X61394819Y-65022137D01*
X61361334Y-64960814D01*
X61358500Y-64934456D01*
X61358500Y-63565544D01*
X61378185Y-63498505D01*
X61394819Y-63477863D01*
X61412319Y-63460363D01*
X61473642Y-63426878D01*
X61543334Y-63431862D01*
X61587681Y-63460363D01*
X61676348Y-63549030D01*
X61827262Y-63642115D01*
X61995574Y-63697887D01*
X62099455Y-63708500D01*
X62900544Y-63708499D01*
X63004426Y-63697887D01*
X63172738Y-63642115D01*
X63323652Y-63549030D01*
X63427864Y-63444818D01*
X63489187Y-63411334D01*
X63515545Y-63408500D01*
X63589480Y-63408500D01*
X63589481Y-63408499D01*
X63647986Y-63396862D01*
X63764992Y-63373589D01*
X63764995Y-63373587D01*
X63765000Y-63373587D01*
X63930336Y-63305103D01*
X64079135Y-63205678D01*
X64705678Y-62579135D01*
X64805103Y-62430336D01*
X64834859Y-62358499D01*
X64861849Y-62293339D01*
X64873585Y-62265004D01*
X64873587Y-62265000D01*
X64908500Y-62089479D01*
X64908500Y-61910521D01*
X64907731Y-61906655D01*
X64907731Y-61906654D01*
X64907729Y-61906648D01*
X64873587Y-61735000D01*
X64822801Y-61612391D01*
X64805106Y-61569670D01*
X64805099Y-61569657D01*
X64705678Y-61420865D01*
X64705675Y-61420861D01*
X64579138Y-61294324D01*
X64579134Y-61294321D01*
X64430342Y-61194900D01*
X64430329Y-61194893D01*
X64265004Y-61126414D01*
X64264992Y-61126411D01*
X64089484Y-61091500D01*
X64089480Y-61091500D01*
X64089479Y-61091500D01*
X63910521Y-61091500D01*
X63910516Y-61091500D01*
X63735006Y-61126411D01*
X63734993Y-61126415D01*
X63701842Y-61140146D01*
X63686574Y-61146471D01*
X63569668Y-61194894D01*
X63569666Y-61194895D01*
X63420865Y-61294321D01*
X63356218Y-61358967D01*
X63294894Y-61392451D01*
X63225203Y-61387465D01*
X63203442Y-61376823D01*
X63172735Y-61357883D01*
X63004428Y-61302113D01*
X62900546Y-61291500D01*
X62099462Y-61291500D01*
X62099446Y-61291501D01*
X61995572Y-61302113D01*
X61827264Y-61357884D01*
X61827259Y-61357886D01*
X61676346Y-61450971D01*
X61587681Y-61539637D01*
X61526358Y-61573122D01*
X61456666Y-61568138D01*
X61412319Y-61539637D01*
X61323653Y-61450971D01*
X61323652Y-61450970D01*
X61203441Y-61376823D01*
X61172740Y-61357886D01*
X61172735Y-61357884D01*
X61004427Y-61302113D01*
X60900546Y-61291500D01*
X60099462Y-61291500D01*
X60099446Y-61291501D01*
X59995572Y-61302113D01*
X59827264Y-61357884D01*
X59827259Y-61357886D01*
X59676346Y-61450971D01*
X59550970Y-61576347D01*
X59550967Y-61576351D01*
X59547115Y-61582597D01*
X59539529Y-61589419D01*
X59535290Y-61598703D01*
X59513989Y-61612391D01*
X59495167Y-61629322D01*
X59483530Y-61631966D01*
X59476512Y-61636477D01*
X59441577Y-61641500D01*
X59326088Y-61641500D01*
X59278635Y-61632061D01*
X59265000Y-61626413D01*
X59264992Y-61626411D01*
X59089483Y-61591500D01*
X59089479Y-61591500D01*
X58910521Y-61591500D01*
X58910516Y-61591500D01*
X58735007Y-61626411D01*
X58734999Y-61626413D01*
X58569667Y-61694896D01*
X58569657Y-61694901D01*
X58420865Y-61794321D01*
X58420861Y-61794324D01*
X58294324Y-61920861D01*
X58294321Y-61920865D01*
X58194901Y-62069657D01*
X58194896Y-62069667D01*
X58126413Y-62234999D01*
X58126411Y-62235007D01*
X58091500Y-62410516D01*
X58091500Y-62589483D01*
X58126411Y-62764992D01*
X58126413Y-62765000D01*
X58194896Y-62930332D01*
X58194901Y-62930342D01*
X58294321Y-63079134D01*
X58294324Y-63079138D01*
X58420861Y-63205675D01*
X58420865Y-63205678D01*
X58569657Y-63305098D01*
X58569661Y-63305100D01*
X58569664Y-63305102D01*
X58735000Y-63373587D01*
X58910516Y-63408499D01*
X58910520Y-63408500D01*
X58910521Y-63408500D01*
X59089480Y-63408500D01*
X59089481Y-63408499D01*
X59265000Y-63373587D01*
X59278635Y-63367938D01*
X59286812Y-63366312D01*
X59291153Y-63363523D01*
X59326088Y-63358500D01*
X59441577Y-63358500D01*
X59508616Y-63378185D01*
X59547115Y-63417403D01*
X59550967Y-63423648D01*
X59550970Y-63423652D01*
X59605181Y-63477863D01*
X59638666Y-63539186D01*
X59641500Y-63565544D01*
X59641500Y-64934456D01*
X59621815Y-65001495D01*
X59605181Y-65022137D01*
X59550971Y-65076346D01*
X59457886Y-65227259D01*
X59457884Y-65227264D01*
X59402113Y-65395572D01*
X59391500Y-65499447D01*
X59391500Y-66500537D01*
X59391501Y-66500553D01*
X59402113Y-66604427D01*
X59433709Y-66699779D01*
X59457885Y-66772738D01*
X59550970Y-66923652D01*
X59676348Y-67049030D01*
X59827262Y-67142115D01*
X59995574Y-67197887D01*
X60099455Y-67208500D01*
X60900544Y-67208499D01*
X61004426Y-67197887D01*
X61172738Y-67142115D01*
X61323652Y-67049030D01*
X61412319Y-66960363D01*
X61473642Y-66926878D01*
X61543334Y-66931862D01*
X61587681Y-66960363D01*
X61676348Y-67049030D01*
X61827262Y-67142115D01*
X61995574Y-67197887D01*
X62099455Y-67208500D01*
X62900544Y-67208499D01*
X63004426Y-67197887D01*
X63172738Y-67142115D01*
X63323652Y-67049030D01*
X63449030Y-66923652D01*
X63498504Y-66843441D01*
X63550450Y-66796720D01*
X63604041Y-66784541D01*
X69213922Y-66784541D01*
X69280961Y-66804226D01*
X69326716Y-66857030D01*
X69331628Y-66869538D01*
X69357883Y-66948774D01*
X69357889Y-66948787D01*
X69450967Y-67099688D01*
X69450970Y-67099692D01*
X69576348Y-67225070D01*
X69576352Y-67225073D01*
X69727261Y-67318156D01*
X69727264Y-67318157D01*
X69895571Y-67373927D01*
X69895572Y-67373927D01*
X69895575Y-67373928D01*
X69999456Y-67384541D01*
X71362500Y-67384541D01*
X71429539Y-67404226D01*
X71475294Y-67457030D01*
X71486500Y-67508541D01*
X71486500Y-68876028D01*
X71466815Y-68943067D01*
X71414011Y-68988822D01*
X71344853Y-68998766D01*
X71338056Y-68997379D01*
X71338019Y-68997568D01*
X71334023Y-68996773D01*
X71111990Y-68967542D01*
X71111987Y-68967541D01*
X71111981Y-68967541D01*
X70888019Y-68967541D01*
X70888013Y-68967541D01*
X70888009Y-68967542D01*
X70665983Y-68996772D01*
X70665976Y-68996773D01*
X70665973Y-68996774D01*
X70574535Y-69021274D01*
X70449641Y-69054739D01*
X70242737Y-69140441D01*
X70242720Y-69140449D01*
X70048779Y-69252422D01*
X70048763Y-69252433D01*
X69871092Y-69388764D01*
X69871085Y-69388770D01*
X69712729Y-69547126D01*
X69712723Y-69547133D01*
X69576392Y-69724804D01*
X69576381Y-69724820D01*
X69464408Y-69918761D01*
X69464400Y-69918778D01*
X69378698Y-70125682D01*
X69320734Y-70342011D01*
X69320731Y-70342024D01*
X69291501Y-70564050D01*
X69291500Y-70564066D01*
X69291500Y-70788015D01*
X69291501Y-70788031D01*
X69320731Y-71010057D01*
X69320732Y-71010062D01*
X69320733Y-71010068D01*
X69369786Y-71193140D01*
X69378698Y-71226399D01*
X69464400Y-71433303D01*
X69464408Y-71433320D01*
X69576381Y-71627261D01*
X69576392Y-71627277D01*
X69712723Y-71804948D01*
X69712729Y-71804955D01*
X69871085Y-71963311D01*
X69871091Y-71963316D01*
X70048772Y-72099655D01*
X70048779Y-72099659D01*
X70242720Y-72211632D01*
X70242725Y-72211634D01*
X70242728Y-72211636D01*
X70242732Y-72211637D01*
X70242737Y-72211640D01*
X70308355Y-72238819D01*
X70449642Y-72297343D01*
X70665973Y-72355308D01*
X70888019Y-72384541D01*
X70888026Y-72384541D01*
X71111974Y-72384541D01*
X71111981Y-72384541D01*
X71334027Y-72355308D01*
X71334044Y-72355303D01*
X71338008Y-72354516D01*
X71338406Y-72356519D01*
X71400030Y-72357868D01*
X71457968Y-72396920D01*
X71485595Y-72461095D01*
X71486500Y-72476052D01*
X71486500Y-77452578D01*
X71491092Y-77521097D01*
X71495511Y-77553915D01*
X71509213Y-77621229D01*
X71538380Y-77688236D01*
X71567547Y-77755242D01*
X71567548Y-77755243D01*
X71567553Y-77755252D01*
X71604266Y-77814686D01*
X71697989Y-77926833D01*
X71698550Y-77927337D01*
X71698945Y-77927977D01*
X71703677Y-77933639D01*
X71702862Y-77934319D01*
X71735268Y-77986780D01*
X71734020Y-78056639D01*
X71695202Y-78114733D01*
X71631137Y-78142618D01*
X71627182Y-78143050D01*
X71605178Y-78145098D01*
X71605175Y-78145099D01*
X71466771Y-78192265D01*
X71466767Y-78192267D01*
X71347258Y-78276515D01*
X71347257Y-78276516D01*
X71256327Y-78391018D01*
X71256322Y-78391026D01*
X71201334Y-78526510D01*
X71186742Y-78672006D01*
X71191993Y-78710470D01*
X71996777Y-82171039D01*
X72000000Y-82199127D01*
X72000000Y-82506797D01*
X71980315Y-82573836D01*
X71927511Y-82619591D01*
X71910939Y-82625772D01*
X71859173Y-82640973D01*
X71859169Y-82640975D01*
X71736218Y-82719991D01*
X71736211Y-82719997D01*
X71683418Y-82765742D01*
X71683415Y-82765745D01*
X71587705Y-82876198D01*
X71587701Y-82876204D01*
X71526987Y-83009146D01*
X71507300Y-83076191D01*
X71494872Y-83162636D01*
X71486500Y-83220863D01*
X71486500Y-84779136D01*
X71502905Y-84907896D01*
X71502906Y-84907903D01*
X71518495Y-84968085D01*
X71518498Y-84968096D01*
X71566665Y-85088628D01*
X71655087Y-85205010D01*
X71704836Y-85254056D01*
X71704846Y-85254064D01*
X71822465Y-85340814D01*
X71918506Y-85375860D01*
X71974736Y-85417333D01*
X71999618Y-85482622D01*
X72000000Y-85492347D01*
X72000000Y-85800866D01*
X71996777Y-85828954D01*
X71532082Y-87827143D01*
X71204400Y-89236180D01*
X71191991Y-89289537D01*
X71191990Y-89289540D01*
X71186742Y-89327994D01*
X71201332Y-89473485D01*
X71201334Y-89473492D01*
X71256320Y-89608971D01*
X71256325Y-89608979D01*
X71264595Y-89619393D01*
X71347257Y-89723483D01*
X71466768Y-89807734D01*
X71557500Y-89838655D01*
X71614605Y-89878912D01*
X71640881Y-89943652D01*
X71641500Y-89956026D01*
X71641500Y-90593034D01*
X71621815Y-90660073D01*
X71605181Y-90680715D01*
X71223856Y-91062039D01*
X71162533Y-91095524D01*
X71111989Y-91095976D01*
X71089484Y-91091500D01*
X71089479Y-91091500D01*
X70910521Y-91091500D01*
X70910516Y-91091500D01*
X70735007Y-91126411D01*
X70734999Y-91126413D01*
X70569667Y-91194896D01*
X70569657Y-91194901D01*
X70420865Y-91294321D01*
X70420861Y-91294324D01*
X70294324Y-91420861D01*
X70294321Y-91420865D01*
X70194901Y-91569657D01*
X70194896Y-91569667D01*
X70126413Y-91734999D01*
X70126411Y-91735007D01*
X70091500Y-91910516D01*
X70091500Y-92078035D01*
X70071815Y-92145074D01*
X70019011Y-92190829D01*
X69949853Y-92200773D01*
X69886297Y-92171748D01*
X69879819Y-92165716D01*
X67394819Y-89680716D01*
X67361334Y-89619393D01*
X67358500Y-89593035D01*
X67358500Y-89065544D01*
X67378185Y-88998505D01*
X67394819Y-88977863D01*
X67412319Y-88960363D01*
X67449030Y-88923652D01*
X67542115Y-88772738D01*
X67597887Y-88604426D01*
X67608500Y-88500545D01*
X67608499Y-87499456D01*
X67597887Y-87395574D01*
X67542115Y-87227262D01*
X67449030Y-87076348D01*
X67323652Y-86950970D01*
X67172738Y-86857885D01*
X67172735Y-86857884D01*
X67004427Y-86802113D01*
X66900546Y-86791500D01*
X66099462Y-86791500D01*
X66099446Y-86791501D01*
X65995572Y-86802113D01*
X65827264Y-86857884D01*
X65827259Y-86857886D01*
X65676346Y-86950971D01*
X65587681Y-87039637D01*
X65579735Y-87043975D01*
X65574310Y-87051223D01*
X65549550Y-87060457D01*
X65526358Y-87073122D01*
X65517328Y-87072476D01*
X65508846Y-87075640D01*
X65483025Y-87070023D01*
X65456666Y-87068138D01*
X65447612Y-87062319D01*
X65440573Y-87060788D01*
X65412319Y-87039637D01*
X65394819Y-87022137D01*
X65361334Y-86960814D01*
X65358500Y-86934456D01*
X65358500Y-85565544D01*
X65378185Y-85498505D01*
X65394819Y-85477863D01*
X65412319Y-85460363D01*
X65473642Y-85426878D01*
X65543334Y-85431862D01*
X65587681Y-85460363D01*
X65676348Y-85549030D01*
X65827262Y-85642115D01*
X65995574Y-85697887D01*
X66099455Y-85708500D01*
X66900544Y-85708499D01*
X67004426Y-85697887D01*
X67172738Y-85642115D01*
X67323652Y-85549030D01*
X67449030Y-85423652D01*
X67542115Y-85272738D01*
X67597887Y-85104426D01*
X67608500Y-85000545D01*
X67608499Y-83999456D01*
X67597887Y-83895574D01*
X67570014Y-83811458D01*
X67567612Y-83741630D01*
X67600039Y-83684773D01*
X67899034Y-83385779D01*
X68205678Y-83079135D01*
X68305103Y-82930336D01*
X68361441Y-82794322D01*
X68373587Y-82765000D01*
X68408500Y-82589479D01*
X68408500Y-82410521D01*
X68406807Y-82402012D01*
X68373587Y-82235000D01*
X68314810Y-82093099D01*
X68305106Y-82069670D01*
X68305099Y-82069657D01*
X68205678Y-81920864D01*
X68205675Y-81920860D01*
X68079139Y-81794324D01*
X68079135Y-81794321D01*
X67930342Y-81694900D01*
X67930329Y-81694893D01*
X67765004Y-81626414D01*
X67764992Y-81626411D01*
X67589484Y-81591500D01*
X67589480Y-81591500D01*
X67589479Y-81591500D01*
X67410521Y-81591500D01*
X67410516Y-81591500D01*
X67235006Y-81626411D01*
X67234993Y-81626415D01*
X67201842Y-81640146D01*
X67186574Y-81646471D01*
X67069668Y-81694894D01*
X67069666Y-81694895D01*
X66920865Y-81794321D01*
X66920861Y-81794324D01*
X65794324Y-82920861D01*
X65794321Y-82920865D01*
X65694898Y-83069660D01*
X65637390Y-83208499D01*
X65626414Y-83234996D01*
X65626411Y-83235006D01*
X65591500Y-83410516D01*
X65591500Y-83419456D01*
X65571815Y-83486495D01*
X65519011Y-83532250D01*
X65449853Y-83542194D01*
X65386297Y-83513169D01*
X65379819Y-83507137D01*
X65323653Y-83450971D01*
X65323652Y-83450970D01*
X65172738Y-83357885D01*
X65172735Y-83357884D01*
X65004427Y-83302113D01*
X64900546Y-83291500D01*
X64099462Y-83291500D01*
X64099446Y-83291501D01*
X63995572Y-83302113D01*
X63827264Y-83357884D01*
X63827259Y-83357886D01*
X63676346Y-83450971D01*
X63550971Y-83576346D01*
X63457886Y-83727259D01*
X63457884Y-83727264D01*
X63402113Y-83895572D01*
X63391500Y-83999447D01*
X63391500Y-85000537D01*
X63391501Y-85000553D01*
X63402113Y-85104427D01*
X63451696Y-85254061D01*
X63457885Y-85272738D01*
X63547072Y-85417333D01*
X63550971Y-85423653D01*
X63605181Y-85477863D01*
X63638666Y-85539186D01*
X63641500Y-85565544D01*
X63641500Y-86934456D01*
X63621815Y-87001495D01*
X63605181Y-87022137D01*
X63550971Y-87076346D01*
X63457886Y-87227259D01*
X63457884Y-87227264D01*
X63402113Y-87395572D01*
X63391500Y-87499447D01*
X63391500Y-88500537D01*
X63391501Y-88500553D01*
X63402113Y-88604427D01*
X63457884Y-88772735D01*
X63457886Y-88772740D01*
X63550971Y-88923653D01*
X63605181Y-88977863D01*
X63638666Y-89039186D01*
X63641500Y-89065544D01*
X63641500Y-93093034D01*
X63621815Y-93160073D01*
X63605181Y-93180715D01*
X58623525Y-98162370D01*
X58600183Y-98180692D01*
X58592068Y-98185617D01*
X58569664Y-98194898D01*
X58499141Y-98242019D01*
X58496839Y-98243417D01*
X58465572Y-98251731D01*
X58434712Y-98261394D01*
X58432017Y-98260654D01*
X58429316Y-98261373D01*
X58398523Y-98251465D01*
X58367332Y-98242909D01*
X58365464Y-98240829D01*
X58362804Y-98239974D01*
X58342256Y-98214992D01*
X58320643Y-98190930D01*
X58319948Y-98187870D01*
X58318420Y-98186012D01*
X58317227Y-98175878D01*
X58308500Y-98137414D01*
X58308500Y-97042075D01*
X58308499Y-97042057D01*
X58308499Y-96552113D01*
X58308498Y-96552097D01*
X58308218Y-96549358D01*
X58297887Y-96448225D01*
X58242115Y-96279913D01*
X58149030Y-96128999D01*
X58023652Y-96003621D01*
X57889484Y-95920865D01*
X57872740Y-95910537D01*
X57872735Y-95910535D01*
X57704427Y-95854764D01*
X57600552Y-95844151D01*
X57600545Y-95844151D01*
X57490855Y-95844151D01*
X57434560Y-95830636D01*
X57410438Y-95818345D01*
X57349639Y-95787366D01*
X57153757Y-95723720D01*
X57153755Y-95723719D01*
X57153753Y-95723719D01*
X57011719Y-95701223D01*
X56950331Y-95691500D01*
X56950330Y-95691500D01*
X50798662Y-95691500D01*
X50731623Y-95671815D01*
X50685868Y-95619011D01*
X50675924Y-95549853D01*
X50680956Y-95528495D01*
X50689505Y-95502694D01*
X50689506Y-95502690D01*
X50699999Y-95399986D01*
X50700000Y-95399973D01*
X50700000Y-95250000D01*
X48300001Y-95250000D01*
X48300001Y-95399986D01*
X48310494Y-95502697D01*
X48365641Y-95669119D01*
X48365643Y-95669124D01*
X48457684Y-95818345D01*
X48545647Y-95906308D01*
X48579132Y-95967631D01*
X48574148Y-96037323D01*
X48545648Y-96081670D01*
X48450969Y-96176349D01*
X48357883Y-96327264D01*
X48330468Y-96409996D01*
X48323249Y-96427283D01*
X48287364Y-96497713D01*
X48223720Y-96693587D01*
X48223720Y-96693590D01*
X48191500Y-96897019D01*
X48191500Y-97102980D01*
X48223719Y-97306408D01*
X48287368Y-97502297D01*
X48323249Y-97572717D01*
X48330470Y-97590006D01*
X48357885Y-97672738D01*
X48450970Y-97823652D01*
X48576348Y-97949030D01*
X48621907Y-97977131D01*
X48644490Y-97994988D01*
X48647571Y-97998069D01*
X48647576Y-97998073D01*
X48792908Y-98103661D01*
X48814197Y-98119129D01*
X48899062Y-98162370D01*
X48997705Y-98212632D01*
X48997707Y-98212632D01*
X48997710Y-98212634D01*
X49081854Y-98239974D01*
X49193591Y-98276280D01*
X49295305Y-98292390D01*
X49397019Y-98308500D01*
X55567500Y-98308500D01*
X55634539Y-98328185D01*
X55680294Y-98380989D01*
X55691500Y-98432500D01*
X55691500Y-100418586D01*
X55688794Y-100427800D01*
X55690077Y-100437317D01*
X55679110Y-100460780D01*
X55671815Y-100485625D01*
X55664559Y-100491912D01*
X55660492Y-100500614D01*
X55638578Y-100514424D01*
X55619011Y-100531380D01*
X55607932Y-100533738D01*
X55601382Y-100537867D01*
X55579544Y-100539783D01*
X55566404Y-100542581D01*
X55560626Y-100542529D01*
X55550545Y-100541500D01*
X55444106Y-100541500D01*
X55443540Y-100541495D01*
X55410578Y-100531499D01*
X55377597Y-100521815D01*
X55377224Y-100521384D01*
X55376677Y-100521219D01*
X55354340Y-100494975D01*
X55331842Y-100469011D01*
X55331760Y-100468446D01*
X55331391Y-100468012D01*
X55326796Y-100433917D01*
X55321898Y-100399853D01*
X55322103Y-100399102D01*
X55322059Y-100398769D01*
X55322389Y-100398062D01*
X55330075Y-100370047D01*
X55339181Y-100348061D01*
X55373587Y-100265000D01*
X55408500Y-100089479D01*
X55408500Y-99910521D01*
X55373587Y-99735000D01*
X55305102Y-99569664D01*
X55305100Y-99569661D01*
X55305098Y-99569657D01*
X55205678Y-99420865D01*
X55205675Y-99420861D01*
X55079138Y-99294324D01*
X55079134Y-99294321D01*
X54930342Y-99194901D01*
X54930332Y-99194896D01*
X54765000Y-99126413D01*
X54764992Y-99126411D01*
X54589483Y-99091500D01*
X54589479Y-99091500D01*
X54410521Y-99091500D01*
X54410516Y-99091500D01*
X54235007Y-99126411D01*
X54234999Y-99126413D01*
X54221365Y-99132061D01*
X54173912Y-99141500D01*
X53275730Y-99141500D01*
X53109879Y-99174490D01*
X53109876Y-99174491D01*
X53109875Y-99174491D01*
X53109872Y-99174492D01*
X53082056Y-99186014D01*
X53082054Y-99186015D01*
X53082053Y-99186014D01*
X52953637Y-99239206D01*
X52813025Y-99333159D01*
X52773272Y-99372913D01*
X52693447Y-99452738D01*
X52693445Y-99452740D01*
X51641002Y-100505181D01*
X51579679Y-100538666D01*
X51553322Y-100541500D01*
X51449461Y-100541500D01*
X51449446Y-100541501D01*
X51345572Y-100552113D01*
X51177264Y-100607884D01*
X51177259Y-100607886D01*
X51076842Y-100669824D01*
X51026348Y-100700970D01*
X51026346Y-100700971D01*
X51020201Y-100704762D01*
X51019446Y-100703538D01*
X50962103Y-100726666D01*
X50893462Y-100713619D01*
X50876862Y-100702950D01*
X50722740Y-100607886D01*
X50722735Y-100607884D01*
X50554427Y-100552113D01*
X50450546Y-100541500D01*
X49749462Y-100541500D01*
X49749446Y-100541501D01*
X49645572Y-100552113D01*
X49477264Y-100607884D01*
X49477259Y-100607886D01*
X49326346Y-100700971D01*
X49200971Y-100826346D01*
X49107886Y-100977259D01*
X49107884Y-100977264D01*
X49052113Y-101145572D01*
X49041500Y-101249447D01*
X49041500Y-104122324D01*
X49021815Y-104189363D01*
X49005181Y-104210005D01*
X47794324Y-105420861D01*
X47794321Y-105420865D01*
X47694900Y-105569657D01*
X47694893Y-105569670D01*
X47626413Y-105734998D01*
X47626410Y-105735007D01*
X47591500Y-105910516D01*
X47591500Y-106089483D01*
X47626410Y-106264992D01*
X47626413Y-106265001D01*
X47694893Y-106430329D01*
X47694900Y-106430342D01*
X47794321Y-106579134D01*
X47794324Y-106579138D01*
X47920861Y-106705675D01*
X47920865Y-106705678D01*
X48069657Y-106805099D01*
X48069669Y-106805106D01*
X48162554Y-106843579D01*
X48221128Y-106867841D01*
X48221129Y-106867842D01*
X48234995Y-106873585D01*
X48235000Y-106873587D01*
X48410516Y-106908499D01*
X48410520Y-106908500D01*
X48410521Y-106908500D01*
X48589480Y-106908500D01*
X48589481Y-106908499D01*
X48765000Y-106873587D01*
X48778872Y-106867841D01*
X48930336Y-106805103D01*
X48998610Y-106759483D01*
X49065285Y-106738606D01*
X49132666Y-106757090D01*
X49179356Y-106809068D01*
X49191500Y-106862586D01*
X49191500Y-107167500D01*
X49171815Y-107234539D01*
X49119011Y-107280294D01*
X49067500Y-107291500D01*
X48299448Y-107291500D01*
X48195580Y-107302112D01*
X48195573Y-107302113D01*
X48027265Y-107357885D01*
X48027260Y-107357887D01*
X47876347Y-107450971D01*
X47750971Y-107576347D01*
X47657887Y-107727260D01*
X47657885Y-107727265D01*
X47602113Y-107895573D01*
X47602112Y-107895580D01*
X47591500Y-107999448D01*
X47591500Y-117000551D01*
X47602112Y-117104419D01*
X47602113Y-117104425D01*
X47657886Y-117272737D01*
X47750970Y-117423651D01*
X47876349Y-117549030D01*
X48027263Y-117642114D01*
X48195575Y-117697887D01*
X48299456Y-117708500D01*
X48299461Y-117708500D01*
X58700539Y-117708500D01*
X58700544Y-117708500D01*
X58804425Y-117697887D01*
X58972737Y-117642114D01*
X59123651Y-117549030D01*
X59249030Y-117423651D01*
X59342114Y-117272737D01*
X59397887Y-117104425D01*
X59408500Y-117000544D01*
X59408500Y-107999456D01*
X59397887Y-107895575D01*
X59342114Y-107727263D01*
X59249030Y-107576349D01*
X59123651Y-107450970D01*
X58972737Y-107357886D01*
X58804425Y-107302113D01*
X58804423Y-107302112D01*
X58801687Y-107301206D01*
X58744242Y-107261433D01*
X58717419Y-107196918D01*
X58729734Y-107128142D01*
X58777277Y-107076942D01*
X58840691Y-107059500D01*
X62533557Y-107059500D01*
X62533558Y-107059499D01*
X62699416Y-107026508D01*
X62745176Y-107007553D01*
X62855652Y-106961793D01*
X62996262Y-106867841D01*
X63115841Y-106748262D01*
X63453108Y-106410993D01*
X63514428Y-106377511D01*
X63584119Y-106382495D01*
X63594587Y-106386956D01*
X63650197Y-106413737D01*
X63926737Y-106510502D01*
X64212372Y-106575696D01*
X64503505Y-106608499D01*
X64503506Y-106608500D01*
X64503510Y-106608500D01*
X64796494Y-106608500D01*
X64796494Y-106608499D01*
X65087628Y-106575696D01*
X65373263Y-106510502D01*
X65649803Y-106413737D01*
X65913769Y-106286617D01*
X66161842Y-106130742D01*
X66170878Y-106123536D01*
X66390897Y-105948078D01*
X66390899Y-105948075D01*
X66390904Y-105948072D01*
X66598072Y-105740904D01*
X66602781Y-105735000D01*
X66780739Y-105511846D01*
X66780740Y-105511844D01*
X66780742Y-105511842D01*
X66936617Y-105263769D01*
X67063737Y-104999803D01*
X67160502Y-104723263D01*
X67225696Y-104437628D01*
X67258500Y-104146490D01*
X67258500Y-103853510D01*
X67225696Y-103562372D01*
X67160502Y-103276737D01*
X67063737Y-103000197D01*
X67036956Y-102944587D01*
X67025605Y-102875647D01*
X67053327Y-102811512D01*
X67060985Y-102803116D01*
X69666841Y-100197262D01*
X69760793Y-100056652D01*
X69825508Y-99900415D01*
X69846368Y-99795547D01*
X69858500Y-99734557D01*
X69858500Y-97326087D01*
X69867941Y-97278630D01*
X69873585Y-97265004D01*
X69873587Y-97265000D01*
X69908500Y-97089479D01*
X69908500Y-96910521D01*
X69873587Y-96735000D01*
X69805102Y-96569664D01*
X69805100Y-96569661D01*
X69805098Y-96569657D01*
X69705678Y-96420865D01*
X69705675Y-96420861D01*
X69579138Y-96294324D01*
X69579134Y-96294321D01*
X69430342Y-96194901D01*
X69430332Y-96194896D01*
X69265000Y-96126413D01*
X69264992Y-96126411D01*
X69089483Y-96091500D01*
X69089479Y-96091500D01*
X68910521Y-96091500D01*
X68904459Y-96092097D01*
X68904315Y-96090635D01*
X68841994Y-96085045D01*
X68786826Y-96042170D01*
X68784317Y-96038556D01*
X68705678Y-95920865D01*
X68705675Y-95920861D01*
X68579138Y-95794324D01*
X68579134Y-95794321D01*
X68430342Y-95694901D01*
X68430332Y-95694896D01*
X68265000Y-95626413D01*
X68264992Y-95626411D01*
X68089483Y-95591500D01*
X68089479Y-95591500D01*
X67910521Y-95591500D01*
X67910516Y-95591500D01*
X67735007Y-95626411D01*
X67734999Y-95626413D01*
X67569667Y-95694896D01*
X67569657Y-95694901D01*
X67420865Y-95794321D01*
X67420861Y-95794324D01*
X67294324Y-95920861D01*
X67294321Y-95920865D01*
X67194901Y-96069657D01*
X67194896Y-96069667D01*
X67126413Y-96234999D01*
X67126411Y-96235007D01*
X67091500Y-96410516D01*
X67091500Y-96589483D01*
X67126411Y-96764992D01*
X67126413Y-96765000D01*
X67194896Y-96930332D01*
X67194901Y-96930342D01*
X67294321Y-97079134D01*
X67294324Y-97079138D01*
X67420861Y-97205675D01*
X67420869Y-97205681D01*
X67569662Y-97305101D01*
X67583295Y-97310748D01*
X67623526Y-97337629D01*
X67952734Y-97666838D01*
X67952735Y-97666839D01*
X67952738Y-97666841D01*
X68086391Y-97756144D01*
X68131195Y-97809755D01*
X68141500Y-97859246D01*
X68141500Y-99243034D01*
X68121815Y-99310073D01*
X68105181Y-99330715D01*
X65846893Y-101589002D01*
X65785570Y-101622487D01*
X65715878Y-101617503D01*
X65705411Y-101613042D01*
X65649800Y-101586261D01*
X65373264Y-101489498D01*
X65373262Y-101489497D01*
X65087631Y-101424304D01*
X65087615Y-101424302D01*
X64796494Y-101391500D01*
X64796490Y-101391500D01*
X64503510Y-101391500D01*
X64503506Y-101391500D01*
X64212384Y-101424302D01*
X64212368Y-101424304D01*
X63926737Y-101489497D01*
X63926725Y-101489501D01*
X63650193Y-101586264D01*
X63386233Y-101713381D01*
X63138155Y-101869259D01*
X63138153Y-101869260D01*
X62909102Y-102051921D01*
X62701921Y-102259102D01*
X62519260Y-102488153D01*
X62519259Y-102488155D01*
X62363381Y-102736233D01*
X62236264Y-103000193D01*
X62139501Y-103276725D01*
X62139497Y-103276737D01*
X62074304Y-103562368D01*
X62074302Y-103562384D01*
X62041500Y-103853505D01*
X62041500Y-104146494D01*
X62074302Y-104437615D01*
X62074304Y-104437631D01*
X62139497Y-104723262D01*
X62139498Y-104723264D01*
X62236261Y-104999800D01*
X62263042Y-105055411D01*
X62266838Y-105078471D01*
X62275005Y-105100365D01*
X62272408Y-105112300D01*
X62274393Y-105124353D01*
X62265121Y-105145801D01*
X62260154Y-105168638D01*
X62248548Y-105184140D01*
X62246670Y-105188487D01*
X62239003Y-105196892D01*
X62129717Y-105306180D01*
X62068394Y-105339666D01*
X62042035Y-105342500D01*
X58082500Y-105342500D01*
X58015461Y-105322815D01*
X57969706Y-105270011D01*
X57958500Y-105218500D01*
X57958499Y-104193362D01*
X57978183Y-104126323D01*
X57994820Y-104105678D01*
X57998068Y-104102431D01*
X58119129Y-103935803D01*
X58140082Y-103894680D01*
X58212634Y-103752290D01*
X58276280Y-103556408D01*
X58308500Y-103352981D01*
X58308500Y-99862586D01*
X58328185Y-99795547D01*
X58380989Y-99749792D01*
X58450147Y-99739848D01*
X58501391Y-99759484D01*
X58569657Y-99805098D01*
X58569661Y-99805100D01*
X58569664Y-99805102D01*
X58735000Y-99873587D01*
X58869875Y-99900415D01*
X58910516Y-99908499D01*
X58910520Y-99908500D01*
X58910521Y-99908500D01*
X59089480Y-99908500D01*
X59089481Y-99908499D01*
X59265000Y-99873587D01*
X59430336Y-99805102D01*
X59579135Y-99705678D01*
X59705678Y-99579135D01*
X59805102Y-99430336D01*
X59810749Y-99416701D01*
X59837626Y-99376475D01*
X65047259Y-94166842D01*
X65047262Y-94166841D01*
X65166841Y-94047262D01*
X65260793Y-93906652D01*
X65325509Y-93750415D01*
X65358501Y-93584555D01*
X65358501Y-93415445D01*
X65358501Y-93410335D01*
X65358500Y-93410309D01*
X65358500Y-89065544D01*
X65367144Y-89036103D01*
X65373668Y-89006117D01*
X65377422Y-89001101D01*
X65378185Y-88998505D01*
X65394819Y-88977863D01*
X65412319Y-88960363D01*
X65473642Y-88926878D01*
X65543334Y-88931862D01*
X65587681Y-88960363D01*
X65605181Y-88977863D01*
X65638666Y-89039186D01*
X65641500Y-89065544D01*
X65641500Y-90084559D01*
X65672261Y-90239204D01*
X65674491Y-90250413D01*
X65674491Y-90250414D01*
X65739205Y-90406648D01*
X65739209Y-90406655D01*
X65833160Y-90547264D01*
X65833161Y-90547265D01*
X71676444Y-96390547D01*
X71709929Y-96451870D01*
X71704945Y-96521562D01*
X71682476Y-96559431D01*
X71587702Y-96668804D01*
X71587701Y-96668806D01*
X71526987Y-96801748D01*
X71507300Y-96868793D01*
X71486500Y-97013466D01*
X71486500Y-129675500D01*
X71466815Y-129742539D01*
X71414011Y-129788294D01*
X71362500Y-129799500D01*
X46824500Y-129799500D01*
X46757461Y-129779815D01*
X46711706Y-129727011D01*
X46700500Y-129675500D01*
X46700500Y-123803153D01*
X47991500Y-123803153D01*
X47991500Y-124196846D01*
X48025813Y-124589042D01*
X48025813Y-124589044D01*
X48090170Y-124954029D01*
X48094176Y-124976748D01*
X48196071Y-125357024D01*
X48330721Y-125726972D01*
X48330724Y-125726979D01*
X48330725Y-125726981D01*
X48497097Y-126083768D01*
X48497105Y-126083783D01*
X48635465Y-126323429D01*
X48693947Y-126424723D01*
X48693951Y-126424729D01*
X48693958Y-126424740D01*
X48919759Y-126747217D01*
X49088424Y-126948222D01*
X49172819Y-127048800D01*
X49451200Y-127327181D01*
X49576593Y-127432399D01*
X49752782Y-127580240D01*
X50075259Y-127806041D01*
X50075266Y-127806045D01*
X50075277Y-127806053D01*
X50394814Y-127990537D01*
X50416216Y-128002894D01*
X50416231Y-128002902D01*
X50574803Y-128076845D01*
X50773028Y-128169279D01*
X51142976Y-128303929D01*
X51523252Y-128405824D01*
X51910962Y-128474187D01*
X52303153Y-128508499D01*
X52303154Y-128508500D01*
X52303155Y-128508500D01*
X52696846Y-128508500D01*
X52696846Y-128508499D01*
X53089038Y-128474187D01*
X53476748Y-128405824D01*
X53857024Y-128303929D01*
X54226972Y-128169279D01*
X54583777Y-128002898D01*
X54924723Y-127806053D01*
X55247216Y-127580241D01*
X55548800Y-127327181D01*
X55827181Y-127048800D01*
X56080241Y-126747216D01*
X56306053Y-126424723D01*
X56502898Y-126083777D01*
X56669279Y-125726972D01*
X56803929Y-125357024D01*
X56905824Y-124976748D01*
X56974187Y-124589038D01*
X57008500Y-124196845D01*
X57008500Y-123803155D01*
X56974187Y-123410962D01*
X56965044Y-123359107D01*
X62491250Y-123359107D01*
X62491250Y-123640892D01*
X62522797Y-123920880D01*
X62522799Y-123920896D01*
X62585499Y-124195604D01*
X62585503Y-124195616D01*
X62678566Y-124461573D01*
X62678569Y-124461581D01*
X62800819Y-124715436D01*
X62800823Y-124715442D01*
X62950738Y-124954029D01*
X63126423Y-125174331D01*
X63325669Y-125373577D01*
X63545971Y-125549262D01*
X63784558Y-125699177D01*
X63784563Y-125699180D01*
X64038418Y-125821430D01*
X64038425Y-125821432D01*
X64038430Y-125821435D01*
X64238178Y-125891329D01*
X64304383Y-125914496D01*
X64304395Y-125914500D01*
X64579107Y-125977201D01*
X64859108Y-126008749D01*
X64859109Y-126008750D01*
X64859112Y-126008750D01*
X65140891Y-126008750D01*
X65140891Y-126008749D01*
X65420893Y-125977201D01*
X65695605Y-125914500D01*
X65961570Y-125821435D01*
X65961578Y-125821431D01*
X65961581Y-125821430D01*
X66215436Y-125699180D01*
X66215436Y-125699179D01*
X66215442Y-125699177D01*
X66454029Y-125549262D01*
X66674331Y-125373577D01*
X66873577Y-125174331D01*
X67049262Y-124954029D01*
X67199177Y-124715442D01*
X67292358Y-124521950D01*
X67321430Y-124461581D01*
X67321431Y-124461578D01*
X67321435Y-124461570D01*
X67414500Y-124195605D01*
X67477201Y-123920893D01*
X67508750Y-123640888D01*
X67508750Y-123359112D01*
X67477201Y-123079107D01*
X67414500Y-122804395D01*
X67321435Y-122538430D01*
X67321432Y-122538425D01*
X67321430Y-122538418D01*
X67199180Y-122284563D01*
X67147927Y-122202995D01*
X67049262Y-122045971D01*
X66873577Y-121825669D01*
X66674331Y-121626423D01*
X66454029Y-121450738D01*
X66215442Y-121300823D01*
X66215443Y-121300823D01*
X66215436Y-121300819D01*
X65961581Y-121178569D01*
X65961573Y-121178566D01*
X65695616Y-121085503D01*
X65695604Y-121085499D01*
X65420896Y-121022799D01*
X65420880Y-121022797D01*
X65140892Y-120991250D01*
X65140888Y-120991250D01*
X64859112Y-120991250D01*
X64859107Y-120991250D01*
X64579119Y-121022797D01*
X64579103Y-121022799D01*
X64304395Y-121085499D01*
X64304383Y-121085503D01*
X64038426Y-121178566D01*
X64038418Y-121178569D01*
X63784563Y-121300819D01*
X63545972Y-121450737D01*
X63325669Y-121626422D01*
X63126422Y-121825669D01*
X62950737Y-122045972D01*
X62800819Y-122284563D01*
X62678569Y-122538418D01*
X62678566Y-122538426D01*
X62585503Y-122804383D01*
X62585499Y-122804395D01*
X62522799Y-123079103D01*
X62522797Y-123079119D01*
X62491250Y-123359107D01*
X56965044Y-123359107D01*
X56905824Y-123023252D01*
X56803929Y-122642976D01*
X56669279Y-122273028D01*
X56502898Y-121916223D01*
X56306053Y-121575277D01*
X56306045Y-121575266D01*
X56306041Y-121575259D01*
X56080240Y-121252782D01*
X55827178Y-120951197D01*
X55548802Y-120672821D01*
X55247217Y-120419759D01*
X54924740Y-120193958D01*
X54924729Y-120193951D01*
X54924723Y-120193947D01*
X54755041Y-120095981D01*
X54583783Y-119997105D01*
X54583768Y-119997097D01*
X54226981Y-119830725D01*
X54226979Y-119830724D01*
X54226972Y-119830721D01*
X53857024Y-119696071D01*
X53615940Y-119631472D01*
X53476749Y-119594176D01*
X53476738Y-119594174D01*
X53089043Y-119525813D01*
X52696846Y-119491500D01*
X52696845Y-119491500D01*
X52303155Y-119491500D01*
X52303154Y-119491500D01*
X51910957Y-119525813D01*
X51910955Y-119525813D01*
X51523261Y-119594174D01*
X51523250Y-119594176D01*
X51319460Y-119648782D01*
X51142976Y-119696071D01*
X51142973Y-119696072D01*
X51142972Y-119696072D01*
X50936332Y-119771282D01*
X50773028Y-119830721D01*
X50773024Y-119830722D01*
X50773018Y-119830725D01*
X50416231Y-119997097D01*
X50416216Y-119997105D01*
X50075285Y-120193942D01*
X50075259Y-120193958D01*
X49752782Y-120419759D01*
X49451197Y-120672821D01*
X49172821Y-120951197D01*
X48919759Y-121252782D01*
X48693958Y-121575259D01*
X48693942Y-121575285D01*
X48497105Y-121916216D01*
X48497097Y-121916231D01*
X48330725Y-122273018D01*
X48330722Y-122273024D01*
X48330721Y-122273028D01*
X48271282Y-122436332D01*
X48196072Y-122642972D01*
X48196072Y-122642974D01*
X48094176Y-123023250D01*
X48094174Y-123023261D01*
X48025813Y-123410955D01*
X48025813Y-123410957D01*
X47991500Y-123803153D01*
X46700500Y-123803153D01*
X46700500Y-94600013D01*
X48300000Y-94600013D01*
X48300000Y-94750000D01*
X49250000Y-94750000D01*
X49750000Y-94750000D01*
X50699999Y-94750000D01*
X50699999Y-94600028D01*
X50699998Y-94600013D01*
X50689505Y-94497302D01*
X50634358Y-94330880D01*
X50634356Y-94330875D01*
X50542315Y-94181654D01*
X50418345Y-94057684D01*
X50269124Y-93965643D01*
X50269119Y-93965641D01*
X50102697Y-93910494D01*
X50102690Y-93910493D01*
X49999986Y-93900000D01*
X49750000Y-93900000D01*
X49750000Y-94750000D01*
X49250000Y-94750000D01*
X49250000Y-93900000D01*
X49000029Y-93900000D01*
X49000012Y-93900001D01*
X48897302Y-93910494D01*
X48730880Y-93965641D01*
X48730875Y-93965643D01*
X48581654Y-94057684D01*
X48457684Y-94181654D01*
X48365643Y-94330875D01*
X48365641Y-94330880D01*
X48310494Y-94497302D01*
X48310493Y-94497309D01*
X48300000Y-94600013D01*
X46700500Y-94600013D01*
X46700500Y-93549670D01*
X55691500Y-93549670D01*
X55691500Y-93755631D01*
X55723719Y-93959059D01*
X55787367Y-94154945D01*
X55851671Y-94281147D01*
X55877009Y-94330875D01*
X55880873Y-94338457D01*
X56001926Y-94505074D01*
X56001930Y-94505079D01*
X56147571Y-94650720D01*
X56147576Y-94650724D01*
X56284219Y-94750000D01*
X56314197Y-94771780D01*
X56431128Y-94831360D01*
X56497705Y-94865283D01*
X56497707Y-94865283D01*
X56497710Y-94865285D01*
X56602707Y-94899400D01*
X56693591Y-94928931D01*
X56795305Y-94945041D01*
X56897019Y-94961151D01*
X56897020Y-94961151D01*
X57102980Y-94961151D01*
X57102981Y-94961151D01*
X57306408Y-94928931D01*
X57502290Y-94865285D01*
X57685803Y-94771780D01*
X57852430Y-94650719D01*
X57998068Y-94505081D01*
X58119129Y-94338454D01*
X58212634Y-94154941D01*
X58276280Y-93959059D01*
X58308500Y-93755632D01*
X58308500Y-93549670D01*
X58276280Y-93346243D01*
X58212634Y-93150361D01*
X58212632Y-93150358D01*
X58212632Y-93150356D01*
X58178709Y-93083779D01*
X58119129Y-92966848D01*
X58093076Y-92930989D01*
X57998073Y-92800227D01*
X57998069Y-92800222D01*
X57852428Y-92654581D01*
X57852423Y-92654577D01*
X57685806Y-92533524D01*
X57685805Y-92533523D01*
X57685803Y-92533522D01*
X57628496Y-92504322D01*
X57502294Y-92440018D01*
X57306408Y-92376370D01*
X57130794Y-92348556D01*
X57102981Y-92344151D01*
X56897019Y-92344151D01*
X56872550Y-92348026D01*
X56693591Y-92376370D01*
X56497705Y-92440018D01*
X56314193Y-92533524D01*
X56147576Y-92654577D01*
X56147571Y-92654581D01*
X56001930Y-92800222D01*
X56001926Y-92800227D01*
X55880873Y-92966844D01*
X55787367Y-93150356D01*
X55723719Y-93346242D01*
X55691500Y-93549670D01*
X46700500Y-93549670D01*
X46700500Y-86368362D01*
X50491500Y-86368362D01*
X50491500Y-86631637D01*
X50491501Y-86631653D01*
X50525865Y-86892678D01*
X50594009Y-87146995D01*
X50694761Y-87390234D01*
X50694769Y-87390250D01*
X50826409Y-87618256D01*
X50986687Y-87827136D01*
X50986693Y-87827143D01*
X51172856Y-88013306D01*
X51172863Y-88013312D01*
X51381743Y-88173590D01*
X51609749Y-88305230D01*
X51609765Y-88305238D01*
X51761451Y-88368068D01*
X51853003Y-88405990D01*
X52107320Y-88474134D01*
X52368356Y-88508500D01*
X52368363Y-88508500D01*
X54631637Y-88508500D01*
X54631644Y-88508500D01*
X54892680Y-88474134D01*
X55146997Y-88405990D01*
X55330099Y-88330146D01*
X55390234Y-88305238D01*
X55390237Y-88305236D01*
X55390243Y-88305234D01*
X55618257Y-88173590D01*
X55827138Y-88013311D01*
X56013311Y-87827138D01*
X56173590Y-87618257D01*
X56305234Y-87390243D01*
X56405990Y-87146997D01*
X56474134Y-86892680D01*
X56508500Y-86631644D01*
X56508500Y-86368356D01*
X56474134Y-86107320D01*
X56405990Y-85853003D01*
X56346135Y-85708500D01*
X56305238Y-85609765D01*
X56305230Y-85609749D01*
X56173590Y-85381743D01*
X56013312Y-85172863D01*
X56013306Y-85172856D01*
X55827143Y-84986693D01*
X55827136Y-84986687D01*
X55618256Y-84826409D01*
X55390250Y-84694769D01*
X55390234Y-84694761D01*
X55146995Y-84594009D01*
X54892678Y-84525865D01*
X54631653Y-84491501D01*
X54631650Y-84491500D01*
X54631644Y-84491500D01*
X52368356Y-84491500D01*
X52368350Y-84491500D01*
X52368346Y-84491501D01*
X52107321Y-84525865D01*
X51853004Y-84594009D01*
X51609765Y-84694761D01*
X51609749Y-84694769D01*
X51381743Y-84826409D01*
X51172863Y-84986687D01*
X51172856Y-84986693D01*
X50986693Y-85172856D01*
X50986687Y-85172863D01*
X50826409Y-85381743D01*
X50694769Y-85609749D01*
X50694761Y-85609765D01*
X50594009Y-85853004D01*
X50525865Y-86107321D01*
X50491501Y-86368346D01*
X50491500Y-86368362D01*
X46700500Y-86368362D01*
X46700500Y-81169999D01*
X50515654Y-81169999D01*
X50515655Y-81170000D01*
X52845879Y-81170000D01*
X52826901Y-81215818D01*
X52800000Y-81351056D01*
X52800000Y-81488944D01*
X52826901Y-81624182D01*
X52845879Y-81670000D01*
X50515655Y-81670000D01*
X50534221Y-81811016D01*
X50602075Y-82064255D01*
X50702404Y-82306471D01*
X50702409Y-82306482D01*
X50833496Y-82533528D01*
X50993092Y-82741519D01*
X50993098Y-82741526D01*
X51178473Y-82926901D01*
X51178480Y-82926907D01*
X51386471Y-83086503D01*
X51613517Y-83217590D01*
X51613528Y-83217595D01*
X51855744Y-83317924D01*
X52108979Y-83385777D01*
X52108990Y-83385779D01*
X52368905Y-83419999D01*
X52368920Y-83420000D01*
X53250000Y-83420000D01*
X53250000Y-82074120D01*
X53295818Y-82093099D01*
X53431056Y-82120000D01*
X53568944Y-82120000D01*
X53704182Y-82093099D01*
X53750000Y-82074120D01*
X53750000Y-83420000D01*
X54631080Y-83420000D01*
X54631094Y-83419999D01*
X54891009Y-83385779D01*
X54891020Y-83385777D01*
X55144255Y-83317924D01*
X55386471Y-83217595D01*
X55386482Y-83217590D01*
X55613528Y-83086503D01*
X55821519Y-82926907D01*
X55821526Y-82926901D01*
X56006901Y-82741526D01*
X56006907Y-82741519D01*
X56166503Y-82533528D01*
X56297590Y-82306482D01*
X56297595Y-82306471D01*
X56397924Y-82064255D01*
X56465778Y-81811016D01*
X56484345Y-81670000D01*
X54154121Y-81670000D01*
X54173099Y-81624182D01*
X54200000Y-81488944D01*
X54200000Y-81351056D01*
X54173099Y-81215818D01*
X54154121Y-81170000D01*
X56484345Y-81170000D01*
X56484345Y-81169999D01*
X56465778Y-81028983D01*
X56397924Y-80775744D01*
X56297595Y-80533528D01*
X56297590Y-80533517D01*
X56166503Y-80306471D01*
X56006907Y-80098480D01*
X56006901Y-80098473D01*
X55821526Y-79913098D01*
X55821519Y-79913092D01*
X55613528Y-79753496D01*
X55386482Y-79622409D01*
X55386471Y-79622404D01*
X55144255Y-79522075D01*
X54891020Y-79454222D01*
X54891009Y-79454220D01*
X54631094Y-79420000D01*
X53750000Y-79420000D01*
X53750000Y-80765879D01*
X53704182Y-80746901D01*
X53568944Y-80720000D01*
X53431056Y-80720000D01*
X53295818Y-80746901D01*
X53250000Y-80765879D01*
X53250000Y-79420000D01*
X52368905Y-79420000D01*
X52108990Y-79454220D01*
X52108979Y-79454222D01*
X51855744Y-79522075D01*
X51613528Y-79622404D01*
X51613517Y-79622409D01*
X51386471Y-79753496D01*
X51178480Y-79913092D01*
X51178473Y-79913098D01*
X50993098Y-80098473D01*
X50993092Y-80098480D01*
X50833496Y-80306471D01*
X50702409Y-80533517D01*
X50702404Y-80533528D01*
X50602075Y-80775744D01*
X50534221Y-81028983D01*
X50515654Y-81169999D01*
X46700500Y-81169999D01*
X46700500Y-74791345D01*
X50491500Y-74791345D01*
X50491500Y-77888654D01*
X50498011Y-77949202D01*
X50498011Y-77949204D01*
X50539715Y-78061013D01*
X50549111Y-78086204D01*
X50636739Y-78203261D01*
X50753796Y-78290889D01*
X50890799Y-78341989D01*
X50918050Y-78344918D01*
X50951345Y-78348499D01*
X50951362Y-78348500D01*
X56048638Y-78348500D01*
X56048654Y-78348499D01*
X56075692Y-78345591D01*
X56109201Y-78341989D01*
X56246204Y-78290889D01*
X56363261Y-78203261D01*
X56450889Y-78086204D01*
X56501989Y-77949201D01*
X56505907Y-77912755D01*
X56508499Y-77888654D01*
X56508500Y-77888637D01*
X56508500Y-74791362D01*
X56508499Y-74791345D01*
X56505157Y-74760270D01*
X56501989Y-74730799D01*
X56450889Y-74593796D01*
X56363261Y-74476739D01*
X56246204Y-74389111D01*
X56109203Y-74338011D01*
X56048654Y-74331500D01*
X56048638Y-74331500D01*
X50951362Y-74331500D01*
X50951345Y-74331500D01*
X50890797Y-74338011D01*
X50890795Y-74338011D01*
X50753795Y-74389111D01*
X50636739Y-74476739D01*
X50549111Y-74593795D01*
X50498011Y-74730795D01*
X50498011Y-74730797D01*
X50491500Y-74791345D01*
X46700500Y-74791345D01*
X46700500Y-70885312D01*
X48250320Y-70885312D01*
X48250320Y-71114687D01*
X48280257Y-71342074D01*
X48339622Y-71563627D01*
X48427390Y-71775517D01*
X48427394Y-71775526D01*
X48542069Y-71974149D01*
X48542074Y-71974156D01*
X48598610Y-72047835D01*
X49516726Y-71129719D01*
X49533720Y-71193140D01*
X49599596Y-71307241D01*
X49692759Y-71400404D01*
X49806860Y-71466280D01*
X49870279Y-71483273D01*
X48952163Y-72401387D01*
X48952163Y-72401389D01*
X49025833Y-72457919D01*
X49025850Y-72457930D01*
X49224473Y-72572605D01*
X49224482Y-72572609D01*
X49436372Y-72660377D01*
X49657925Y-72719742D01*
X49885312Y-72749679D01*
X49885327Y-72749680D01*
X50114673Y-72749680D01*
X50114687Y-72749679D01*
X50342074Y-72719742D01*
X50563627Y-72660377D01*
X50775517Y-72572609D01*
X50775526Y-72572605D01*
X50974152Y-72457928D01*
X51047835Y-72401388D01*
X51047835Y-72401387D01*
X50129720Y-71483273D01*
X50193140Y-71466280D01*
X50307241Y-71400404D01*
X50400404Y-71307241D01*
X50466280Y-71193140D01*
X50483273Y-71129720D01*
X51401387Y-72047835D01*
X51401388Y-72047835D01*
X51457928Y-71974152D01*
X51572605Y-71775526D01*
X51572609Y-71775517D01*
X51660377Y-71563627D01*
X51719742Y-71342074D01*
X51749679Y-71114687D01*
X51749680Y-71114673D01*
X51749680Y-70899986D01*
X56300001Y-70899986D01*
X56310494Y-71002697D01*
X56365641Y-71169119D01*
X56365643Y-71169124D01*
X56457684Y-71318345D01*
X56581654Y-71442315D01*
X56730875Y-71534356D01*
X56730880Y-71534358D01*
X56897302Y-71589505D01*
X56897309Y-71589506D01*
X57000019Y-71599999D01*
X57249999Y-71599999D01*
X57750000Y-71599999D01*
X57999972Y-71599999D01*
X57999986Y-71599998D01*
X58102697Y-71589505D01*
X58269119Y-71534358D01*
X58269124Y-71534356D01*
X58418345Y-71442315D01*
X58542315Y-71318345D01*
X58634356Y-71169124D01*
X58634358Y-71169119D01*
X58689505Y-71002697D01*
X58689506Y-71002690D01*
X58699999Y-70899986D01*
X58700000Y-70899973D01*
X58700000Y-70750000D01*
X57750000Y-70750000D01*
X57750000Y-71599999D01*
X57249999Y-71599999D01*
X57250000Y-71599998D01*
X57250000Y-70750000D01*
X56300001Y-70750000D01*
X56300001Y-70899986D01*
X51749680Y-70899986D01*
X51749680Y-70885326D01*
X51749679Y-70885312D01*
X51727233Y-70714824D01*
X51727233Y-70714823D01*
X51719742Y-70657925D01*
X51660377Y-70436372D01*
X51572609Y-70224482D01*
X51572605Y-70224473D01*
X51457930Y-70025850D01*
X51457919Y-70025833D01*
X51401389Y-69952163D01*
X51401387Y-69952163D01*
X50483272Y-70870278D01*
X50466280Y-70806860D01*
X50400404Y-70692759D01*
X50307241Y-70599596D01*
X50193140Y-70533720D01*
X50129718Y-70516726D01*
X51047835Y-69598610D01*
X50974156Y-69542074D01*
X50974149Y-69542069D01*
X50775526Y-69427394D01*
X50775517Y-69427390D01*
X50563627Y-69339622D01*
X50342074Y-69280257D01*
X50114687Y-69250320D01*
X49885312Y-69250320D01*
X49657925Y-69280257D01*
X49436372Y-69339622D01*
X49224482Y-69427390D01*
X49224472Y-69427394D01*
X49025844Y-69542072D01*
X48952163Y-69598609D01*
X48952163Y-69598610D01*
X49870279Y-70516726D01*
X49806860Y-70533720D01*
X49692759Y-70599596D01*
X49599596Y-70692759D01*
X49533720Y-70806860D01*
X49516726Y-70870279D01*
X48598610Y-69952163D01*
X48598609Y-69952163D01*
X48542072Y-70025844D01*
X48427394Y-70224472D01*
X48427390Y-70224482D01*
X48339622Y-70436372D01*
X48280257Y-70657925D01*
X48250320Y-70885312D01*
X46700500Y-70885312D01*
X46700500Y-35803153D01*
X47991500Y-35803153D01*
X47991500Y-36196846D01*
X48025813Y-36589042D01*
X48025813Y-36589044D01*
X48074560Y-36865501D01*
X48094176Y-36976748D01*
X48196071Y-37357024D01*
X48330721Y-37726972D01*
X48330724Y-37726979D01*
X48330725Y-37726981D01*
X48497097Y-38083768D01*
X48497105Y-38083783D01*
X48635465Y-38323429D01*
X48693947Y-38424723D01*
X48693951Y-38424729D01*
X48693958Y-38424740D01*
X48919759Y-38747217D01*
X49088424Y-38948222D01*
X49172819Y-39048800D01*
X49451200Y-39327181D01*
X49576593Y-39432399D01*
X49752782Y-39580240D01*
X50075259Y-39806041D01*
X50075266Y-39806045D01*
X50075277Y-39806053D01*
X50394814Y-39990537D01*
X50416216Y-40002894D01*
X50416231Y-40002902D01*
X50574803Y-40076845D01*
X50773028Y-40169279D01*
X51142976Y-40303929D01*
X51523252Y-40405824D01*
X51910962Y-40474187D01*
X52303153Y-40508499D01*
X52303154Y-40508500D01*
X52303155Y-40508500D01*
X52696846Y-40508500D01*
X52696846Y-40508499D01*
X53089038Y-40474187D01*
X53476748Y-40405824D01*
X53857024Y-40303929D01*
X54226972Y-40169279D01*
X54583777Y-40002898D01*
X54924723Y-39806053D01*
X55247216Y-39580241D01*
X55548800Y-39327181D01*
X55827181Y-39048800D01*
X56080241Y-38747216D01*
X56306053Y-38424723D01*
X56502898Y-38083777D01*
X56669279Y-37726972D01*
X56803929Y-37357024D01*
X56905824Y-36976748D01*
X56974187Y-36589038D01*
X57008500Y-36196845D01*
X57008500Y-35803155D01*
X56974187Y-35410962D01*
X56905824Y-35023252D01*
X56803929Y-34642976D01*
X56669279Y-34273028D01*
X56502898Y-33916223D01*
X56306053Y-33575277D01*
X56306045Y-33575266D01*
X56306041Y-33575259D01*
X56080240Y-33252782D01*
X55827178Y-32951197D01*
X55548802Y-32672821D01*
X55247217Y-32419759D01*
X54924740Y-32193958D01*
X54924729Y-32193951D01*
X54924723Y-32193947D01*
X54755041Y-32095981D01*
X54583783Y-31997105D01*
X54583768Y-31997097D01*
X54226981Y-31830725D01*
X54226979Y-31830724D01*
X54226972Y-31830721D01*
X53857024Y-31696071D01*
X53602361Y-31627834D01*
X53476749Y-31594176D01*
X53476738Y-31594174D01*
X53089043Y-31525813D01*
X52696846Y-31491500D01*
X52696845Y-31491500D01*
X52303155Y-31491500D01*
X52303154Y-31491500D01*
X51910957Y-31525813D01*
X51910955Y-31525813D01*
X51523261Y-31594174D01*
X51523250Y-31594176D01*
X51319460Y-31648782D01*
X51142976Y-31696071D01*
X51142973Y-31696072D01*
X51142972Y-31696072D01*
X51033810Y-31735804D01*
X50773028Y-31830721D01*
X50773024Y-31830722D01*
X50773018Y-31830725D01*
X50416231Y-31997097D01*
X50416216Y-31997105D01*
X50075285Y-32193942D01*
X50075259Y-32193958D01*
X49752782Y-32419759D01*
X49451197Y-32672821D01*
X49172821Y-32951197D01*
X48919759Y-33252782D01*
X48693958Y-33575259D01*
X48693942Y-33575285D01*
X48497105Y-33916216D01*
X48497097Y-33916231D01*
X48330725Y-34273018D01*
X48330722Y-34273024D01*
X48330721Y-34273028D01*
X48196071Y-34642976D01*
X48170709Y-34737628D01*
X48094176Y-35023250D01*
X48094174Y-35023261D01*
X48025813Y-35410955D01*
X48025813Y-35410957D01*
X47991500Y-35803153D01*
X46700500Y-35803153D01*
X46700500Y-30324500D01*
X46720185Y-30257461D01*
X46772989Y-30211706D01*
X46824500Y-30200500D01*
X71362500Y-30200500D01*
X71429539Y-30220185D01*
G37*
%TD.AperFunction*%
%TD*%
M02*
