%TF.GenerationSoftware,KiCad,Pcbnew,9.0.3*%
%TF.CreationDate,2025-11-04T17:07:03+01:00*%
%TF.ProjectId,Alim_12V-5V,416c696d-5f31-4325-962d-35562e6b6963,rev?*%
%TF.SameCoordinates,Original*%
%TF.FileFunction,Copper,L2,Bot*%
%TF.FilePolarity,Positive*%
%FSLAX46Y46*%
G04 Gerber Fmt 4.6, Leading zero omitted, Abs format (unit mm)*
G04 Created by KiCad (PCBNEW 9.0.3) date 2025-11-04 17:07:03*
%MOMM*%
%LPD*%
G01*
G04 APERTURE LIST*
G04 Aperture macros list*
%AMRoundRect*
0 Rectangle with rounded corners*
0 $1 Rounding radius*
0 $2 $3 $4 $5 $6 $7 $8 $9 X,Y pos of 4 corners*
0 Add a 4 corners polygon primitive as box body*
4,1,4,$2,$3,$4,$5,$6,$7,$8,$9,$2,$3,0*
0 Add four circle primitives for the rounded corners*
1,1,$1+$1,$2,$3*
1,1,$1+$1,$4,$5*
1,1,$1+$1,$6,$7*
1,1,$1+$1,$8,$9*
0 Add four rect primitives between the rounded corners*
20,1,$1+$1,$2,$3,$4,$5,0*
20,1,$1+$1,$4,$5,$6,$7,0*
20,1,$1+$1,$6,$7,$8,$9,0*
20,1,$1+$1,$8,$9,$2,$3,0*%
G04 Aperture macros list end*
%TA.AperFunction,ComponentPad*%
%ADD10RoundRect,0.250000X-0.550000X0.550000X-0.550000X-0.550000X0.550000X-0.550000X0.550000X0.550000X0*%
%TD*%
%TA.AperFunction,ComponentPad*%
%ADD11C,1.600000*%
%TD*%
%TA.AperFunction,ComponentPad*%
%ADD12C,2.499360*%
%TD*%
%TA.AperFunction,ComponentPad*%
%ADD13C,4.200000*%
%TD*%
%TA.AperFunction,ComponentPad*%
%ADD14C,8.000000*%
%TD*%
%TA.AperFunction,ComponentPad*%
%ADD15RoundRect,0.250001X-0.949999X0.949999X-0.949999X-0.949999X0.949999X-0.949999X0.949999X0.949999X0*%
%TD*%
%TA.AperFunction,ComponentPad*%
%ADD16C,2.400000*%
%TD*%
%TA.AperFunction,ComponentPad*%
%ADD17C,4.000500*%
%TD*%
%TA.AperFunction,ComponentPad*%
%ADD18RoundRect,0.250000X0.550000X-0.550000X0.550000X0.550000X-0.550000X0.550000X-0.550000X-0.550000X0*%
%TD*%
%TA.AperFunction,ComponentPad*%
%ADD19R,5.000000X3.000000*%
%TD*%
%TA.AperFunction,ComponentPad*%
%ADD20O,5.000000X3.000000*%
%TD*%
%TA.AperFunction,ComponentPad*%
%ADD21R,5.000000X2.999999*%
%TD*%
%TA.AperFunction,ComponentPad*%
%ADD22O,5.000000X2.999999*%
%TD*%
%TA.AperFunction,ViaPad*%
%ADD23C,0.800000*%
%TD*%
%TA.AperFunction,Conductor*%
%ADD24C,0.700000*%
%TD*%
%TA.AperFunction,Conductor*%
%ADD25C,0.800000*%
%TD*%
G04 APERTURE END LIST*
D10*
%TO.P,Cout1,1*%
%TO.N,/DCDC3612/+12V*%
X78500000Y-121500000D03*
D11*
%TO.P,Cout1,2*%
%TO.N,GND*%
X78500000Y-125000000D03*
%TD*%
D12*
%TO.P,5V,1,1*%
%TO.N,/+5V*%
X79500000Y-77000000D03*
%TD*%
D13*
%TO.P,L2,1,1*%
%TO.N,Net-(D2-K)*%
X64650000Y-104000000D03*
%TO.P,L2,2,2*%
%TO.N,/DCDC3612/+12V*%
X88350000Y-104000000D03*
%TD*%
D14*
%TO.P,H1,1*%
%TO.N,N/C*%
X52500000Y-124000000D03*
%TD*%
D15*
%TO.P,Cout2,1*%
%TO.N,/DCDC365/+5V*%
X71000000Y-65676041D03*
D16*
%TO.P,Cout2,2*%
%TO.N,GND*%
X71000000Y-70676041D03*
%TD*%
D14*
%TO.P,H4,1*%
%TO.N,N/C*%
X52500000Y-36000000D03*
%TD*%
D12*
%TO.P,12V,1,1*%
%TO.N,/+12V*%
X79000000Y-88000000D03*
%TD*%
D14*
%TO.P,H2,1*%
%TO.N,N/C*%
X90500000Y-124000000D03*
%TD*%
D12*
%TO.P,Out 5V,1,1*%
%TO.N,/DCDC365/+5V*%
X90500000Y-57000000D03*
%TD*%
D17*
%TO.P,TP1,1,1*%
%TO.N,GND*%
X65000000Y-123500000D03*
%TD*%
D18*
%TO.P,Cin1,1*%
%TO.N,/DCDC3612/+36V*%
X57000000Y-97152651D03*
D11*
%TO.P,Cin1,2*%
%TO.N,GND*%
X57000000Y-93652651D03*
%TD*%
D19*
%TO.P,J1,1,Pin_1*%
%TO.N,GND*%
X53500000Y-76340000D03*
D20*
%TO.P,J1,2,Pin_2*%
%TO.N,+36V*%
X53500000Y-81420000D03*
%TO.P,J1,3,Pin_3*%
%TO.N,GND*%
X53500000Y-86500000D03*
%TD*%
D14*
%TO.P,H3,1*%
%TO.N,N/C*%
X90500000Y-36000000D03*
%TD*%
D21*
%TO.P,J2,1,Pin_1*%
%TO.N,/+12V*%
X90000000Y-87580000D03*
D22*
%TO.P,J2,2,Pin_2*%
%TO.N,GND*%
X90000000Y-82500000D03*
%TO.P,J2,3,Pin_3*%
%TO.N,/+5V*%
X90000000Y-77420000D03*
D20*
%TO.P,J2,4,Pin_4*%
%TO.N,GND*%
X90000000Y-72340000D03*
D22*
%TO.P,J2,5,Pin_5*%
%TO.N,/+5V*%
X90000000Y-67260000D03*
%TO.P,J2,6,Pin_6*%
%TO.N,GND*%
X90000000Y-62180000D03*
%TD*%
D10*
%TO.P,Cin2,1*%
%TO.N,/DCDC365/+36V*%
X51500000Y-62347349D03*
D11*
%TO.P,Cin2,2*%
%TO.N,GND*%
X51500000Y-65847349D03*
%TD*%
D12*
%TO.P,TP4,1,1*%
%TO.N,+36V*%
X50000000Y-71000000D03*
%TD*%
D13*
%TO.P,L1,1,1*%
%TO.N,Net-(D1-K)*%
X72000000Y-34300000D03*
%TO.P,L1,2,2*%
%TO.N,/DCDC365/+5V*%
X72000000Y-58000000D03*
%TD*%
D12*
%TO.P,Out 12V,1,1*%
%TO.N,/DCDC3612/+12V*%
X93500000Y-100500000D03*
%TD*%
D23*
%TO.N,Net-(U1-FB)*%
X57578248Y-59578248D03*
X59000000Y-61000000D03*
%TO.N,GND*%
X51500000Y-113500000D03*
X58000000Y-55000000D03*
X87000000Y-50500000D03*
X55500000Y-113000000D03*
X67500000Y-82500000D03*
X48500000Y-106000000D03*
X51500000Y-52500000D03*
X73000000Y-78000000D03*
X52000000Y-46500000D03*
X86500000Y-52500000D03*
X64000000Y-62000000D03*
X54000000Y-46000000D03*
X55000000Y-107000000D03*
X74500000Y-78000000D03*
%TO.N,Net-(D2-K)*%
X72500000Y-92000000D03*
X68000000Y-96500000D03*
X71000000Y-92000000D03*
X69000000Y-97000000D03*
%TO.N,Net-(U2-FB)*%
X59000000Y-99000000D03*
X54500000Y-100000000D03*
%TO.N,Net-(U1-FB)*%
X59000000Y-62500000D03*
X55750000Y-59750000D03*
%TD*%
D24*
%TO.N,Net-(U1-FB)*%
X58078248Y-59578248D02*
X57578248Y-59578248D01*
X59000000Y-61000000D02*
X59000000Y-60500000D01*
X59000000Y-60500000D02*
X58078248Y-59578248D01*
D25*
%TO.N,GND*%
X50347349Y-67000000D02*
X50000000Y-67000000D01*
X52652651Y-67000000D02*
X53000000Y-67000000D01*
X51500000Y-65847349D02*
X52652651Y-67000000D01*
X51500000Y-65847349D02*
X50347349Y-67000000D01*
D24*
%TO.N,Net-(D2-K)*%
X69000000Y-95500000D02*
X71500000Y-93000000D01*
X69000000Y-97000000D02*
X69000000Y-95500000D01*
X68000000Y-95000000D02*
X71000000Y-92000000D01*
X68000000Y-96500000D02*
X68000000Y-95000000D01*
X72500000Y-92000000D02*
X71500000Y-93000000D01*
%TO.N,Net-(U2-FB)*%
X55500000Y-99000000D02*
X54500000Y-100000000D01*
X59000000Y-99000000D02*
X55500000Y-99000000D01*
%TO.N,Net-(U1-FB)*%
X59000000Y-62500000D02*
X58171752Y-61671752D01*
X58171752Y-61671752D02*
X57671752Y-61671752D01*
X57671752Y-61671752D02*
X55750000Y-59750000D01*
%TD*%
%TA.AperFunction,Conductor*%
%TO.N,GND*%
G36*
X96242539Y-30220185D02*
G01*
X96288294Y-30272989D01*
X96299500Y-30324500D01*
X96299500Y-129675500D01*
X96279815Y-129742539D01*
X96227011Y-129788294D01*
X96175500Y-129799500D01*
X46824500Y-129799500D01*
X46757461Y-129779815D01*
X46711706Y-129727011D01*
X46700500Y-129675500D01*
X46700500Y-123803153D01*
X47991500Y-123803153D01*
X47991500Y-124196846D01*
X48025813Y-124589042D01*
X48025813Y-124589044D01*
X48088990Y-124947339D01*
X48094176Y-124976748D01*
X48196071Y-125357024D01*
X48196072Y-125357026D01*
X48196072Y-125357027D01*
X48211235Y-125398687D01*
X48330721Y-125726972D01*
X48330724Y-125726979D01*
X48330725Y-125726981D01*
X48497097Y-126083768D01*
X48497105Y-126083783D01*
X48603457Y-126267990D01*
X48693947Y-126424723D01*
X48693951Y-126424729D01*
X48693958Y-126424740D01*
X48919759Y-126747217D01*
X49102673Y-126965204D01*
X49172819Y-127048800D01*
X49451200Y-127327181D01*
X49576593Y-127432399D01*
X49752782Y-127580240D01*
X50075259Y-127806041D01*
X50075266Y-127806045D01*
X50075277Y-127806053D01*
X50394814Y-127990537D01*
X50416216Y-128002894D01*
X50416231Y-128002902D01*
X50574803Y-128076845D01*
X50773028Y-128169279D01*
X51142976Y-128303929D01*
X51523252Y-128405824D01*
X51910962Y-128474187D01*
X52303153Y-128508499D01*
X52303154Y-128508500D01*
X52303155Y-128508500D01*
X52696846Y-128508500D01*
X52696846Y-128508499D01*
X53089038Y-128474187D01*
X53476748Y-128405824D01*
X53857024Y-128303929D01*
X54226972Y-128169279D01*
X54583777Y-128002898D01*
X54924723Y-127806053D01*
X55247216Y-127580241D01*
X55548800Y-127327181D01*
X55827181Y-127048800D01*
X56080241Y-126747216D01*
X56306053Y-126424723D01*
X56502898Y-126083777D01*
X56669279Y-125726972D01*
X56803929Y-125357024D01*
X56905824Y-124976748D01*
X56974187Y-124589038D01*
X57008500Y-124196845D01*
X57008500Y-123803155D01*
X56974187Y-123410962D01*
X56965128Y-123359584D01*
X62499750Y-123359584D01*
X62499750Y-123640415D01*
X62531190Y-123919460D01*
X62593679Y-124193248D01*
X62593683Y-124193260D01*
X62686427Y-124458305D01*
X62686433Y-124458319D01*
X62808272Y-124711321D01*
X62957682Y-124949105D01*
X62957683Y-124949107D01*
X63064009Y-125082436D01*
X64379823Y-123766621D01*
X64401823Y-123819732D01*
X64475693Y-123930287D01*
X64569713Y-124024307D01*
X64680268Y-124098177D01*
X64733377Y-124120175D01*
X63417562Y-125435989D01*
X63550898Y-125542319D01*
X63788678Y-125691727D01*
X64041680Y-125813566D01*
X64041694Y-125813572D01*
X64306739Y-125906316D01*
X64306751Y-125906320D01*
X64580539Y-125968809D01*
X64580538Y-125968809D01*
X64859584Y-126000249D01*
X64859586Y-126000250D01*
X65140414Y-126000250D01*
X65140415Y-126000249D01*
X65419460Y-125968809D01*
X65671325Y-125911324D01*
X65693248Y-125906320D01*
X65693260Y-125906316D01*
X65958305Y-125813572D01*
X65958319Y-125813566D01*
X66211321Y-125691727D01*
X66449101Y-125542319D01*
X66582436Y-125435989D01*
X65266622Y-124120175D01*
X65319732Y-124098177D01*
X65430287Y-124024307D01*
X65524307Y-123930287D01*
X65598177Y-123819732D01*
X65620175Y-123766622D01*
X66935989Y-125082436D01*
X67042319Y-124949101D01*
X67074628Y-124897682D01*
X77200000Y-124897682D01*
X77200000Y-125102317D01*
X77232009Y-125304417D01*
X77295244Y-125499031D01*
X77388141Y-125681350D01*
X77388147Y-125681359D01*
X77420523Y-125725921D01*
X77420524Y-125725922D01*
X78100000Y-125046446D01*
X78100000Y-125052661D01*
X78127259Y-125154394D01*
X78179920Y-125245606D01*
X78254394Y-125320080D01*
X78345606Y-125372741D01*
X78447339Y-125400000D01*
X78453553Y-125400000D01*
X77774076Y-126079474D01*
X77818650Y-126111859D01*
X78000968Y-126204755D01*
X78195582Y-126267990D01*
X78397683Y-126300000D01*
X78602317Y-126300000D01*
X78804417Y-126267990D01*
X78999031Y-126204755D01*
X79181349Y-126111859D01*
X79225921Y-126079474D01*
X78546447Y-125400000D01*
X78552661Y-125400000D01*
X78654394Y-125372741D01*
X78745606Y-125320080D01*
X78820080Y-125245606D01*
X78872741Y-125154394D01*
X78900000Y-125052661D01*
X78900000Y-125046447D01*
X79579474Y-125725921D01*
X79611859Y-125681349D01*
X79704755Y-125499031D01*
X79767990Y-125304417D01*
X79800000Y-125102317D01*
X79800000Y-124897682D01*
X79767990Y-124695582D01*
X79704755Y-124500968D01*
X79611859Y-124318650D01*
X79579474Y-124274077D01*
X79579474Y-124274076D01*
X78900000Y-124953551D01*
X78900000Y-124947339D01*
X78872741Y-124845606D01*
X78820080Y-124754394D01*
X78745606Y-124679920D01*
X78654394Y-124627259D01*
X78552661Y-124600000D01*
X78546446Y-124600000D01*
X79225922Y-123920524D01*
X79225921Y-123920522D01*
X79198730Y-123900767D01*
X79181357Y-123888145D01*
X79181350Y-123888141D01*
X79014553Y-123803153D01*
X85991500Y-123803153D01*
X85991500Y-124196846D01*
X86025813Y-124589042D01*
X86025813Y-124589044D01*
X86088990Y-124947339D01*
X86094176Y-124976748D01*
X86196071Y-125357024D01*
X86196072Y-125357026D01*
X86196072Y-125357027D01*
X86211235Y-125398687D01*
X86330721Y-125726972D01*
X86330724Y-125726979D01*
X86330725Y-125726981D01*
X86497097Y-126083768D01*
X86497105Y-126083783D01*
X86603457Y-126267990D01*
X86693947Y-126424723D01*
X86693951Y-126424729D01*
X86693958Y-126424740D01*
X86919759Y-126747217D01*
X87102673Y-126965204D01*
X87172819Y-127048800D01*
X87451200Y-127327181D01*
X87576593Y-127432399D01*
X87752782Y-127580240D01*
X88075259Y-127806041D01*
X88075266Y-127806045D01*
X88075277Y-127806053D01*
X88394814Y-127990537D01*
X88416216Y-128002894D01*
X88416231Y-128002902D01*
X88574803Y-128076845D01*
X88773028Y-128169279D01*
X89142976Y-128303929D01*
X89523252Y-128405824D01*
X89910962Y-128474187D01*
X90303153Y-128508499D01*
X90303154Y-128508500D01*
X90303155Y-128508500D01*
X90696846Y-128508500D01*
X90696846Y-128508499D01*
X91089038Y-128474187D01*
X91476748Y-128405824D01*
X91857024Y-128303929D01*
X92226972Y-128169279D01*
X92583777Y-128002898D01*
X92924723Y-127806053D01*
X93247216Y-127580241D01*
X93548800Y-127327181D01*
X93827181Y-127048800D01*
X94080241Y-126747216D01*
X94306053Y-126424723D01*
X94502898Y-126083777D01*
X94669279Y-125726972D01*
X94803929Y-125357024D01*
X94905824Y-124976748D01*
X94974187Y-124589038D01*
X95008500Y-124196845D01*
X95008500Y-123803155D01*
X94974187Y-123410962D01*
X94905824Y-123023252D01*
X94803929Y-122642976D01*
X94669279Y-122273028D01*
X94565694Y-122050890D01*
X94502902Y-121916231D01*
X94502894Y-121916216D01*
X94363314Y-121674456D01*
X94306053Y-121575277D01*
X94306045Y-121575266D01*
X94306041Y-121575259D01*
X94080240Y-121252782D01*
X93827178Y-120951197D01*
X93548802Y-120672821D01*
X93247217Y-120419759D01*
X92924740Y-120193958D01*
X92924729Y-120193951D01*
X92924723Y-120193947D01*
X92823429Y-120135465D01*
X92583783Y-119997105D01*
X92583768Y-119997097D01*
X92226981Y-119830725D01*
X92226979Y-119830724D01*
X92226972Y-119830721D01*
X91857024Y-119696071D01*
X91615940Y-119631472D01*
X91476749Y-119594176D01*
X91476738Y-119594174D01*
X91089043Y-119525813D01*
X90696846Y-119491500D01*
X90696845Y-119491500D01*
X90303155Y-119491500D01*
X90303154Y-119491500D01*
X89910957Y-119525813D01*
X89910955Y-119525813D01*
X89523261Y-119594174D01*
X89523250Y-119594176D01*
X89319460Y-119648782D01*
X89142976Y-119696071D01*
X89142973Y-119696072D01*
X89142972Y-119696072D01*
X88936332Y-119771282D01*
X88773028Y-119830721D01*
X88773024Y-119830722D01*
X88773018Y-119830725D01*
X88416231Y-119997097D01*
X88416216Y-119997105D01*
X88075285Y-120193942D01*
X88075259Y-120193958D01*
X87752782Y-120419759D01*
X87451197Y-120672821D01*
X87172821Y-120951197D01*
X86919759Y-121252782D01*
X86693958Y-121575259D01*
X86693942Y-121575285D01*
X86497105Y-121916216D01*
X86497097Y-121916231D01*
X86330725Y-122273018D01*
X86232935Y-122541694D01*
X86196071Y-122642976D01*
X86151719Y-122808498D01*
X86094176Y-123023250D01*
X86094174Y-123023261D01*
X86025813Y-123410955D01*
X86025813Y-123410957D01*
X85991500Y-123803153D01*
X79014553Y-123803153D01*
X78999031Y-123795244D01*
X78804417Y-123732009D01*
X78602317Y-123700000D01*
X78397683Y-123700000D01*
X78195582Y-123732009D01*
X78000968Y-123795244D01*
X77818644Y-123888143D01*
X77774077Y-123920523D01*
X77774077Y-123920524D01*
X78453554Y-124600000D01*
X78447339Y-124600000D01*
X78345606Y-124627259D01*
X78254394Y-124679920D01*
X78179920Y-124754394D01*
X78127259Y-124845606D01*
X78100000Y-124947339D01*
X78100000Y-124953553D01*
X77420524Y-124274077D01*
X77420523Y-124274077D01*
X77388143Y-124318644D01*
X77295244Y-124500968D01*
X77232009Y-124695582D01*
X77200000Y-124897682D01*
X67074628Y-124897682D01*
X67119140Y-124826844D01*
X67191727Y-124711321D01*
X67313566Y-124458319D01*
X67313572Y-124458305D01*
X67406316Y-124193260D01*
X67406320Y-124193248D01*
X67464078Y-123940191D01*
X67464078Y-123940190D01*
X67468808Y-123919464D01*
X67468809Y-123919461D01*
X67500249Y-123640415D01*
X67500250Y-123640413D01*
X67500250Y-123359586D01*
X67500249Y-123359584D01*
X67468809Y-123080539D01*
X67406320Y-122806751D01*
X67406316Y-122806739D01*
X67313572Y-122541694D01*
X67313566Y-122541680D01*
X67191727Y-122288678D01*
X67042319Y-122050898D01*
X66935988Y-121917562D01*
X65620175Y-123233376D01*
X65598177Y-123180268D01*
X65524307Y-123069713D01*
X65430287Y-122975693D01*
X65319732Y-122901823D01*
X65266621Y-122879823D01*
X66582436Y-121564009D01*
X66449107Y-121457683D01*
X66449105Y-121457682D01*
X66211321Y-121308272D01*
X65958319Y-121186433D01*
X65958305Y-121186427D01*
X65693260Y-121093683D01*
X65693248Y-121093679D01*
X65419460Y-121031190D01*
X65315862Y-121019518D01*
X65315861Y-121019518D01*
X65140415Y-120999750D01*
X64859584Y-120999750D01*
X64580539Y-121031190D01*
X64306751Y-121093679D01*
X64306739Y-121093683D01*
X64041694Y-121186427D01*
X64041680Y-121186433D01*
X63788678Y-121308272D01*
X63550894Y-121457682D01*
X63550890Y-121457685D01*
X63417562Y-121564009D01*
X64733377Y-122879824D01*
X64680268Y-122901823D01*
X64569713Y-122975693D01*
X64475693Y-123069713D01*
X64401823Y-123180268D01*
X64379824Y-123233377D01*
X63064009Y-121917562D01*
X62957685Y-122050890D01*
X62957682Y-122050894D01*
X62808272Y-122288678D01*
X62686433Y-122541680D01*
X62686427Y-122541694D01*
X62593683Y-122806739D01*
X62593679Y-122806751D01*
X62531190Y-123080539D01*
X62499750Y-123359584D01*
X56965128Y-123359584D01*
X56905824Y-123023252D01*
X56803929Y-122642976D01*
X56669279Y-122273028D01*
X56565694Y-122050890D01*
X56502902Y-121916231D01*
X56502894Y-121916216D01*
X56363314Y-121674456D01*
X56358663Y-121666401D01*
X56306053Y-121575277D01*
X56306045Y-121575266D01*
X56306041Y-121575259D01*
X56080240Y-121252782D01*
X55827178Y-120951197D01*
X55775428Y-120899447D01*
X77191500Y-120899447D01*
X77191500Y-122100537D01*
X77191501Y-122100553D01*
X77202113Y-122204426D01*
X77257885Y-122372738D01*
X77350970Y-122523652D01*
X77476348Y-122649030D01*
X77627262Y-122742115D01*
X77795574Y-122797887D01*
X77899455Y-122808500D01*
X79100544Y-122808499D01*
X79204426Y-122797887D01*
X79372738Y-122742115D01*
X79523652Y-122649030D01*
X79649030Y-122523652D01*
X79742115Y-122372738D01*
X79797887Y-122204426D01*
X79808500Y-122100545D01*
X79808499Y-120899456D01*
X79797887Y-120795574D01*
X79742115Y-120627262D01*
X79649030Y-120476348D01*
X79523652Y-120350970D01*
X79372738Y-120257885D01*
X79372735Y-120257884D01*
X79204427Y-120202113D01*
X79100545Y-120191500D01*
X77899462Y-120191500D01*
X77899446Y-120191501D01*
X77795572Y-120202113D01*
X77627264Y-120257884D01*
X77627259Y-120257886D01*
X77476346Y-120350971D01*
X77350971Y-120476346D01*
X77257886Y-120627259D01*
X77257884Y-120627264D01*
X77202113Y-120795572D01*
X77191500Y-120899447D01*
X55775428Y-120899447D01*
X55548802Y-120672821D01*
X55247217Y-120419759D01*
X54924740Y-120193958D01*
X54924729Y-120193951D01*
X54924723Y-120193947D01*
X54823429Y-120135465D01*
X54583783Y-119997105D01*
X54583768Y-119997097D01*
X54226981Y-119830725D01*
X54226979Y-119830724D01*
X54226972Y-119830721D01*
X53857024Y-119696071D01*
X53615940Y-119631472D01*
X53476749Y-119594176D01*
X53476738Y-119594174D01*
X53089043Y-119525813D01*
X52696846Y-119491500D01*
X52696845Y-119491500D01*
X52303155Y-119491500D01*
X52303154Y-119491500D01*
X51910957Y-119525813D01*
X51910955Y-119525813D01*
X51523261Y-119594174D01*
X51523250Y-119594176D01*
X51319460Y-119648782D01*
X51142976Y-119696071D01*
X51142973Y-119696072D01*
X51142972Y-119696072D01*
X50936332Y-119771282D01*
X50773028Y-119830721D01*
X50773024Y-119830722D01*
X50773018Y-119830725D01*
X50416231Y-119997097D01*
X50416216Y-119997105D01*
X50075285Y-120193942D01*
X50075259Y-120193958D01*
X49752782Y-120419759D01*
X49451197Y-120672821D01*
X49172821Y-120951197D01*
X48919759Y-121252782D01*
X48693958Y-121575259D01*
X48693942Y-121575285D01*
X48497105Y-121916216D01*
X48497097Y-121916231D01*
X48330725Y-122273018D01*
X48232935Y-122541694D01*
X48196071Y-122642976D01*
X48151719Y-122808498D01*
X48094176Y-123023250D01*
X48094174Y-123023261D01*
X48025813Y-123410955D01*
X48025813Y-123410957D01*
X47991500Y-123803153D01*
X46700500Y-123803153D01*
X46700500Y-103853505D01*
X62041500Y-103853505D01*
X62041500Y-104146494D01*
X62074302Y-104437615D01*
X62074304Y-104437631D01*
X62139497Y-104723262D01*
X62139501Y-104723274D01*
X62236264Y-104999806D01*
X62363381Y-105263766D01*
X62519259Y-105511844D01*
X62519260Y-105511846D01*
X62701921Y-105740897D01*
X62909102Y-105948078D01*
X63138153Y-106130739D01*
X63138156Y-106130740D01*
X63138158Y-106130742D01*
X63386231Y-106286617D01*
X63650197Y-106413737D01*
X63857892Y-106486412D01*
X63926725Y-106510498D01*
X63926737Y-106510502D01*
X64212372Y-106575696D01*
X64503505Y-106608499D01*
X64503506Y-106608500D01*
X64503510Y-106608500D01*
X64796494Y-106608500D01*
X64796494Y-106608499D01*
X65087628Y-106575696D01*
X65373263Y-106510502D01*
X65649803Y-106413737D01*
X65913769Y-106286617D01*
X66161842Y-106130742D01*
X66161846Y-106130739D01*
X66390897Y-105948078D01*
X66390899Y-105948075D01*
X66390904Y-105948072D01*
X66598072Y-105740904D01*
X66780742Y-105511842D01*
X66936617Y-105263769D01*
X67063737Y-104999803D01*
X67160502Y-104723263D01*
X67225696Y-104437628D01*
X67258500Y-104146490D01*
X67258500Y-103853510D01*
X67258499Y-103853505D01*
X85741500Y-103853505D01*
X85741500Y-104146494D01*
X85774302Y-104437615D01*
X85774304Y-104437631D01*
X85839497Y-104723262D01*
X85839501Y-104723274D01*
X85936264Y-104999806D01*
X86063381Y-105263766D01*
X86219259Y-105511844D01*
X86219260Y-105511846D01*
X86401921Y-105740897D01*
X86609102Y-105948078D01*
X86838153Y-106130739D01*
X86838156Y-106130740D01*
X86838158Y-106130742D01*
X87086231Y-106286617D01*
X87350197Y-106413737D01*
X87557892Y-106486412D01*
X87626725Y-106510498D01*
X87626737Y-106510502D01*
X87912372Y-106575696D01*
X88203505Y-106608499D01*
X88203506Y-106608500D01*
X88203510Y-106608500D01*
X88496494Y-106608500D01*
X88496494Y-106608499D01*
X88787628Y-106575696D01*
X89073263Y-106510502D01*
X89349803Y-106413737D01*
X89613769Y-106286617D01*
X89861842Y-106130742D01*
X89861846Y-106130739D01*
X90090897Y-105948078D01*
X90090899Y-105948075D01*
X90090904Y-105948072D01*
X90298072Y-105740904D01*
X90480742Y-105511842D01*
X90636617Y-105263769D01*
X90763737Y-104999803D01*
X90860502Y-104723263D01*
X90925696Y-104437628D01*
X90958500Y-104146490D01*
X90958500Y-103853510D01*
X90925696Y-103562372D01*
X90860502Y-103276737D01*
X90763737Y-103000197D01*
X90636617Y-102736231D01*
X90480742Y-102488158D01*
X90480740Y-102488155D01*
X90480739Y-102488153D01*
X90298078Y-102259102D01*
X90090897Y-102051921D01*
X89861846Y-101869260D01*
X89861844Y-101869259D01*
X89613766Y-101713381D01*
X89349806Y-101586264D01*
X89073274Y-101489501D01*
X89073262Y-101489497D01*
X88787631Y-101424304D01*
X88787615Y-101424302D01*
X88496494Y-101391500D01*
X88496490Y-101391500D01*
X88203510Y-101391500D01*
X88203506Y-101391500D01*
X87912384Y-101424302D01*
X87912368Y-101424304D01*
X87626737Y-101489497D01*
X87626725Y-101489501D01*
X87350193Y-101586264D01*
X87086233Y-101713381D01*
X86838155Y-101869259D01*
X86838153Y-101869260D01*
X86609102Y-102051921D01*
X86401921Y-102259102D01*
X86219260Y-102488153D01*
X86219259Y-102488155D01*
X86063381Y-102736233D01*
X85936264Y-103000193D01*
X85839501Y-103276725D01*
X85839497Y-103276737D01*
X85774304Y-103562368D01*
X85774302Y-103562384D01*
X85741500Y-103853505D01*
X67258499Y-103853505D01*
X67225696Y-103562372D01*
X67160502Y-103276737D01*
X67063737Y-103000197D01*
X66936617Y-102736231D01*
X66780742Y-102488158D01*
X66780740Y-102488155D01*
X66780739Y-102488153D01*
X66598078Y-102259102D01*
X66390897Y-102051921D01*
X66161846Y-101869260D01*
X66161844Y-101869259D01*
X65913766Y-101713381D01*
X65649806Y-101586264D01*
X65373274Y-101489501D01*
X65373262Y-101489497D01*
X65087631Y-101424304D01*
X65087615Y-101424302D01*
X64796494Y-101391500D01*
X64796490Y-101391500D01*
X64503510Y-101391500D01*
X64503506Y-101391500D01*
X64212384Y-101424302D01*
X64212368Y-101424304D01*
X63926737Y-101489497D01*
X63926725Y-101489501D01*
X63650193Y-101586264D01*
X63386233Y-101713381D01*
X63138155Y-101869259D01*
X63138153Y-101869260D01*
X62909102Y-102051921D01*
X62701921Y-102259102D01*
X62519260Y-102488153D01*
X62519259Y-102488155D01*
X62363381Y-102736233D01*
X62236264Y-103000193D01*
X62139501Y-103276725D01*
X62139497Y-103276737D01*
X62074304Y-103562368D01*
X62074302Y-103562384D01*
X62041500Y-103853505D01*
X46700500Y-103853505D01*
X46700500Y-99910516D01*
X53591500Y-99910516D01*
X53591500Y-100089483D01*
X53626411Y-100264992D01*
X53626413Y-100265000D01*
X53694896Y-100430332D01*
X53694901Y-100430342D01*
X53794321Y-100579134D01*
X53794324Y-100579138D01*
X53920861Y-100705675D01*
X53920865Y-100705678D01*
X54069657Y-100805098D01*
X54069661Y-100805100D01*
X54069664Y-100805102D01*
X54235000Y-100873587D01*
X54410516Y-100908499D01*
X54410520Y-100908500D01*
X54410521Y-100908500D01*
X54589480Y-100908500D01*
X54589481Y-100908499D01*
X54765000Y-100873587D01*
X54930336Y-100805102D01*
X55079135Y-100705678D01*
X55205678Y-100579135D01*
X55305102Y-100430336D01*
X55310749Y-100416701D01*
X55315380Y-100409769D01*
X55316478Y-100404726D01*
X55331417Y-100384769D01*
X91741820Y-100384769D01*
X91741820Y-100615230D01*
X91741821Y-100615246D01*
X91766815Y-100805098D01*
X91771903Y-100843740D01*
X91789256Y-100908500D01*
X91831556Y-101066365D01*
X91919750Y-101279284D01*
X91919754Y-101279294D01*
X92034989Y-101478887D01*
X92175292Y-101661734D01*
X92175298Y-101661741D01*
X92338258Y-101824701D01*
X92338265Y-101824707D01*
X92521112Y-101965010D01*
X92720705Y-102080245D01*
X92720706Y-102080245D01*
X92720709Y-102080247D01*
X92933639Y-102168445D01*
X93156260Y-102228097D01*
X93384763Y-102258180D01*
X93384770Y-102258180D01*
X93615230Y-102258180D01*
X93615237Y-102258180D01*
X93843740Y-102228097D01*
X94066361Y-102168445D01*
X94279291Y-102080247D01*
X94478888Y-101965010D01*
X94661736Y-101824706D01*
X94824706Y-101661736D01*
X94965010Y-101478888D01*
X95080247Y-101279291D01*
X95168445Y-101066361D01*
X95228097Y-100843740D01*
X95258180Y-100615237D01*
X95258180Y-100384763D01*
X95228097Y-100156260D01*
X95168445Y-99933639D01*
X95080247Y-99720709D01*
X94998509Y-99579135D01*
X94965010Y-99521112D01*
X94824707Y-99338265D01*
X94824701Y-99338258D01*
X94661741Y-99175298D01*
X94661734Y-99175292D01*
X94478887Y-99034989D01*
X94279294Y-98919754D01*
X94279284Y-98919750D01*
X94066365Y-98831556D01*
X94027520Y-98821147D01*
X93843740Y-98771903D01*
X93843737Y-98771902D01*
X93843735Y-98771902D01*
X93615246Y-98741821D01*
X93615243Y-98741820D01*
X93615237Y-98741820D01*
X93384763Y-98741820D01*
X93384757Y-98741820D01*
X93384753Y-98741821D01*
X93156264Y-98771902D01*
X92933634Y-98831556D01*
X92720715Y-98919750D01*
X92720705Y-98919754D01*
X92521112Y-99034989D01*
X92338265Y-99175292D01*
X92338258Y-99175298D01*
X92175298Y-99338258D01*
X92175292Y-99338265D01*
X92034989Y-99521112D01*
X91919754Y-99720705D01*
X91919750Y-99720715D01*
X91831556Y-99933634D01*
X91771902Y-100156264D01*
X91741821Y-100384753D01*
X91741820Y-100384769D01*
X55331417Y-100384769D01*
X55337626Y-100376475D01*
X55819283Y-99894819D01*
X55880606Y-99861334D01*
X55906964Y-99858500D01*
X58673912Y-99858500D01*
X58721364Y-99867938D01*
X58735000Y-99873587D01*
X58910516Y-99908499D01*
X58910520Y-99908500D01*
X58910521Y-99908500D01*
X59089480Y-99908500D01*
X59089481Y-99908499D01*
X59265000Y-99873587D01*
X59430336Y-99805102D01*
X59579135Y-99705678D01*
X59705678Y-99579135D01*
X59805102Y-99430336D01*
X59873587Y-99265000D01*
X59908500Y-99089479D01*
X59908500Y-98910521D01*
X59873587Y-98735000D01*
X59805102Y-98569664D01*
X59805100Y-98569661D01*
X59805098Y-98569657D01*
X59705678Y-98420865D01*
X59705675Y-98420861D01*
X59579138Y-98294324D01*
X59579134Y-98294321D01*
X59430342Y-98194901D01*
X59430332Y-98194896D01*
X59265000Y-98126413D01*
X59264992Y-98126411D01*
X59089483Y-98091500D01*
X59089479Y-98091500D01*
X58910521Y-98091500D01*
X58910516Y-98091500D01*
X58735007Y-98126411D01*
X58734999Y-98126413D01*
X58721365Y-98132061D01*
X58673912Y-98141500D01*
X58375360Y-98141500D01*
X58308321Y-98121815D01*
X58262566Y-98069011D01*
X58252622Y-97999853D01*
X58257654Y-97978497D01*
X58297886Y-97857080D01*
X58297886Y-97857079D01*
X58297887Y-97857077D01*
X58308500Y-97753196D01*
X58308499Y-96552107D01*
X58297887Y-96448225D01*
X58285393Y-96410521D01*
X67091500Y-96410521D01*
X67091500Y-96417722D01*
X67091500Y-96589483D01*
X67126411Y-96764992D01*
X67126413Y-96765000D01*
X67194896Y-96930332D01*
X67194901Y-96930342D01*
X67294321Y-97079134D01*
X67294324Y-97079138D01*
X67420861Y-97205675D01*
X67420865Y-97205678D01*
X67569657Y-97305098D01*
X67569661Y-97305100D01*
X67569664Y-97305102D01*
X67735000Y-97373587D01*
X67907520Y-97407903D01*
X67910516Y-97408499D01*
X67910520Y-97408500D01*
X67910521Y-97408500D01*
X68089481Y-97408500D01*
X68095544Y-97407903D01*
X68095688Y-97409372D01*
X68157969Y-97414940D01*
X68213150Y-97457797D01*
X68215682Y-97461443D01*
X68294321Y-97579134D01*
X68294324Y-97579138D01*
X68420861Y-97705675D01*
X68420865Y-97705678D01*
X68569657Y-97805098D01*
X68569661Y-97805100D01*
X68569664Y-97805102D01*
X68735000Y-97873587D01*
X68910516Y-97908499D01*
X68910520Y-97908500D01*
X68910521Y-97908500D01*
X69089480Y-97908500D01*
X69089481Y-97908499D01*
X69265000Y-97873587D01*
X69430336Y-97805102D01*
X69579135Y-97705678D01*
X69705678Y-97579135D01*
X69805102Y-97430336D01*
X69873587Y-97265000D01*
X69908500Y-97089479D01*
X69908500Y-96910521D01*
X69873587Y-96735000D01*
X69867938Y-96721362D01*
X69858500Y-96673911D01*
X69858500Y-95906965D01*
X69878185Y-95839926D01*
X69894819Y-95819284D01*
X71010283Y-94703820D01*
X72166841Y-93547262D01*
X72166841Y-93547261D01*
X72876473Y-92837627D01*
X72916701Y-92810749D01*
X72930336Y-92805102D01*
X73079135Y-92705678D01*
X73205678Y-92579135D01*
X73305102Y-92430336D01*
X73373587Y-92265000D01*
X73408500Y-92089479D01*
X73408500Y-91910521D01*
X73373587Y-91735000D01*
X73305102Y-91569664D01*
X73305100Y-91569661D01*
X73305098Y-91569657D01*
X73205678Y-91420865D01*
X73205675Y-91420861D01*
X73079138Y-91294324D01*
X73079134Y-91294321D01*
X72930342Y-91194901D01*
X72930332Y-91194896D01*
X72765000Y-91126413D01*
X72764992Y-91126411D01*
X72589483Y-91091500D01*
X72589479Y-91091500D01*
X72410521Y-91091500D01*
X72410516Y-91091500D01*
X72235007Y-91126411D01*
X72234999Y-91126413D01*
X72069667Y-91194896D01*
X72069657Y-91194901D01*
X71920865Y-91294321D01*
X71920861Y-91294324D01*
X71837681Y-91377505D01*
X71776358Y-91410990D01*
X71706666Y-91406006D01*
X71662319Y-91377505D01*
X71579138Y-91294324D01*
X71579134Y-91294321D01*
X71430342Y-91194901D01*
X71430332Y-91194896D01*
X71265000Y-91126413D01*
X71264992Y-91126411D01*
X71089483Y-91091500D01*
X71089479Y-91091500D01*
X70910521Y-91091500D01*
X70910516Y-91091500D01*
X70735007Y-91126411D01*
X70734999Y-91126413D01*
X70569667Y-91194896D01*
X70569657Y-91194901D01*
X70420865Y-91294321D01*
X70420861Y-91294324D01*
X70294323Y-91420862D01*
X70194896Y-91569667D01*
X70189248Y-91583302D01*
X70162370Y-91623525D01*
X68080585Y-93705312D01*
X67452738Y-94333159D01*
X67407325Y-94378572D01*
X67333157Y-94452739D01*
X67239210Y-94593341D01*
X67239205Y-94593351D01*
X67193446Y-94703820D01*
X67193447Y-94703821D01*
X67178791Y-94739207D01*
X67178788Y-94739214D01*
X67174492Y-94749584D01*
X67174490Y-94749590D01*
X67141500Y-94915440D01*
X67141500Y-96173911D01*
X67140017Y-96181363D01*
X67138682Y-96200196D01*
X67136321Y-96211079D01*
X67126413Y-96235000D01*
X67091500Y-96410521D01*
X58285393Y-96410521D01*
X58242115Y-96279913D01*
X58149030Y-96128999D01*
X58023652Y-96003621D01*
X57872738Y-95910536D01*
X57861961Y-95906965D01*
X57704427Y-95854764D01*
X57600545Y-95844151D01*
X56399462Y-95844151D01*
X56399446Y-95844152D01*
X56295572Y-95854764D01*
X56127264Y-95910535D01*
X56127259Y-95910537D01*
X55976346Y-96003622D01*
X55850971Y-96128997D01*
X55757886Y-96279910D01*
X55757884Y-96279915D01*
X55702113Y-96448223D01*
X55691500Y-96552098D01*
X55691500Y-97753188D01*
X55691501Y-97753204D01*
X55702113Y-97857079D01*
X55742346Y-97978497D01*
X55743324Y-98006956D01*
X55747378Y-98035147D01*
X55744509Y-98041427D01*
X55744747Y-98048325D01*
X55730185Y-98072793D01*
X55718353Y-98098703D01*
X55712544Y-98102435D01*
X55709015Y-98108367D01*
X55683532Y-98121080D01*
X55659575Y-98136477D01*
X55649877Y-98137871D01*
X55646495Y-98139559D01*
X55624640Y-98141500D01*
X55590689Y-98141500D01*
X55590669Y-98141499D01*
X55584555Y-98141499D01*
X55415445Y-98141499D01*
X55415443Y-98141499D01*
X55249590Y-98174489D01*
X55249584Y-98174491D01*
X55093349Y-98239205D01*
X54952737Y-98333159D01*
X54892948Y-98392948D01*
X54833159Y-98452738D01*
X54833157Y-98452740D01*
X54123525Y-99162370D01*
X54083302Y-99189248D01*
X54069667Y-99194896D01*
X53920862Y-99294323D01*
X53794324Y-99420861D01*
X53794321Y-99420865D01*
X53694901Y-99569657D01*
X53694896Y-99569667D01*
X53626413Y-99734999D01*
X53626411Y-99735007D01*
X53591500Y-99910516D01*
X46700500Y-99910516D01*
X46700500Y-93550333D01*
X55700000Y-93550333D01*
X55700000Y-93754968D01*
X55732009Y-93957068D01*
X55795244Y-94151682D01*
X55888141Y-94334001D01*
X55888147Y-94334010D01*
X55920523Y-94378572D01*
X55920524Y-94378573D01*
X56600000Y-93699097D01*
X56600000Y-93705312D01*
X56627259Y-93807045D01*
X56679920Y-93898257D01*
X56754394Y-93972731D01*
X56845606Y-94025392D01*
X56947339Y-94052651D01*
X56953553Y-94052651D01*
X56274076Y-94732125D01*
X56318650Y-94764510D01*
X56500968Y-94857406D01*
X56695582Y-94920641D01*
X56897683Y-94952651D01*
X57102317Y-94952651D01*
X57304417Y-94920641D01*
X57499031Y-94857406D01*
X57681349Y-94764510D01*
X57725921Y-94732125D01*
X57046447Y-94052651D01*
X57052661Y-94052651D01*
X57154394Y-94025392D01*
X57245606Y-93972731D01*
X57320080Y-93898257D01*
X57372741Y-93807045D01*
X57400000Y-93705312D01*
X57400000Y-93699098D01*
X58079474Y-94378572D01*
X58111859Y-94334000D01*
X58204755Y-94151682D01*
X58267990Y-93957068D01*
X58300000Y-93754968D01*
X58300000Y-93550333D01*
X58267990Y-93348233D01*
X58204755Y-93153619D01*
X58111859Y-92971301D01*
X58079474Y-92926728D01*
X58079474Y-92926727D01*
X57400000Y-93606202D01*
X57400000Y-93599990D01*
X57372741Y-93498257D01*
X57320080Y-93407045D01*
X57245606Y-93332571D01*
X57154394Y-93279910D01*
X57052661Y-93252651D01*
X57046446Y-93252651D01*
X57725922Y-92573175D01*
X57725921Y-92573174D01*
X57681359Y-92540798D01*
X57681350Y-92540792D01*
X57499031Y-92447895D01*
X57304417Y-92384660D01*
X57102317Y-92352651D01*
X56897683Y-92352651D01*
X56695582Y-92384660D01*
X56500968Y-92447895D01*
X56318644Y-92540794D01*
X56274077Y-92573174D01*
X56274077Y-92573175D01*
X56953554Y-93252651D01*
X56947339Y-93252651D01*
X56845606Y-93279910D01*
X56754394Y-93332571D01*
X56679920Y-93407045D01*
X56627259Y-93498257D01*
X56600000Y-93599990D01*
X56600000Y-93606204D01*
X55920524Y-92926728D01*
X55920523Y-92926728D01*
X55888143Y-92971295D01*
X55795244Y-93153619D01*
X55732009Y-93348233D01*
X55700000Y-93550333D01*
X46700500Y-93550333D01*
X46700500Y-86249999D01*
X50515654Y-86249999D01*
X50515655Y-86250000D01*
X52845879Y-86250000D01*
X52826901Y-86295818D01*
X52800000Y-86431056D01*
X52800000Y-86568944D01*
X52826901Y-86704182D01*
X52845879Y-86750000D01*
X50515655Y-86750000D01*
X50534221Y-86891016D01*
X50602075Y-87144255D01*
X50702404Y-87386471D01*
X50702409Y-87386482D01*
X50833496Y-87613528D01*
X50993092Y-87821519D01*
X50993098Y-87821526D01*
X51178473Y-88006901D01*
X51178480Y-88006907D01*
X51386471Y-88166503D01*
X51613517Y-88297590D01*
X51613528Y-88297595D01*
X51855744Y-88397924D01*
X52108979Y-88465777D01*
X52108990Y-88465779D01*
X52368905Y-88499999D01*
X52368920Y-88500000D01*
X53250000Y-88500000D01*
X53250000Y-87154120D01*
X53295818Y-87173099D01*
X53431056Y-87200000D01*
X53568944Y-87200000D01*
X53704182Y-87173099D01*
X53750000Y-87154120D01*
X53750000Y-88500000D01*
X54631080Y-88500000D01*
X54631094Y-88499999D01*
X54891009Y-88465779D01*
X54891020Y-88465777D01*
X55144255Y-88397924D01*
X55386471Y-88297595D01*
X55386482Y-88297590D01*
X55613528Y-88166503D01*
X55821519Y-88006907D01*
X55821526Y-88006901D01*
X55943658Y-87884769D01*
X77241820Y-87884769D01*
X77241820Y-88115230D01*
X77241821Y-88115246D01*
X77271902Y-88343735D01*
X77331556Y-88566365D01*
X77419750Y-88779284D01*
X77419754Y-88779294D01*
X77534989Y-88978887D01*
X77675292Y-89161734D01*
X77675298Y-89161741D01*
X77838258Y-89324701D01*
X77838265Y-89324707D01*
X78021112Y-89465010D01*
X78220705Y-89580245D01*
X78220706Y-89580245D01*
X78220709Y-89580247D01*
X78433639Y-89668445D01*
X78656260Y-89728097D01*
X78884763Y-89758180D01*
X78884770Y-89758180D01*
X79115230Y-89758180D01*
X79115237Y-89758180D01*
X79343740Y-89728097D01*
X79566361Y-89668445D01*
X79779291Y-89580247D01*
X79978888Y-89465010D01*
X80161736Y-89324706D01*
X80324706Y-89161736D01*
X80465010Y-88978888D01*
X80580247Y-88779291D01*
X80668445Y-88566361D01*
X80728097Y-88343740D01*
X80758180Y-88115237D01*
X80758180Y-87884763D01*
X80728097Y-87656260D01*
X80668445Y-87433639D01*
X80580247Y-87220709D01*
X80552759Y-87173099D01*
X80465010Y-87021112D01*
X80324707Y-86838265D01*
X80324701Y-86838258D01*
X80161741Y-86675298D01*
X80161734Y-86675292D01*
X79978887Y-86534989D01*
X79779294Y-86419754D01*
X79779284Y-86419750D01*
X79566365Y-86331556D01*
X79527520Y-86321147D01*
X79343740Y-86271903D01*
X79343737Y-86271902D01*
X79343735Y-86271902D01*
X79115246Y-86241821D01*
X79115243Y-86241820D01*
X79115237Y-86241820D01*
X78884763Y-86241820D01*
X78884757Y-86241820D01*
X78884753Y-86241821D01*
X78656264Y-86271902D01*
X78433634Y-86331556D01*
X78220715Y-86419750D01*
X78220705Y-86419754D01*
X78021112Y-86534989D01*
X77838265Y-86675292D01*
X77838258Y-86675298D01*
X77675298Y-86838258D01*
X77675292Y-86838265D01*
X77534989Y-87021112D01*
X77419754Y-87220705D01*
X77419750Y-87220715D01*
X77331556Y-87433634D01*
X77271902Y-87656264D01*
X77241821Y-87884753D01*
X77241820Y-87884769D01*
X55943658Y-87884769D01*
X56006901Y-87821526D01*
X56006905Y-87821521D01*
X56019415Y-87805219D01*
X56019415Y-87805218D01*
X56166503Y-87613528D01*
X56297590Y-87386482D01*
X56297595Y-87386471D01*
X56397924Y-87144255D01*
X56465778Y-86891016D01*
X56484345Y-86750000D01*
X54154121Y-86750000D01*
X54173099Y-86704182D01*
X54200000Y-86568944D01*
X54200000Y-86431056D01*
X54173099Y-86295818D01*
X54154121Y-86250000D01*
X56484345Y-86250000D01*
X56484345Y-86249999D01*
X56465778Y-86108983D01*
X56452690Y-86060134D01*
X56444976Y-86031345D01*
X86991500Y-86031345D01*
X86991500Y-89128654D01*
X86998011Y-89189202D01*
X86998011Y-89189204D01*
X87048550Y-89324701D01*
X87049111Y-89326204D01*
X87136739Y-89443261D01*
X87253796Y-89530889D01*
X87368949Y-89573839D01*
X87386128Y-89580247D01*
X87390799Y-89581989D01*
X87418050Y-89584918D01*
X87451345Y-89588499D01*
X87451362Y-89588500D01*
X92548638Y-89588500D01*
X92548654Y-89588499D01*
X92575692Y-89585591D01*
X92609201Y-89581989D01*
X92613872Y-89580247D01*
X92623768Y-89576555D01*
X92746204Y-89530889D01*
X92863261Y-89443261D01*
X92950889Y-89326204D01*
X93001989Y-89189201D01*
X93005591Y-89155692D01*
X93008499Y-89128654D01*
X93008500Y-89128637D01*
X93008500Y-86031362D01*
X93008499Y-86031345D01*
X93005157Y-86000270D01*
X93001989Y-85970799D01*
X92996571Y-85956274D01*
X92979522Y-85910564D01*
X92950889Y-85833796D01*
X92863261Y-85716739D01*
X92746204Y-85629111D01*
X92704425Y-85613528D01*
X92609203Y-85578011D01*
X92548654Y-85571500D01*
X92548638Y-85571500D01*
X87451362Y-85571500D01*
X87451345Y-85571500D01*
X87390797Y-85578011D01*
X87390795Y-85578011D01*
X87253795Y-85629111D01*
X87136739Y-85716739D01*
X87049111Y-85833795D01*
X86998011Y-85970795D01*
X86998011Y-85970797D01*
X86991500Y-86031345D01*
X56444976Y-86031345D01*
X56397924Y-85855744D01*
X56297595Y-85613528D01*
X56297590Y-85613517D01*
X56166503Y-85386471D01*
X56006907Y-85178480D01*
X56006901Y-85178473D01*
X55821526Y-84993098D01*
X55821519Y-84993092D01*
X55613528Y-84833496D01*
X55386482Y-84702409D01*
X55386471Y-84702404D01*
X55144255Y-84602075D01*
X54891020Y-84534222D01*
X54891009Y-84534220D01*
X54631094Y-84500000D01*
X53750000Y-84500000D01*
X53750000Y-85845879D01*
X53704182Y-85826901D01*
X53568944Y-85800000D01*
X53431056Y-85800000D01*
X53295818Y-85826901D01*
X53250000Y-85845879D01*
X53250000Y-84500000D01*
X52368905Y-84500000D01*
X52108990Y-84534220D01*
X52108979Y-84534222D01*
X51855744Y-84602075D01*
X51613528Y-84702404D01*
X51613517Y-84702409D01*
X51386471Y-84833496D01*
X51178480Y-84993092D01*
X51178473Y-84993098D01*
X50993098Y-85178473D01*
X50993092Y-85178480D01*
X50833496Y-85386471D01*
X50702409Y-85613517D01*
X50702404Y-85613528D01*
X50602075Y-85855744D01*
X50534221Y-86108983D01*
X50515654Y-86249999D01*
X46700500Y-86249999D01*
X46700500Y-81288362D01*
X50491500Y-81288362D01*
X50491500Y-81551637D01*
X50491501Y-81551653D01*
X50525865Y-81812678D01*
X50594009Y-82066995D01*
X50694761Y-82310234D01*
X50694769Y-82310250D01*
X50826409Y-82538256D01*
X50986687Y-82747136D01*
X50986693Y-82747143D01*
X51172856Y-82933306D01*
X51172863Y-82933312D01*
X51381743Y-83093590D01*
X51609749Y-83225230D01*
X51609765Y-83225238D01*
X51761451Y-83288068D01*
X51853003Y-83325990D01*
X52107320Y-83394134D01*
X52368356Y-83428500D01*
X52368363Y-83428500D01*
X54631637Y-83428500D01*
X54631644Y-83428500D01*
X54892680Y-83394134D01*
X55146997Y-83325990D01*
X55330099Y-83250146D01*
X55390234Y-83225238D01*
X55390237Y-83225236D01*
X55390243Y-83225234D01*
X55618257Y-83093590D01*
X55827138Y-82933311D01*
X56013311Y-82747138D01*
X56049505Y-82699968D01*
X56099360Y-82634997D01*
X56150043Y-82568944D01*
X56173590Y-82538257D01*
X56305234Y-82310243D01*
X56330188Y-82249999D01*
X87015654Y-82249999D01*
X87015655Y-82250000D01*
X89345879Y-82250000D01*
X89326901Y-82295818D01*
X89300000Y-82431056D01*
X89300000Y-82568944D01*
X89326901Y-82704182D01*
X89345879Y-82750000D01*
X87015655Y-82750000D01*
X87034221Y-82891016D01*
X87102075Y-83144255D01*
X87202404Y-83386471D01*
X87202409Y-83386482D01*
X87333488Y-83613516D01*
X87333499Y-83613532D01*
X87493092Y-83821518D01*
X87493098Y-83821525D01*
X87678473Y-84006900D01*
X87678480Y-84006906D01*
X87886466Y-84166499D01*
X87886482Y-84166510D01*
X88113516Y-84297589D01*
X88113527Y-84297594D01*
X88355743Y-84397923D01*
X88608978Y-84465776D01*
X88608989Y-84465778D01*
X88868904Y-84499998D01*
X88868919Y-84499999D01*
X89750000Y-84499999D01*
X89750000Y-83154120D01*
X89795818Y-83173099D01*
X89931056Y-83200000D01*
X90068944Y-83200000D01*
X90204182Y-83173099D01*
X90250000Y-83154120D01*
X90250000Y-84499999D01*
X91131081Y-84499999D01*
X91131095Y-84499998D01*
X91391010Y-84465778D01*
X91391021Y-84465776D01*
X91644256Y-84397923D01*
X91886472Y-84297594D01*
X91886483Y-84297589D01*
X92113517Y-84166510D01*
X92113533Y-84166499D01*
X92321519Y-84006906D01*
X92321526Y-84006900D01*
X92506901Y-83821525D01*
X92506907Y-83821518D01*
X92666500Y-83613532D01*
X92666511Y-83613516D01*
X92797590Y-83386482D01*
X92797595Y-83386471D01*
X92897924Y-83144255D01*
X92965778Y-82891016D01*
X92984345Y-82750000D01*
X90654121Y-82750000D01*
X90673099Y-82704182D01*
X90700000Y-82568944D01*
X90700000Y-82431056D01*
X90673099Y-82295818D01*
X90654121Y-82250000D01*
X92984345Y-82250000D01*
X92984345Y-82249999D01*
X92965778Y-82108983D01*
X92897924Y-81855744D01*
X92797595Y-81613528D01*
X92797590Y-81613517D01*
X92666511Y-81386483D01*
X92666500Y-81386467D01*
X92506907Y-81178481D01*
X92506901Y-81178474D01*
X92321526Y-80993099D01*
X92321519Y-80993093D01*
X92113533Y-80833500D01*
X92113517Y-80833489D01*
X91886483Y-80702410D01*
X91886472Y-80702405D01*
X91644256Y-80602076D01*
X91391021Y-80534223D01*
X91391010Y-80534221D01*
X91131095Y-80500001D01*
X90250000Y-80500001D01*
X90250000Y-81845879D01*
X90204182Y-81826901D01*
X90068944Y-81800000D01*
X89931056Y-81800000D01*
X89795818Y-81826901D01*
X89750000Y-81845879D01*
X89750000Y-80500001D01*
X88868904Y-80500001D01*
X88608989Y-80534221D01*
X88608978Y-80534223D01*
X88355743Y-80602076D01*
X88113527Y-80702405D01*
X88113516Y-80702410D01*
X87886482Y-80833489D01*
X87886466Y-80833500D01*
X87678480Y-80993093D01*
X87678473Y-80993099D01*
X87493098Y-81178474D01*
X87493092Y-81178481D01*
X87333499Y-81386467D01*
X87333488Y-81386483D01*
X87202409Y-81613517D01*
X87202404Y-81613528D01*
X87102075Y-81855744D01*
X87034221Y-82108983D01*
X87015654Y-82249999D01*
X56330188Y-82249999D01*
X56405990Y-82066997D01*
X56474134Y-81812680D01*
X56508500Y-81551644D01*
X56508500Y-81288356D01*
X56474134Y-81027320D01*
X56405990Y-80773003D01*
X56335190Y-80602076D01*
X56305238Y-80529765D01*
X56305230Y-80529749D01*
X56173590Y-80301743D01*
X56013312Y-80092863D01*
X56013306Y-80092856D01*
X55827143Y-79906693D01*
X55827136Y-79906687D01*
X55618256Y-79746409D01*
X55390250Y-79614769D01*
X55390234Y-79614761D01*
X55146995Y-79514009D01*
X54892678Y-79445865D01*
X54631653Y-79411501D01*
X54631650Y-79411500D01*
X54631644Y-79411500D01*
X52368356Y-79411500D01*
X52368350Y-79411500D01*
X52368346Y-79411501D01*
X52107321Y-79445865D01*
X51853004Y-79514009D01*
X51609765Y-79614761D01*
X51609749Y-79614769D01*
X51381743Y-79746409D01*
X51172863Y-79906687D01*
X51172856Y-79906693D01*
X50986693Y-80092856D01*
X50986687Y-80092863D01*
X50826409Y-80301743D01*
X50694769Y-80529749D01*
X50694761Y-80529765D01*
X50594009Y-80773004D01*
X50525865Y-81027321D01*
X50491501Y-81288346D01*
X50491500Y-81288362D01*
X46700500Y-81288362D01*
X46700500Y-74792155D01*
X50500000Y-74792155D01*
X50500000Y-76090000D01*
X52845879Y-76090000D01*
X52826901Y-76135818D01*
X52800000Y-76271056D01*
X52800000Y-76408944D01*
X52826901Y-76544182D01*
X52845879Y-76590000D01*
X50500000Y-76590000D01*
X50500000Y-77887844D01*
X50506401Y-77947372D01*
X50506403Y-77947379D01*
X50556645Y-78082086D01*
X50556649Y-78082093D01*
X50642809Y-78197187D01*
X50642812Y-78197190D01*
X50757906Y-78283350D01*
X50757913Y-78283354D01*
X50892620Y-78333596D01*
X50892627Y-78333598D01*
X50952155Y-78339999D01*
X50952172Y-78340000D01*
X53250000Y-78340000D01*
X53250000Y-76994120D01*
X53295818Y-77013099D01*
X53431056Y-77040000D01*
X53568944Y-77040000D01*
X53704182Y-77013099D01*
X53750000Y-76994120D01*
X53750000Y-78340000D01*
X56047828Y-78340000D01*
X56047844Y-78339999D01*
X56107372Y-78333598D01*
X56107379Y-78333596D01*
X56242086Y-78283354D01*
X56242093Y-78283350D01*
X56357187Y-78197190D01*
X56357190Y-78197187D01*
X56443350Y-78082093D01*
X56443354Y-78082086D01*
X56493596Y-77947379D01*
X56493598Y-77947372D01*
X56499999Y-77887844D01*
X56500000Y-77887827D01*
X56500000Y-76884769D01*
X77741820Y-76884769D01*
X77741820Y-77115230D01*
X77741821Y-77115246D01*
X77771902Y-77343735D01*
X77831556Y-77566365D01*
X77919750Y-77779284D01*
X77919754Y-77779294D01*
X78034989Y-77978887D01*
X78175292Y-78161734D01*
X78175298Y-78161741D01*
X78338258Y-78324701D01*
X78338265Y-78324707D01*
X78521112Y-78465010D01*
X78720705Y-78580245D01*
X78720706Y-78580245D01*
X78720709Y-78580247D01*
X78933639Y-78668445D01*
X79156260Y-78728097D01*
X79384763Y-78758180D01*
X79384770Y-78758180D01*
X79615230Y-78758180D01*
X79615237Y-78758180D01*
X79843740Y-78728097D01*
X80066361Y-78668445D01*
X80279291Y-78580247D01*
X80478888Y-78465010D01*
X80661736Y-78324706D01*
X80824706Y-78161736D01*
X80965010Y-77978888D01*
X81080247Y-77779291D01*
X81168445Y-77566361D01*
X81228097Y-77343740D01*
X81235388Y-77288362D01*
X86991500Y-77288362D01*
X86991500Y-77551637D01*
X86991501Y-77551653D01*
X87021470Y-77779294D01*
X87025866Y-77812680D01*
X87070401Y-77978888D01*
X87094012Y-78067003D01*
X87194759Y-78310231D01*
X87194765Y-78310243D01*
X87326409Y-78538257D01*
X87472079Y-78728097D01*
X87486693Y-78747142D01*
X87672856Y-78933305D01*
X87672860Y-78933308D01*
X87672862Y-78933310D01*
X87881742Y-79093590D01*
X88109756Y-79225234D01*
X88109761Y-79225236D01*
X88109767Y-79225239D01*
X88352995Y-79325986D01*
X88352997Y-79325986D01*
X88353003Y-79325989D01*
X88607319Y-79394133D01*
X88868355Y-79428499D01*
X88868362Y-79428499D01*
X91131638Y-79428499D01*
X91131645Y-79428499D01*
X91392681Y-79394133D01*
X91646997Y-79325989D01*
X91890244Y-79225234D01*
X92118258Y-79093590D01*
X92327138Y-78933310D01*
X92513311Y-78747137D01*
X92673591Y-78538257D01*
X92805235Y-78310243D01*
X92905990Y-78066996D01*
X92974134Y-77812680D01*
X93008500Y-77551644D01*
X93008500Y-77288356D01*
X92974134Y-77027320D01*
X92905990Y-76773004D01*
X92863977Y-76671574D01*
X92805240Y-76529768D01*
X92805237Y-76529762D01*
X92805235Y-76529757D01*
X92673591Y-76301743D01*
X92513311Y-76092863D01*
X92513309Y-76092861D01*
X92513306Y-76092857D01*
X92327143Y-75906694D01*
X92237965Y-75838265D01*
X92118258Y-75746410D01*
X92070066Y-75718586D01*
X91890246Y-75614767D01*
X91890232Y-75614760D01*
X91647004Y-75514013D01*
X91392677Y-75445866D01*
X91131654Y-75411502D01*
X91131651Y-75411501D01*
X91131645Y-75411501D01*
X88868355Y-75411501D01*
X88868349Y-75411501D01*
X88868345Y-75411502D01*
X88607322Y-75445866D01*
X88352995Y-75514013D01*
X88109767Y-75614760D01*
X88109753Y-75614767D01*
X87881748Y-75746406D01*
X87881741Y-75746411D01*
X87672856Y-75906694D01*
X87486693Y-76092857D01*
X87326410Y-76301742D01*
X87326405Y-76301749D01*
X87194766Y-76529754D01*
X87194759Y-76529768D01*
X87094012Y-76772996D01*
X87025865Y-77027323D01*
X86991501Y-77288346D01*
X86991500Y-77288362D01*
X81235388Y-77288362D01*
X81258180Y-77115237D01*
X81258180Y-76884763D01*
X81228097Y-76656260D01*
X81168445Y-76433639D01*
X81080247Y-76220709D01*
X80965010Y-76021112D01*
X80824706Y-75838264D01*
X80824701Y-75838258D01*
X80661741Y-75675298D01*
X80661734Y-75675292D01*
X80478887Y-75534989D01*
X80279294Y-75419754D01*
X80279284Y-75419750D01*
X80066365Y-75331556D01*
X80027520Y-75321147D01*
X79843740Y-75271903D01*
X79843737Y-75271902D01*
X79843735Y-75271902D01*
X79615246Y-75241821D01*
X79615243Y-75241820D01*
X79615237Y-75241820D01*
X79384763Y-75241820D01*
X79384757Y-75241820D01*
X79384753Y-75241821D01*
X79156264Y-75271902D01*
X78933634Y-75331556D01*
X78720715Y-75419750D01*
X78720705Y-75419754D01*
X78521112Y-75534989D01*
X78338265Y-75675292D01*
X78338258Y-75675298D01*
X78175298Y-75838258D01*
X78175292Y-75838265D01*
X78034989Y-76021112D01*
X77919754Y-76220705D01*
X77919750Y-76220715D01*
X77831556Y-76433634D01*
X77771902Y-76656264D01*
X77741821Y-76884753D01*
X77741820Y-76884769D01*
X56500000Y-76884769D01*
X56500000Y-76590000D01*
X54154121Y-76590000D01*
X54173099Y-76544182D01*
X54200000Y-76408944D01*
X54200000Y-76271056D01*
X54173099Y-76135818D01*
X54154121Y-76090000D01*
X56500000Y-76090000D01*
X56500000Y-74792172D01*
X56499999Y-74792155D01*
X56493598Y-74732627D01*
X56493596Y-74732620D01*
X56443354Y-74597913D01*
X56443350Y-74597906D01*
X56357190Y-74482812D01*
X56357187Y-74482809D01*
X56242093Y-74396649D01*
X56242086Y-74396645D01*
X56107379Y-74346403D01*
X56107372Y-74346401D01*
X56047844Y-74340000D01*
X53750000Y-74340000D01*
X53750000Y-75685879D01*
X53704182Y-75666901D01*
X53568944Y-75640000D01*
X53431056Y-75640000D01*
X53295818Y-75666901D01*
X53250000Y-75685879D01*
X53250000Y-74340000D01*
X50952155Y-74340000D01*
X50892627Y-74346401D01*
X50892620Y-74346403D01*
X50757913Y-74396645D01*
X50757906Y-74396649D01*
X50642812Y-74482809D01*
X50642809Y-74482812D01*
X50556649Y-74597906D01*
X50556645Y-74597913D01*
X50506403Y-74732620D01*
X50506401Y-74732627D01*
X50500000Y-74792155D01*
X46700500Y-74792155D01*
X46700500Y-70884769D01*
X48241820Y-70884769D01*
X48241820Y-71115230D01*
X48241821Y-71115246D01*
X48247207Y-71156160D01*
X48271903Y-71343740D01*
X48294899Y-71429561D01*
X48331556Y-71566365D01*
X48419750Y-71779284D01*
X48419754Y-71779294D01*
X48534989Y-71978887D01*
X48675292Y-72161734D01*
X48675298Y-72161741D01*
X48838258Y-72324701D01*
X48838265Y-72324707D01*
X49021112Y-72465010D01*
X49220705Y-72580245D01*
X49220706Y-72580245D01*
X49220709Y-72580247D01*
X49433639Y-72668445D01*
X49656260Y-72728097D01*
X49884763Y-72758180D01*
X49884770Y-72758180D01*
X50115230Y-72758180D01*
X50115237Y-72758180D01*
X50343740Y-72728097D01*
X50566361Y-72668445D01*
X50779291Y-72580247D01*
X50978888Y-72465010D01*
X51161736Y-72324706D01*
X51324706Y-72161736D01*
X51465010Y-71978888D01*
X51482276Y-71948983D01*
X51492056Y-71932044D01*
X51580245Y-71779294D01*
X51580247Y-71779291D01*
X51668445Y-71566361D01*
X51728097Y-71343740D01*
X51758180Y-71115237D01*
X51758180Y-70884763D01*
X51728097Y-70656260D01*
X51703541Y-70564616D01*
X69300000Y-70564616D01*
X69300000Y-70787465D01*
X69329085Y-71008395D01*
X69329088Y-71008408D01*
X69386763Y-71223659D01*
X69472045Y-71429543D01*
X69472054Y-71429561D01*
X69583464Y-71622532D01*
X69583473Y-71622545D01*
X69634040Y-71688444D01*
X69634043Y-71688444D01*
X70435387Y-70887100D01*
X70440889Y-70907632D01*
X70519881Y-71044449D01*
X70631592Y-71156160D01*
X70768409Y-71235152D01*
X70788940Y-71240653D01*
X69987595Y-72041996D01*
X69987595Y-72041997D01*
X70053507Y-72092574D01*
X70246485Y-72203990D01*
X70246497Y-72203995D01*
X70452381Y-72289277D01*
X70667632Y-72346952D01*
X70667645Y-72346955D01*
X70888575Y-72376041D01*
X71111425Y-72376041D01*
X71332354Y-72346955D01*
X71332367Y-72346952D01*
X71547618Y-72289277D01*
X71753502Y-72203995D01*
X71753514Y-72203990D01*
X71946493Y-72092574D01*
X71949849Y-72089999D01*
X87015654Y-72089999D01*
X87015655Y-72090000D01*
X89345879Y-72090000D01*
X89326901Y-72135818D01*
X89300000Y-72271056D01*
X89300000Y-72408944D01*
X89326901Y-72544182D01*
X89345879Y-72590000D01*
X87015655Y-72590000D01*
X87034221Y-72731016D01*
X87102075Y-72984255D01*
X87202404Y-73226471D01*
X87202409Y-73226482D01*
X87333496Y-73453528D01*
X87493092Y-73661519D01*
X87493098Y-73661526D01*
X87678473Y-73846901D01*
X87678480Y-73846907D01*
X87886471Y-74006503D01*
X88113517Y-74137590D01*
X88113528Y-74137595D01*
X88355744Y-74237924D01*
X88608979Y-74305777D01*
X88608990Y-74305779D01*
X88868905Y-74339999D01*
X88868920Y-74340000D01*
X89750000Y-74340000D01*
X89750000Y-72994120D01*
X89795818Y-73013099D01*
X89931056Y-73040000D01*
X90068944Y-73040000D01*
X90204182Y-73013099D01*
X90250000Y-72994120D01*
X90250000Y-74340000D01*
X91131080Y-74340000D01*
X91131094Y-74339999D01*
X91391009Y-74305779D01*
X91391020Y-74305777D01*
X91644255Y-74237924D01*
X91886471Y-74137595D01*
X91886482Y-74137590D01*
X92113528Y-74006503D01*
X92321519Y-73846907D01*
X92321526Y-73846901D01*
X92506901Y-73661526D01*
X92506907Y-73661519D01*
X92666503Y-73453528D01*
X92797590Y-73226482D01*
X92797595Y-73226471D01*
X92897924Y-72984255D01*
X92965778Y-72731016D01*
X92984345Y-72590000D01*
X90654121Y-72590000D01*
X90673099Y-72544182D01*
X90700000Y-72408944D01*
X90700000Y-72271056D01*
X90673099Y-72135818D01*
X90654121Y-72090000D01*
X92984345Y-72090000D01*
X92984345Y-72089999D01*
X92965778Y-71948983D01*
X92897924Y-71695744D01*
X92797595Y-71453528D01*
X92797590Y-71453517D01*
X92666503Y-71226471D01*
X92506907Y-71018480D01*
X92506901Y-71018473D01*
X92321526Y-70833098D01*
X92321519Y-70833092D01*
X92113528Y-70673496D01*
X91886482Y-70542409D01*
X91886471Y-70542404D01*
X91644255Y-70442075D01*
X91391020Y-70374222D01*
X91391009Y-70374220D01*
X91131094Y-70340000D01*
X90250000Y-70340000D01*
X90250000Y-71685879D01*
X90204182Y-71666901D01*
X90068944Y-71640000D01*
X89931056Y-71640000D01*
X89795818Y-71666901D01*
X89750000Y-71685879D01*
X89750000Y-70340000D01*
X88868905Y-70340000D01*
X88608990Y-70374220D01*
X88608979Y-70374222D01*
X88355744Y-70442075D01*
X88113528Y-70542404D01*
X88113517Y-70542409D01*
X87886471Y-70673496D01*
X87678480Y-70833092D01*
X87678473Y-70833098D01*
X87493098Y-71018473D01*
X87493092Y-71018480D01*
X87333496Y-71226471D01*
X87202409Y-71453517D01*
X87202404Y-71453528D01*
X87102075Y-71695744D01*
X87034221Y-71948983D01*
X87015654Y-72089999D01*
X71949849Y-72089999D01*
X72012404Y-72041997D01*
X71211059Y-71240653D01*
X71231591Y-71235152D01*
X71368408Y-71156160D01*
X71480119Y-71044449D01*
X71559111Y-70907632D01*
X71564612Y-70887100D01*
X72365956Y-71688445D01*
X72365957Y-71688444D01*
X72416530Y-71622539D01*
X72527949Y-71429555D01*
X72527954Y-71429543D01*
X72613236Y-71223659D01*
X72670911Y-71008408D01*
X72670914Y-71008395D01*
X72700000Y-70787465D01*
X72700000Y-70564616D01*
X72670914Y-70343686D01*
X72670911Y-70343673D01*
X72613236Y-70128422D01*
X72527954Y-69922538D01*
X72527949Y-69922526D01*
X72416533Y-69729548D01*
X72365956Y-69663636D01*
X72365955Y-69663636D01*
X71564612Y-70464980D01*
X71559111Y-70444450D01*
X71480119Y-70307633D01*
X71368408Y-70195922D01*
X71231591Y-70116930D01*
X71211058Y-70111428D01*
X72012403Y-69310084D01*
X72012403Y-69310081D01*
X71946504Y-69259514D01*
X71946491Y-69259505D01*
X71753520Y-69148095D01*
X71753502Y-69148086D01*
X71547618Y-69062804D01*
X71332367Y-69005129D01*
X71332354Y-69005126D01*
X71111425Y-68976041D01*
X70888575Y-68976041D01*
X70667645Y-69005126D01*
X70667632Y-69005129D01*
X70452381Y-69062804D01*
X70246497Y-69148086D01*
X70246479Y-69148095D01*
X70053511Y-69259503D01*
X69987595Y-69310083D01*
X70788941Y-70111428D01*
X70768409Y-70116930D01*
X70631592Y-70195922D01*
X70519881Y-70307633D01*
X70440889Y-70444450D01*
X70435387Y-70464981D01*
X69634042Y-69663636D01*
X69583462Y-69729552D01*
X69472054Y-69922520D01*
X69472045Y-69922538D01*
X69386763Y-70128422D01*
X69329088Y-70343673D01*
X69329085Y-70343686D01*
X69300000Y-70564616D01*
X51703541Y-70564616D01*
X51668445Y-70433639D01*
X51580247Y-70220709D01*
X51565936Y-70195922D01*
X51465010Y-70021112D01*
X51324707Y-69838265D01*
X51324701Y-69838258D01*
X51161741Y-69675298D01*
X51161734Y-69675292D01*
X50978887Y-69534989D01*
X50858394Y-69465423D01*
X50779294Y-69419754D01*
X50779284Y-69419750D01*
X50566365Y-69331556D01*
X50486231Y-69310084D01*
X50343740Y-69271903D01*
X50343737Y-69271902D01*
X50343735Y-69271902D01*
X50115246Y-69241821D01*
X50115243Y-69241820D01*
X50115237Y-69241820D01*
X49884763Y-69241820D01*
X49884757Y-69241820D01*
X49884753Y-69241821D01*
X49656264Y-69271902D01*
X49433634Y-69331556D01*
X49220715Y-69419750D01*
X49220705Y-69419754D01*
X49021112Y-69534989D01*
X48838265Y-69675292D01*
X48838258Y-69675298D01*
X48675298Y-69838258D01*
X48675292Y-69838265D01*
X48534989Y-70021112D01*
X48419754Y-70220705D01*
X48419750Y-70220715D01*
X48331556Y-70433634D01*
X48271902Y-70656264D01*
X48241821Y-70884753D01*
X48241820Y-70884769D01*
X46700500Y-70884769D01*
X46700500Y-65745031D01*
X50200000Y-65745031D01*
X50200000Y-65949666D01*
X50232009Y-66151766D01*
X50295244Y-66346380D01*
X50388141Y-66528699D01*
X50388147Y-66528708D01*
X50420523Y-66573270D01*
X50420524Y-66573271D01*
X51100000Y-65893795D01*
X51100000Y-65900010D01*
X51127259Y-66001743D01*
X51179920Y-66092955D01*
X51254394Y-66167429D01*
X51345606Y-66220090D01*
X51447339Y-66247349D01*
X51453553Y-66247349D01*
X50774076Y-66926823D01*
X50818650Y-66959208D01*
X51000968Y-67052104D01*
X51195582Y-67115339D01*
X51397683Y-67147349D01*
X51602317Y-67147349D01*
X51804417Y-67115339D01*
X51999031Y-67052104D01*
X52181349Y-66959208D01*
X52225921Y-66926823D01*
X51546447Y-66247349D01*
X51552661Y-66247349D01*
X51654394Y-66220090D01*
X51745606Y-66167429D01*
X51820080Y-66092955D01*
X51872741Y-66001743D01*
X51900000Y-65900010D01*
X51900000Y-65893796D01*
X52579474Y-66573270D01*
X52611859Y-66528698D01*
X52704755Y-66346380D01*
X52767990Y-66151766D01*
X52800000Y-65949666D01*
X52800000Y-65745031D01*
X52767990Y-65542931D01*
X52704755Y-65348317D01*
X52611859Y-65165999D01*
X52579474Y-65121426D01*
X52579474Y-65121425D01*
X51900000Y-65800900D01*
X51900000Y-65794688D01*
X51872741Y-65692955D01*
X51820080Y-65601743D01*
X51745606Y-65527269D01*
X51654394Y-65474608D01*
X51552661Y-65447349D01*
X51546446Y-65447349D01*
X52225922Y-64767873D01*
X52225921Y-64767872D01*
X52181359Y-64735496D01*
X52181350Y-64735490D01*
X52063592Y-64675489D01*
X69291500Y-64675489D01*
X69291500Y-66676592D01*
X69302113Y-66780469D01*
X69357883Y-66948776D01*
X69357884Y-66948779D01*
X69450967Y-67099688D01*
X69450970Y-67099692D01*
X69576348Y-67225070D01*
X69576352Y-67225073D01*
X69727261Y-67318156D01*
X69727264Y-67318157D01*
X69895571Y-67373927D01*
X69895572Y-67373927D01*
X69895575Y-67373928D01*
X69999456Y-67384541D01*
X69999461Y-67384541D01*
X72000539Y-67384541D01*
X72000544Y-67384541D01*
X72104425Y-67373928D01*
X72272738Y-67318156D01*
X72423651Y-67225071D01*
X72520360Y-67128362D01*
X86991500Y-67128362D01*
X86991500Y-67391637D01*
X86991501Y-67391653D01*
X87025865Y-67652676D01*
X87094012Y-67907003D01*
X87194759Y-68150231D01*
X87194765Y-68150243D01*
X87326409Y-68378257D01*
X87486689Y-68587137D01*
X87486693Y-68587142D01*
X87672856Y-68773305D01*
X87672860Y-68773308D01*
X87672862Y-68773310D01*
X87881742Y-68933590D01*
X88109756Y-69065234D01*
X88109761Y-69065236D01*
X88109767Y-69065239D01*
X88352995Y-69165986D01*
X88352997Y-69165986D01*
X88353003Y-69165989D01*
X88607319Y-69234133D01*
X88868355Y-69268499D01*
X88868362Y-69268499D01*
X91131638Y-69268499D01*
X91131645Y-69268499D01*
X91392681Y-69234133D01*
X91646997Y-69165989D01*
X91890244Y-69065234D01*
X92118258Y-68933590D01*
X92327138Y-68773310D01*
X92513311Y-68587137D01*
X92673591Y-68378257D01*
X92805235Y-68150243D01*
X92905990Y-67906996D01*
X92974134Y-67652680D01*
X93008500Y-67391644D01*
X93008500Y-67128356D01*
X92974134Y-66867320D01*
X92905990Y-66613004D01*
X92905987Y-66612996D01*
X92805240Y-66369768D01*
X92805237Y-66369762D01*
X92805235Y-66369757D01*
X92673591Y-66141743D01*
X92513311Y-65932863D01*
X92513309Y-65932861D01*
X92513306Y-65932857D01*
X92327143Y-65746694D01*
X92324976Y-65745031D01*
X92118258Y-65586410D01*
X91957844Y-65493795D01*
X91890246Y-65454767D01*
X91890232Y-65454760D01*
X91647004Y-65354013D01*
X91625746Y-65348317D01*
X91392681Y-65285867D01*
X91392680Y-65285866D01*
X91392677Y-65285866D01*
X91131654Y-65251502D01*
X91131651Y-65251501D01*
X91131645Y-65251501D01*
X88868355Y-65251501D01*
X88868349Y-65251501D01*
X88868345Y-65251502D01*
X88607322Y-65285866D01*
X88352995Y-65354013D01*
X88109767Y-65454760D01*
X88109753Y-65454767D01*
X87881748Y-65586406D01*
X87881741Y-65586411D01*
X87672856Y-65746694D01*
X87486693Y-65932857D01*
X87326410Y-66141742D01*
X87326405Y-66141749D01*
X87194766Y-66369754D01*
X87194759Y-66369768D01*
X87094012Y-66612996D01*
X87025865Y-66867323D01*
X86991501Y-67128346D01*
X86991500Y-67128362D01*
X72520360Y-67128362D01*
X72549030Y-67099692D01*
X72642115Y-66948779D01*
X72697887Y-66780466D01*
X72708500Y-66676585D01*
X72708500Y-64675497D01*
X72697887Y-64571616D01*
X72642115Y-64403303D01*
X72642115Y-64403302D01*
X72549032Y-64252393D01*
X72549029Y-64252389D01*
X72423651Y-64127011D01*
X72423647Y-64127008D01*
X72272738Y-64033925D01*
X72272735Y-64033924D01*
X72104428Y-63978154D01*
X72000551Y-63967541D01*
X72000544Y-63967541D01*
X69999456Y-63967541D01*
X69999448Y-63967541D01*
X69895571Y-63978154D01*
X69727264Y-64033924D01*
X69727261Y-64033925D01*
X69576352Y-64127008D01*
X69576348Y-64127011D01*
X69450970Y-64252389D01*
X69450967Y-64252393D01*
X69357884Y-64403302D01*
X69357883Y-64403305D01*
X69302113Y-64571612D01*
X69291500Y-64675489D01*
X52063592Y-64675489D01*
X51999031Y-64642593D01*
X51804417Y-64579358D01*
X51602317Y-64547349D01*
X51397683Y-64547349D01*
X51195582Y-64579358D01*
X51000968Y-64642593D01*
X50818644Y-64735492D01*
X50774077Y-64767872D01*
X50774077Y-64767873D01*
X51453554Y-65447349D01*
X51447339Y-65447349D01*
X51345606Y-65474608D01*
X51254394Y-65527269D01*
X51179920Y-65601743D01*
X51127259Y-65692955D01*
X51100000Y-65794688D01*
X51100000Y-65800902D01*
X50420524Y-65121426D01*
X50420523Y-65121426D01*
X50388143Y-65165993D01*
X50295244Y-65348317D01*
X50232009Y-65542931D01*
X50200000Y-65745031D01*
X46700500Y-65745031D01*
X46700500Y-61746796D01*
X50191500Y-61746796D01*
X50191500Y-62947886D01*
X50191501Y-62947902D01*
X50202113Y-63051776D01*
X50211179Y-63079135D01*
X50257885Y-63220087D01*
X50350970Y-63371001D01*
X50476348Y-63496379D01*
X50627262Y-63589464D01*
X50795574Y-63645236D01*
X50899455Y-63655849D01*
X52100544Y-63655848D01*
X52204426Y-63645236D01*
X52372738Y-63589464D01*
X52523652Y-63496379D01*
X52649030Y-63371001D01*
X52742115Y-63220087D01*
X52797887Y-63051775D01*
X52808500Y-62947894D01*
X52808499Y-61746805D01*
X52797887Y-61642923D01*
X52742115Y-61474611D01*
X52649030Y-61323697D01*
X52523652Y-61198319D01*
X52372738Y-61105234D01*
X52325192Y-61089479D01*
X52204427Y-61049462D01*
X52100545Y-61038849D01*
X50899462Y-61038849D01*
X50899446Y-61038850D01*
X50795572Y-61049462D01*
X50627264Y-61105233D01*
X50627259Y-61105235D01*
X50476346Y-61198320D01*
X50350971Y-61323695D01*
X50257886Y-61474608D01*
X50257884Y-61474613D01*
X50202113Y-61642921D01*
X50191500Y-61746796D01*
X46700500Y-61746796D01*
X46700500Y-59660516D01*
X54841500Y-59660516D01*
X54841500Y-59839483D01*
X54876411Y-60014992D01*
X54876413Y-60015000D01*
X54944896Y-60180332D01*
X54944901Y-60180342D01*
X55044321Y-60329134D01*
X55044324Y-60329138D01*
X55170861Y-60455675D01*
X55170869Y-60455681D01*
X55319662Y-60555101D01*
X55333295Y-60560748D01*
X55373526Y-60587629D01*
X57124486Y-62338590D01*
X57124487Y-62338591D01*
X57124490Y-62338593D01*
X57265100Y-62432545D01*
X57265106Y-62432547D01*
X57265107Y-62432548D01*
X57421334Y-62497259D01*
X57421335Y-62497259D01*
X57421337Y-62497260D01*
X57421341Y-62497260D01*
X57421342Y-62497261D01*
X57587194Y-62530253D01*
X57587197Y-62530253D01*
X57762421Y-62530253D01*
X57762441Y-62530252D01*
X57764787Y-62530252D01*
X57831826Y-62549937D01*
X57852468Y-62566571D01*
X58162369Y-62876471D01*
X58189249Y-62916698D01*
X58194898Y-62930336D01*
X58194901Y-62930342D01*
X58294321Y-63079134D01*
X58294324Y-63079138D01*
X58420861Y-63205675D01*
X58420865Y-63205678D01*
X58569657Y-63305098D01*
X58569661Y-63305100D01*
X58569664Y-63305102D01*
X58735000Y-63373587D01*
X58910516Y-63408499D01*
X58910520Y-63408500D01*
X58910521Y-63408500D01*
X59089480Y-63408500D01*
X59089481Y-63408499D01*
X59265000Y-63373587D01*
X59430336Y-63305102D01*
X59579135Y-63205678D01*
X59705678Y-63079135D01*
X59805102Y-62930336D01*
X59873587Y-62765000D01*
X59908500Y-62589479D01*
X59908500Y-62410521D01*
X59908500Y-62410520D01*
X59908499Y-62410512D01*
X59885171Y-62293239D01*
X59873587Y-62235000D01*
X59805102Y-62069664D01*
X59805100Y-62069661D01*
X59805098Y-62069657D01*
X59784218Y-62038408D01*
X59711781Y-61929999D01*
X87015654Y-61929999D01*
X87015655Y-61930000D01*
X89345879Y-61930000D01*
X89326901Y-61975818D01*
X89300000Y-62111056D01*
X89300000Y-62248944D01*
X89326901Y-62384182D01*
X89345879Y-62430000D01*
X87015655Y-62430000D01*
X87034221Y-62571016D01*
X87102075Y-62824255D01*
X87202404Y-63066471D01*
X87202409Y-63066482D01*
X87333488Y-63293516D01*
X87333499Y-63293532D01*
X87493092Y-63501518D01*
X87493098Y-63501525D01*
X87678473Y-63686900D01*
X87678480Y-63686906D01*
X87886466Y-63846499D01*
X87886482Y-63846510D01*
X88113516Y-63977589D01*
X88113527Y-63977594D01*
X88355743Y-64077923D01*
X88608978Y-64145776D01*
X88608989Y-64145778D01*
X88868904Y-64179998D01*
X88868919Y-64179999D01*
X89750000Y-64179999D01*
X89750000Y-62834120D01*
X89795818Y-62853099D01*
X89931056Y-62880000D01*
X90068944Y-62880000D01*
X90204182Y-62853099D01*
X90250000Y-62834120D01*
X90250000Y-64179999D01*
X91131081Y-64179999D01*
X91131095Y-64179998D01*
X91391010Y-64145778D01*
X91391021Y-64145776D01*
X91644256Y-64077923D01*
X91886472Y-63977594D01*
X91886483Y-63977589D01*
X92113517Y-63846510D01*
X92113533Y-63846499D01*
X92321519Y-63686906D01*
X92321526Y-63686900D01*
X92506901Y-63501525D01*
X92506907Y-63501518D01*
X92666500Y-63293532D01*
X92666511Y-63293516D01*
X92797590Y-63066482D01*
X92797595Y-63066471D01*
X92897924Y-62824255D01*
X92965778Y-62571016D01*
X92984345Y-62430000D01*
X90654121Y-62430000D01*
X90673099Y-62384182D01*
X90700000Y-62248944D01*
X90700000Y-62111056D01*
X90673099Y-61975818D01*
X90654121Y-61930000D01*
X92984345Y-61930000D01*
X92984345Y-61929999D01*
X92965778Y-61788983D01*
X92897924Y-61535744D01*
X92797595Y-61293528D01*
X92797590Y-61293517D01*
X92666511Y-61066483D01*
X92666500Y-61066467D01*
X92506907Y-60858481D01*
X92506901Y-60858474D01*
X92321526Y-60673099D01*
X92321519Y-60673093D01*
X92113533Y-60513500D01*
X92113517Y-60513489D01*
X91886483Y-60382410D01*
X91886472Y-60382405D01*
X91644256Y-60282076D01*
X91391021Y-60214223D01*
X91391010Y-60214221D01*
X91131095Y-60180001D01*
X90250000Y-60180001D01*
X90250000Y-61525879D01*
X90204182Y-61506901D01*
X90068944Y-61480000D01*
X89931056Y-61480000D01*
X89795818Y-61506901D01*
X89750000Y-61525879D01*
X89750000Y-60180001D01*
X88868904Y-60180001D01*
X88608989Y-60214221D01*
X88608978Y-60214223D01*
X88355743Y-60282076D01*
X88113527Y-60382405D01*
X88113516Y-60382410D01*
X87886482Y-60513489D01*
X87886466Y-60513500D01*
X87678480Y-60673093D01*
X87678473Y-60673099D01*
X87493098Y-60858474D01*
X87493092Y-60858481D01*
X87333499Y-61066467D01*
X87333488Y-61066483D01*
X87202409Y-61293517D01*
X87202404Y-61293528D01*
X87102075Y-61535744D01*
X87034221Y-61788983D01*
X87015654Y-61929999D01*
X59711781Y-61929999D01*
X59705678Y-61920865D01*
X59705675Y-61920861D01*
X59622495Y-61837681D01*
X59589010Y-61776358D01*
X59593994Y-61706666D01*
X59622495Y-61662319D01*
X59705675Y-61579138D01*
X59705678Y-61579135D01*
X59805102Y-61430336D01*
X59873587Y-61265000D01*
X59908500Y-61089479D01*
X59908500Y-60910521D01*
X59873587Y-60735000D01*
X59867938Y-60721362D01*
X59858500Y-60673911D01*
X59858500Y-60415442D01*
X59841332Y-60329138D01*
X59832339Y-60283926D01*
X59825508Y-60249584D01*
X59806553Y-60203823D01*
X59776282Y-60130742D01*
X59760795Y-60093351D01*
X59666839Y-59952735D01*
X59542943Y-59828839D01*
X59542920Y-59828818D01*
X58625515Y-58911411D01*
X58625512Y-58911408D01*
X58573136Y-58876412D01*
X58484906Y-58817458D01*
X58484897Y-58817453D01*
X58374424Y-58771694D01*
X58328664Y-58752740D01*
X58328657Y-58752738D01*
X58328656Y-58752738D01*
X58328656Y-58752737D01*
X58162806Y-58719748D01*
X58162803Y-58719748D01*
X57904336Y-58719748D01*
X57856883Y-58710309D01*
X57843248Y-58704661D01*
X57843240Y-58704659D01*
X57667731Y-58669748D01*
X57667727Y-58669748D01*
X57488769Y-58669748D01*
X57488764Y-58669748D01*
X57313255Y-58704659D01*
X57313247Y-58704661D01*
X57147915Y-58773144D01*
X57147905Y-58773149D01*
X56999113Y-58872569D01*
X56999109Y-58872572D01*
X56872572Y-58999109D01*
X56872569Y-58999113D01*
X56773149Y-59147905D01*
X56773146Y-59147912D01*
X56734564Y-59241055D01*
X56690722Y-59295458D01*
X56624428Y-59317522D01*
X56556728Y-59300242D01*
X56516901Y-59262491D01*
X56455681Y-59170869D01*
X56455675Y-59170861D01*
X56329138Y-59044324D01*
X56329134Y-59044321D01*
X56180342Y-58944901D01*
X56180332Y-58944896D01*
X56015000Y-58876413D01*
X56014992Y-58876411D01*
X55839483Y-58841500D01*
X55839479Y-58841500D01*
X55660521Y-58841500D01*
X55660516Y-58841500D01*
X55485007Y-58876411D01*
X55484999Y-58876413D01*
X55319667Y-58944896D01*
X55319657Y-58944901D01*
X55170865Y-59044321D01*
X55170861Y-59044324D01*
X55044324Y-59170861D01*
X55044321Y-59170865D01*
X54944901Y-59319657D01*
X54944896Y-59319667D01*
X54876413Y-59484999D01*
X54876411Y-59485007D01*
X54841500Y-59660516D01*
X46700500Y-59660516D01*
X46700500Y-57853505D01*
X69391500Y-57853505D01*
X69391500Y-58146494D01*
X69424302Y-58437615D01*
X69424304Y-58437631D01*
X69489497Y-58723262D01*
X69489501Y-58723274D01*
X69586264Y-58999806D01*
X69713381Y-59263766D01*
X69869259Y-59511844D01*
X69869260Y-59511846D01*
X70051921Y-59740897D01*
X70259102Y-59948078D01*
X70488153Y-60130739D01*
X70488156Y-60130740D01*
X70488158Y-60130742D01*
X70736231Y-60286617D01*
X71000197Y-60413737D01*
X71120067Y-60455681D01*
X71276725Y-60510498D01*
X71276737Y-60510502D01*
X71562372Y-60575696D01*
X71853505Y-60608499D01*
X71853506Y-60608500D01*
X71853510Y-60608500D01*
X72146494Y-60608500D01*
X72146494Y-60608499D01*
X72437628Y-60575696D01*
X72723263Y-60510502D01*
X72999803Y-60413737D01*
X73263769Y-60286617D01*
X73511842Y-60130742D01*
X73656989Y-60014992D01*
X73740897Y-59948078D01*
X73740899Y-59948075D01*
X73740904Y-59948072D01*
X73948072Y-59740904D01*
X74130742Y-59511842D01*
X74286617Y-59263769D01*
X74413737Y-58999803D01*
X74510502Y-58723263D01*
X74575696Y-58437628D01*
X74608500Y-58146490D01*
X74608500Y-57853510D01*
X74575696Y-57562372D01*
X74510502Y-57276737D01*
X74413737Y-57000197D01*
X74358150Y-56884769D01*
X88741820Y-56884769D01*
X88741820Y-57115230D01*
X88741821Y-57115246D01*
X88771902Y-57343735D01*
X88831556Y-57566365D01*
X88919750Y-57779284D01*
X88919754Y-57779294D01*
X89034989Y-57978887D01*
X89175292Y-58161734D01*
X89175298Y-58161741D01*
X89338258Y-58324701D01*
X89338265Y-58324707D01*
X89521112Y-58465010D01*
X89720705Y-58580245D01*
X89720706Y-58580245D01*
X89720709Y-58580247D01*
X89933639Y-58668445D01*
X90156260Y-58728097D01*
X90384763Y-58758180D01*
X90384770Y-58758180D01*
X90615230Y-58758180D01*
X90615237Y-58758180D01*
X90843740Y-58728097D01*
X91066361Y-58668445D01*
X91279291Y-58580247D01*
X91478888Y-58465010D01*
X91661736Y-58324706D01*
X91824706Y-58161736D01*
X91965010Y-57978888D01*
X92080247Y-57779291D01*
X92168445Y-57566361D01*
X92228097Y-57343740D01*
X92258180Y-57115237D01*
X92258180Y-56884763D01*
X92228097Y-56656260D01*
X92168445Y-56433639D01*
X92080247Y-56220709D01*
X91965010Y-56021112D01*
X91848489Y-55869259D01*
X91824707Y-55838265D01*
X91824701Y-55838258D01*
X91661741Y-55675298D01*
X91661734Y-55675292D01*
X91478887Y-55534989D01*
X91279294Y-55419754D01*
X91279284Y-55419750D01*
X91066365Y-55331556D01*
X91027520Y-55321147D01*
X90843740Y-55271903D01*
X90843737Y-55271902D01*
X90843735Y-55271902D01*
X90615246Y-55241821D01*
X90615243Y-55241820D01*
X90615237Y-55241820D01*
X90384763Y-55241820D01*
X90384757Y-55241820D01*
X90384753Y-55241821D01*
X90156264Y-55271902D01*
X89933634Y-55331556D01*
X89720715Y-55419750D01*
X89720705Y-55419754D01*
X89521112Y-55534989D01*
X89338265Y-55675292D01*
X89338258Y-55675298D01*
X89175298Y-55838258D01*
X89175292Y-55838265D01*
X89034989Y-56021112D01*
X88919754Y-56220705D01*
X88919750Y-56220715D01*
X88831556Y-56433634D01*
X88771902Y-56656264D01*
X88741821Y-56884753D01*
X88741820Y-56884769D01*
X74358150Y-56884769D01*
X74286617Y-56736231D01*
X74130742Y-56488158D01*
X74130740Y-56488155D01*
X74130739Y-56488153D01*
X73948078Y-56259102D01*
X73740897Y-56051921D01*
X73511846Y-55869260D01*
X73511844Y-55869259D01*
X73263766Y-55713381D01*
X72999806Y-55586264D01*
X72723274Y-55489501D01*
X72723262Y-55489497D01*
X72437631Y-55424304D01*
X72437615Y-55424302D01*
X72146494Y-55391500D01*
X72146490Y-55391500D01*
X71853510Y-55391500D01*
X71853506Y-55391500D01*
X71562384Y-55424302D01*
X71562368Y-55424304D01*
X71276737Y-55489497D01*
X71276725Y-55489501D01*
X71000193Y-55586264D01*
X70736233Y-55713381D01*
X70488155Y-55869259D01*
X70488153Y-55869260D01*
X70259102Y-56051921D01*
X70051921Y-56259102D01*
X69869260Y-56488153D01*
X69869259Y-56488155D01*
X69713381Y-56736233D01*
X69586264Y-57000193D01*
X69489501Y-57276725D01*
X69489497Y-57276737D01*
X69424304Y-57562368D01*
X69424302Y-57562384D01*
X69391500Y-57853505D01*
X46700500Y-57853505D01*
X46700500Y-35803153D01*
X47991500Y-35803153D01*
X47991500Y-36196846D01*
X48025813Y-36589042D01*
X48025813Y-36589044D01*
X48076358Y-36875696D01*
X48094176Y-36976748D01*
X48196071Y-37357024D01*
X48330721Y-37726972D01*
X48330724Y-37726979D01*
X48330725Y-37726981D01*
X48497097Y-38083768D01*
X48497102Y-38083777D01*
X48693947Y-38424723D01*
X48693951Y-38424729D01*
X48693958Y-38424740D01*
X48919759Y-38747217D01*
X49102673Y-38965204D01*
X49172819Y-39048800D01*
X49451200Y-39327181D01*
X49576593Y-39432399D01*
X49752782Y-39580240D01*
X50075259Y-39806041D01*
X50075266Y-39806045D01*
X50075277Y-39806053D01*
X50394814Y-39990537D01*
X50416216Y-40002894D01*
X50416231Y-40002902D01*
X50574803Y-40076845D01*
X50773028Y-40169279D01*
X51142976Y-40303929D01*
X51523252Y-40405824D01*
X51910962Y-40474187D01*
X52303153Y-40508499D01*
X52303154Y-40508500D01*
X52303155Y-40508500D01*
X52696846Y-40508500D01*
X52696846Y-40508499D01*
X53089038Y-40474187D01*
X53476748Y-40405824D01*
X53857024Y-40303929D01*
X54226972Y-40169279D01*
X54583777Y-40002898D01*
X54924723Y-39806053D01*
X55247216Y-39580241D01*
X55548800Y-39327181D01*
X55827181Y-39048800D01*
X56080241Y-38747216D01*
X56306053Y-38424723D01*
X56502898Y-38083777D01*
X56669279Y-37726972D01*
X56803929Y-37357024D01*
X56905824Y-36976748D01*
X56974187Y-36589038D01*
X57008500Y-36196845D01*
X57008500Y-35803155D01*
X56974187Y-35410962D01*
X56905824Y-35023252D01*
X56803929Y-34642976D01*
X56669279Y-34273028D01*
X56669274Y-34273018D01*
X56669273Y-34273014D01*
X56636362Y-34202435D01*
X56613545Y-34153505D01*
X69391500Y-34153505D01*
X69391500Y-34446494D01*
X69424302Y-34737615D01*
X69424304Y-34737631D01*
X69489497Y-35023262D01*
X69489501Y-35023274D01*
X69586264Y-35299806D01*
X69713381Y-35563766D01*
X69869259Y-35811844D01*
X69869260Y-35811846D01*
X70051921Y-36040897D01*
X70259102Y-36248078D01*
X70488153Y-36430739D01*
X70488155Y-36430740D01*
X70736233Y-36586618D01*
X70741271Y-36589044D01*
X71000197Y-36713737D01*
X71207892Y-36786412D01*
X71276725Y-36810498D01*
X71276737Y-36810502D01*
X71562372Y-36875696D01*
X71853505Y-36908499D01*
X71853506Y-36908500D01*
X71853510Y-36908500D01*
X72146494Y-36908500D01*
X72146494Y-36908499D01*
X72437628Y-36875696D01*
X72723263Y-36810502D01*
X72999803Y-36713737D01*
X73263769Y-36586617D01*
X73511842Y-36430742D01*
X73511846Y-36430739D01*
X73740897Y-36248078D01*
X73740899Y-36248075D01*
X73740904Y-36248072D01*
X73948072Y-36040904D01*
X74130742Y-35811842D01*
X74136202Y-35803153D01*
X85991500Y-35803153D01*
X85991500Y-36196846D01*
X86025813Y-36589042D01*
X86025813Y-36589044D01*
X86076358Y-36875696D01*
X86094176Y-36976748D01*
X86196071Y-37357024D01*
X86330721Y-37726972D01*
X86330724Y-37726979D01*
X86330725Y-37726981D01*
X86497097Y-38083768D01*
X86497102Y-38083777D01*
X86693947Y-38424723D01*
X86693951Y-38424729D01*
X86693958Y-38424740D01*
X86919759Y-38747217D01*
X87102673Y-38965204D01*
X87172819Y-39048800D01*
X87451200Y-39327181D01*
X87576593Y-39432399D01*
X87752782Y-39580240D01*
X88075259Y-39806041D01*
X88075266Y-39806045D01*
X88075277Y-39806053D01*
X88394814Y-39990537D01*
X88416216Y-40002894D01*
X88416231Y-40002902D01*
X88574803Y-40076845D01*
X88773028Y-40169279D01*
X89142976Y-40303929D01*
X89523252Y-40405824D01*
X89910962Y-40474187D01*
X90303153Y-40508499D01*
X90303154Y-40508500D01*
X90303155Y-40508500D01*
X90696846Y-40508500D01*
X90696846Y-40508499D01*
X91089038Y-40474187D01*
X91476748Y-40405824D01*
X91857024Y-40303929D01*
X92226972Y-40169279D01*
X92583777Y-40002898D01*
X92924723Y-39806053D01*
X93247216Y-39580241D01*
X93548800Y-39327181D01*
X93827181Y-39048800D01*
X94080241Y-38747216D01*
X94306053Y-38424723D01*
X94502898Y-38083777D01*
X94669279Y-37726972D01*
X94803929Y-37357024D01*
X94905824Y-36976748D01*
X94974187Y-36589038D01*
X95008500Y-36196845D01*
X95008500Y-35803155D01*
X94974187Y-35410962D01*
X94905824Y-35023252D01*
X94803929Y-34642976D01*
X94669279Y-34273028D01*
X94502898Y-33916223D01*
X94306053Y-33575277D01*
X94306045Y-33575266D01*
X94306041Y-33575259D01*
X94080240Y-33252782D01*
X93827178Y-32951197D01*
X93548802Y-32672821D01*
X93247217Y-32419759D01*
X92924740Y-32193958D01*
X92924729Y-32193951D01*
X92924723Y-32193947D01*
X92611977Y-32013383D01*
X92583783Y-31997105D01*
X92583768Y-31997097D01*
X92226981Y-31830725D01*
X92226979Y-31830724D01*
X92226972Y-31830721D01*
X91857024Y-31696071D01*
X91615940Y-31631472D01*
X91476749Y-31594176D01*
X91476738Y-31594174D01*
X91089043Y-31525813D01*
X90696846Y-31491500D01*
X90696845Y-31491500D01*
X90303155Y-31491500D01*
X90303154Y-31491500D01*
X89910957Y-31525813D01*
X89910955Y-31525813D01*
X89523261Y-31594174D01*
X89523250Y-31594176D01*
X89319460Y-31648782D01*
X89142976Y-31696071D01*
X89142973Y-31696072D01*
X89142972Y-31696072D01*
X89065406Y-31724304D01*
X88773028Y-31830721D01*
X88773024Y-31830722D01*
X88773018Y-31830725D01*
X88416231Y-31997097D01*
X88416216Y-31997105D01*
X88075285Y-32193942D01*
X88075259Y-32193958D01*
X87752782Y-32419759D01*
X87451197Y-32672821D01*
X87172821Y-32951197D01*
X86919759Y-33252782D01*
X86693958Y-33575259D01*
X86693942Y-33575285D01*
X86497105Y-33916216D01*
X86497097Y-33916231D01*
X86330725Y-34273018D01*
X86330722Y-34273024D01*
X86330721Y-34273028D01*
X86196071Y-34642976D01*
X86170709Y-34737628D01*
X86094176Y-35023250D01*
X86094174Y-35023261D01*
X86025813Y-35410955D01*
X86025813Y-35410957D01*
X85991500Y-35803153D01*
X74136202Y-35803153D01*
X74286617Y-35563769D01*
X74413737Y-35299803D01*
X74510502Y-35023263D01*
X74575696Y-34737628D01*
X74608500Y-34446490D01*
X74608500Y-34153510D01*
X74575696Y-33862372D01*
X74510502Y-33576737D01*
X74413737Y-33300197D01*
X74286617Y-33036231D01*
X74130742Y-32788158D01*
X74130740Y-32788155D01*
X74130739Y-32788153D01*
X73948078Y-32559102D01*
X73740897Y-32351921D01*
X73511846Y-32169260D01*
X73511844Y-32169259D01*
X73263766Y-32013381D01*
X72999806Y-31886264D01*
X72723274Y-31789501D01*
X72723262Y-31789497D01*
X72437631Y-31724304D01*
X72437615Y-31724302D01*
X72146494Y-31691500D01*
X72146490Y-31691500D01*
X71853510Y-31691500D01*
X71853506Y-31691500D01*
X71562384Y-31724302D01*
X71562368Y-31724304D01*
X71276737Y-31789497D01*
X71276725Y-31789501D01*
X71000193Y-31886264D01*
X70736233Y-32013381D01*
X70488155Y-32169259D01*
X70488153Y-32169260D01*
X70259102Y-32351921D01*
X70051921Y-32559102D01*
X69869260Y-32788153D01*
X69869259Y-32788155D01*
X69713381Y-33036233D01*
X69586264Y-33300193D01*
X69489501Y-33576725D01*
X69489497Y-33576737D01*
X69424304Y-33862368D01*
X69424302Y-33862384D01*
X69391500Y-34153505D01*
X56613545Y-34153505D01*
X56502902Y-33916232D01*
X56502894Y-33916216D01*
X56471805Y-33862368D01*
X56306053Y-33575277D01*
X56306045Y-33575266D01*
X56306041Y-33575259D01*
X56080240Y-33252782D01*
X55827178Y-32951197D01*
X55548802Y-32672821D01*
X55247217Y-32419759D01*
X54924740Y-32193958D01*
X54924729Y-32193951D01*
X54924723Y-32193947D01*
X54611977Y-32013383D01*
X54583783Y-31997105D01*
X54583768Y-31997097D01*
X54226981Y-31830725D01*
X54226979Y-31830724D01*
X54226972Y-31830721D01*
X53857024Y-31696071D01*
X53615940Y-31631472D01*
X53476749Y-31594176D01*
X53476738Y-31594174D01*
X53089043Y-31525813D01*
X52696846Y-31491500D01*
X52696845Y-31491500D01*
X52303155Y-31491500D01*
X52303154Y-31491500D01*
X51910957Y-31525813D01*
X51910955Y-31525813D01*
X51523261Y-31594174D01*
X51523250Y-31594176D01*
X51319460Y-31648782D01*
X51142976Y-31696071D01*
X51142973Y-31696072D01*
X51142972Y-31696072D01*
X51065406Y-31724304D01*
X50773028Y-31830721D01*
X50773024Y-31830722D01*
X50773018Y-31830725D01*
X50416231Y-31997097D01*
X50416216Y-31997105D01*
X50075285Y-32193942D01*
X50075259Y-32193958D01*
X49752782Y-32419759D01*
X49451197Y-32672821D01*
X49172821Y-32951197D01*
X48919759Y-33252782D01*
X48693958Y-33575259D01*
X48693942Y-33575285D01*
X48497105Y-33916216D01*
X48497097Y-33916231D01*
X48330725Y-34273018D01*
X48330722Y-34273024D01*
X48330721Y-34273028D01*
X48196071Y-34642976D01*
X48170709Y-34737628D01*
X48094176Y-35023250D01*
X48094174Y-35023261D01*
X48025813Y-35410955D01*
X48025813Y-35410957D01*
X47991500Y-35803153D01*
X46700500Y-35803153D01*
X46700500Y-30324500D01*
X46720185Y-30257461D01*
X46772989Y-30211706D01*
X46824500Y-30200500D01*
X96175500Y-30200500D01*
X96242539Y-30220185D01*
G37*
%TD.AperFunction*%
%TD*%
M02*
