%TF.GenerationSoftware,KiCad,Pcbnew,9.0.3*%
%TF.CreationDate,2025-11-04T17:07:11+01:00*%
%TF.ProjectId,Alim_12V-5V,416c696d-5f31-4325-962d-35562e6b6963,rev?*%
%TF.SameCoordinates,Original*%
%TF.FileFunction,Drillmap*%
%TF.FilePolarity,Positive*%
%FSLAX45Y45*%
G04 Gerber Fmt 4.5, Leading zero omitted, Abs format (unit mm)*
G04 Created by KiCad (PCBNEW 9.0.3) date 2025-11-04 17:07:11*
%MOMM*%
%LPD*%
G01*
G04 APERTURE LIST*
%ADD10C,0.200000*%
G04 APERTURE END LIST*
D10*
X4650000Y-3000000D02*
X9650000Y-3000000D01*
X9650000Y-13000000D01*
X4650000Y-13000000D01*
X4650000Y-3000000D01*
X4900777Y-13321484D02*
X4900777Y-13121484D01*
X4900777Y-13121484D02*
X4948396Y-13121484D01*
X4948396Y-13121484D02*
X4976967Y-13131008D01*
X4976967Y-13131008D02*
X4996015Y-13150055D01*
X4996015Y-13150055D02*
X5005539Y-13169103D01*
X5005539Y-13169103D02*
X5015063Y-13207198D01*
X5015063Y-13207198D02*
X5015063Y-13235769D01*
X5015063Y-13235769D02*
X5005539Y-13273865D01*
X5005539Y-13273865D02*
X4996015Y-13292912D01*
X4996015Y-13292912D02*
X4976967Y-13311960D01*
X4976967Y-13311960D02*
X4948396Y-13321484D01*
X4948396Y-13321484D02*
X4900777Y-13321484D01*
X5100777Y-13321484D02*
X5100777Y-13188150D01*
X5100777Y-13226246D02*
X5110301Y-13207198D01*
X5110301Y-13207198D02*
X5119824Y-13197674D01*
X5119824Y-13197674D02*
X5138872Y-13188150D01*
X5138872Y-13188150D02*
X5157920Y-13188150D01*
X5224586Y-13321484D02*
X5224586Y-13188150D01*
X5224586Y-13121484D02*
X5215063Y-13131008D01*
X5215063Y-13131008D02*
X5224586Y-13140531D01*
X5224586Y-13140531D02*
X5234110Y-13131008D01*
X5234110Y-13131008D02*
X5224586Y-13121484D01*
X5224586Y-13121484D02*
X5224586Y-13140531D01*
X5348396Y-13321484D02*
X5329348Y-13311960D01*
X5329348Y-13311960D02*
X5319824Y-13292912D01*
X5319824Y-13292912D02*
X5319824Y-13121484D01*
X5453158Y-13321484D02*
X5434110Y-13311960D01*
X5434110Y-13311960D02*
X5424586Y-13292912D01*
X5424586Y-13292912D02*
X5424586Y-13121484D01*
X5681729Y-13321484D02*
X5681729Y-13121484D01*
X5681729Y-13121484D02*
X5748396Y-13264341D01*
X5748396Y-13264341D02*
X5815062Y-13121484D01*
X5815062Y-13121484D02*
X5815062Y-13321484D01*
X5996015Y-13321484D02*
X5996015Y-13216722D01*
X5996015Y-13216722D02*
X5986491Y-13197674D01*
X5986491Y-13197674D02*
X5967443Y-13188150D01*
X5967443Y-13188150D02*
X5929348Y-13188150D01*
X5929348Y-13188150D02*
X5910301Y-13197674D01*
X5996015Y-13311960D02*
X5976967Y-13321484D01*
X5976967Y-13321484D02*
X5929348Y-13321484D01*
X5929348Y-13321484D02*
X5910301Y-13311960D01*
X5910301Y-13311960D02*
X5900777Y-13292912D01*
X5900777Y-13292912D02*
X5900777Y-13273865D01*
X5900777Y-13273865D02*
X5910301Y-13254817D01*
X5910301Y-13254817D02*
X5929348Y-13245293D01*
X5929348Y-13245293D02*
X5976967Y-13245293D01*
X5976967Y-13245293D02*
X5996015Y-13235769D01*
X6091253Y-13188150D02*
X6091253Y-13388150D01*
X6091253Y-13197674D02*
X6110301Y-13188150D01*
X6110301Y-13188150D02*
X6148396Y-13188150D01*
X6148396Y-13188150D02*
X6167443Y-13197674D01*
X6167443Y-13197674D02*
X6176967Y-13207198D01*
X6176967Y-13207198D02*
X6186491Y-13226246D01*
X6186491Y-13226246D02*
X6186491Y-13283388D01*
X6186491Y-13283388D02*
X6176967Y-13302436D01*
X6176967Y-13302436D02*
X6167443Y-13311960D01*
X6167443Y-13311960D02*
X6148396Y-13321484D01*
X6148396Y-13321484D02*
X6110301Y-13321484D01*
X6110301Y-13321484D02*
X6091253Y-13311960D01*
X6272205Y-13302436D02*
X6281729Y-13311960D01*
X6281729Y-13311960D02*
X6272205Y-13321484D01*
X6272205Y-13321484D02*
X6262682Y-13311960D01*
X6262682Y-13311960D02*
X6272205Y-13302436D01*
X6272205Y-13302436D02*
X6272205Y-13321484D01*
X6272205Y-13197674D02*
X6281729Y-13207198D01*
X6281729Y-13207198D02*
X6272205Y-13216722D01*
X6272205Y-13216722D02*
X6262682Y-13207198D01*
X6262682Y-13207198D02*
X6272205Y-13197674D01*
X6272205Y-13197674D02*
X6272205Y-13216722D01*
M02*
