M48
; DRILL file {KiCad 9.0.3} date 2025-11-03T22:50:58+0100
; FORMAT={-:-/ absolute / inch / decimal}
; #@! TF.CreationDate,2025-11-03T22:50:58+01:00
; #@! TF.GenerationSoftware,Kicad,Pcbnew,9.0.3
; #@! TF.FileFunction,Plated,1,2,PTH
FMAT,2
INCH
; #@! TA.AperFunction,Plated,PTH,ViaDrill
T1C0.0157
; #@! TA.AperFunction,Plated,PTH,ComponentDrill
T2C0.0315
; #@! TA.AperFunction,Plated,PTH,ComponentDrill
T3C0.0394
; #@! TA.AperFunction,Plated,PTH,ComponentDrill
T4C0.0472
; #@! TA.AperFunction,Plated,PTH,ComponentDrill
T5C0.0531
; #@! TA.AperFunction,Plated,PTH,ComponentDrill
T6C0.0551
; #@! TA.AperFunction,Plated,PTH,ComponentDrill
T7C0.0709
; #@! TA.AperFunction,Plated,PTH,ComponentDrill
T8C0.0827
; #@! TA.AperFunction,Plated,PTH,ComponentDrill
T9C0.1260
%
G90
G05
T1
X1.9094Y-4.1732
X2.0276Y-2.0669
X2.0276Y-4.4685
X2.0472Y-1.8307
X2.126Y-1.811
X2.1457Y-3.937
X2.1654Y-4.2126
X2.185Y-4.4488
X2.1949Y-2.3524
X2.2835Y-2.1654
X2.3228Y-2.4606
X2.3228Y-3.8976
X2.5197Y-2.4409
X2.6575Y-3.248
X2.6772Y-3.7992
X2.7165Y-3.8189
X2.7953Y-3.622
X2.8543Y-3.622
X2.874Y-3.0709
X2.9331Y-3.0709
X3.4055Y-2.0669
X3.4252Y-1.9882
T2
X2.0276Y-2.4546
X2.0276Y-2.5924
X2.2441Y-3.6871
X2.2441Y-3.8249
X3.0906Y-4.7835
X3.0906Y-4.9213
T3
X1.9685Y-2.7953
X3.1102Y-3.4646
X3.1299Y-3.0315
X3.563Y-2.2441
X3.6811Y-3.9567
T4
X2.7953Y-2.5857
X2.7953Y-2.7825
T5
X2.5591Y-4.8622
T6
X2.1063Y-3.0055
X2.1063Y-3.2055
X2.1063Y-3.4055
X3.5433Y-2.448
X3.5433Y-2.648
X3.5433Y-2.848
X3.5433Y-3.048
X3.5433Y-3.248
X3.5433Y-3.448
T7
X2.5453Y-4.0945
X3.4783Y-4.0945
T8
X2.8346Y-1.3504
X2.8346Y-2.2835
T9
X2.0669Y-1.4173
X2.0669Y-4.8819
X3.563Y-1.4173
X3.563Y-4.8819
M30
