%TF.GenerationSoftware,KiCad,Pcbnew,9.0.3*%
%TF.CreationDate,2025-11-11T21:11:46+01:00*%
%TF.ProjectId,Alim_12V-5V,416c696d-5f31-4325-962d-35562e6b6963,rev?*%
%TF.SameCoordinates,Original*%
%TF.FileFunction,Soldermask,Top*%
%TF.FilePolarity,Negative*%
%FSLAX46Y46*%
G04 Gerber Fmt 4.6, Leading zero omitted, Abs format (unit mm)*
G04 Created by KiCad (PCBNEW 9.0.3) date 2025-11-11 21:11:46*
%MOMM*%
%LPD*%
G01*
G04 APERTURE LIST*
G04 Aperture macros list*
%AMRoundRect*
0 Rectangle with rounded corners*
0 $1 Rounding radius*
0 $2 $3 $4 $5 $6 $7 $8 $9 X,Y pos of 4 corners*
0 Add a 4 corners polygon primitive as box body*
4,1,4,$2,$3,$4,$5,$6,$7,$8,$9,$2,$3,0*
0 Add four circle primitives for the rounded corners*
1,1,$1+$1,$2,$3*
1,1,$1+$1,$4,$5*
1,1,$1+$1,$6,$7*
1,1,$1+$1,$8,$9*
0 Add four rect primitives between the rounded corners*
20,1,$1+$1,$2,$3,$4,$5,0*
20,1,$1+$1,$4,$5,$6,$7,0*
20,1,$1+$1,$6,$7,$8,$9,0*
20,1,$1+$1,$8,$9,$2,$3,0*%
%AMFreePoly0*
4,1,15,-2.140939,1.838960,2.159061,0.838960,2.183956,0.821142,2.190000,0.800000,2.190000,-0.800000,2.178284,-0.828284,2.159061,-0.838960,-2.140939,-1.838960,-2.171142,-1.833956,-2.188960,-1.809061,-2.190000,-1.800000,-2.190000,1.800000,-2.178284,1.828284,-2.150000,1.840000,-2.140939,1.838960,-2.140939,1.838960,$1*%
G04 Aperture macros list end*
%ADD10RoundRect,0.266666X-0.373334X-0.473334X0.373334X-0.473334X0.373334X0.473334X-0.373334X0.473334X0*%
%ADD11RoundRect,0.266666X-0.473334X0.373334X-0.473334X-0.373334X0.473334X-0.373334X0.473334X0.373334X0*%
%ADD12RoundRect,0.040000X-1.000000X0.952500X-1.000000X-0.952500X1.000000X-0.952500X1.000000X0.952500X0*%
%ADD13O,2.080000X1.985000*%
%ADD14RoundRect,0.268182X-0.321818X2.071818X-0.321818X-2.071818X0.321818X-2.071818X0.321818X2.071818X0*%
%ADD15RoundRect,0.252130X-5.187870X4.487870X-5.187870X-4.487870X5.187870X-4.487870X5.187870X4.487870X0*%
%ADD16RoundRect,0.266666X0.473334X-0.373334X0.473334X0.373334X-0.473334X0.373334X-0.473334X-0.373334X0*%
%ADD17RoundRect,0.262500X-0.577500X0.577500X-0.577500X-0.577500X0.577500X-0.577500X0.577500X0.577500X0*%
%ADD18C,1.680000*%
%ADD19FreePoly0,0.000000*%
%ADD20FreePoly0,180.000000*%
%ADD21RoundRect,0.266666X0.373334X0.473334X-0.373334X0.473334X-0.373334X-0.473334X0.373334X-0.473334X0*%
%ADD22C,2.579360*%
%ADD23C,4.280000*%
%ADD24C,8.080000*%
%ADD25RoundRect,0.258334X-0.981666X0.981666X-0.981666X-0.981666X0.981666X-0.981666X0.981666X0.981666X0*%
%ADD26C,2.480000*%
%ADD27RoundRect,0.265385X-0.474615X0.424615X-0.474615X-0.424615X0.474615X-0.424615X0.474615X0.424615X0*%
%ADD28C,4.080500*%
%ADD29RoundRect,0.262500X0.577500X-0.577500X0.577500X0.577500X-0.577500X0.577500X-0.577500X-0.577500X0*%
%ADD30RoundRect,0.040000X2.500000X-1.500000X2.500000X1.500000X-2.500000X1.500000X-2.500000X-1.500000X0*%
%ADD31O,5.080000X3.080000*%
%ADD32RoundRect,0.268182X0.321818X-2.071818X0.321818X2.071818X-0.321818X2.071818X-0.321818X-2.071818X0*%
%ADD33RoundRect,0.252130X5.187870X-4.487870X5.187870X4.487870X-5.187870X4.487870X-5.187870X-4.487870X0*%
%ADD34RoundRect,0.040000X-2.500000X1.499999X-2.500000X-1.499999X2.500000X-1.499999X2.500000X1.499999X0*%
%ADD35O,5.080000X3.079999*%
%ADD36FreePoly0,270.000000*%
%ADD37FreePoly0,90.000000*%
G04 APERTURE END LIST*
D10*
%TO.C,R4*%
X60500000Y-62500000D03*
X62500000Y-62500000D03*
%TD*%
D11*
%TO.C,R9*%
X60500000Y-86000000D03*
X60500000Y-88000000D03*
%TD*%
%TO.C,R8*%
X68000000Y-89000000D03*
X68000000Y-91000000D03*
%TD*%
D12*
%TO.C,Q1*%
X63000000Y-85460000D03*
D13*
X63000000Y-88000000D03*
X63000000Y-90540000D03*
%TD*%
D14*
%TO.C,U2*%
X56900000Y-103350000D03*
X55200000Y-103350000D03*
X53500000Y-103350000D03*
D15*
X53500000Y-112500000D03*
D14*
X51800000Y-103350000D03*
X50100000Y-103350000D03*
%TD*%
D16*
%TO.C,R1*%
X70500000Y-85000000D03*
X70500000Y-83000000D03*
%TD*%
D11*
%TO.C,R7*%
X81000000Y-64500000D03*
X81000000Y-66500000D03*
%TD*%
D16*
%TO.C,R6*%
X79000000Y-83500000D03*
X79000000Y-81500000D03*
%TD*%
D17*
%TO.C,Cout1*%
X63500000Y-118347349D03*
D18*
X63500000Y-121847349D03*
%TD*%
D19*
%TO.C,D1*%
X66300000Y-78500000D03*
D20*
X72700000Y-78500000D03*
%TD*%
D21*
%TO.C,R3*%
X62500000Y-66000000D03*
X60500000Y-66000000D03*
%TD*%
D16*
%TO.C,R5*%
X57500000Y-70500000D03*
X57500000Y-68500000D03*
%TD*%
%TO.C,R2*%
X70500000Y-90000000D03*
X70500000Y-88000000D03*
%TD*%
D22*
%TO.C,TP3*%
X90500000Y-51500000D03*
%TD*%
D23*
%TO.C,L2*%
X69500000Y-105000000D03*
X93200000Y-105000000D03*
%TD*%
D24*
%TO.C,H1*%
X52500000Y-124000000D03*
%TD*%
D25*
%TO.C,Cout2*%
X71000000Y-65676041D03*
D26*
X71000000Y-70676041D03*
%TD*%
D24*
%TO.C,H4*%
X52500000Y-36000000D03*
%TD*%
D11*
%TO.C,R0*%
X51000000Y-90500000D03*
X51000000Y-92500000D03*
%TD*%
D22*
%TO.C,12V*%
X79000000Y-88000000D03*
%TD*%
D24*
%TO.C,H2*%
X90500000Y-124000000D03*
%TD*%
D27*
%TO.C,D3*%
X68000000Y-83305000D03*
X68000000Y-86205000D03*
%TD*%
D22*
%TO.C,TP5*%
X90500000Y-57000000D03*
%TD*%
D28*
%TO.C,TP1*%
X78000000Y-123500000D03*
%TD*%
D29*
%TO.C,Cin1*%
X57000000Y-97152651D03*
D18*
X57000000Y-93652651D03*
%TD*%
D30*
%TO.C,J1*%
X53500000Y-76340000D03*
D31*
X53500000Y-81420000D03*
X53500000Y-86500000D03*
%TD*%
D10*
%TO.C,R10*%
X63500000Y-95000000D03*
X65500000Y-95000000D03*
%TD*%
D32*
%TO.C,U1*%
X49600000Y-56122349D03*
X51300000Y-56122349D03*
X53000000Y-56122349D03*
D33*
X53000000Y-46972349D03*
D32*
X54700000Y-56122349D03*
X56400000Y-56122349D03*
%TD*%
D24*
%TO.C,H3*%
X90500000Y-36000000D03*
%TD*%
D34*
%TO.C,J2*%
X90000000Y-87580000D03*
D35*
X90000000Y-82500000D03*
X90000000Y-77420000D03*
D31*
X90000000Y-72340000D03*
D35*
X90000000Y-67260000D03*
X90000000Y-62180000D03*
%TD*%
D36*
%TO.C,D2*%
X63000000Y-103800000D03*
D37*
X63000000Y-110200000D03*
%TD*%
D17*
%TO.C,Cin2*%
X51500000Y-62347349D03*
D18*
X51500000Y-65847349D03*
%TD*%
D22*
%TO.C,+36V*%
X61500000Y-79000000D03*
%TD*%
D23*
%TO.C,L1*%
X72000000Y-34300000D03*
X72000000Y-58000000D03*
%TD*%
D22*
%TO.C,12VDCDC*%
X82000000Y-85000000D03*
%TD*%
M02*
