%TF.GenerationSoftware,KiCad,Pcbnew,9.0.3*%
%TF.CreationDate,2025-11-11T21:11:46+01:00*%
%TF.ProjectId,Alim_12V-5V,416c696d-5f31-4325-962d-35562e6b6963,rev?*%
%TF.SameCoordinates,Original*%
%TF.FileFunction,Copper,L2,Bot*%
%TF.FilePolarity,Positive*%
%FSLAX46Y46*%
G04 Gerber Fmt 4.6, Leading zero omitted, Abs format (unit mm)*
G04 Created by KiCad (PCBNEW 9.0.3) date 2025-11-11 21:11:46*
%MOMM*%
%LPD*%
G01*
G04 APERTURE LIST*
G04 Aperture macros list*
%AMRoundRect*
0 Rectangle with rounded corners*
0 $1 Rounding radius*
0 $2 $3 $4 $5 $6 $7 $8 $9 X,Y pos of 4 corners*
0 Add a 4 corners polygon primitive as box body*
4,1,4,$2,$3,$4,$5,$6,$7,$8,$9,$2,$3,0*
0 Add four circle primitives for the rounded corners*
1,1,$1+$1,$2,$3*
1,1,$1+$1,$4,$5*
1,1,$1+$1,$6,$7*
1,1,$1+$1,$8,$9*
0 Add four rect primitives between the rounded corners*
20,1,$1+$1,$2,$3,$4,$5,0*
20,1,$1+$1,$4,$5,$6,$7,0*
20,1,$1+$1,$6,$7,$8,$9,0*
20,1,$1+$1,$8,$9,$2,$3,0*%
G04 Aperture macros list end*
%TA.AperFunction,ComponentPad*%
%ADD10R,2.000000X1.905000*%
%TD*%
%TA.AperFunction,ComponentPad*%
%ADD11O,2.000000X1.905000*%
%TD*%
%TA.AperFunction,ComponentPad*%
%ADD12RoundRect,0.250000X-0.550000X0.550000X-0.550000X-0.550000X0.550000X-0.550000X0.550000X0.550000X0*%
%TD*%
%TA.AperFunction,ComponentPad*%
%ADD13C,1.600000*%
%TD*%
%TA.AperFunction,ComponentPad*%
%ADD14C,2.499360*%
%TD*%
%TA.AperFunction,ComponentPad*%
%ADD15C,4.200000*%
%TD*%
%TA.AperFunction,ComponentPad*%
%ADD16C,8.000000*%
%TD*%
%TA.AperFunction,ComponentPad*%
%ADD17RoundRect,0.250001X-0.949999X0.949999X-0.949999X-0.949999X0.949999X-0.949999X0.949999X0.949999X0*%
%TD*%
%TA.AperFunction,ComponentPad*%
%ADD18C,2.400000*%
%TD*%
%TA.AperFunction,ComponentPad*%
%ADD19C,4.000500*%
%TD*%
%TA.AperFunction,ComponentPad*%
%ADD20RoundRect,0.250000X0.550000X-0.550000X0.550000X0.550000X-0.550000X0.550000X-0.550000X-0.550000X0*%
%TD*%
%TA.AperFunction,ComponentPad*%
%ADD21R,5.000000X3.000000*%
%TD*%
%TA.AperFunction,ComponentPad*%
%ADD22O,5.000000X3.000000*%
%TD*%
%TA.AperFunction,ComponentPad*%
%ADD23R,5.000000X2.999999*%
%TD*%
%TA.AperFunction,ComponentPad*%
%ADD24O,5.000000X2.999999*%
%TD*%
%TA.AperFunction,ViaPad*%
%ADD25C,0.800000*%
%TD*%
%TA.AperFunction,Conductor*%
%ADD26C,0.800000*%
%TD*%
%TA.AperFunction,Conductor*%
%ADD27C,0.700000*%
%TD*%
G04 APERTURE END LIST*
D10*
%TO.P,Q1,1,G*%
%TO.N,Net-(D3-A)*%
X63000000Y-85460000D03*
D11*
%TO.P,Q1,2,D*%
%TO.N,Net-(Q1-D)*%
X63000000Y-88000000D03*
%TO.P,Q1,3,S*%
%TO.N,Net-(D3-K)*%
X63000000Y-90540000D03*
%TD*%
D12*
%TO.P,Cout1,1*%
%TO.N,/DCDC3612/+12V*%
X63500000Y-118347349D03*
D13*
%TO.P,Cout1,2*%
%TO.N,GND*%
X63500000Y-121847349D03*
%TD*%
D14*
%TO.P,TP3,1,1*%
%TO.N,/+5V*%
X90500000Y-51500000D03*
%TD*%
D15*
%TO.P,L2,1,1*%
%TO.N,Net-(D2-K)*%
X69500000Y-105000000D03*
%TO.P,L2,2,2*%
%TO.N,/DCDC3612/+12V*%
X93200000Y-105000000D03*
%TD*%
D16*
%TO.P,H1,1*%
%TO.N,N/C*%
X52500000Y-124000000D03*
%TD*%
D17*
%TO.P,Cout2,1*%
%TO.N,/DCDC365/+5V*%
X71000000Y-65676041D03*
D18*
%TO.P,Cout2,2*%
%TO.N,GND*%
X71000000Y-70676041D03*
%TD*%
D16*
%TO.P,H4,1*%
%TO.N,N/C*%
X52500000Y-36000000D03*
%TD*%
D14*
%TO.P,12V,1,1*%
%TO.N,/+12V*%
X79000000Y-88000000D03*
%TD*%
D16*
%TO.P,H2,1*%
%TO.N,N/C*%
X90500000Y-124000000D03*
%TD*%
D14*
%TO.P,TP5,1,1*%
%TO.N,/DCDC365/+5V*%
X90500000Y-57000000D03*
%TD*%
D19*
%TO.P,TP1,1,1*%
%TO.N,GND*%
X78000000Y-123500000D03*
%TD*%
D20*
%TO.P,Cin1,1*%
%TO.N,/DCDC3612/+36V*%
X57000000Y-97152651D03*
D13*
%TO.P,Cin1,2*%
%TO.N,GND*%
X57000000Y-93652651D03*
%TD*%
D21*
%TO.P,J1,1,Pin_1*%
%TO.N,GND*%
X53500000Y-76340000D03*
D22*
%TO.P,J1,2,Pin_2*%
%TO.N,+36V*%
X53500000Y-81420000D03*
%TO.P,J1,3,Pin_3*%
%TO.N,GND*%
X53500000Y-86500000D03*
%TD*%
D16*
%TO.P,H3,1*%
%TO.N,N/C*%
X90500000Y-36000000D03*
%TD*%
D23*
%TO.P,J2,1,Pin_1*%
%TO.N,/+12V*%
X90000000Y-87580000D03*
D24*
%TO.P,J2,2,Pin_2*%
%TO.N,GND*%
X90000000Y-82500000D03*
%TO.P,J2,3,Pin_3*%
%TO.N,/+5V*%
X90000000Y-77420000D03*
D22*
%TO.P,J2,4,Pin_4*%
%TO.N,GND*%
X90000000Y-72340000D03*
D24*
%TO.P,J2,5,Pin_5*%
%TO.N,/+5V*%
X90000000Y-67260000D03*
%TO.P,J2,6,Pin_6*%
%TO.N,GND*%
X90000000Y-62180000D03*
%TD*%
D12*
%TO.P,Cin2,1*%
%TO.N,/DCDC365/+36V*%
X51500000Y-62347349D03*
D13*
%TO.P,Cin2,2*%
%TO.N,GND*%
X51500000Y-65847349D03*
%TD*%
D14*
%TO.P,+36V,1,1*%
%TO.N,+36V*%
X61500000Y-79000000D03*
%TD*%
D15*
%TO.P,L1,1,1*%
%TO.N,Net-(D1-K)*%
X72000000Y-34300000D03*
%TO.P,L1,2,2*%
%TO.N,/DCDC365/+5V*%
X72000000Y-58000000D03*
%TD*%
D14*
%TO.P,12VDCDC,1,1*%
%TO.N,/DCDC3612/+12V*%
X82000000Y-85000000D03*
%TD*%
D25*
%TO.N,GND*%
X87000000Y-47500000D03*
X88500000Y-47500000D03*
X90000000Y-47500000D03*
X91500000Y-47500000D03*
X93000000Y-47500000D03*
X94500000Y-47500000D03*
X94500000Y-46000000D03*
X93000000Y-46000000D03*
X91500000Y-46000000D03*
X90000000Y-46000000D03*
X88500000Y-46000000D03*
X87000000Y-46000000D03*
X82000000Y-45500000D03*
X79500000Y-45500000D03*
X79500000Y-47500000D03*
X82000000Y-47500000D03*
X60500000Y-55500000D03*
X62500000Y-53500000D03*
X60500000Y-53500000D03*
X60500000Y-51000000D03*
X62500000Y-51000000D03*
X65000000Y-51000000D03*
X70000000Y-51500000D03*
X68000000Y-53000000D03*
X68000000Y-54500000D03*
X70000000Y-54500000D03*
X72000000Y-54500000D03*
X74000000Y-54500000D03*
X70000000Y-53000000D03*
X80000000Y-103500000D03*
X60000000Y-110000000D03*
X80500000Y-111000000D03*
X88000000Y-116500000D03*
X60500000Y-42500000D03*
X60500000Y-124500000D03*
X77500000Y-97500000D03*
X65000000Y-45500000D03*
X82500000Y-96000000D03*
X62500000Y-45500000D03*
X91500000Y-99000000D03*
X62500000Y-39000000D03*
X67000000Y-31500000D03*
X60500000Y-121500000D03*
X48500000Y-100000000D03*
X81000000Y-108000000D03*
X75500000Y-106500000D03*
X78500000Y-102000000D03*
X73500000Y-100500000D03*
X79500000Y-38000000D03*
X83500000Y-109500000D03*
X79500000Y-96000000D03*
X60500000Y-39000000D03*
X82500000Y-99000000D03*
X85000000Y-116500000D03*
X67500000Y-115000000D03*
X71000000Y-96000000D03*
X83500000Y-44500000D03*
X72500000Y-119500000D03*
X94000000Y-112500000D03*
X62500000Y-31500000D03*
X91500000Y-109500000D03*
X69500000Y-123000000D03*
X74000000Y-116000000D03*
X69500000Y-124500000D03*
X78500000Y-114500000D03*
X87500000Y-97500000D03*
X77000000Y-116000000D03*
X77500000Y-56500000D03*
X75500000Y-44000000D03*
X78500000Y-105000000D03*
X75500000Y-48500000D03*
X60500000Y-34500000D03*
X68000000Y-59000000D03*
X49500000Y-99000000D03*
X58000000Y-55000000D03*
X75000000Y-129000000D03*
X80500000Y-112500000D03*
X65500000Y-107000000D03*
X72500000Y-129000000D03*
X60500000Y-48500000D03*
X77500000Y-47000000D03*
X91000000Y-113500000D03*
X84000000Y-126000000D03*
X71000000Y-123000000D03*
X71500000Y-94500000D03*
X70500000Y-108000000D03*
X81500000Y-34500000D03*
X74000000Y-53000000D03*
X51500000Y-99000000D03*
X75500000Y-109500000D03*
X67000000Y-45500000D03*
X69000000Y-76000000D03*
X80500000Y-109500000D03*
X75500000Y-116000000D03*
X73500000Y-111000000D03*
X77000000Y-110000000D03*
X87500000Y-105000000D03*
X62500000Y-47000000D03*
X77500000Y-61000000D03*
X74500000Y-71500000D03*
X83500000Y-43000000D03*
X75500000Y-42500000D03*
X77500000Y-51500000D03*
X73500000Y-102000000D03*
X74000000Y-93500000D03*
X72500000Y-99000000D03*
X76000000Y-99000000D03*
X82500000Y-123000000D03*
X84000000Y-102000000D03*
X69500000Y-121000000D03*
X74500000Y-97500000D03*
X65000000Y-127500000D03*
X70500000Y-111000000D03*
X82500000Y-108000000D03*
X65000000Y-34500000D03*
X90000000Y-44500000D03*
X86000000Y-105000000D03*
X84000000Y-121500000D03*
X84000000Y-106500000D03*
X65000000Y-129000000D03*
X77500000Y-55000000D03*
X65000000Y-44000000D03*
X85500000Y-47500000D03*
X87500000Y-96000000D03*
X87000000Y-44500000D03*
X73500000Y-108000000D03*
X88000000Y-114500000D03*
X71000000Y-76000000D03*
X72500000Y-116000000D03*
X72500000Y-127500000D03*
X75500000Y-105000000D03*
X62500000Y-37500000D03*
X73500000Y-103500000D03*
X75500000Y-59500000D03*
X75000000Y-100500000D03*
X77500000Y-73500000D03*
X82000000Y-111000000D03*
X79500000Y-129000000D03*
X86000000Y-94500000D03*
X75500000Y-114500000D03*
X75500000Y-53000000D03*
X82500000Y-103500000D03*
X62500000Y-42500000D03*
X67000000Y-37500000D03*
X66500000Y-127500000D03*
X75500000Y-58000000D03*
X80000000Y-108000000D03*
X72500000Y-126000000D03*
X65500000Y-98000000D03*
X86000000Y-97500000D03*
X79500000Y-42500000D03*
X65000000Y-73500000D03*
X69500000Y-78500000D03*
X60500000Y-33000000D03*
X94000000Y-111500000D03*
X73500000Y-114000000D03*
X77500000Y-38000000D03*
X65000000Y-37500000D03*
X67000000Y-41000000D03*
X77500000Y-48500000D03*
X82500000Y-100500000D03*
X86000000Y-106500000D03*
X73500000Y-68000000D03*
X67000000Y-73500000D03*
X60500000Y-36000000D03*
X77500000Y-42500000D03*
X87000000Y-42500000D03*
X67000000Y-93000000D03*
X78500000Y-106500000D03*
X76500000Y-127500000D03*
X60500000Y-104500000D03*
X60500000Y-44000000D03*
X89000000Y-100500000D03*
X66000000Y-56000000D03*
X76000000Y-96000000D03*
X72500000Y-97500000D03*
X78000000Y-129000000D03*
X49500000Y-100000000D03*
X94000000Y-115500000D03*
X70500000Y-73000000D03*
X66000000Y-57500000D03*
X79500000Y-99000000D03*
X91000000Y-115500000D03*
X74000000Y-117500000D03*
X67000000Y-71500000D03*
X75000000Y-102000000D03*
X76000000Y-67500000D03*
X78500000Y-111500000D03*
X60500000Y-127500000D03*
X60500000Y-47000000D03*
X62500000Y-33000000D03*
X71000000Y-129000000D03*
X69500000Y-96000000D03*
X81500000Y-75500000D03*
X78000000Y-94500000D03*
X89500000Y-115500000D03*
X75500000Y-47000000D03*
X80000000Y-105000000D03*
X87500000Y-106500000D03*
X67500000Y-116500000D03*
X94500000Y-109500000D03*
X84000000Y-123000000D03*
X91000000Y-116500000D03*
X72000000Y-51500000D03*
X60500000Y-123000000D03*
X60500000Y-126000000D03*
X93000000Y-44500000D03*
X88500000Y-42500000D03*
X59000000Y-126000000D03*
X71000000Y-127500000D03*
X81500000Y-36500000D03*
X79500000Y-75500000D03*
X78500000Y-103500000D03*
X91500000Y-42500000D03*
X78500000Y-100500000D03*
X74000000Y-50000000D03*
X51500000Y-52500000D03*
X77000000Y-100500000D03*
X77500000Y-58000000D03*
X67000000Y-69500000D03*
X67000000Y-47000000D03*
X75500000Y-41000000D03*
X62500000Y-48500000D03*
X85500000Y-44500000D03*
X75500000Y-50000000D03*
X80000000Y-106500000D03*
X84000000Y-108000000D03*
X65000000Y-42500000D03*
X77000000Y-113000000D03*
X74500000Y-99000000D03*
X78500000Y-113000000D03*
X90000000Y-99000000D03*
X88500000Y-96000000D03*
X75500000Y-119000000D03*
X72500000Y-96000000D03*
X81500000Y-42500000D03*
X59000000Y-118500000D03*
X90000000Y-97500000D03*
X82500000Y-127500000D03*
X81000000Y-127500000D03*
X60500000Y-45500000D03*
X81000000Y-129000000D03*
X75500000Y-36500000D03*
X81500000Y-33000000D03*
X88500000Y-97500000D03*
X93000000Y-109500000D03*
X82000000Y-78000000D03*
X72000000Y-74000000D03*
X83500000Y-47500000D03*
X71000000Y-121000000D03*
X88500000Y-44500000D03*
X84000000Y-129000000D03*
X69000000Y-115000000D03*
X74000000Y-51500000D03*
X81000000Y-99000000D03*
X60500000Y-106500000D03*
X75000000Y-103500000D03*
X92500000Y-114500000D03*
X47500000Y-99000000D03*
X81500000Y-41000000D03*
X86500000Y-116500000D03*
X87000000Y-108000000D03*
X74500000Y-96000000D03*
X71000000Y-97500000D03*
X79500000Y-127500000D03*
X69500000Y-81000000D03*
X61000000Y-98500000D03*
X81000000Y-96000000D03*
X71000000Y-119500000D03*
X72500000Y-123000000D03*
X84000000Y-105000000D03*
X84000000Y-103500000D03*
X69500000Y-99000000D03*
X66500000Y-101500000D03*
X82500000Y-102000000D03*
X91500000Y-96000000D03*
X77500000Y-72000000D03*
X94500000Y-44500000D03*
X69000000Y-116500000D03*
X72500000Y-108000000D03*
X79500000Y-39500000D03*
X82500000Y-105000000D03*
X67000000Y-42500000D03*
X89000000Y-102000000D03*
X81000000Y-100500000D03*
X75500000Y-39500000D03*
X69500000Y-126000000D03*
X69500000Y-129000000D03*
X82500000Y-97500000D03*
X72000000Y-114000000D03*
X66500000Y-75500000D03*
X92500000Y-111500000D03*
X89500000Y-111500000D03*
X77500000Y-41000000D03*
X77500000Y-44000000D03*
X91500000Y-97500000D03*
X62000000Y-129000000D03*
X92500000Y-113500000D03*
X66500000Y-129000000D03*
X48500000Y-99000000D03*
X91000000Y-114500000D03*
X91000000Y-112500000D03*
X81000000Y-102000000D03*
X65000000Y-71500000D03*
X77500000Y-59500000D03*
X76000000Y-71500000D03*
X75500000Y-108000000D03*
X72000000Y-50000000D03*
X69500000Y-97500000D03*
X72500000Y-121000000D03*
X75500000Y-111500000D03*
X86000000Y-103500000D03*
X67500000Y-113500000D03*
X70500000Y-114000000D03*
X79500000Y-44000000D03*
X94000000Y-110500000D03*
X66000000Y-59000000D03*
X72500000Y-109500000D03*
X73500000Y-109500000D03*
X77000000Y-102000000D03*
X77500000Y-53000000D03*
X84500000Y-96000000D03*
X82500000Y-129000000D03*
X73500000Y-106500000D03*
X75500000Y-117500000D03*
X72000000Y-111000000D03*
X68000000Y-56000000D03*
X87500000Y-100500000D03*
X74000000Y-67000000D03*
X65000000Y-36000000D03*
X83500000Y-46000000D03*
X84000000Y-127500000D03*
X92500000Y-110500000D03*
X82500000Y-124500000D03*
X68000000Y-57500000D03*
X52000000Y-46500000D03*
X72000000Y-112500000D03*
X66000000Y-68500000D03*
X89000000Y-103500000D03*
X63000000Y-98500000D03*
X82500000Y-106500000D03*
X70500000Y-109500000D03*
X72000000Y-53000000D03*
X80000000Y-100500000D03*
X77500000Y-62500000D03*
X76000000Y-94500000D03*
X71000000Y-99000000D03*
X79500000Y-97500000D03*
X90000000Y-96000000D03*
X75500000Y-45500000D03*
X78500000Y-110000000D03*
X81500000Y-38000000D03*
X77500000Y-33000000D03*
X79500000Y-36500000D03*
X71500000Y-68500000D03*
X89500000Y-113500000D03*
X72000000Y-102000000D03*
X91000000Y-111500000D03*
X63000000Y-107000000D03*
X65000000Y-41000000D03*
X75500000Y-56500000D03*
X69000000Y-113500000D03*
X86000000Y-99000000D03*
X60500000Y-31500000D03*
X73500000Y-105000000D03*
X75500000Y-51500000D03*
X77500000Y-50000000D03*
X82500000Y-126000000D03*
X65000000Y-39000000D03*
X82000000Y-112500000D03*
X84000000Y-124500000D03*
X85500000Y-108000000D03*
X60500000Y-129000000D03*
X81500000Y-39500000D03*
X81500000Y-44000000D03*
X83500000Y-111000000D03*
X77500000Y-34500000D03*
X64000000Y-62000000D03*
X77000000Y-103500000D03*
X73500000Y-112500000D03*
X83500000Y-75500000D03*
X63500000Y-127500000D03*
X72500000Y-81000000D03*
X94000000Y-114500000D03*
X51500000Y-100000000D03*
X77500000Y-39500000D03*
X92500000Y-115500000D03*
X77000000Y-117500000D03*
X74500000Y-69500000D03*
X80000000Y-102000000D03*
X65000000Y-33000000D03*
X65000000Y-31500000D03*
X72500000Y-118000000D03*
X54000000Y-46000000D03*
X85500000Y-43000000D03*
X77000000Y-119000000D03*
X60500000Y-41000000D03*
X47500000Y-100000000D03*
X71000000Y-118000000D03*
X77500000Y-99000000D03*
X94000000Y-116500000D03*
X72000000Y-100500000D03*
X59000000Y-123000000D03*
X72500000Y-76000000D03*
X77500000Y-75500000D03*
X74500000Y-73500000D03*
X62500000Y-36000000D03*
X62500000Y-44000000D03*
X86000000Y-100500000D03*
X94500000Y-42500000D03*
X62500000Y-41000000D03*
X88000000Y-113500000D03*
X65500000Y-110000000D03*
X72500000Y-85500000D03*
X77000000Y-106500000D03*
X77000000Y-111500000D03*
X71000000Y-116000000D03*
X76000000Y-69500000D03*
X75500000Y-62500000D03*
X91500000Y-44500000D03*
X75500000Y-61000000D03*
X81000000Y-103500000D03*
X85500000Y-46000000D03*
X69500000Y-119500000D03*
X63500000Y-129000000D03*
X69500000Y-74000000D03*
X78500000Y-108000000D03*
X92500000Y-112500000D03*
X65000000Y-69500000D03*
X80500000Y-94500000D03*
X86000000Y-96000000D03*
X67000000Y-36000000D03*
X77500000Y-96000000D03*
X85000000Y-115500000D03*
X62500000Y-34500000D03*
X67000000Y-39000000D03*
X87500000Y-103500000D03*
X86500000Y-114500000D03*
X90000000Y-42500000D03*
X75500000Y-113000000D03*
X72500000Y-84000000D03*
X70500000Y-95000000D03*
X77500000Y-45500000D03*
X77500000Y-36500000D03*
X89500000Y-112500000D03*
X88500000Y-99000000D03*
X86500000Y-115500000D03*
X76000000Y-73500000D03*
X87500000Y-99000000D03*
X85000000Y-94500000D03*
X93000000Y-42500000D03*
X75500000Y-55000000D03*
X67000000Y-34500000D03*
X82500000Y-121500000D03*
X50500000Y-99000000D03*
X67000000Y-48500000D03*
X84500000Y-99000000D03*
X68500000Y-101500000D03*
X60500000Y-37500000D03*
X75500000Y-38000000D03*
X59000000Y-121500000D03*
X88000000Y-115500000D03*
X50500000Y-100000000D03*
X82000000Y-109500000D03*
X78000000Y-127500000D03*
X79500000Y-33000000D03*
X81000000Y-106500000D03*
X73500000Y-127500000D03*
X69500000Y-127500000D03*
X86000000Y-102000000D03*
X67000000Y-33000000D03*
X83500000Y-112500000D03*
X77000000Y-108000000D03*
X79500000Y-34500000D03*
X72500000Y-124500000D03*
X91000000Y-110500000D03*
X71000000Y-124500000D03*
X81000000Y-105000000D03*
X65000000Y-48500000D03*
X68000000Y-127500000D03*
X62000000Y-127500000D03*
X59000000Y-120000000D03*
X79500000Y-78000000D03*
X69500000Y-118000000D03*
X75000000Y-127500000D03*
X77500000Y-78000000D03*
X68000000Y-129000000D03*
X59000000Y-124500000D03*
X81000000Y-97500000D03*
X70500000Y-112500000D03*
X76500000Y-129000000D03*
X69000000Y-68500000D03*
X79500000Y-41000000D03*
X73500000Y-129000000D03*
X77000000Y-114500000D03*
X74000000Y-94500000D03*
X89500000Y-116500000D03*
X84000000Y-100500000D03*
X74000000Y-119000000D03*
X92500000Y-116500000D03*
X65000000Y-47000000D03*
X71000000Y-126000000D03*
X67000000Y-44000000D03*
X89500000Y-114500000D03*
X76000000Y-97500000D03*
X84500000Y-97500000D03*
X66500000Y-81000000D03*
X83000000Y-94500000D03*
X77000000Y-105000000D03*
X87500000Y-102000000D03*
%TO.N,Net-(D2-K)*%
X60500000Y-101500000D03*
X55500000Y-101000000D03*
X59000000Y-101500000D03*
X55200000Y-102000000D03*
%TO.N,Net-(U2-FB)*%
X74500000Y-89000000D03*
X53180144Y-100180144D03*
X74500000Y-90500000D03*
X54500000Y-100000000D03*
%TO.N,/DCDC3612/+12V*%
X84750000Y-90250000D03*
X83500000Y-89000000D03*
%TO.N,Net-(U1-FB)*%
X55000000Y-59000000D03*
X58500000Y-62000000D03*
X59500000Y-62000000D03*
X56000000Y-60000000D03*
%TO.N,Net-(D3-K)*%
X66000000Y-84000000D03*
%TD*%
D26*
%TO.N,GND*%
X94261000Y-78239000D02*
X94261000Y-76601000D01*
X93101000Y-69239000D02*
X93101000Y-65281000D01*
X94261000Y-76601000D02*
X90000000Y-72340000D01*
X90000000Y-82500000D02*
X94261000Y-78239000D01*
X57500000Y-82500000D02*
X90000000Y-82500000D01*
X93101000Y-65281000D02*
X90000000Y-62180000D01*
X50347349Y-67000000D02*
X50000000Y-67000000D01*
X52652651Y-67000000D02*
X53000000Y-67000000D01*
X49441000Y-80399000D02*
X53500000Y-76340000D01*
X51500000Y-65847349D02*
X52652651Y-67000000D01*
X51500000Y-65847349D02*
X50347349Y-67000000D01*
X49441000Y-82441000D02*
X49441000Y-80399000D01*
X53500000Y-86500000D02*
X57500000Y-82500000D01*
X53500000Y-86500000D02*
X49441000Y-82441000D01*
X90000000Y-72340000D02*
X93101000Y-69239000D01*
D27*
%TO.N,Net-(D2-K)*%
X55500000Y-101000000D02*
X55500000Y-101700000D01*
X59000000Y-101500000D02*
X60500000Y-101500000D01*
X55500000Y-101000000D02*
X58500000Y-101000000D01*
X58500000Y-101000000D02*
X59000000Y-101500000D01*
X55500000Y-101700000D02*
X55200000Y-102000000D01*
%TO.N,Net-(U2-FB)*%
X54500000Y-100000000D02*
X66500000Y-100000000D01*
X54319856Y-100180144D02*
X54500000Y-100000000D01*
X67500000Y-95500000D02*
X70000000Y-93000000D01*
X67500000Y-99000000D02*
X67500000Y-95500000D01*
X72000000Y-93000000D02*
X74500000Y-90500000D01*
X66500000Y-100000000D02*
X67500000Y-99000000D01*
X74500000Y-89000000D02*
X74500000Y-90500000D01*
X53180144Y-100180144D02*
X54319856Y-100180144D01*
X70000000Y-93000000D02*
X72000000Y-93000000D01*
%TO.N,/DCDC3612/+12V*%
X83500000Y-86500000D02*
X82000000Y-85000000D01*
X84750000Y-90250000D02*
X83500000Y-89000000D01*
X83500000Y-89000000D02*
X83500000Y-86500000D01*
%TO.N,Net-(U1-FB)*%
X56000000Y-60000000D02*
X56500000Y-60000000D01*
X56000000Y-60000000D02*
X55000000Y-59000000D01*
X59500000Y-62000000D02*
X58500000Y-62000000D01*
X56500000Y-60000000D02*
X58500000Y-62000000D01*
%TO.N,Net-(D3-A)*%
X63542450Y-86042450D02*
X62500000Y-85000000D01*
X66542450Y-86042450D02*
X63542450Y-86042450D01*
%TO.N,Net-(D3-K)*%
X67443450Y-87701550D02*
X64605000Y-90540000D01*
X66000000Y-84000000D02*
X67443450Y-85443450D01*
X64605000Y-90540000D02*
X63000000Y-90540000D01*
X67443450Y-85443450D02*
X67443450Y-87701550D01*
%TD*%
%TA.AperFunction,Conductor*%
%TO.N,GND*%
G36*
X96242539Y-30220185D02*
G01*
X96288294Y-30272989D01*
X96299500Y-30324500D01*
X96299500Y-129675500D01*
X96279815Y-129742539D01*
X96227011Y-129788294D01*
X96175500Y-129799500D01*
X46824500Y-129799500D01*
X46757461Y-129779815D01*
X46711706Y-129727011D01*
X46700500Y-129675500D01*
X46700500Y-123803153D01*
X47991500Y-123803153D01*
X47991500Y-124196846D01*
X48025813Y-124589042D01*
X48025813Y-124589044D01*
X48089301Y-124949101D01*
X48094176Y-124976748D01*
X48196071Y-125357024D01*
X48330721Y-125726972D01*
X48330724Y-125726979D01*
X48330725Y-125726981D01*
X48497097Y-126083768D01*
X48497102Y-126083777D01*
X48693947Y-126424723D01*
X48693951Y-126424729D01*
X48693958Y-126424740D01*
X48919759Y-126747217D01*
X49102673Y-126965204D01*
X49172819Y-127048800D01*
X49451200Y-127327181D01*
X49576593Y-127432399D01*
X49752782Y-127580240D01*
X50075259Y-127806041D01*
X50075266Y-127806045D01*
X50075277Y-127806053D01*
X50394814Y-127990537D01*
X50416216Y-128002894D01*
X50416231Y-128002902D01*
X50574803Y-128076845D01*
X50773028Y-128169279D01*
X51142976Y-128303929D01*
X51523252Y-128405824D01*
X51910962Y-128474187D01*
X52303153Y-128508499D01*
X52303154Y-128508500D01*
X52303155Y-128508500D01*
X52696846Y-128508500D01*
X52696846Y-128508499D01*
X53089038Y-128474187D01*
X53476748Y-128405824D01*
X53857024Y-128303929D01*
X54226972Y-128169279D01*
X54583777Y-128002898D01*
X54924723Y-127806053D01*
X55247216Y-127580241D01*
X55548800Y-127327181D01*
X55827181Y-127048800D01*
X56080241Y-126747216D01*
X56306053Y-126424723D01*
X56502898Y-126083777D01*
X56669279Y-125726972D01*
X56803929Y-125357024D01*
X56905824Y-124976748D01*
X56974187Y-124589038D01*
X57008500Y-124196845D01*
X57008500Y-123803155D01*
X56974187Y-123410962D01*
X56965128Y-123359584D01*
X75499750Y-123359584D01*
X75499750Y-123640415D01*
X75531190Y-123919460D01*
X75593679Y-124193248D01*
X75593683Y-124193260D01*
X75686427Y-124458305D01*
X75686433Y-124458319D01*
X75808272Y-124711321D01*
X75957682Y-124949105D01*
X75957683Y-124949107D01*
X76064009Y-125082436D01*
X77379823Y-123766621D01*
X77401823Y-123819732D01*
X77475693Y-123930287D01*
X77569713Y-124024307D01*
X77680268Y-124098177D01*
X77733377Y-124120175D01*
X76417562Y-125435989D01*
X76550898Y-125542319D01*
X76788678Y-125691727D01*
X77041680Y-125813566D01*
X77041694Y-125813572D01*
X77306739Y-125906316D01*
X77306751Y-125906320D01*
X77580539Y-125968809D01*
X77580538Y-125968809D01*
X77859584Y-126000249D01*
X77859586Y-126000250D01*
X78140414Y-126000250D01*
X78140415Y-126000249D01*
X78419460Y-125968809D01*
X78693248Y-125906320D01*
X78693260Y-125906316D01*
X78958305Y-125813572D01*
X78958319Y-125813566D01*
X79211321Y-125691727D01*
X79449101Y-125542319D01*
X79582436Y-125435989D01*
X78266622Y-124120175D01*
X78319732Y-124098177D01*
X78430287Y-124024307D01*
X78524307Y-123930287D01*
X78598177Y-123819732D01*
X78620175Y-123766622D01*
X79935989Y-125082436D01*
X80042319Y-124949101D01*
X80191727Y-124711321D01*
X80313566Y-124458319D01*
X80313572Y-124458305D01*
X80406316Y-124193260D01*
X80406320Y-124193248D01*
X80468809Y-123919460D01*
X80481914Y-123803153D01*
X85991500Y-123803153D01*
X85991500Y-124196846D01*
X86025813Y-124589042D01*
X86025813Y-124589044D01*
X86089301Y-124949101D01*
X86094176Y-124976748D01*
X86196071Y-125357024D01*
X86330721Y-125726972D01*
X86330724Y-125726979D01*
X86330725Y-125726981D01*
X86497097Y-126083768D01*
X86497102Y-126083777D01*
X86693947Y-126424723D01*
X86693951Y-126424729D01*
X86693958Y-126424740D01*
X86919759Y-126747217D01*
X87102673Y-126965204D01*
X87172819Y-127048800D01*
X87451200Y-127327181D01*
X87576593Y-127432399D01*
X87752782Y-127580240D01*
X88075259Y-127806041D01*
X88075266Y-127806045D01*
X88075277Y-127806053D01*
X88394814Y-127990537D01*
X88416216Y-128002894D01*
X88416231Y-128002902D01*
X88574803Y-128076845D01*
X88773028Y-128169279D01*
X89142976Y-128303929D01*
X89523252Y-128405824D01*
X89910962Y-128474187D01*
X90303153Y-128508499D01*
X90303154Y-128508500D01*
X90303155Y-128508500D01*
X90696846Y-128508500D01*
X90696846Y-128508499D01*
X91089038Y-128474187D01*
X91476748Y-128405824D01*
X91857024Y-128303929D01*
X92226972Y-128169279D01*
X92583777Y-128002898D01*
X92924723Y-127806053D01*
X93247216Y-127580241D01*
X93548800Y-127327181D01*
X93827181Y-127048800D01*
X94080241Y-126747216D01*
X94306053Y-126424723D01*
X94502898Y-126083777D01*
X94669279Y-125726972D01*
X94803929Y-125357024D01*
X94905824Y-124976748D01*
X94974187Y-124589038D01*
X95008500Y-124196845D01*
X95008500Y-123803155D01*
X94974187Y-123410962D01*
X94905824Y-123023252D01*
X94803929Y-122642976D01*
X94669279Y-122273028D01*
X94518493Y-121949666D01*
X94502902Y-121916231D01*
X94502894Y-121916216D01*
X94463133Y-121847348D01*
X94306053Y-121575277D01*
X94306045Y-121575266D01*
X94306041Y-121575259D01*
X94080240Y-121252782D01*
X93827178Y-120951197D01*
X93548802Y-120672821D01*
X93247217Y-120419759D01*
X92924740Y-120193958D01*
X92924729Y-120193951D01*
X92924723Y-120193947D01*
X92823429Y-120135465D01*
X92583783Y-119997105D01*
X92583768Y-119997097D01*
X92226981Y-119830725D01*
X92226979Y-119830724D01*
X92226972Y-119830721D01*
X91857024Y-119696071D01*
X91615940Y-119631472D01*
X91476749Y-119594176D01*
X91476738Y-119594174D01*
X91089043Y-119525813D01*
X90696846Y-119491500D01*
X90696845Y-119491500D01*
X90303155Y-119491500D01*
X90303154Y-119491500D01*
X89910957Y-119525813D01*
X89910955Y-119525813D01*
X89523261Y-119594174D01*
X89523250Y-119594176D01*
X89332698Y-119645235D01*
X89142976Y-119696071D01*
X89142973Y-119696072D01*
X89142972Y-119696072D01*
X88936332Y-119771282D01*
X88773028Y-119830721D01*
X88773024Y-119830722D01*
X88773018Y-119830725D01*
X88416231Y-119997097D01*
X88416216Y-119997105D01*
X88075285Y-120193942D01*
X88075259Y-120193958D01*
X87752782Y-120419759D01*
X87451197Y-120672821D01*
X87172821Y-120951197D01*
X86919759Y-121252782D01*
X86693958Y-121575259D01*
X86693942Y-121575285D01*
X86497105Y-121916216D01*
X86497097Y-121916231D01*
X86330725Y-122273018D01*
X86221442Y-122573271D01*
X86196071Y-122642976D01*
X86148782Y-122819460D01*
X86094176Y-123023250D01*
X86094174Y-123023261D01*
X86025813Y-123410955D01*
X86025813Y-123410957D01*
X85991500Y-123803153D01*
X80481914Y-123803153D01*
X80483783Y-123786565D01*
X80483783Y-123786564D01*
X80500249Y-123640417D01*
X80500250Y-123640413D01*
X80500250Y-123359586D01*
X80500249Y-123359584D01*
X80468809Y-123080539D01*
X80406320Y-122806751D01*
X80406316Y-122806739D01*
X80313572Y-122541694D01*
X80313566Y-122541680D01*
X80191727Y-122288678D01*
X80042319Y-122050898D01*
X79935988Y-121917562D01*
X78620175Y-123233376D01*
X78598177Y-123180268D01*
X78524307Y-123069713D01*
X78430287Y-122975693D01*
X78319732Y-122901823D01*
X78266621Y-122879823D01*
X79582436Y-121564009D01*
X79449107Y-121457683D01*
X79449105Y-121457682D01*
X79211321Y-121308272D01*
X78958319Y-121186433D01*
X78958305Y-121186427D01*
X78693260Y-121093683D01*
X78693248Y-121093679D01*
X78419460Y-121031190D01*
X78419461Y-121031190D01*
X78140415Y-120999750D01*
X77859584Y-120999750D01*
X77580539Y-121031190D01*
X77306751Y-121093679D01*
X77306739Y-121093683D01*
X77041694Y-121186427D01*
X77041680Y-121186433D01*
X76788678Y-121308272D01*
X76550894Y-121457682D01*
X76550890Y-121457685D01*
X76417562Y-121564009D01*
X77733377Y-122879824D01*
X77680268Y-122901823D01*
X77569713Y-122975693D01*
X77475693Y-123069713D01*
X77401823Y-123180268D01*
X77379824Y-123233377D01*
X76064009Y-121917562D01*
X75957685Y-122050890D01*
X75957682Y-122050894D01*
X75808272Y-122288678D01*
X75686433Y-122541680D01*
X75686427Y-122541694D01*
X75593683Y-122806739D01*
X75593679Y-122806751D01*
X75531190Y-123080539D01*
X75499750Y-123359584D01*
X56965128Y-123359584D01*
X56905824Y-123023252D01*
X56803929Y-122642976D01*
X56669279Y-122273028D01*
X56518493Y-121949666D01*
X56502902Y-121916231D01*
X56502894Y-121916216D01*
X56437047Y-121802165D01*
X56404060Y-121745031D01*
X62200000Y-121745031D01*
X62200000Y-121949666D01*
X62232009Y-122151766D01*
X62295244Y-122346380D01*
X62388141Y-122528699D01*
X62388147Y-122528708D01*
X62420523Y-122573270D01*
X62420524Y-122573271D01*
X63100000Y-121893795D01*
X63100000Y-121900010D01*
X63127259Y-122001743D01*
X63179920Y-122092955D01*
X63254394Y-122167429D01*
X63345606Y-122220090D01*
X63447339Y-122247349D01*
X63453553Y-122247349D01*
X62774076Y-122926823D01*
X62818650Y-122959208D01*
X63000968Y-123052104D01*
X63195582Y-123115339D01*
X63397683Y-123147349D01*
X63602317Y-123147349D01*
X63804417Y-123115339D01*
X63999031Y-123052104D01*
X64181349Y-122959208D01*
X64225921Y-122926823D01*
X63546447Y-122247349D01*
X63552661Y-122247349D01*
X63654394Y-122220090D01*
X63745606Y-122167429D01*
X63820080Y-122092955D01*
X63872741Y-122001743D01*
X63900000Y-121900010D01*
X63900000Y-121893796D01*
X64579474Y-122573270D01*
X64611859Y-122528698D01*
X64704755Y-122346380D01*
X64767990Y-122151766D01*
X64800000Y-121949666D01*
X64800000Y-121745031D01*
X64782074Y-121631854D01*
X64767990Y-121542931D01*
X64704755Y-121348317D01*
X64611859Y-121165999D01*
X64579474Y-121121426D01*
X64579474Y-121121425D01*
X63900000Y-121800900D01*
X63900000Y-121794688D01*
X63872741Y-121692955D01*
X63820080Y-121601743D01*
X63745606Y-121527269D01*
X63654394Y-121474608D01*
X63552661Y-121447349D01*
X63546446Y-121447349D01*
X64225922Y-120767873D01*
X64225921Y-120767872D01*
X64181359Y-120735496D01*
X64181350Y-120735490D01*
X63999031Y-120642593D01*
X63804417Y-120579358D01*
X63602317Y-120547349D01*
X63397683Y-120547349D01*
X63195582Y-120579358D01*
X63000968Y-120642593D01*
X62818644Y-120735492D01*
X62774077Y-120767872D01*
X62774077Y-120767873D01*
X63453554Y-121447349D01*
X63447339Y-121447349D01*
X63345606Y-121474608D01*
X63254394Y-121527269D01*
X63179920Y-121601743D01*
X63127259Y-121692955D01*
X63100000Y-121794688D01*
X63100000Y-121800902D01*
X62420524Y-121121426D01*
X62420523Y-121121426D01*
X62388143Y-121165993D01*
X62295244Y-121348317D01*
X62232009Y-121542931D01*
X62200000Y-121745031D01*
X56404060Y-121745031D01*
X56373994Y-121692955D01*
X56306053Y-121575277D01*
X56306045Y-121575266D01*
X56306041Y-121575259D01*
X56080240Y-121252782D01*
X55827178Y-120951197D01*
X55548802Y-120672821D01*
X55247217Y-120419759D01*
X54924740Y-120193958D01*
X54924729Y-120193951D01*
X54924723Y-120193947D01*
X54823429Y-120135465D01*
X54583783Y-119997105D01*
X54583768Y-119997097D01*
X54226981Y-119830725D01*
X54226979Y-119830724D01*
X54226972Y-119830721D01*
X53857024Y-119696071D01*
X53615940Y-119631472D01*
X53476749Y-119594176D01*
X53476738Y-119594174D01*
X53089043Y-119525813D01*
X52696846Y-119491500D01*
X52696845Y-119491500D01*
X52303155Y-119491500D01*
X52303154Y-119491500D01*
X51910957Y-119525813D01*
X51910955Y-119525813D01*
X51523261Y-119594174D01*
X51523250Y-119594176D01*
X51332698Y-119645235D01*
X51142976Y-119696071D01*
X51142973Y-119696072D01*
X51142972Y-119696072D01*
X50936332Y-119771282D01*
X50773028Y-119830721D01*
X50773024Y-119830722D01*
X50773018Y-119830725D01*
X50416231Y-119997097D01*
X50416216Y-119997105D01*
X50075285Y-120193942D01*
X50075259Y-120193958D01*
X49752782Y-120419759D01*
X49451197Y-120672821D01*
X49172821Y-120951197D01*
X48919759Y-121252782D01*
X48693958Y-121575259D01*
X48693942Y-121575285D01*
X48497105Y-121916216D01*
X48497097Y-121916231D01*
X48330725Y-122273018D01*
X48221442Y-122573271D01*
X48196071Y-122642976D01*
X48148782Y-122819460D01*
X48094176Y-123023250D01*
X48094174Y-123023261D01*
X48025813Y-123410955D01*
X48025813Y-123410957D01*
X47991500Y-123803153D01*
X46700500Y-123803153D01*
X46700500Y-117746796D01*
X62191500Y-117746796D01*
X62191500Y-118947886D01*
X62191501Y-118947902D01*
X62202113Y-119051775D01*
X62257885Y-119220087D01*
X62350970Y-119371001D01*
X62476348Y-119496379D01*
X62627262Y-119589464D01*
X62795574Y-119645236D01*
X62899455Y-119655849D01*
X64100544Y-119655848D01*
X64204426Y-119645236D01*
X64372738Y-119589464D01*
X64523652Y-119496379D01*
X64649030Y-119371001D01*
X64742115Y-119220087D01*
X64797887Y-119051775D01*
X64808500Y-118947894D01*
X64808499Y-117746805D01*
X64797887Y-117642923D01*
X64742115Y-117474611D01*
X64649030Y-117323697D01*
X64523652Y-117198319D01*
X64372738Y-117105234D01*
X64372735Y-117105233D01*
X64204427Y-117049462D01*
X64100545Y-117038849D01*
X62899462Y-117038849D01*
X62899446Y-117038850D01*
X62795572Y-117049462D01*
X62627264Y-117105233D01*
X62627259Y-117105235D01*
X62476346Y-117198320D01*
X62350971Y-117323695D01*
X62257886Y-117474608D01*
X62257884Y-117474613D01*
X62202113Y-117642921D01*
X62191500Y-117746796D01*
X46700500Y-117746796D01*
X46700500Y-104853505D01*
X66891500Y-104853505D01*
X66891500Y-105146494D01*
X66924302Y-105437615D01*
X66924304Y-105437631D01*
X66989497Y-105723262D01*
X66989501Y-105723274D01*
X67086264Y-105999806D01*
X67213381Y-106263766D01*
X67369259Y-106511844D01*
X67369260Y-106511846D01*
X67551921Y-106740897D01*
X67759102Y-106948078D01*
X67988153Y-107130739D01*
X67988156Y-107130740D01*
X67988158Y-107130742D01*
X68236231Y-107286617D01*
X68500197Y-107413737D01*
X68707892Y-107486412D01*
X68776725Y-107510498D01*
X68776737Y-107510502D01*
X69062372Y-107575696D01*
X69353505Y-107608499D01*
X69353506Y-107608500D01*
X69353510Y-107608500D01*
X69646494Y-107608500D01*
X69646494Y-107608499D01*
X69937628Y-107575696D01*
X70223263Y-107510502D01*
X70499803Y-107413737D01*
X70763769Y-107286617D01*
X71011842Y-107130742D01*
X71011846Y-107130739D01*
X71240897Y-106948078D01*
X71240899Y-106948075D01*
X71240904Y-106948072D01*
X71448072Y-106740904D01*
X71630742Y-106511842D01*
X71786617Y-106263769D01*
X71913737Y-105999803D01*
X72010502Y-105723263D01*
X72075696Y-105437628D01*
X72108500Y-105146490D01*
X72108500Y-104853510D01*
X72108499Y-104853505D01*
X90591500Y-104853505D01*
X90591500Y-105146494D01*
X90624302Y-105437615D01*
X90624304Y-105437631D01*
X90689497Y-105723262D01*
X90689501Y-105723274D01*
X90786264Y-105999806D01*
X90913381Y-106263766D01*
X91069259Y-106511844D01*
X91069260Y-106511846D01*
X91251921Y-106740897D01*
X91459102Y-106948078D01*
X91688153Y-107130739D01*
X91688156Y-107130740D01*
X91688158Y-107130742D01*
X91936231Y-107286617D01*
X92200197Y-107413737D01*
X92407892Y-107486412D01*
X92476725Y-107510498D01*
X92476737Y-107510502D01*
X92762372Y-107575696D01*
X93053505Y-107608499D01*
X93053506Y-107608500D01*
X93053510Y-107608500D01*
X93346494Y-107608500D01*
X93346494Y-107608499D01*
X93637628Y-107575696D01*
X93923263Y-107510502D01*
X94199803Y-107413737D01*
X94463769Y-107286617D01*
X94711842Y-107130742D01*
X94711846Y-107130739D01*
X94940897Y-106948078D01*
X94940899Y-106948075D01*
X94940904Y-106948072D01*
X95148072Y-106740904D01*
X95330742Y-106511842D01*
X95486617Y-106263769D01*
X95613737Y-105999803D01*
X95710502Y-105723263D01*
X95775696Y-105437628D01*
X95808500Y-105146490D01*
X95808500Y-104853510D01*
X95775696Y-104562372D01*
X95710502Y-104276737D01*
X95613737Y-104000197D01*
X95486617Y-103736231D01*
X95330742Y-103488158D01*
X95330740Y-103488155D01*
X95330739Y-103488153D01*
X95148078Y-103259102D01*
X94940897Y-103051921D01*
X94711846Y-102869260D01*
X94711844Y-102869259D01*
X94463766Y-102713381D01*
X94199806Y-102586264D01*
X93923274Y-102489501D01*
X93923262Y-102489497D01*
X93637631Y-102424304D01*
X93637615Y-102424302D01*
X93346494Y-102391500D01*
X93346490Y-102391500D01*
X93053510Y-102391500D01*
X93053506Y-102391500D01*
X92762384Y-102424302D01*
X92762368Y-102424304D01*
X92476737Y-102489497D01*
X92476725Y-102489501D01*
X92200193Y-102586264D01*
X91936233Y-102713381D01*
X91688155Y-102869259D01*
X91688153Y-102869260D01*
X91459102Y-103051921D01*
X91251921Y-103259102D01*
X91069260Y-103488153D01*
X91069259Y-103488155D01*
X90913381Y-103736233D01*
X90786264Y-104000193D01*
X90689501Y-104276725D01*
X90689497Y-104276737D01*
X90624304Y-104562368D01*
X90624302Y-104562384D01*
X90591500Y-104853505D01*
X72108499Y-104853505D01*
X72075696Y-104562372D01*
X72010502Y-104276737D01*
X71913737Y-104000197D01*
X71786617Y-103736231D01*
X71630742Y-103488158D01*
X71630740Y-103488155D01*
X71630739Y-103488153D01*
X71448078Y-103259102D01*
X71240897Y-103051921D01*
X71011846Y-102869260D01*
X71011844Y-102869259D01*
X70763766Y-102713381D01*
X70499806Y-102586264D01*
X70223274Y-102489501D01*
X70223262Y-102489497D01*
X69937631Y-102424304D01*
X69937615Y-102424302D01*
X69646494Y-102391500D01*
X69646490Y-102391500D01*
X69353510Y-102391500D01*
X69353506Y-102391500D01*
X69062384Y-102424302D01*
X69062368Y-102424304D01*
X68776737Y-102489497D01*
X68776725Y-102489501D01*
X68500193Y-102586264D01*
X68236233Y-102713381D01*
X67988155Y-102869259D01*
X67988153Y-102869260D01*
X67759102Y-103051921D01*
X67551921Y-103259102D01*
X67369260Y-103488153D01*
X67369259Y-103488155D01*
X67213381Y-103736233D01*
X67086264Y-104000193D01*
X66989501Y-104276725D01*
X66989497Y-104276737D01*
X66924304Y-104562368D01*
X66924302Y-104562384D01*
X66891500Y-104853505D01*
X46700500Y-104853505D01*
X46700500Y-100090660D01*
X52271644Y-100090660D01*
X52271644Y-100269627D01*
X52306555Y-100445136D01*
X52306557Y-100445144D01*
X52375040Y-100610476D01*
X52375045Y-100610486D01*
X52474465Y-100759278D01*
X52474468Y-100759282D01*
X52601005Y-100885819D01*
X52601009Y-100885822D01*
X52749801Y-100985242D01*
X52749805Y-100985244D01*
X52749808Y-100985246D01*
X52915144Y-101053731D01*
X53087070Y-101087929D01*
X53090660Y-101088643D01*
X53090664Y-101088644D01*
X53090665Y-101088644D01*
X53269624Y-101088644D01*
X53269625Y-101088643D01*
X53445144Y-101053731D01*
X53458779Y-101048082D01*
X53506232Y-101038644D01*
X54404412Y-101038644D01*
X54433569Y-101032844D01*
X54453034Y-101028972D01*
X54462051Y-101029778D01*
X54470590Y-101026767D01*
X54496307Y-101032844D01*
X54522625Y-101035199D01*
X54529774Y-101040752D01*
X54538587Y-101042835D01*
X54556936Y-101061851D01*
X54577803Y-101078061D01*
X54582098Y-101087929D01*
X54587102Y-101093115D01*
X54598844Y-101126399D01*
X54617427Y-101219825D01*
X54611199Y-101289416D01*
X54583490Y-101331696D01*
X54494324Y-101420861D01*
X54494321Y-101420865D01*
X54394901Y-101569657D01*
X54394896Y-101569667D01*
X54326413Y-101734999D01*
X54326411Y-101735007D01*
X54291500Y-101910516D01*
X54291500Y-102089483D01*
X54326411Y-102264992D01*
X54326413Y-102265000D01*
X54394896Y-102430332D01*
X54394901Y-102430342D01*
X54494321Y-102579134D01*
X54494324Y-102579138D01*
X54620861Y-102705675D01*
X54620865Y-102705678D01*
X54769657Y-102805098D01*
X54769661Y-102805100D01*
X54769664Y-102805102D01*
X54935000Y-102873587D01*
X55110516Y-102908499D01*
X55110520Y-102908500D01*
X55110521Y-102908500D01*
X55289480Y-102908500D01*
X55289481Y-102908499D01*
X55465000Y-102873587D01*
X55630336Y-102805102D01*
X55779135Y-102705678D01*
X55905678Y-102579135D01*
X56005102Y-102430336D01*
X56010748Y-102416702D01*
X56037626Y-102376475D01*
X56166841Y-102247262D01*
X56260793Y-102106652D01*
X56325508Y-101950415D01*
X56325509Y-101950411D01*
X56326697Y-101946497D01*
X56364998Y-101888061D01*
X56428812Y-101859608D01*
X56445355Y-101858500D01*
X58082289Y-101858500D01*
X58149328Y-101878185D01*
X58190546Y-101925753D01*
X58192026Y-101924963D01*
X58194895Y-101930331D01*
X58194896Y-101930332D01*
X58194898Y-101930336D01*
X58244941Y-102005231D01*
X58294323Y-102079137D01*
X58420861Y-102205675D01*
X58420865Y-102205678D01*
X58569657Y-102305098D01*
X58569661Y-102305100D01*
X58569664Y-102305102D01*
X58735000Y-102373587D01*
X58825056Y-102391500D01*
X58910516Y-102408499D01*
X58910520Y-102408500D01*
X58910521Y-102408500D01*
X59089480Y-102408500D01*
X59089481Y-102408499D01*
X59265000Y-102373587D01*
X59278635Y-102367938D01*
X59326088Y-102358500D01*
X60173912Y-102358500D01*
X60221364Y-102367938D01*
X60235000Y-102373587D01*
X60325056Y-102391500D01*
X60410516Y-102408499D01*
X60410520Y-102408500D01*
X60410521Y-102408500D01*
X60589480Y-102408500D01*
X60589481Y-102408499D01*
X60765000Y-102373587D01*
X60930336Y-102305102D01*
X61079135Y-102205678D01*
X61205678Y-102079135D01*
X61305102Y-101930336D01*
X61373587Y-101765000D01*
X61408500Y-101589479D01*
X61408500Y-101410521D01*
X61373587Y-101235000D01*
X61305102Y-101069664D01*
X61305100Y-101069661D01*
X61305098Y-101069657D01*
X61292893Y-101051391D01*
X61272015Y-100984713D01*
X61290500Y-100917333D01*
X61342478Y-100870643D01*
X61395995Y-100858500D01*
X66584557Y-100858500D01*
X66584558Y-100858499D01*
X66750416Y-100825508D01*
X66825705Y-100794322D01*
X66906652Y-100760793D01*
X67047262Y-100666841D01*
X67166841Y-100547262D01*
X67166841Y-100547261D01*
X68047259Y-99666842D01*
X68047262Y-99666841D01*
X68166841Y-99547262D01*
X68260793Y-99406652D01*
X68291235Y-99333159D01*
X68325509Y-99250415D01*
X68347738Y-99138666D01*
X68358501Y-99084557D01*
X68358501Y-98910335D01*
X68358500Y-98910309D01*
X68358500Y-95906965D01*
X68378185Y-95839926D01*
X68394819Y-95819284D01*
X70319284Y-93894819D01*
X70380607Y-93861334D01*
X70406965Y-93858500D01*
X72084557Y-93858500D01*
X72084558Y-93858499D01*
X72250416Y-93825508D01*
X72296176Y-93806553D01*
X72406652Y-93760793D01*
X72547262Y-93666841D01*
X72666841Y-93547262D01*
X74876475Y-91337626D01*
X74916701Y-91310749D01*
X74930336Y-91305102D01*
X75079135Y-91205678D01*
X75205678Y-91079135D01*
X75305102Y-90930336D01*
X75373587Y-90765000D01*
X75408500Y-90589479D01*
X75408500Y-90410521D01*
X75373587Y-90235000D01*
X75367938Y-90221362D01*
X75358500Y-90173911D01*
X75358500Y-89326087D01*
X75367941Y-89278630D01*
X75373585Y-89265004D01*
X75373587Y-89265000D01*
X75408500Y-89089479D01*
X75408500Y-88910521D01*
X75373587Y-88735000D01*
X75305102Y-88569664D01*
X75305100Y-88569661D01*
X75305098Y-88569657D01*
X75205678Y-88420865D01*
X75205675Y-88420861D01*
X75079138Y-88294324D01*
X75079134Y-88294321D01*
X74930342Y-88194901D01*
X74930332Y-88194896D01*
X74765000Y-88126413D01*
X74764992Y-88126411D01*
X74589483Y-88091500D01*
X74589479Y-88091500D01*
X74410521Y-88091500D01*
X74410516Y-88091500D01*
X74235007Y-88126411D01*
X74234999Y-88126413D01*
X74069667Y-88194896D01*
X74069657Y-88194901D01*
X73920865Y-88294321D01*
X73920861Y-88294324D01*
X73794324Y-88420861D01*
X73794321Y-88420865D01*
X73694901Y-88569657D01*
X73694896Y-88569667D01*
X73626413Y-88734999D01*
X73626411Y-88735007D01*
X73591500Y-88910516D01*
X73591500Y-89089483D01*
X73626411Y-89264993D01*
X73626414Y-89265004D01*
X73632059Y-89278630D01*
X73641500Y-89326087D01*
X73641500Y-90093035D01*
X73621815Y-90160074D01*
X73605181Y-90180716D01*
X71680716Y-92105181D01*
X71619393Y-92138666D01*
X71593035Y-92141500D01*
X70090689Y-92141500D01*
X70090669Y-92141499D01*
X70084555Y-92141499D01*
X69915445Y-92141499D01*
X69915443Y-92141499D01*
X69749590Y-92174490D01*
X69749582Y-92174492D01*
X69593355Y-92239203D01*
X69593344Y-92239209D01*
X69452735Y-92333160D01*
X69452734Y-92333161D01*
X67451897Y-94334000D01*
X66952738Y-94833159D01*
X66892948Y-94892948D01*
X66833159Y-94952737D01*
X66739209Y-95093344D01*
X66739203Y-95093355D01*
X66674493Y-95249580D01*
X66674490Y-95249590D01*
X66641500Y-95415442D01*
X66641500Y-98593035D01*
X66621815Y-98660074D01*
X66605181Y-98680716D01*
X66180716Y-99105181D01*
X66119393Y-99138666D01*
X66093035Y-99141500D01*
X54826088Y-99141500D01*
X54778635Y-99132061D01*
X54765000Y-99126413D01*
X54764992Y-99126411D01*
X54589483Y-99091500D01*
X54589479Y-99091500D01*
X54410521Y-99091500D01*
X54410516Y-99091500D01*
X54235007Y-99126411D01*
X54234999Y-99126413D01*
X54069667Y-99194896D01*
X54069657Y-99194901D01*
X53915800Y-99297706D01*
X53914950Y-99296435D01*
X53857564Y-99320810D01*
X53843205Y-99321644D01*
X53506232Y-99321644D01*
X53458779Y-99312205D01*
X53445144Y-99306557D01*
X53445136Y-99306555D01*
X53269627Y-99271644D01*
X53269623Y-99271644D01*
X53090665Y-99271644D01*
X53090660Y-99271644D01*
X52915151Y-99306555D01*
X52915143Y-99306557D01*
X52749811Y-99375040D01*
X52749801Y-99375045D01*
X52601009Y-99474465D01*
X52601005Y-99474468D01*
X52474468Y-99601005D01*
X52474465Y-99601009D01*
X52375045Y-99749801D01*
X52375040Y-99749811D01*
X52306557Y-99915143D01*
X52306555Y-99915151D01*
X52271644Y-100090660D01*
X46700500Y-100090660D01*
X46700500Y-96552098D01*
X55691500Y-96552098D01*
X55691500Y-97753188D01*
X55691501Y-97753204D01*
X55702113Y-97857077D01*
X55757885Y-98025389D01*
X55850970Y-98176303D01*
X55976348Y-98301681D01*
X56127262Y-98394766D01*
X56295574Y-98450538D01*
X56399455Y-98461151D01*
X57600544Y-98461150D01*
X57704426Y-98450538D01*
X57872738Y-98394766D01*
X58023652Y-98301681D01*
X58149030Y-98176303D01*
X58242115Y-98025389D01*
X58297887Y-97857077D01*
X58308500Y-97753196D01*
X58308499Y-96552107D01*
X58297887Y-96448225D01*
X58242115Y-96279913D01*
X58149030Y-96128999D01*
X58023652Y-96003621D01*
X57872738Y-95910536D01*
X57861961Y-95906965D01*
X57704427Y-95854764D01*
X57600545Y-95844151D01*
X56399462Y-95844151D01*
X56399446Y-95844152D01*
X56295572Y-95854764D01*
X56127264Y-95910535D01*
X56127259Y-95910537D01*
X55976346Y-96003622D01*
X55850971Y-96128997D01*
X55757886Y-96279910D01*
X55757884Y-96279915D01*
X55702113Y-96448223D01*
X55691500Y-96552098D01*
X46700500Y-96552098D01*
X46700500Y-93550333D01*
X55700000Y-93550333D01*
X55700000Y-93754968D01*
X55732009Y-93957068D01*
X55795244Y-94151682D01*
X55888141Y-94334001D01*
X55888147Y-94334010D01*
X55920523Y-94378572D01*
X55920524Y-94378573D01*
X56600000Y-93699097D01*
X56600000Y-93705312D01*
X56627259Y-93807045D01*
X56679920Y-93898257D01*
X56754394Y-93972731D01*
X56845606Y-94025392D01*
X56947339Y-94052651D01*
X56953553Y-94052651D01*
X56274076Y-94732125D01*
X56318650Y-94764510D01*
X56500968Y-94857406D01*
X56695582Y-94920641D01*
X56897683Y-94952651D01*
X57102317Y-94952651D01*
X57304417Y-94920641D01*
X57499031Y-94857406D01*
X57681349Y-94764510D01*
X57725921Y-94732125D01*
X57046447Y-94052651D01*
X57052661Y-94052651D01*
X57154394Y-94025392D01*
X57245606Y-93972731D01*
X57320080Y-93898257D01*
X57372741Y-93807045D01*
X57400000Y-93705312D01*
X57400000Y-93699098D01*
X58079474Y-94378572D01*
X58111859Y-94334000D01*
X58204755Y-94151682D01*
X58267990Y-93957068D01*
X58300000Y-93754968D01*
X58300000Y-93550333D01*
X58267990Y-93348233D01*
X58204755Y-93153619D01*
X58111859Y-92971301D01*
X58079474Y-92926728D01*
X58079474Y-92926727D01*
X57400000Y-93606202D01*
X57400000Y-93599990D01*
X57372741Y-93498257D01*
X57320080Y-93407045D01*
X57245606Y-93332571D01*
X57154394Y-93279910D01*
X57052661Y-93252651D01*
X57046446Y-93252651D01*
X57725922Y-92573175D01*
X57725921Y-92573174D01*
X57681359Y-92540798D01*
X57681350Y-92540792D01*
X57499031Y-92447895D01*
X57304417Y-92384660D01*
X57102317Y-92352651D01*
X56897683Y-92352651D01*
X56695582Y-92384660D01*
X56500968Y-92447895D01*
X56318644Y-92540794D01*
X56274077Y-92573174D01*
X56274077Y-92573175D01*
X56953554Y-93252651D01*
X56947339Y-93252651D01*
X56845606Y-93279910D01*
X56754394Y-93332571D01*
X56679920Y-93407045D01*
X56627259Y-93498257D01*
X56600000Y-93599990D01*
X56600000Y-93606204D01*
X55920524Y-92926728D01*
X55920523Y-92926728D01*
X55888143Y-92971295D01*
X55795244Y-93153619D01*
X55732009Y-93348233D01*
X55700000Y-93550333D01*
X46700500Y-93550333D01*
X46700500Y-86249999D01*
X50515654Y-86249999D01*
X50515655Y-86250000D01*
X52845879Y-86250000D01*
X52826901Y-86295818D01*
X52800000Y-86431056D01*
X52800000Y-86568944D01*
X52826901Y-86704182D01*
X52845879Y-86750000D01*
X50515655Y-86750000D01*
X50534221Y-86891016D01*
X50602075Y-87144255D01*
X50702404Y-87386471D01*
X50702409Y-87386482D01*
X50833496Y-87613528D01*
X50993092Y-87821519D01*
X50993098Y-87821526D01*
X51178473Y-88006901D01*
X51178480Y-88006907D01*
X51386471Y-88166503D01*
X51613517Y-88297590D01*
X51613528Y-88297595D01*
X51855744Y-88397924D01*
X52108979Y-88465777D01*
X52108990Y-88465779D01*
X52368905Y-88499999D01*
X52368920Y-88500000D01*
X53250000Y-88500000D01*
X53250000Y-87154120D01*
X53295818Y-87173099D01*
X53431056Y-87200000D01*
X53568944Y-87200000D01*
X53704182Y-87173099D01*
X53750000Y-87154120D01*
X53750000Y-88500000D01*
X54631080Y-88500000D01*
X54631094Y-88499999D01*
X54891009Y-88465779D01*
X54891020Y-88465777D01*
X55144255Y-88397924D01*
X55386471Y-88297595D01*
X55386482Y-88297590D01*
X55613528Y-88166503D01*
X55821519Y-88006907D01*
X55821526Y-88006901D01*
X56006901Y-87821526D01*
X56006907Y-87821519D01*
X56166503Y-87613528D01*
X56297590Y-87386482D01*
X56297595Y-87386471D01*
X56397924Y-87144255D01*
X56465778Y-86891016D01*
X56484345Y-86750000D01*
X54154121Y-86750000D01*
X54173099Y-86704182D01*
X54200000Y-86568944D01*
X54200000Y-86431056D01*
X54173099Y-86295818D01*
X54154121Y-86250000D01*
X56484345Y-86250000D01*
X56484345Y-86249999D01*
X56465778Y-86108983D01*
X56397924Y-85855744D01*
X56297595Y-85613528D01*
X56297590Y-85613517D01*
X56166503Y-85386471D01*
X56006907Y-85178480D01*
X56006901Y-85178473D01*
X55821526Y-84993098D01*
X55821519Y-84993092D01*
X55613528Y-84833496D01*
X55386482Y-84702409D01*
X55386471Y-84702404D01*
X55144255Y-84602075D01*
X55044386Y-84575316D01*
X54891020Y-84534222D01*
X54891009Y-84534220D01*
X54631094Y-84500000D01*
X53750000Y-84500000D01*
X53750000Y-85845879D01*
X53704182Y-85826901D01*
X53568944Y-85800000D01*
X53431056Y-85800000D01*
X53295818Y-85826901D01*
X53250000Y-85845879D01*
X53250000Y-84500000D01*
X52368905Y-84500000D01*
X52108990Y-84534220D01*
X52108979Y-84534222D01*
X51855744Y-84602075D01*
X51613528Y-84702404D01*
X51613517Y-84702409D01*
X51386471Y-84833496D01*
X51178480Y-84993092D01*
X51178473Y-84993098D01*
X50993098Y-85178473D01*
X50993092Y-85178480D01*
X50833496Y-85386471D01*
X50702409Y-85613517D01*
X50702404Y-85613528D01*
X50602075Y-85855744D01*
X50534221Y-86108983D01*
X50515654Y-86249999D01*
X46700500Y-86249999D01*
X46700500Y-84458845D01*
X61491500Y-84458845D01*
X61491500Y-86461154D01*
X61498011Y-86521702D01*
X61498011Y-86521704D01*
X61519848Y-86580249D01*
X61549111Y-86658704D01*
X61636739Y-86775761D01*
X61753796Y-86863389D01*
X61772880Y-86870507D01*
X61828813Y-86912379D01*
X61853229Y-86977843D01*
X61838377Y-87046116D01*
X61829863Y-87059573D01*
X61702942Y-87234265D01*
X61598539Y-87439166D01*
X61527473Y-87657881D01*
X61491500Y-87885011D01*
X61491500Y-88114988D01*
X61527473Y-88342118D01*
X61598539Y-88560833D01*
X61680333Y-88721362D01*
X61702940Y-88765731D01*
X61838111Y-88951778D01*
X62000722Y-89114389D01*
X62054222Y-89153259D01*
X62076826Y-89169682D01*
X62119491Y-89225013D01*
X62125470Y-89294626D01*
X62092864Y-89356421D01*
X62076826Y-89370318D01*
X62000720Y-89425612D01*
X61838113Y-89588219D01*
X61702940Y-89774268D01*
X61598539Y-89979166D01*
X61527473Y-90197881D01*
X61491500Y-90425011D01*
X61491500Y-90654988D01*
X61527473Y-90882118D01*
X61598539Y-91100833D01*
X61652553Y-91206841D01*
X61702940Y-91305731D01*
X61838111Y-91491778D01*
X62000722Y-91654389D01*
X62186769Y-91789560D01*
X62283578Y-91838886D01*
X62391666Y-91893960D01*
X62391668Y-91893960D01*
X62391671Y-91893962D01*
X62508904Y-91932053D01*
X62610381Y-91965026D01*
X62837512Y-92001000D01*
X62837517Y-92001000D01*
X63162488Y-92001000D01*
X63389618Y-91965026D01*
X63608329Y-91893962D01*
X63813231Y-91789560D01*
X63999278Y-91654389D01*
X64161889Y-91491778D01*
X64164350Y-91488389D01*
X64192523Y-91449615D01*
X64247852Y-91406949D01*
X64292841Y-91398500D01*
X64689557Y-91398500D01*
X64689558Y-91398499D01*
X64855416Y-91365508D01*
X64901176Y-91346553D01*
X65011652Y-91300793D01*
X65152262Y-91206841D01*
X65271841Y-91087262D01*
X65271841Y-91087261D01*
X67990709Y-88368392D01*
X67990712Y-88368391D01*
X68110291Y-88248812D01*
X68204243Y-88108202D01*
X68268958Y-87951965D01*
X68268958Y-87951962D01*
X68268960Y-87951958D01*
X68274086Y-87926182D01*
X68279169Y-87900634D01*
X68282325Y-87884769D01*
X77241820Y-87884769D01*
X77241820Y-88115230D01*
X77241821Y-88115246D01*
X77252307Y-88194898D01*
X77271903Y-88343740D01*
X77278509Y-88368392D01*
X77331556Y-88566365D01*
X77419750Y-88779284D01*
X77419754Y-88779294D01*
X77534989Y-88978887D01*
X77675292Y-89161734D01*
X77675298Y-89161741D01*
X77838258Y-89324701D01*
X77838265Y-89324707D01*
X78021112Y-89465010D01*
X78220705Y-89580245D01*
X78220706Y-89580245D01*
X78220709Y-89580247D01*
X78433639Y-89668445D01*
X78656260Y-89728097D01*
X78884763Y-89758180D01*
X78884770Y-89758180D01*
X79115230Y-89758180D01*
X79115237Y-89758180D01*
X79343740Y-89728097D01*
X79566361Y-89668445D01*
X79779291Y-89580247D01*
X79978888Y-89465010D01*
X80161736Y-89324706D01*
X80324706Y-89161736D01*
X80465010Y-88978888D01*
X80580247Y-88779291D01*
X80668445Y-88566361D01*
X80728097Y-88343740D01*
X80758180Y-88115237D01*
X80758180Y-87884763D01*
X80728097Y-87656260D01*
X80668445Y-87433639D01*
X80580247Y-87220709D01*
X80552759Y-87173099D01*
X80465010Y-87021112D01*
X80324707Y-86838265D01*
X80324701Y-86838258D01*
X80161741Y-86675298D01*
X80161734Y-86675292D01*
X79978887Y-86534989D01*
X79779294Y-86419754D01*
X79779284Y-86419750D01*
X79566365Y-86331556D01*
X79527520Y-86321147D01*
X79343740Y-86271903D01*
X79343737Y-86271902D01*
X79343735Y-86271902D01*
X79115246Y-86241821D01*
X79115243Y-86241820D01*
X79115237Y-86241820D01*
X78884763Y-86241820D01*
X78884757Y-86241820D01*
X78884753Y-86241821D01*
X78656264Y-86271902D01*
X78433634Y-86331556D01*
X78220715Y-86419750D01*
X78220705Y-86419754D01*
X78021112Y-86534989D01*
X77838265Y-86675292D01*
X77838258Y-86675298D01*
X77675298Y-86838258D01*
X77675292Y-86838265D01*
X77534989Y-87021112D01*
X77419754Y-87220705D01*
X77419750Y-87220715D01*
X77331556Y-87433634D01*
X77271902Y-87656264D01*
X77241821Y-87884753D01*
X77241820Y-87884769D01*
X68282325Y-87884769D01*
X68301950Y-87786105D01*
X68301950Y-87616995D01*
X68301950Y-85534139D01*
X68301951Y-85534118D01*
X68301951Y-85358892D01*
X68268960Y-85193040D01*
X68268959Y-85193039D01*
X68268959Y-85193035D01*
X68204243Y-85036798D01*
X68204241Y-85036795D01*
X68204239Y-85036791D01*
X68152001Y-84958612D01*
X68145976Y-84949595D01*
X68110289Y-84896185D01*
X68098873Y-84884769D01*
X80241820Y-84884769D01*
X80241820Y-85115230D01*
X80241821Y-85115246D01*
X80250824Y-85183634D01*
X80271903Y-85343740D01*
X80321147Y-85527520D01*
X80331556Y-85566365D01*
X80419750Y-85779284D01*
X80419754Y-85779294D01*
X80534989Y-85978887D01*
X80675292Y-86161734D01*
X80675298Y-86161741D01*
X80838258Y-86324701D01*
X80838265Y-86324707D01*
X81021112Y-86465010D01*
X81220705Y-86580245D01*
X81220706Y-86580245D01*
X81220709Y-86580247D01*
X81433639Y-86668445D01*
X81656260Y-86728097D01*
X81884763Y-86758180D01*
X81884770Y-86758180D01*
X82115230Y-86758180D01*
X82115237Y-86758180D01*
X82343740Y-86728097D01*
X82408862Y-86710647D01*
X82420862Y-86710932D01*
X82432111Y-86706737D01*
X82455147Y-86711748D01*
X82478712Y-86712309D01*
X82490359Y-86719408D01*
X82500384Y-86721589D01*
X82528638Y-86742740D01*
X82605181Y-86819283D01*
X82638666Y-86880606D01*
X82641500Y-86906964D01*
X82641500Y-88673911D01*
X82632062Y-88721362D01*
X82626413Y-88734999D01*
X82626411Y-88735007D01*
X82591500Y-88910516D01*
X82591500Y-89089483D01*
X82626411Y-89264992D01*
X82626413Y-89265000D01*
X82694896Y-89430332D01*
X82694901Y-89430342D01*
X82794321Y-89579134D01*
X82794324Y-89579138D01*
X82920861Y-89705675D01*
X82920869Y-89705681D01*
X83069662Y-89805101D01*
X83083295Y-89810748D01*
X83123526Y-89837629D01*
X83912370Y-90626473D01*
X83939248Y-90666697D01*
X83944898Y-90680336D01*
X84011031Y-90779312D01*
X84044323Y-90829137D01*
X84170861Y-90955675D01*
X84170865Y-90955678D01*
X84319657Y-91055098D01*
X84319661Y-91055100D01*
X84319664Y-91055102D01*
X84485000Y-91123587D01*
X84660516Y-91158499D01*
X84660520Y-91158500D01*
X84660521Y-91158500D01*
X84839480Y-91158500D01*
X84839481Y-91158499D01*
X85015000Y-91123587D01*
X85180336Y-91055102D01*
X85329135Y-90955678D01*
X85455678Y-90829135D01*
X85555102Y-90680336D01*
X85623587Y-90515000D01*
X85658500Y-90339479D01*
X85658500Y-90160521D01*
X85623587Y-89985000D01*
X85555102Y-89819664D01*
X85555100Y-89819661D01*
X85555098Y-89819657D01*
X85455678Y-89670865D01*
X85455675Y-89670861D01*
X85329137Y-89544323D01*
X85279312Y-89511031D01*
X85180336Y-89444898D01*
X85166697Y-89439248D01*
X85126473Y-89412370D01*
X84394819Y-88680716D01*
X84361334Y-88619393D01*
X84358500Y-88593035D01*
X84358500Y-86415444D01*
X84358499Y-86415443D01*
X84340451Y-86324706D01*
X84325508Y-86249584D01*
X84277944Y-86134755D01*
X84260793Y-86093348D01*
X84260788Y-86093340D01*
X84260785Y-86093335D01*
X84219365Y-86031345D01*
X86991500Y-86031345D01*
X86991500Y-89128654D01*
X86998011Y-89189202D01*
X86998011Y-89189204D01*
X87044928Y-89314988D01*
X87049111Y-89326204D01*
X87136739Y-89443261D01*
X87253796Y-89530889D01*
X87368949Y-89573839D01*
X87386128Y-89580247D01*
X87390799Y-89581989D01*
X87418050Y-89584918D01*
X87451345Y-89588499D01*
X87451362Y-89588500D01*
X92548638Y-89588500D01*
X92548654Y-89588499D01*
X92575692Y-89585591D01*
X92609201Y-89581989D01*
X92613872Y-89580247D01*
X92623768Y-89576555D01*
X92746204Y-89530889D01*
X92863261Y-89443261D01*
X92950889Y-89326204D01*
X93001989Y-89189201D01*
X93005591Y-89155692D01*
X93008499Y-89128654D01*
X93008500Y-89128637D01*
X93008500Y-86031362D01*
X93008499Y-86031345D01*
X93005157Y-86000270D01*
X93001989Y-85970799D01*
X92996571Y-85956274D01*
X92979522Y-85910564D01*
X92950889Y-85833796D01*
X92863261Y-85716739D01*
X92746204Y-85629111D01*
X92704425Y-85613528D01*
X92609203Y-85578011D01*
X92548654Y-85571500D01*
X92548638Y-85571500D01*
X87451362Y-85571500D01*
X87451345Y-85571500D01*
X87390797Y-85578011D01*
X87390795Y-85578011D01*
X87253795Y-85629111D01*
X87136739Y-85716739D01*
X87049111Y-85833795D01*
X86998011Y-85970795D01*
X86998011Y-85970797D01*
X86991500Y-86031345D01*
X84219365Y-86031345D01*
X84166844Y-85952742D01*
X84166838Y-85952734D01*
X84042943Y-85828839D01*
X84042920Y-85828818D01*
X83742740Y-85528638D01*
X83709255Y-85467315D01*
X83710647Y-85408862D01*
X83728096Y-85343742D01*
X83728097Y-85343740D01*
X83758180Y-85115237D01*
X83758180Y-84884763D01*
X83728097Y-84656260D01*
X83668445Y-84433639D01*
X83580247Y-84220709D01*
X83548955Y-84166510D01*
X83465010Y-84021112D01*
X83324707Y-83838265D01*
X83324701Y-83838258D01*
X83161741Y-83675298D01*
X83161734Y-83675292D01*
X82978887Y-83534989D01*
X82779294Y-83419754D01*
X82779284Y-83419750D01*
X82566365Y-83331556D01*
X82527520Y-83321147D01*
X82343740Y-83271903D01*
X82343737Y-83271902D01*
X82343735Y-83271902D01*
X82115246Y-83241821D01*
X82115243Y-83241820D01*
X82115237Y-83241820D01*
X81884763Y-83241820D01*
X81884757Y-83241820D01*
X81884753Y-83241821D01*
X81656264Y-83271902D01*
X81433634Y-83331556D01*
X81220715Y-83419750D01*
X81220705Y-83419754D01*
X81021112Y-83534989D01*
X80838265Y-83675292D01*
X80838258Y-83675298D01*
X80675298Y-83838258D01*
X80675292Y-83838265D01*
X80534989Y-84021112D01*
X80419754Y-84220705D01*
X80419750Y-84220715D01*
X80331556Y-84433634D01*
X80271902Y-84656264D01*
X80241821Y-84884753D01*
X80241820Y-84884769D01*
X68098873Y-84884769D01*
X67986393Y-84772289D01*
X67986370Y-84772268D01*
X66837629Y-83623526D01*
X66810748Y-83583295D01*
X66805101Y-83569662D01*
X66705681Y-83420869D01*
X66705675Y-83420861D01*
X66579138Y-83294324D01*
X66579134Y-83294321D01*
X66430342Y-83194901D01*
X66430332Y-83194896D01*
X66265000Y-83126413D01*
X66264992Y-83126411D01*
X66089483Y-83091500D01*
X66089479Y-83091500D01*
X65910521Y-83091500D01*
X65910516Y-83091500D01*
X65735007Y-83126411D01*
X65734999Y-83126413D01*
X65569667Y-83194896D01*
X65569657Y-83194901D01*
X65420865Y-83294321D01*
X65420861Y-83294324D01*
X65294324Y-83420861D01*
X65294321Y-83420865D01*
X65194901Y-83569657D01*
X65194896Y-83569667D01*
X65126413Y-83734999D01*
X65126411Y-83735007D01*
X65091500Y-83910516D01*
X65091500Y-84089483D01*
X65126411Y-84264992D01*
X65126413Y-84265000D01*
X65194896Y-84430332D01*
X65194901Y-84430342D01*
X65294321Y-84579134D01*
X65294324Y-84579138D01*
X65420861Y-84705675D01*
X65420869Y-84705681D01*
X65569662Y-84805101D01*
X65583295Y-84810748D01*
X65590228Y-84815380D01*
X65595272Y-84816478D01*
X65623526Y-84837629D01*
X65758166Y-84972269D01*
X65791651Y-85033592D01*
X65786667Y-85103284D01*
X65744795Y-85159217D01*
X65679331Y-85183634D01*
X65670485Y-85183950D01*
X64632500Y-85183950D01*
X64565461Y-85164265D01*
X64519706Y-85111461D01*
X64508500Y-85059950D01*
X64508500Y-84458862D01*
X64508499Y-84458845D01*
X64505157Y-84427770D01*
X64501989Y-84398299D01*
X64450889Y-84261296D01*
X64363261Y-84144239D01*
X64246204Y-84056611D01*
X64109203Y-84005511D01*
X64048654Y-83999000D01*
X64048638Y-83999000D01*
X61951362Y-83999000D01*
X61951345Y-83999000D01*
X61890797Y-84005511D01*
X61890795Y-84005511D01*
X61753795Y-84056611D01*
X61636739Y-84144239D01*
X61549111Y-84261295D01*
X61498011Y-84398295D01*
X61498011Y-84398297D01*
X61491500Y-84458845D01*
X46700500Y-84458845D01*
X46700500Y-81288362D01*
X50491500Y-81288362D01*
X50491500Y-81551637D01*
X50491501Y-81551653D01*
X50525865Y-81812678D01*
X50594009Y-82066995D01*
X50694761Y-82310234D01*
X50694769Y-82310250D01*
X50826409Y-82538256D01*
X50986687Y-82747136D01*
X50986693Y-82747143D01*
X51172856Y-82933306D01*
X51172863Y-82933312D01*
X51381743Y-83093590D01*
X51609749Y-83225230D01*
X51609765Y-83225238D01*
X51761451Y-83288068D01*
X51853003Y-83325990D01*
X52107320Y-83394134D01*
X52368356Y-83428500D01*
X52368363Y-83428500D01*
X54631637Y-83428500D01*
X54631644Y-83428500D01*
X54892680Y-83394134D01*
X55146997Y-83325990D01*
X55350201Y-83241820D01*
X55390234Y-83225238D01*
X55390237Y-83225236D01*
X55390243Y-83225234D01*
X55618257Y-83093590D01*
X55827138Y-82933311D01*
X56013311Y-82747138D01*
X56049505Y-82699968D01*
X56099360Y-82634997D01*
X56150043Y-82568944D01*
X56173590Y-82538257D01*
X56305234Y-82310243D01*
X56330188Y-82249999D01*
X87015654Y-82249999D01*
X87015655Y-82250000D01*
X89345879Y-82250000D01*
X89326901Y-82295818D01*
X89300000Y-82431056D01*
X89300000Y-82568944D01*
X89326901Y-82704182D01*
X89345879Y-82750000D01*
X87015655Y-82750000D01*
X87034221Y-82891016D01*
X87102075Y-83144255D01*
X87202404Y-83386471D01*
X87202409Y-83386482D01*
X87333488Y-83613516D01*
X87333499Y-83613532D01*
X87493092Y-83821518D01*
X87493098Y-83821525D01*
X87678473Y-84006900D01*
X87678480Y-84006906D01*
X87886466Y-84166499D01*
X87886482Y-84166510D01*
X88113516Y-84297589D01*
X88113527Y-84297594D01*
X88355743Y-84397923D01*
X88608978Y-84465776D01*
X88608989Y-84465778D01*
X88868904Y-84499998D01*
X88868919Y-84499999D01*
X89750000Y-84499999D01*
X89750000Y-83154120D01*
X89795818Y-83173099D01*
X89931056Y-83200000D01*
X90068944Y-83200000D01*
X90204182Y-83173099D01*
X90250000Y-83154120D01*
X90250000Y-84499999D01*
X91131081Y-84499999D01*
X91131095Y-84499998D01*
X91391010Y-84465778D01*
X91391021Y-84465776D01*
X91644256Y-84397923D01*
X91886472Y-84297594D01*
X91886483Y-84297589D01*
X92113517Y-84166510D01*
X92113533Y-84166499D01*
X92321519Y-84006906D01*
X92321526Y-84006900D01*
X92506901Y-83821525D01*
X92506907Y-83821518D01*
X92666500Y-83613532D01*
X92666511Y-83613516D01*
X92797590Y-83386482D01*
X92797595Y-83386471D01*
X92897924Y-83144255D01*
X92965778Y-82891016D01*
X92984345Y-82750000D01*
X90654121Y-82750000D01*
X90673099Y-82704182D01*
X90700000Y-82568944D01*
X90700000Y-82431056D01*
X90673099Y-82295818D01*
X90654121Y-82250000D01*
X92984345Y-82250000D01*
X92984345Y-82249999D01*
X92965778Y-82108983D01*
X92897924Y-81855744D01*
X92797595Y-81613528D01*
X92797590Y-81613517D01*
X92666511Y-81386483D01*
X92666500Y-81386467D01*
X92506907Y-81178481D01*
X92506901Y-81178474D01*
X92321526Y-80993099D01*
X92321519Y-80993093D01*
X92113533Y-80833500D01*
X92113517Y-80833489D01*
X91886483Y-80702410D01*
X91886472Y-80702405D01*
X91644256Y-80602076D01*
X91391021Y-80534223D01*
X91391010Y-80534221D01*
X91131095Y-80500001D01*
X90250000Y-80500001D01*
X90250000Y-81845879D01*
X90204182Y-81826901D01*
X90068944Y-81800000D01*
X89931056Y-81800000D01*
X89795818Y-81826901D01*
X89750000Y-81845879D01*
X89750000Y-80500001D01*
X88868904Y-80500001D01*
X88608989Y-80534221D01*
X88608978Y-80534223D01*
X88355743Y-80602076D01*
X88113527Y-80702405D01*
X88113516Y-80702410D01*
X87886482Y-80833489D01*
X87886466Y-80833500D01*
X87678480Y-80993093D01*
X87678473Y-80993099D01*
X87493098Y-81178474D01*
X87493092Y-81178481D01*
X87333499Y-81386467D01*
X87333488Y-81386483D01*
X87202409Y-81613517D01*
X87202404Y-81613528D01*
X87102075Y-81855744D01*
X87034221Y-82108983D01*
X87015654Y-82249999D01*
X56330188Y-82249999D01*
X56405990Y-82066997D01*
X56474134Y-81812680D01*
X56508500Y-81551644D01*
X56508500Y-81288356D01*
X56474134Y-81027320D01*
X56405990Y-80773003D01*
X56326147Y-80580245D01*
X56305238Y-80529765D01*
X56305230Y-80529749D01*
X56173590Y-80301743D01*
X56013312Y-80092863D01*
X56013306Y-80092856D01*
X55827143Y-79906693D01*
X55827136Y-79906687D01*
X55618256Y-79746409D01*
X55390250Y-79614769D01*
X55390234Y-79614761D01*
X55146995Y-79514009D01*
X54892678Y-79445865D01*
X54631653Y-79411501D01*
X54631650Y-79411500D01*
X54631644Y-79411500D01*
X52368356Y-79411500D01*
X52368350Y-79411500D01*
X52368346Y-79411501D01*
X52107321Y-79445865D01*
X51853004Y-79514009D01*
X51609765Y-79614761D01*
X51609749Y-79614769D01*
X51381743Y-79746409D01*
X51172863Y-79906687D01*
X51172856Y-79906693D01*
X50986693Y-80092856D01*
X50986687Y-80092863D01*
X50826409Y-80301743D01*
X50694769Y-80529749D01*
X50694761Y-80529765D01*
X50594009Y-80773004D01*
X50525865Y-81027321D01*
X50491501Y-81288346D01*
X50491500Y-81288362D01*
X46700500Y-81288362D01*
X46700500Y-78884769D01*
X59741820Y-78884769D01*
X59741820Y-79115230D01*
X59741821Y-79115246D01*
X59769565Y-79325986D01*
X59771903Y-79343740D01*
X59799268Y-79445865D01*
X59831556Y-79566365D01*
X59919750Y-79779284D01*
X59919754Y-79779294D01*
X60034989Y-79978887D01*
X60175292Y-80161734D01*
X60175298Y-80161741D01*
X60338258Y-80324701D01*
X60338265Y-80324707D01*
X60521112Y-80465010D01*
X60720705Y-80580245D01*
X60720706Y-80580245D01*
X60720709Y-80580247D01*
X60933639Y-80668445D01*
X61156260Y-80728097D01*
X61384763Y-80758180D01*
X61384770Y-80758180D01*
X61615230Y-80758180D01*
X61615237Y-80758180D01*
X61843740Y-80728097D01*
X62066361Y-80668445D01*
X62279291Y-80580247D01*
X62478888Y-80465010D01*
X62661736Y-80324706D01*
X62824706Y-80161736D01*
X62965010Y-79978888D01*
X63080247Y-79779291D01*
X63168445Y-79566361D01*
X63228097Y-79343740D01*
X63258180Y-79115237D01*
X63258180Y-78884763D01*
X63228097Y-78656260D01*
X63168445Y-78433639D01*
X63080247Y-78220709D01*
X63066668Y-78197190D01*
X62965010Y-78021112D01*
X62824707Y-77838265D01*
X62824701Y-77838258D01*
X62661741Y-77675298D01*
X62661734Y-77675292D01*
X62478887Y-77534989D01*
X62279294Y-77419754D01*
X62279279Y-77419747D01*
X62228847Y-77398858D01*
X62228846Y-77398858D01*
X62066365Y-77331556D01*
X62027520Y-77321147D01*
X61905165Y-77288362D01*
X86991500Y-77288362D01*
X86991500Y-77551637D01*
X86991501Y-77551653D01*
X87025865Y-77812676D01*
X87094012Y-78067003D01*
X87194759Y-78310231D01*
X87194765Y-78310243D01*
X87326409Y-78538257D01*
X87486689Y-78747137D01*
X87486693Y-78747142D01*
X87672856Y-78933305D01*
X87672860Y-78933308D01*
X87672862Y-78933310D01*
X87881742Y-79093590D01*
X88109756Y-79225234D01*
X88109761Y-79225236D01*
X88109767Y-79225239D01*
X88352995Y-79325986D01*
X88352997Y-79325986D01*
X88353003Y-79325989D01*
X88607319Y-79394133D01*
X88868355Y-79428499D01*
X88868362Y-79428499D01*
X91131638Y-79428499D01*
X91131645Y-79428499D01*
X91392681Y-79394133D01*
X91646997Y-79325989D01*
X91890244Y-79225234D01*
X92118258Y-79093590D01*
X92327138Y-78933310D01*
X92513311Y-78747137D01*
X92673591Y-78538257D01*
X92805235Y-78310243D01*
X92905990Y-78066996D01*
X92974134Y-77812680D01*
X93008500Y-77551644D01*
X93008500Y-77288356D01*
X92974134Y-77027320D01*
X92905990Y-76773004D01*
X92863977Y-76671574D01*
X92805240Y-76529768D01*
X92805237Y-76529762D01*
X92805235Y-76529757D01*
X92673591Y-76301743D01*
X92513311Y-76092863D01*
X92513309Y-76092861D01*
X92513306Y-76092857D01*
X92327143Y-75906694D01*
X92310308Y-75893776D01*
X92118258Y-75746410D01*
X92070066Y-75718586D01*
X91890246Y-75614767D01*
X91890232Y-75614760D01*
X91647004Y-75514013D01*
X91392677Y-75445866D01*
X91131654Y-75411502D01*
X91131651Y-75411501D01*
X91131645Y-75411501D01*
X88868355Y-75411501D01*
X88868349Y-75411501D01*
X88868345Y-75411502D01*
X88607322Y-75445866D01*
X88352995Y-75514013D01*
X88109767Y-75614760D01*
X88109753Y-75614767D01*
X87881748Y-75746406D01*
X87881741Y-75746411D01*
X87672856Y-75906694D01*
X87486693Y-76092857D01*
X87326410Y-76301742D01*
X87326405Y-76301749D01*
X87194766Y-76529754D01*
X87194759Y-76529768D01*
X87094012Y-76772996D01*
X87025865Y-77027323D01*
X86991501Y-77288346D01*
X86991500Y-77288362D01*
X61905165Y-77288362D01*
X61843740Y-77271903D01*
X61843737Y-77271902D01*
X61843735Y-77271902D01*
X61615246Y-77241821D01*
X61615243Y-77241820D01*
X61615237Y-77241820D01*
X61384763Y-77241820D01*
X61384757Y-77241820D01*
X61384753Y-77241821D01*
X61156264Y-77271902D01*
X60933634Y-77331556D01*
X60720715Y-77419750D01*
X60720705Y-77419754D01*
X60521112Y-77534989D01*
X60338265Y-77675292D01*
X60338258Y-77675298D01*
X60175298Y-77838258D01*
X60175292Y-77838265D01*
X60034989Y-78021112D01*
X59919754Y-78220705D01*
X59919750Y-78220715D01*
X59831556Y-78433634D01*
X59771902Y-78656264D01*
X59741821Y-78884753D01*
X59741820Y-78884769D01*
X46700500Y-78884769D01*
X46700500Y-74792155D01*
X50500000Y-74792155D01*
X50500000Y-76090000D01*
X52845879Y-76090000D01*
X52826901Y-76135818D01*
X52800000Y-76271056D01*
X52800000Y-76408944D01*
X52826901Y-76544182D01*
X52845879Y-76590000D01*
X50500000Y-76590000D01*
X50500000Y-77887844D01*
X50506401Y-77947372D01*
X50506403Y-77947379D01*
X50556645Y-78082086D01*
X50556649Y-78082093D01*
X50642809Y-78197187D01*
X50642812Y-78197190D01*
X50757906Y-78283350D01*
X50757913Y-78283354D01*
X50892620Y-78333596D01*
X50892627Y-78333598D01*
X50952155Y-78339999D01*
X50952172Y-78340000D01*
X53250000Y-78340000D01*
X53250000Y-76994120D01*
X53295818Y-77013099D01*
X53431056Y-77040000D01*
X53568944Y-77040000D01*
X53704182Y-77013099D01*
X53750000Y-76994120D01*
X53750000Y-78340000D01*
X56047828Y-78340000D01*
X56047844Y-78339999D01*
X56107372Y-78333598D01*
X56107379Y-78333596D01*
X56242086Y-78283354D01*
X56242093Y-78283350D01*
X56357187Y-78197190D01*
X56357190Y-78197187D01*
X56443350Y-78082093D01*
X56443354Y-78082086D01*
X56493596Y-77947379D01*
X56493598Y-77947372D01*
X56499999Y-77887844D01*
X56500000Y-77887827D01*
X56500000Y-76590000D01*
X54154121Y-76590000D01*
X54173099Y-76544182D01*
X54200000Y-76408944D01*
X54200000Y-76271056D01*
X54173099Y-76135818D01*
X54154121Y-76090000D01*
X56500000Y-76090000D01*
X56500000Y-74792172D01*
X56499999Y-74792155D01*
X56493598Y-74732627D01*
X56493596Y-74732620D01*
X56443354Y-74597913D01*
X56443350Y-74597906D01*
X56357190Y-74482812D01*
X56357187Y-74482809D01*
X56242093Y-74396649D01*
X56242086Y-74396645D01*
X56107379Y-74346403D01*
X56107372Y-74346401D01*
X56047844Y-74340000D01*
X53750000Y-74340000D01*
X53750000Y-75685879D01*
X53704182Y-75666901D01*
X53568944Y-75640000D01*
X53431056Y-75640000D01*
X53295818Y-75666901D01*
X53250000Y-75685879D01*
X53250000Y-74340000D01*
X50952155Y-74340000D01*
X50892627Y-74346401D01*
X50892620Y-74346403D01*
X50757913Y-74396645D01*
X50757906Y-74396649D01*
X50642812Y-74482809D01*
X50642809Y-74482812D01*
X50556649Y-74597906D01*
X50556645Y-74597913D01*
X50506403Y-74732620D01*
X50506401Y-74732627D01*
X50500000Y-74792155D01*
X46700500Y-74792155D01*
X46700500Y-70564616D01*
X69300000Y-70564616D01*
X69300000Y-70787465D01*
X69329085Y-71008395D01*
X69329088Y-71008408D01*
X69386763Y-71223659D01*
X69472045Y-71429543D01*
X69472054Y-71429561D01*
X69583464Y-71622532D01*
X69583473Y-71622545D01*
X69634040Y-71688444D01*
X69634043Y-71688444D01*
X70435387Y-70887100D01*
X70440889Y-70907632D01*
X70519881Y-71044449D01*
X70631592Y-71156160D01*
X70768409Y-71235152D01*
X70788940Y-71240653D01*
X69987595Y-72041996D01*
X69987595Y-72041997D01*
X70053507Y-72092574D01*
X70246485Y-72203990D01*
X70246497Y-72203995D01*
X70452381Y-72289277D01*
X70667632Y-72346952D01*
X70667645Y-72346955D01*
X70888575Y-72376041D01*
X71111425Y-72376041D01*
X71332354Y-72346955D01*
X71332367Y-72346952D01*
X71547618Y-72289277D01*
X71753502Y-72203995D01*
X71753514Y-72203990D01*
X71946493Y-72092574D01*
X71949849Y-72089999D01*
X87015654Y-72089999D01*
X87015655Y-72090000D01*
X89345879Y-72090000D01*
X89326901Y-72135818D01*
X89300000Y-72271056D01*
X89300000Y-72408944D01*
X89326901Y-72544182D01*
X89345879Y-72590000D01*
X87015655Y-72590000D01*
X87034221Y-72731016D01*
X87102075Y-72984255D01*
X87202404Y-73226471D01*
X87202409Y-73226482D01*
X87333496Y-73453528D01*
X87493092Y-73661519D01*
X87493098Y-73661526D01*
X87678473Y-73846901D01*
X87678480Y-73846907D01*
X87886471Y-74006503D01*
X88113517Y-74137590D01*
X88113528Y-74137595D01*
X88355744Y-74237924D01*
X88608979Y-74305777D01*
X88608990Y-74305779D01*
X88868905Y-74339999D01*
X88868920Y-74340000D01*
X89750000Y-74340000D01*
X89750000Y-72994120D01*
X89795818Y-73013099D01*
X89931056Y-73040000D01*
X90068944Y-73040000D01*
X90204182Y-73013099D01*
X90250000Y-72994120D01*
X90250000Y-74340000D01*
X91131080Y-74340000D01*
X91131094Y-74339999D01*
X91391009Y-74305779D01*
X91391020Y-74305777D01*
X91644255Y-74237924D01*
X91886471Y-74137595D01*
X91886482Y-74137590D01*
X92113528Y-74006503D01*
X92321519Y-73846907D01*
X92321526Y-73846901D01*
X92506901Y-73661526D01*
X92506907Y-73661519D01*
X92666503Y-73453528D01*
X92797590Y-73226482D01*
X92797595Y-73226471D01*
X92897924Y-72984255D01*
X92965778Y-72731016D01*
X92984345Y-72590000D01*
X90654121Y-72590000D01*
X90673099Y-72544182D01*
X90700000Y-72408944D01*
X90700000Y-72271056D01*
X90673099Y-72135818D01*
X90654121Y-72090000D01*
X92984345Y-72090000D01*
X92984345Y-72089999D01*
X92965778Y-71948983D01*
X92897924Y-71695744D01*
X92797595Y-71453528D01*
X92797590Y-71453517D01*
X92666503Y-71226471D01*
X92506907Y-71018480D01*
X92506901Y-71018473D01*
X92321526Y-70833098D01*
X92321519Y-70833092D01*
X92113528Y-70673496D01*
X91886482Y-70542409D01*
X91886471Y-70542404D01*
X91644255Y-70442075D01*
X91391020Y-70374222D01*
X91391009Y-70374220D01*
X91131094Y-70340000D01*
X90250000Y-70340000D01*
X90250000Y-71685879D01*
X90204182Y-71666901D01*
X90068944Y-71640000D01*
X89931056Y-71640000D01*
X89795818Y-71666901D01*
X89750000Y-71685879D01*
X89750000Y-70340000D01*
X88868905Y-70340000D01*
X88608990Y-70374220D01*
X88608979Y-70374222D01*
X88355744Y-70442075D01*
X88113528Y-70542404D01*
X88113517Y-70542409D01*
X87886471Y-70673496D01*
X87678480Y-70833092D01*
X87678473Y-70833098D01*
X87493098Y-71018473D01*
X87493092Y-71018480D01*
X87333496Y-71226471D01*
X87202409Y-71453517D01*
X87202404Y-71453528D01*
X87102075Y-71695744D01*
X87034221Y-71948983D01*
X87015654Y-72089999D01*
X71949849Y-72089999D01*
X72012404Y-72041997D01*
X71211059Y-71240653D01*
X71231591Y-71235152D01*
X71368408Y-71156160D01*
X71480119Y-71044449D01*
X71559111Y-70907632D01*
X71564612Y-70887100D01*
X72365956Y-71688445D01*
X72365957Y-71688444D01*
X72416530Y-71622539D01*
X72527949Y-71429555D01*
X72527954Y-71429543D01*
X72613236Y-71223659D01*
X72670911Y-71008408D01*
X72670914Y-71008395D01*
X72700000Y-70787465D01*
X72700000Y-70564616D01*
X72670914Y-70343686D01*
X72670911Y-70343673D01*
X72613236Y-70128422D01*
X72527954Y-69922538D01*
X72527949Y-69922526D01*
X72416533Y-69729548D01*
X72365956Y-69663636D01*
X72365955Y-69663636D01*
X71564612Y-70464980D01*
X71559111Y-70444450D01*
X71480119Y-70307633D01*
X71368408Y-70195922D01*
X71231591Y-70116930D01*
X71211058Y-70111428D01*
X72012403Y-69310084D01*
X72012403Y-69310081D01*
X71946504Y-69259514D01*
X71946491Y-69259505D01*
X71753520Y-69148095D01*
X71753502Y-69148086D01*
X71547618Y-69062804D01*
X71332367Y-69005129D01*
X71332354Y-69005126D01*
X71111425Y-68976041D01*
X70888575Y-68976041D01*
X70667645Y-69005126D01*
X70667632Y-69005129D01*
X70452381Y-69062804D01*
X70246497Y-69148086D01*
X70246479Y-69148095D01*
X70053511Y-69259503D01*
X69987595Y-69310083D01*
X70788941Y-70111428D01*
X70768409Y-70116930D01*
X70631592Y-70195922D01*
X70519881Y-70307633D01*
X70440889Y-70444450D01*
X70435387Y-70464981D01*
X69634042Y-69663636D01*
X69583462Y-69729552D01*
X69472054Y-69922520D01*
X69472045Y-69922538D01*
X69386763Y-70128422D01*
X69329088Y-70343673D01*
X69329085Y-70343686D01*
X69300000Y-70564616D01*
X46700500Y-70564616D01*
X46700500Y-65745031D01*
X50200000Y-65745031D01*
X50200000Y-65949666D01*
X50232009Y-66151766D01*
X50295244Y-66346380D01*
X50388141Y-66528699D01*
X50388147Y-66528708D01*
X50420523Y-66573270D01*
X50420524Y-66573271D01*
X51100000Y-65893795D01*
X51100000Y-65900010D01*
X51127259Y-66001743D01*
X51179920Y-66092955D01*
X51254394Y-66167429D01*
X51345606Y-66220090D01*
X51447339Y-66247349D01*
X51453553Y-66247349D01*
X50774076Y-66926823D01*
X50818650Y-66959208D01*
X51000968Y-67052104D01*
X51195582Y-67115339D01*
X51397683Y-67147349D01*
X51602317Y-67147349D01*
X51804417Y-67115339D01*
X51999031Y-67052104D01*
X52181349Y-66959208D01*
X52225921Y-66926823D01*
X51546447Y-66247349D01*
X51552661Y-66247349D01*
X51654394Y-66220090D01*
X51745606Y-66167429D01*
X51820080Y-66092955D01*
X51872741Y-66001743D01*
X51900000Y-65900010D01*
X51900000Y-65893796D01*
X52579474Y-66573270D01*
X52611859Y-66528698D01*
X52704755Y-66346380D01*
X52767990Y-66151766D01*
X52800000Y-65949666D01*
X52800000Y-65745031D01*
X52767990Y-65542931D01*
X52704755Y-65348317D01*
X52611859Y-65165999D01*
X52579474Y-65121426D01*
X52579474Y-65121425D01*
X51900000Y-65800900D01*
X51900000Y-65794688D01*
X51872741Y-65692955D01*
X51820080Y-65601743D01*
X51745606Y-65527269D01*
X51654394Y-65474608D01*
X51552661Y-65447349D01*
X51546446Y-65447349D01*
X52225922Y-64767873D01*
X52225921Y-64767872D01*
X52181359Y-64735496D01*
X52181350Y-64735490D01*
X52063592Y-64675489D01*
X69291500Y-64675489D01*
X69291500Y-66676592D01*
X69302113Y-66780469D01*
X69357883Y-66948776D01*
X69357884Y-66948779D01*
X69450967Y-67099688D01*
X69450970Y-67099692D01*
X69576348Y-67225070D01*
X69576352Y-67225073D01*
X69727261Y-67318156D01*
X69727264Y-67318157D01*
X69895571Y-67373927D01*
X69895572Y-67373927D01*
X69895575Y-67373928D01*
X69999456Y-67384541D01*
X69999461Y-67384541D01*
X72000539Y-67384541D01*
X72000544Y-67384541D01*
X72104425Y-67373928D01*
X72272738Y-67318156D01*
X72423651Y-67225071D01*
X72520360Y-67128362D01*
X86991500Y-67128362D01*
X86991500Y-67391637D01*
X86991501Y-67391653D01*
X87025865Y-67652676D01*
X87094012Y-67907003D01*
X87194759Y-68150231D01*
X87194765Y-68150243D01*
X87326409Y-68378257D01*
X87486689Y-68587137D01*
X87486693Y-68587142D01*
X87672856Y-68773305D01*
X87672860Y-68773308D01*
X87672862Y-68773310D01*
X87881742Y-68933590D01*
X88109756Y-69065234D01*
X88109761Y-69065236D01*
X88109767Y-69065239D01*
X88352995Y-69165986D01*
X88352997Y-69165986D01*
X88353003Y-69165989D01*
X88607319Y-69234133D01*
X88868355Y-69268499D01*
X88868362Y-69268499D01*
X91131638Y-69268499D01*
X91131645Y-69268499D01*
X91392681Y-69234133D01*
X91646997Y-69165989D01*
X91890244Y-69065234D01*
X92118258Y-68933590D01*
X92327138Y-68773310D01*
X92513311Y-68587137D01*
X92673591Y-68378257D01*
X92805235Y-68150243D01*
X92905990Y-67906996D01*
X92974134Y-67652680D01*
X93008500Y-67391644D01*
X93008500Y-67128356D01*
X92974134Y-66867320D01*
X92905990Y-66613004D01*
X92905987Y-66612996D01*
X92805240Y-66369768D01*
X92805237Y-66369762D01*
X92805235Y-66369757D01*
X92673591Y-66141743D01*
X92513311Y-65932863D01*
X92513309Y-65932861D01*
X92513306Y-65932857D01*
X92327143Y-65746694D01*
X92324976Y-65745031D01*
X92118258Y-65586410D01*
X91957844Y-65493795D01*
X91890246Y-65454767D01*
X91890232Y-65454760D01*
X91647004Y-65354013D01*
X91625746Y-65348317D01*
X91392681Y-65285867D01*
X91392680Y-65285866D01*
X91392677Y-65285866D01*
X91131654Y-65251502D01*
X91131651Y-65251501D01*
X91131645Y-65251501D01*
X88868355Y-65251501D01*
X88868349Y-65251501D01*
X88868345Y-65251502D01*
X88607322Y-65285866D01*
X88352995Y-65354013D01*
X88109767Y-65454760D01*
X88109753Y-65454767D01*
X87881748Y-65586406D01*
X87881741Y-65586411D01*
X87672856Y-65746694D01*
X87486693Y-65932857D01*
X87326410Y-66141742D01*
X87326405Y-66141749D01*
X87194766Y-66369754D01*
X87194759Y-66369768D01*
X87094012Y-66612996D01*
X87025865Y-66867323D01*
X86991501Y-67128346D01*
X86991500Y-67128362D01*
X72520360Y-67128362D01*
X72549030Y-67099692D01*
X72642115Y-66948779D01*
X72697887Y-66780466D01*
X72708500Y-66676585D01*
X72708500Y-64675497D01*
X72697887Y-64571616D01*
X72642115Y-64403303D01*
X72642115Y-64403302D01*
X72549032Y-64252393D01*
X72549029Y-64252389D01*
X72423651Y-64127011D01*
X72423647Y-64127008D01*
X72272738Y-64033925D01*
X72272735Y-64033924D01*
X72104428Y-63978154D01*
X72000551Y-63967541D01*
X72000544Y-63967541D01*
X69999456Y-63967541D01*
X69999448Y-63967541D01*
X69895571Y-63978154D01*
X69727264Y-64033924D01*
X69727261Y-64033925D01*
X69576352Y-64127008D01*
X69576348Y-64127011D01*
X69450970Y-64252389D01*
X69450967Y-64252393D01*
X69357884Y-64403302D01*
X69357883Y-64403305D01*
X69302113Y-64571612D01*
X69291500Y-64675489D01*
X52063592Y-64675489D01*
X51999031Y-64642593D01*
X51804417Y-64579358D01*
X51602317Y-64547349D01*
X51397683Y-64547349D01*
X51195582Y-64579358D01*
X51000968Y-64642593D01*
X50818644Y-64735492D01*
X50774077Y-64767872D01*
X50774077Y-64767873D01*
X51453554Y-65447349D01*
X51447339Y-65447349D01*
X51345606Y-65474608D01*
X51254394Y-65527269D01*
X51179920Y-65601743D01*
X51127259Y-65692955D01*
X51100000Y-65794688D01*
X51100000Y-65800902D01*
X50420524Y-65121426D01*
X50420523Y-65121426D01*
X50388143Y-65165993D01*
X50295244Y-65348317D01*
X50232009Y-65542931D01*
X50200000Y-65745031D01*
X46700500Y-65745031D01*
X46700500Y-61746796D01*
X50191500Y-61746796D01*
X50191500Y-62947886D01*
X50191501Y-62947902D01*
X50202113Y-63051776D01*
X50206986Y-63066482D01*
X50257885Y-63220087D01*
X50350970Y-63371001D01*
X50476348Y-63496379D01*
X50627262Y-63589464D01*
X50795574Y-63645236D01*
X50899455Y-63655849D01*
X52100544Y-63655848D01*
X52204426Y-63645236D01*
X52372738Y-63589464D01*
X52523652Y-63496379D01*
X52649030Y-63371001D01*
X52742115Y-63220087D01*
X52797887Y-63051775D01*
X52808500Y-62947894D01*
X52808499Y-61746805D01*
X52797887Y-61642923D01*
X52742115Y-61474611D01*
X52649030Y-61323697D01*
X52523652Y-61198319D01*
X52416231Y-61132061D01*
X52372740Y-61105235D01*
X52372735Y-61105233D01*
X52204427Y-61049462D01*
X52100545Y-61038849D01*
X50899462Y-61038849D01*
X50899446Y-61038850D01*
X50795572Y-61049462D01*
X50627264Y-61105233D01*
X50627259Y-61105235D01*
X50476346Y-61198320D01*
X50350971Y-61323695D01*
X50257886Y-61474608D01*
X50257884Y-61474613D01*
X50202113Y-61642921D01*
X50191500Y-61746796D01*
X46700500Y-61746796D01*
X46700500Y-58910516D01*
X54091500Y-58910516D01*
X54091500Y-59089483D01*
X54126411Y-59264992D01*
X54126413Y-59265000D01*
X54194896Y-59430332D01*
X54194901Y-59430342D01*
X54294321Y-59579134D01*
X54294324Y-59579138D01*
X54420861Y-59705675D01*
X54420869Y-59705681D01*
X54569662Y-59805101D01*
X54583295Y-59810748D01*
X54623526Y-59837629D01*
X55162369Y-60376471D01*
X55189249Y-60416698D01*
X55194898Y-60430336D01*
X55194901Y-60430342D01*
X55294321Y-60579134D01*
X55294324Y-60579138D01*
X55420861Y-60705675D01*
X55420865Y-60705678D01*
X55569657Y-60805098D01*
X55569661Y-60805100D01*
X55569664Y-60805102D01*
X55735000Y-60873587D01*
X55910516Y-60908499D01*
X55910520Y-60908500D01*
X55910521Y-60908500D01*
X56089481Y-60908500D01*
X56099712Y-60906464D01*
X56111980Y-60904024D01*
X56181571Y-60910248D01*
X56223856Y-60937959D01*
X57662369Y-62376471D01*
X57689249Y-62416698D01*
X57694898Y-62430336D01*
X57694901Y-62430342D01*
X57794321Y-62579134D01*
X57794324Y-62579138D01*
X57920861Y-62705675D01*
X57920865Y-62705678D01*
X58069657Y-62805098D01*
X58069661Y-62805100D01*
X58069664Y-62805102D01*
X58235000Y-62873587D01*
X58410516Y-62908499D01*
X58410520Y-62908500D01*
X58410521Y-62908500D01*
X58589480Y-62908500D01*
X58589481Y-62908499D01*
X58765000Y-62873587D01*
X58778635Y-62867938D01*
X58826088Y-62858500D01*
X59173912Y-62858500D01*
X59221364Y-62867938D01*
X59235000Y-62873587D01*
X59410516Y-62908499D01*
X59410520Y-62908500D01*
X59410521Y-62908500D01*
X59589480Y-62908500D01*
X59589481Y-62908499D01*
X59765000Y-62873587D01*
X59930336Y-62805102D01*
X60079135Y-62705678D01*
X60205678Y-62579135D01*
X60305102Y-62430336D01*
X60373587Y-62265000D01*
X60408500Y-62089479D01*
X60408500Y-61929999D01*
X87015654Y-61929999D01*
X87015655Y-61930000D01*
X89345879Y-61930000D01*
X89326901Y-61975818D01*
X89300000Y-62111056D01*
X89300000Y-62248944D01*
X89326901Y-62384182D01*
X89345879Y-62430000D01*
X87015655Y-62430000D01*
X87034221Y-62571016D01*
X87102075Y-62824255D01*
X87202404Y-63066471D01*
X87202409Y-63066482D01*
X87333488Y-63293516D01*
X87333499Y-63293532D01*
X87493092Y-63501518D01*
X87493098Y-63501525D01*
X87678473Y-63686900D01*
X87678480Y-63686906D01*
X87886466Y-63846499D01*
X87886482Y-63846510D01*
X88113516Y-63977589D01*
X88113527Y-63977594D01*
X88355743Y-64077923D01*
X88608978Y-64145776D01*
X88608989Y-64145778D01*
X88868904Y-64179998D01*
X88868919Y-64179999D01*
X89750000Y-64179999D01*
X89750000Y-62834120D01*
X89795818Y-62853099D01*
X89931056Y-62880000D01*
X90068944Y-62880000D01*
X90204182Y-62853099D01*
X90250000Y-62834120D01*
X90250000Y-64179999D01*
X91131081Y-64179999D01*
X91131095Y-64179998D01*
X91391010Y-64145778D01*
X91391021Y-64145776D01*
X91644256Y-64077923D01*
X91886472Y-63977594D01*
X91886483Y-63977589D01*
X92113517Y-63846510D01*
X92113533Y-63846499D01*
X92321519Y-63686906D01*
X92321526Y-63686900D01*
X92506901Y-63501525D01*
X92506907Y-63501518D01*
X92666500Y-63293532D01*
X92666511Y-63293516D01*
X92797590Y-63066482D01*
X92797595Y-63066471D01*
X92897924Y-62824255D01*
X92965778Y-62571016D01*
X92984345Y-62430000D01*
X90654121Y-62430000D01*
X90673099Y-62384182D01*
X90700000Y-62248944D01*
X90700000Y-62111056D01*
X90673099Y-61975818D01*
X90654121Y-61930000D01*
X92984345Y-61930000D01*
X92984345Y-61929999D01*
X92965778Y-61788983D01*
X92897924Y-61535744D01*
X92797595Y-61293528D01*
X92797590Y-61293517D01*
X92666511Y-61066483D01*
X92666500Y-61066467D01*
X92506907Y-60858481D01*
X92506901Y-60858474D01*
X92321526Y-60673099D01*
X92321519Y-60673093D01*
X92113533Y-60513500D01*
X92113517Y-60513489D01*
X91886483Y-60382410D01*
X91886472Y-60382405D01*
X91644256Y-60282076D01*
X91391021Y-60214223D01*
X91391010Y-60214221D01*
X91131095Y-60180001D01*
X90250000Y-60180001D01*
X90250000Y-61525879D01*
X90204182Y-61506901D01*
X90068944Y-61480000D01*
X89931056Y-61480000D01*
X89795818Y-61506901D01*
X89750000Y-61525879D01*
X89750000Y-60180001D01*
X88868904Y-60180001D01*
X88608989Y-60214221D01*
X88608978Y-60214223D01*
X88355743Y-60282076D01*
X88113527Y-60382405D01*
X88113516Y-60382410D01*
X87886482Y-60513489D01*
X87886466Y-60513500D01*
X87678480Y-60673093D01*
X87678473Y-60673099D01*
X87493098Y-60858474D01*
X87493092Y-60858481D01*
X87333499Y-61066467D01*
X87333488Y-61066483D01*
X87202409Y-61293517D01*
X87202404Y-61293528D01*
X87102075Y-61535744D01*
X87034221Y-61788983D01*
X87015654Y-61929999D01*
X60408500Y-61929999D01*
X60408500Y-61910521D01*
X60373587Y-61735000D01*
X60305102Y-61569664D01*
X60305100Y-61569661D01*
X60305098Y-61569657D01*
X60205678Y-61420865D01*
X60205675Y-61420861D01*
X60079138Y-61294324D01*
X60079134Y-61294321D01*
X59930342Y-61194901D01*
X59930332Y-61194896D01*
X59765000Y-61126413D01*
X59764992Y-61126411D01*
X59589483Y-61091500D01*
X59589479Y-61091500D01*
X59410521Y-61091500D01*
X59410516Y-61091500D01*
X59235007Y-61126411D01*
X59234999Y-61126413D01*
X59221365Y-61132061D01*
X59173912Y-61141500D01*
X58906964Y-61141500D01*
X58839925Y-61121815D01*
X58819283Y-61105181D01*
X57047265Y-59333161D01*
X57047264Y-59333160D01*
X57025664Y-59318728D01*
X57025664Y-59318727D01*
X56906662Y-59239213D01*
X56906648Y-59239205D01*
X56784854Y-59188757D01*
X56784851Y-59188755D01*
X56750420Y-59174493D01*
X56750408Y-59174490D01*
X56584558Y-59141500D01*
X56584555Y-59141500D01*
X56406964Y-59141500D01*
X56339925Y-59121815D01*
X56319283Y-59105181D01*
X55837629Y-58623526D01*
X55810748Y-58583295D01*
X55809486Y-58580249D01*
X55805102Y-58569664D01*
X55805097Y-58569657D01*
X55705681Y-58420869D01*
X55705675Y-58420861D01*
X55579138Y-58294324D01*
X55579134Y-58294321D01*
X55430342Y-58194901D01*
X55430332Y-58194896D01*
X55265000Y-58126413D01*
X55264992Y-58126411D01*
X55089483Y-58091500D01*
X55089479Y-58091500D01*
X54910521Y-58091500D01*
X54910516Y-58091500D01*
X54735007Y-58126411D01*
X54734999Y-58126413D01*
X54569667Y-58194896D01*
X54569657Y-58194901D01*
X54420865Y-58294321D01*
X54420861Y-58294324D01*
X54294324Y-58420861D01*
X54294321Y-58420865D01*
X54194901Y-58569657D01*
X54194896Y-58569667D01*
X54126413Y-58734999D01*
X54126411Y-58735007D01*
X54091500Y-58910516D01*
X46700500Y-58910516D01*
X46700500Y-57853505D01*
X69391500Y-57853505D01*
X69391500Y-58146494D01*
X69424302Y-58437615D01*
X69424304Y-58437631D01*
X69489497Y-58723262D01*
X69489501Y-58723274D01*
X69586264Y-58999806D01*
X69713381Y-59263766D01*
X69869259Y-59511844D01*
X69869260Y-59511846D01*
X70051921Y-59740897D01*
X70259102Y-59948078D01*
X70488153Y-60130739D01*
X70488156Y-60130740D01*
X70488158Y-60130742D01*
X70736231Y-60286617D01*
X71000197Y-60413737D01*
X71207892Y-60486412D01*
X71276725Y-60510498D01*
X71276737Y-60510502D01*
X71562372Y-60575696D01*
X71853505Y-60608499D01*
X71853506Y-60608500D01*
X71853510Y-60608500D01*
X72146494Y-60608500D01*
X72146494Y-60608499D01*
X72437628Y-60575696D01*
X72723263Y-60510502D01*
X72999803Y-60413737D01*
X73263769Y-60286617D01*
X73511842Y-60130742D01*
X73511846Y-60130739D01*
X73740897Y-59948078D01*
X73740899Y-59948075D01*
X73740904Y-59948072D01*
X73948072Y-59740904D01*
X73976162Y-59705681D01*
X74130739Y-59511846D01*
X74130740Y-59511844D01*
X74130742Y-59511842D01*
X74286617Y-59263769D01*
X74413737Y-58999803D01*
X74510502Y-58723263D01*
X74575696Y-58437628D01*
X74608500Y-58146490D01*
X74608500Y-57853510D01*
X74575696Y-57562372D01*
X74510502Y-57276737D01*
X74413737Y-57000197D01*
X74358150Y-56884769D01*
X88741820Y-56884769D01*
X88741820Y-57115230D01*
X88741821Y-57115246D01*
X88771902Y-57343735D01*
X88831556Y-57566365D01*
X88919750Y-57779284D01*
X88919754Y-57779294D01*
X89034989Y-57978887D01*
X89175292Y-58161734D01*
X89175298Y-58161741D01*
X89338258Y-58324701D01*
X89338265Y-58324707D01*
X89521112Y-58465010D01*
X89720705Y-58580245D01*
X89720706Y-58580245D01*
X89720709Y-58580247D01*
X89933639Y-58668445D01*
X90156260Y-58728097D01*
X90384763Y-58758180D01*
X90384770Y-58758180D01*
X90615230Y-58758180D01*
X90615237Y-58758180D01*
X90843740Y-58728097D01*
X91066361Y-58668445D01*
X91279291Y-58580247D01*
X91478888Y-58465010D01*
X91661736Y-58324706D01*
X91824706Y-58161736D01*
X91965010Y-57978888D01*
X92080247Y-57779291D01*
X92168445Y-57566361D01*
X92228097Y-57343740D01*
X92258180Y-57115237D01*
X92258180Y-56884763D01*
X92228097Y-56656260D01*
X92168445Y-56433639D01*
X92080247Y-56220709D01*
X91965010Y-56021112D01*
X91848489Y-55869259D01*
X91824707Y-55838265D01*
X91824701Y-55838258D01*
X91661741Y-55675298D01*
X91661734Y-55675292D01*
X91478887Y-55534989D01*
X91279294Y-55419754D01*
X91279284Y-55419750D01*
X91066365Y-55331556D01*
X91027520Y-55321147D01*
X90843740Y-55271903D01*
X90843737Y-55271902D01*
X90843735Y-55271902D01*
X90615246Y-55241821D01*
X90615243Y-55241820D01*
X90615237Y-55241820D01*
X90384763Y-55241820D01*
X90384757Y-55241820D01*
X90384753Y-55241821D01*
X90156264Y-55271902D01*
X89933634Y-55331556D01*
X89720715Y-55419750D01*
X89720705Y-55419754D01*
X89521112Y-55534989D01*
X89338265Y-55675292D01*
X89338258Y-55675298D01*
X89175298Y-55838258D01*
X89175292Y-55838265D01*
X89034989Y-56021112D01*
X88919754Y-56220705D01*
X88919750Y-56220715D01*
X88831556Y-56433634D01*
X88771902Y-56656264D01*
X88741821Y-56884753D01*
X88741820Y-56884769D01*
X74358150Y-56884769D01*
X74286617Y-56736231D01*
X74130742Y-56488158D01*
X74130740Y-56488155D01*
X74130739Y-56488153D01*
X73948078Y-56259102D01*
X73740897Y-56051921D01*
X73511846Y-55869260D01*
X73511844Y-55869259D01*
X73263766Y-55713381D01*
X72999806Y-55586264D01*
X72723274Y-55489501D01*
X72723262Y-55489497D01*
X72437631Y-55424304D01*
X72437615Y-55424302D01*
X72146494Y-55391500D01*
X72146490Y-55391500D01*
X71853510Y-55391500D01*
X71853506Y-55391500D01*
X71562384Y-55424302D01*
X71562368Y-55424304D01*
X71276737Y-55489497D01*
X71276725Y-55489501D01*
X71000193Y-55586264D01*
X70736233Y-55713381D01*
X70488155Y-55869259D01*
X70488153Y-55869260D01*
X70259102Y-56051921D01*
X70051921Y-56259102D01*
X69869260Y-56488153D01*
X69869259Y-56488155D01*
X69713381Y-56736233D01*
X69586264Y-57000193D01*
X69489501Y-57276725D01*
X69489497Y-57276737D01*
X69424304Y-57562368D01*
X69424302Y-57562384D01*
X69391500Y-57853505D01*
X46700500Y-57853505D01*
X46700500Y-51384769D01*
X88741820Y-51384769D01*
X88741820Y-51615230D01*
X88741821Y-51615246D01*
X88771902Y-51843735D01*
X88831556Y-52066365D01*
X88919750Y-52279284D01*
X88919754Y-52279294D01*
X89034989Y-52478887D01*
X89175292Y-52661734D01*
X89175298Y-52661741D01*
X89338258Y-52824701D01*
X89338265Y-52824707D01*
X89521112Y-52965010D01*
X89720705Y-53080245D01*
X89720706Y-53080245D01*
X89720709Y-53080247D01*
X89933639Y-53168445D01*
X90156260Y-53228097D01*
X90384763Y-53258180D01*
X90384770Y-53258180D01*
X90615230Y-53258180D01*
X90615237Y-53258180D01*
X90843740Y-53228097D01*
X91066361Y-53168445D01*
X91279291Y-53080247D01*
X91478888Y-52965010D01*
X91661736Y-52824706D01*
X91824706Y-52661736D01*
X91965010Y-52478888D01*
X92080247Y-52279291D01*
X92168445Y-52066361D01*
X92228097Y-51843740D01*
X92258180Y-51615237D01*
X92258180Y-51384763D01*
X92228097Y-51156260D01*
X92168445Y-50933639D01*
X92080247Y-50720709D01*
X91965010Y-50521112D01*
X91824706Y-50338264D01*
X91824701Y-50338258D01*
X91661741Y-50175298D01*
X91661734Y-50175292D01*
X91478887Y-50034989D01*
X91279294Y-49919754D01*
X91279284Y-49919750D01*
X91066365Y-49831556D01*
X91027520Y-49821147D01*
X90843740Y-49771903D01*
X90843737Y-49771902D01*
X90843735Y-49771902D01*
X90615246Y-49741821D01*
X90615243Y-49741820D01*
X90615237Y-49741820D01*
X90384763Y-49741820D01*
X90384757Y-49741820D01*
X90384753Y-49741821D01*
X90156264Y-49771902D01*
X89933634Y-49831556D01*
X89720715Y-49919750D01*
X89720705Y-49919754D01*
X89521112Y-50034989D01*
X89338265Y-50175292D01*
X89338258Y-50175298D01*
X89175298Y-50338258D01*
X89175292Y-50338265D01*
X89034989Y-50521112D01*
X88919754Y-50720705D01*
X88919750Y-50720715D01*
X88831556Y-50933634D01*
X88771902Y-51156264D01*
X88741821Y-51384753D01*
X88741820Y-51384769D01*
X46700500Y-51384769D01*
X46700500Y-35803153D01*
X47991500Y-35803153D01*
X47991500Y-36196846D01*
X48025813Y-36589042D01*
X48025813Y-36589044D01*
X48076358Y-36875696D01*
X48094176Y-36976748D01*
X48196071Y-37357024D01*
X48330721Y-37726972D01*
X48330724Y-37726979D01*
X48330725Y-37726981D01*
X48497097Y-38083768D01*
X48497102Y-38083777D01*
X48693947Y-38424723D01*
X48693951Y-38424729D01*
X48693958Y-38424740D01*
X48919759Y-38747217D01*
X49102673Y-38965204D01*
X49172819Y-39048800D01*
X49451200Y-39327181D01*
X49576593Y-39432399D01*
X49752782Y-39580240D01*
X50075259Y-39806041D01*
X50075266Y-39806045D01*
X50075277Y-39806053D01*
X50394814Y-39990537D01*
X50416216Y-40002894D01*
X50416231Y-40002902D01*
X50574803Y-40076845D01*
X50773028Y-40169279D01*
X51142976Y-40303929D01*
X51523252Y-40405824D01*
X51910962Y-40474187D01*
X52303153Y-40508499D01*
X52303154Y-40508500D01*
X52303155Y-40508500D01*
X52696846Y-40508500D01*
X52696846Y-40508499D01*
X53089038Y-40474187D01*
X53476748Y-40405824D01*
X53857024Y-40303929D01*
X54226972Y-40169279D01*
X54583777Y-40002898D01*
X54924723Y-39806053D01*
X55247216Y-39580241D01*
X55548800Y-39327181D01*
X55827181Y-39048800D01*
X56080241Y-38747216D01*
X56306053Y-38424723D01*
X56502898Y-38083777D01*
X56669279Y-37726972D01*
X56803929Y-37357024D01*
X56905824Y-36976748D01*
X56974187Y-36589038D01*
X57008500Y-36196845D01*
X57008500Y-35803155D01*
X56974187Y-35410962D01*
X56905824Y-35023252D01*
X56803929Y-34642976D01*
X56669279Y-34273028D01*
X56669274Y-34273018D01*
X56669273Y-34273014D01*
X56636362Y-34202435D01*
X56613545Y-34153505D01*
X69391500Y-34153505D01*
X69391500Y-34446494D01*
X69424302Y-34737615D01*
X69424304Y-34737631D01*
X69489497Y-35023262D01*
X69489501Y-35023274D01*
X69586264Y-35299806D01*
X69713381Y-35563766D01*
X69869259Y-35811844D01*
X69869260Y-35811846D01*
X70051921Y-36040897D01*
X70259102Y-36248078D01*
X70488153Y-36430739D01*
X70488155Y-36430740D01*
X70736233Y-36586618D01*
X70741271Y-36589044D01*
X71000197Y-36713737D01*
X71207892Y-36786412D01*
X71276725Y-36810498D01*
X71276737Y-36810502D01*
X71562372Y-36875696D01*
X71853505Y-36908499D01*
X71853506Y-36908500D01*
X71853510Y-36908500D01*
X72146494Y-36908500D01*
X72146494Y-36908499D01*
X72437628Y-36875696D01*
X72723263Y-36810502D01*
X72999803Y-36713737D01*
X73263769Y-36586617D01*
X73511842Y-36430742D01*
X73511846Y-36430739D01*
X73740897Y-36248078D01*
X73740899Y-36248075D01*
X73740904Y-36248072D01*
X73948072Y-36040904D01*
X74130742Y-35811842D01*
X74136202Y-35803153D01*
X85991500Y-35803153D01*
X85991500Y-36196846D01*
X86025813Y-36589042D01*
X86025813Y-36589044D01*
X86076358Y-36875696D01*
X86094176Y-36976748D01*
X86196071Y-37357024D01*
X86330721Y-37726972D01*
X86330724Y-37726979D01*
X86330725Y-37726981D01*
X86497097Y-38083768D01*
X86497102Y-38083777D01*
X86693947Y-38424723D01*
X86693951Y-38424729D01*
X86693958Y-38424740D01*
X86919759Y-38747217D01*
X87102673Y-38965204D01*
X87172819Y-39048800D01*
X87451200Y-39327181D01*
X87576593Y-39432399D01*
X87752782Y-39580240D01*
X88075259Y-39806041D01*
X88075266Y-39806045D01*
X88075277Y-39806053D01*
X88394814Y-39990537D01*
X88416216Y-40002894D01*
X88416231Y-40002902D01*
X88574803Y-40076845D01*
X88773028Y-40169279D01*
X89142976Y-40303929D01*
X89523252Y-40405824D01*
X89910962Y-40474187D01*
X90303153Y-40508499D01*
X90303154Y-40508500D01*
X90303155Y-40508500D01*
X90696846Y-40508500D01*
X90696846Y-40508499D01*
X91089038Y-40474187D01*
X91476748Y-40405824D01*
X91857024Y-40303929D01*
X92226972Y-40169279D01*
X92583777Y-40002898D01*
X92924723Y-39806053D01*
X93247216Y-39580241D01*
X93548800Y-39327181D01*
X93827181Y-39048800D01*
X94080241Y-38747216D01*
X94306053Y-38424723D01*
X94502898Y-38083777D01*
X94669279Y-37726972D01*
X94803929Y-37357024D01*
X94905824Y-36976748D01*
X94974187Y-36589038D01*
X95008500Y-36196845D01*
X95008500Y-35803155D01*
X94974187Y-35410962D01*
X94905824Y-35023252D01*
X94803929Y-34642976D01*
X94669279Y-34273028D01*
X94502898Y-33916223D01*
X94306053Y-33575277D01*
X94306045Y-33575266D01*
X94306041Y-33575259D01*
X94080240Y-33252782D01*
X93827178Y-32951197D01*
X93548802Y-32672821D01*
X93247217Y-32419759D01*
X92924740Y-32193958D01*
X92924729Y-32193951D01*
X92924723Y-32193947D01*
X92611977Y-32013383D01*
X92583783Y-31997105D01*
X92583768Y-31997097D01*
X92226981Y-31830725D01*
X92226979Y-31830724D01*
X92226972Y-31830721D01*
X91857024Y-31696071D01*
X91615940Y-31631472D01*
X91476749Y-31594176D01*
X91476738Y-31594174D01*
X91089043Y-31525813D01*
X90696846Y-31491500D01*
X90696845Y-31491500D01*
X90303155Y-31491500D01*
X90303154Y-31491500D01*
X89910957Y-31525813D01*
X89910955Y-31525813D01*
X89523261Y-31594174D01*
X89523250Y-31594176D01*
X89319460Y-31648782D01*
X89142976Y-31696071D01*
X89142973Y-31696072D01*
X89142972Y-31696072D01*
X89065406Y-31724304D01*
X88773028Y-31830721D01*
X88773024Y-31830722D01*
X88773018Y-31830725D01*
X88416231Y-31997097D01*
X88416216Y-31997105D01*
X88075285Y-32193942D01*
X88075259Y-32193958D01*
X87752782Y-32419759D01*
X87451197Y-32672821D01*
X87172821Y-32951197D01*
X86919759Y-33252782D01*
X86693958Y-33575259D01*
X86693942Y-33575285D01*
X86497105Y-33916216D01*
X86497097Y-33916231D01*
X86330725Y-34273018D01*
X86330722Y-34273024D01*
X86330721Y-34273028D01*
X86196071Y-34642976D01*
X86170709Y-34737628D01*
X86094176Y-35023250D01*
X86094174Y-35023261D01*
X86025813Y-35410955D01*
X86025813Y-35410957D01*
X85991500Y-35803153D01*
X74136202Y-35803153D01*
X74286617Y-35563769D01*
X74413737Y-35299803D01*
X74510502Y-35023263D01*
X74575696Y-34737628D01*
X74608500Y-34446490D01*
X74608500Y-34153510D01*
X74575696Y-33862372D01*
X74510502Y-33576737D01*
X74413737Y-33300197D01*
X74286617Y-33036231D01*
X74130742Y-32788158D01*
X74130740Y-32788155D01*
X74130739Y-32788153D01*
X73948078Y-32559102D01*
X73740897Y-32351921D01*
X73511846Y-32169260D01*
X73511844Y-32169259D01*
X73263766Y-32013381D01*
X72999806Y-31886264D01*
X72723274Y-31789501D01*
X72723262Y-31789497D01*
X72437631Y-31724304D01*
X72437615Y-31724302D01*
X72146494Y-31691500D01*
X72146490Y-31691500D01*
X71853510Y-31691500D01*
X71853506Y-31691500D01*
X71562384Y-31724302D01*
X71562368Y-31724304D01*
X71276737Y-31789497D01*
X71276725Y-31789501D01*
X71000193Y-31886264D01*
X70736233Y-32013381D01*
X70488155Y-32169259D01*
X70488153Y-32169260D01*
X70259102Y-32351921D01*
X70051921Y-32559102D01*
X69869260Y-32788153D01*
X69869259Y-32788155D01*
X69713381Y-33036233D01*
X69586264Y-33300193D01*
X69489501Y-33576725D01*
X69489497Y-33576737D01*
X69424304Y-33862368D01*
X69424302Y-33862384D01*
X69391500Y-34153505D01*
X56613545Y-34153505D01*
X56502902Y-33916232D01*
X56502894Y-33916216D01*
X56471805Y-33862368D01*
X56306053Y-33575277D01*
X56306045Y-33575266D01*
X56306041Y-33575259D01*
X56080240Y-33252782D01*
X55827178Y-32951197D01*
X55548802Y-32672821D01*
X55247217Y-32419759D01*
X54924740Y-32193958D01*
X54924729Y-32193951D01*
X54924723Y-32193947D01*
X54611977Y-32013383D01*
X54583783Y-31997105D01*
X54583768Y-31997097D01*
X54226981Y-31830725D01*
X54226979Y-31830724D01*
X54226972Y-31830721D01*
X53857024Y-31696071D01*
X53615940Y-31631472D01*
X53476749Y-31594176D01*
X53476738Y-31594174D01*
X53089043Y-31525813D01*
X52696846Y-31491500D01*
X52696845Y-31491500D01*
X52303155Y-31491500D01*
X52303154Y-31491500D01*
X51910957Y-31525813D01*
X51910955Y-31525813D01*
X51523261Y-31594174D01*
X51523250Y-31594176D01*
X51319460Y-31648782D01*
X51142976Y-31696071D01*
X51142973Y-31696072D01*
X51142972Y-31696072D01*
X51065406Y-31724304D01*
X50773028Y-31830721D01*
X50773024Y-31830722D01*
X50773018Y-31830725D01*
X50416231Y-31997097D01*
X50416216Y-31997105D01*
X50075285Y-32193942D01*
X50075259Y-32193958D01*
X49752782Y-32419759D01*
X49451197Y-32672821D01*
X49172821Y-32951197D01*
X48919759Y-33252782D01*
X48693958Y-33575259D01*
X48693942Y-33575285D01*
X48497105Y-33916216D01*
X48497097Y-33916231D01*
X48330725Y-34273018D01*
X48330722Y-34273024D01*
X48330721Y-34273028D01*
X48196071Y-34642976D01*
X48170709Y-34737628D01*
X48094176Y-35023250D01*
X48094174Y-35023261D01*
X48025813Y-35410955D01*
X48025813Y-35410957D01*
X47991500Y-35803153D01*
X46700500Y-35803153D01*
X46700500Y-30324500D01*
X46720185Y-30257461D01*
X46772989Y-30211706D01*
X46824500Y-30200500D01*
X96175500Y-30200500D01*
X96242539Y-30220185D01*
G37*
%TD.AperFunction*%
%TD*%
M02*
