M48
; DRILL file {KiCad 9.0.3} date 2025-11-11T21:11:52+0100
; FORMAT={-:-/ absolute / metric / decimal}
; #@! TF.CreationDate,2025-11-11T21:11:52+01:00
; #@! TF.GenerationSoftware,Kicad,Pcbnew,9.0.3
; #@! TF.FileFunction,Plated,1,2,PTH
FMAT,2
METRIC
; #@! TA.AperFunction,Plated,PTH,ViaDrill
T1C0.400
; #@! TA.AperFunction,Plated,PTH,ComponentDrill
T2C0.800
; #@! TA.AperFunction,Plated,PTH,ComponentDrill
T3C1.001
; #@! TA.AperFunction,Plated,PTH,ComponentDrill
T4C1.100
; #@! TA.AperFunction,Plated,PTH,ComponentDrill
T5C1.200
; #@! TA.AperFunction,Plated,PTH,ComponentDrill
T6C1.350
; #@! TA.AperFunction,Plated,PTH,ComponentDrill
T7C1.400
; #@! TA.AperFunction,Plated,PTH,ComponentDrill
T8C1.800
; #@! TA.AperFunction,Plated,PTH,ComponentDrill
T9C2.100
; #@! TA.AperFunction,Plated,PTH,ComponentDrill
T10C3.200
%
G90
G05
T1
X47.5Y-99.0
X47.5Y-100.0
X48.5Y-99.0
X48.5Y-100.0
X49.5Y-99.0
X49.5Y-100.0
X50.5Y-99.0
X50.5Y-100.0
X51.5Y-52.5
X51.5Y-99.0
X51.5Y-100.0
X52.0Y-46.5
X53.18Y-100.18
X54.0Y-46.0
X54.5Y-100.0
X55.0Y-59.0
X55.2Y-102.0
X55.5Y-101.0
X56.0Y-60.0
X58.0Y-55.0
X58.5Y-62.0
X59.0Y-101.5
X59.0Y-118.5
X59.0Y-120.0
X59.0Y-121.5
X59.0Y-123.0
X59.0Y-124.5
X59.0Y-126.0
X59.5Y-62.0
X60.0Y-110.0
X60.5Y-31.5
X60.5Y-33.0
X60.5Y-34.5
X60.5Y-36.0
X60.5Y-37.5
X60.5Y-39.0
X60.5Y-41.0
X60.5Y-42.5
X60.5Y-44.0
X60.5Y-45.5
X60.5Y-47.0
X60.5Y-48.5
X60.5Y-51.0
X60.5Y-53.5
X60.5Y-55.5
X60.5Y-101.5
X60.5Y-104.5
X60.5Y-106.5
X60.5Y-121.5
X60.5Y-123.0
X60.5Y-124.5
X60.5Y-126.0
X60.5Y-127.5
X60.5Y-129.0
X61.0Y-98.5
X62.0Y-127.5
X62.0Y-129.0
X62.5Y-31.5
X62.5Y-33.0
X62.5Y-34.5
X62.5Y-36.0
X62.5Y-37.5
X62.5Y-39.0
X62.5Y-41.0
X62.5Y-42.5
X62.5Y-44.0
X62.5Y-45.5
X62.5Y-47.0
X62.5Y-48.5
X62.5Y-51.0
X62.5Y-53.5
X63.0Y-98.5
X63.0Y-107.0
X63.5Y-127.5
X63.5Y-129.0
X64.0Y-62.0
X65.0Y-31.5
X65.0Y-33.0
X65.0Y-34.5
X65.0Y-36.0
X65.0Y-37.5
X65.0Y-39.0
X65.0Y-41.0
X65.0Y-42.5
X65.0Y-44.0
X65.0Y-45.5
X65.0Y-47.0
X65.0Y-48.5
X65.0Y-51.0
X65.0Y-69.5
X65.0Y-71.5
X65.0Y-73.5
X65.0Y-127.5
X65.0Y-129.0
X65.5Y-98.0
X65.5Y-107.0
X65.5Y-110.0
X66.0Y-56.0
X66.0Y-57.5
X66.0Y-59.0
X66.0Y-68.5
X66.0Y-84.0
X66.5Y-75.5
X66.5Y-81.0
X66.5Y-101.5
X66.5Y-127.5
X66.5Y-129.0
X67.0Y-31.5
X67.0Y-33.0
X67.0Y-34.5
X67.0Y-36.0
X67.0Y-37.5
X67.0Y-39.0
X67.0Y-41.0
X67.0Y-42.5
X67.0Y-44.0
X67.0Y-45.5
X67.0Y-47.0
X67.0Y-48.5
X67.0Y-69.5
X67.0Y-71.5
X67.0Y-73.5
X67.0Y-93.0
X67.5Y-113.5
X67.5Y-115.0
X67.5Y-116.5
X68.0Y-53.0
X68.0Y-54.5
X68.0Y-56.0
X68.0Y-57.5
X68.0Y-59.0
X68.0Y-127.5
X68.0Y-129.0
X68.5Y-101.5
X69.0Y-68.5
X69.0Y-76.0
X69.0Y-113.5
X69.0Y-115.0
X69.0Y-116.5
X69.5Y-74.0
X69.5Y-78.5
X69.5Y-81.0
X69.5Y-96.0
X69.5Y-97.5
X69.5Y-99.0
X69.5Y-118.0
X69.5Y-119.5
X69.5Y-121.0
X69.5Y-123.0
X69.5Y-124.5
X69.5Y-126.0
X69.5Y-127.5
X69.5Y-129.0
X70.0Y-51.5
X70.0Y-53.0
X70.0Y-54.5
X70.5Y-73.0
X70.5Y-95.0
X70.5Y-108.0
X70.5Y-109.5
X70.5Y-111.0
X70.5Y-112.5
X70.5Y-114.0
X71.0Y-76.0
X71.0Y-96.0
X71.0Y-97.5
X71.0Y-99.0
X71.0Y-116.0
X71.0Y-118.0
X71.0Y-119.5
X71.0Y-121.0
X71.0Y-123.0
X71.0Y-124.5
X71.0Y-126.0
X71.0Y-127.5
X71.0Y-129.0
X71.5Y-68.5
X71.5Y-94.5
X72.0Y-50.0
X72.0Y-51.5
X72.0Y-53.0
X72.0Y-54.5
X72.0Y-74.0
X72.0Y-100.5
X72.0Y-102.0
X72.0Y-111.0
X72.0Y-112.5
X72.0Y-114.0
X72.5Y-76.0
X72.5Y-81.0
X72.5Y-84.0
X72.5Y-85.5
X72.5Y-96.0
X72.5Y-97.5
X72.5Y-99.0
X72.5Y-108.0
X72.5Y-109.5
X72.5Y-116.0
X72.5Y-118.0
X72.5Y-119.5
X72.5Y-121.0
X72.5Y-123.0
X72.5Y-124.5
X72.5Y-126.0
X72.5Y-127.5
X72.5Y-129.0
X73.5Y-68.0
X73.5Y-100.5
X73.5Y-102.0
X73.5Y-103.5
X73.5Y-105.0
X73.5Y-106.5
X73.5Y-108.0
X73.5Y-109.5
X73.5Y-111.0
X73.5Y-112.5
X73.5Y-114.0
X73.5Y-127.5
X73.5Y-129.0
X74.0Y-50.0
X74.0Y-51.5
X74.0Y-53.0
X74.0Y-54.5
X74.0Y-67.0
X74.0Y-93.5
X74.0Y-94.5
X74.0Y-116.0
X74.0Y-117.5
X74.0Y-119.0
X74.5Y-69.5
X74.5Y-71.5
X74.5Y-73.5
X74.5Y-89.0
X74.5Y-90.5
X74.5Y-96.0
X74.5Y-97.5
X74.5Y-99.0
X75.0Y-100.5
X75.0Y-102.0
X75.0Y-103.5
X75.0Y-127.5
X75.0Y-129.0
X75.5Y-36.5
X75.5Y-38.0
X75.5Y-39.5
X75.5Y-41.0
X75.5Y-42.5
X75.5Y-44.0
X75.5Y-45.5
X75.5Y-47.0
X75.5Y-48.5
X75.5Y-50.0
X75.5Y-51.5
X75.5Y-53.0
X75.5Y-55.0
X75.5Y-56.5
X75.5Y-58.0
X75.5Y-59.5
X75.5Y-61.0
X75.5Y-62.5
X75.5Y-105.0
X75.5Y-106.5
X75.5Y-108.0
X75.5Y-109.5
X75.5Y-111.5
X75.5Y-113.0
X75.5Y-114.5
X75.5Y-116.0
X75.5Y-117.5
X75.5Y-119.0
X76.0Y-67.5
X76.0Y-69.5
X76.0Y-71.5
X76.0Y-73.5
X76.0Y-94.5
X76.0Y-96.0
X76.0Y-97.5
X76.0Y-99.0
X76.5Y-127.5
X76.5Y-129.0
X77.0Y-100.5
X77.0Y-102.0
X77.0Y-103.5
X77.0Y-105.0
X77.0Y-106.5
X77.0Y-108.0
X77.0Y-110.0
X77.0Y-111.5
X77.0Y-113.0
X77.0Y-114.5
X77.0Y-116.0
X77.0Y-117.5
X77.0Y-119.0
X77.5Y-33.0
X77.5Y-34.5
X77.5Y-36.5
X77.5Y-38.0
X77.5Y-39.5
X77.5Y-41.0
X77.5Y-42.5
X77.5Y-44.0
X77.5Y-45.5
X77.5Y-47.0
X77.5Y-48.5
X77.5Y-50.0
X77.5Y-51.5
X77.5Y-53.0
X77.5Y-55.0
X77.5Y-56.5
X77.5Y-58.0
X77.5Y-59.5
X77.5Y-61.0
X77.5Y-62.5
X77.5Y-72.0
X77.5Y-73.5
X77.5Y-75.5
X77.5Y-78.0
X77.5Y-96.0
X77.5Y-97.5
X77.5Y-99.0
X78.0Y-94.5
X78.0Y-127.5
X78.0Y-129.0
X78.5Y-100.5
X78.5Y-102.0
X78.5Y-103.5
X78.5Y-105.0
X78.5Y-106.5
X78.5Y-108.0
X78.5Y-110.0
X78.5Y-111.5
X78.5Y-113.0
X78.5Y-114.5
X79.5Y-33.0
X79.5Y-34.5
X79.5Y-36.5
X79.5Y-38.0
X79.5Y-39.5
X79.5Y-41.0
X79.5Y-42.5
X79.5Y-44.0
X79.5Y-45.5
X79.5Y-47.5
X79.5Y-75.5
X79.5Y-78.0
X79.5Y-96.0
X79.5Y-97.5
X79.5Y-99.0
X79.5Y-127.5
X79.5Y-129.0
X80.0Y-100.5
X80.0Y-102.0
X80.0Y-103.5
X80.0Y-105.0
X80.0Y-106.5
X80.0Y-108.0
X80.5Y-94.5
X80.5Y-109.5
X80.5Y-111.0
X80.5Y-112.5
X81.0Y-96.0
X81.0Y-97.5
X81.0Y-99.0
X81.0Y-100.5
X81.0Y-102.0
X81.0Y-103.5
X81.0Y-105.0
X81.0Y-106.5
X81.0Y-108.0
X81.0Y-127.5
X81.0Y-129.0
X81.5Y-33.0
X81.5Y-34.5
X81.5Y-36.5
X81.5Y-38.0
X81.5Y-39.5
X81.5Y-41.0
X81.5Y-42.5
X81.5Y-44.0
X81.5Y-75.5
X82.0Y-45.5
X82.0Y-47.5
X82.0Y-78.0
X82.0Y-109.5
X82.0Y-111.0
X82.0Y-112.5
X82.5Y-96.0
X82.5Y-97.5
X82.5Y-99.0
X82.5Y-100.5
X82.5Y-102.0
X82.5Y-103.5
X82.5Y-105.0
X82.5Y-106.5
X82.5Y-108.0
X82.5Y-121.5
X82.5Y-123.0
X82.5Y-124.5
X82.5Y-126.0
X82.5Y-127.5
X82.5Y-129.0
X83.0Y-94.5
X83.5Y-43.0
X83.5Y-44.5
X83.5Y-46.0
X83.5Y-47.5
X83.5Y-75.5
X83.5Y-89.0
X83.5Y-109.5
X83.5Y-111.0
X83.5Y-112.5
X84.0Y-100.5
X84.0Y-102.0
X84.0Y-103.5
X84.0Y-105.0
X84.0Y-106.5
X84.0Y-108.0
X84.0Y-121.5
X84.0Y-123.0
X84.0Y-124.5
X84.0Y-126.0
X84.0Y-127.5
X84.0Y-129.0
X84.5Y-96.0
X84.5Y-97.5
X84.5Y-99.0
X84.75Y-90.25
X85.0Y-94.5
X85.0Y-115.5
X85.0Y-116.5
X85.5Y-43.0
X85.5Y-44.5
X85.5Y-46.0
X85.5Y-47.5
X85.5Y-108.0
X86.0Y-94.5
X86.0Y-96.0
X86.0Y-97.5
X86.0Y-99.0
X86.0Y-100.5
X86.0Y-102.0
X86.0Y-103.5
X86.0Y-105.0
X86.0Y-106.5
X86.5Y-114.5
X86.5Y-115.5
X86.5Y-116.5
X87.0Y-42.5
X87.0Y-44.5
X87.0Y-46.0
X87.0Y-47.5
X87.0Y-108.0
X87.5Y-96.0
X87.5Y-97.5
X87.5Y-99.0
X87.5Y-100.5
X87.5Y-102.0
X87.5Y-103.5
X87.5Y-105.0
X87.5Y-106.5
X88.0Y-113.5
X88.0Y-114.5
X88.0Y-115.5
X88.0Y-116.5
X88.5Y-42.5
X88.5Y-44.5
X88.5Y-46.0
X88.5Y-47.5
X88.5Y-96.0
X88.5Y-97.5
X88.5Y-99.0
X89.0Y-100.5
X89.0Y-102.0
X89.0Y-103.5
X89.5Y-111.5
X89.5Y-112.5
X89.5Y-113.5
X89.5Y-114.5
X89.5Y-115.5
X89.5Y-116.5
X90.0Y-42.5
X90.0Y-44.5
X90.0Y-46.0
X90.0Y-47.5
X90.0Y-96.0
X90.0Y-97.5
X90.0Y-99.0
X91.0Y-110.5
X91.0Y-111.5
X91.0Y-112.5
X91.0Y-113.5
X91.0Y-114.5
X91.0Y-115.5
X91.0Y-116.5
X91.5Y-42.5
X91.5Y-44.5
X91.5Y-46.0
X91.5Y-47.5
X91.5Y-96.0
X91.5Y-97.5
X91.5Y-99.0
X91.5Y-109.5
X92.5Y-110.5
X92.5Y-111.5
X92.5Y-112.5
X92.5Y-113.5
X92.5Y-114.5
X92.5Y-115.5
X92.5Y-116.5
X93.0Y-42.5
X93.0Y-44.5
X93.0Y-46.0
X93.0Y-47.5
X93.0Y-109.5
X94.0Y-110.5
X94.0Y-111.5
X94.0Y-112.5
X94.0Y-114.5
X94.0Y-115.5
X94.0Y-116.5
X94.5Y-42.5
X94.5Y-44.5
X94.5Y-46.0
X94.5Y-47.5
X94.5Y-109.5
T2
X51.5Y-62.347
X51.5Y-65.847
X57.0Y-93.653
X57.0Y-97.153
X63.5Y-118.347
X63.5Y-121.847
T3
X61.5Y-79.0
X79.0Y-88.0
X82.0Y-85.0
X90.5Y-51.5
X90.5Y-57.0
T4
X63.0Y-85.46
X63.0Y-88.0
X63.0Y-90.54
T5
X71.0Y-65.676
X71.0Y-70.676
T6
X78.0Y-123.5
T7
X53.5Y-76.34
X53.5Y-81.42
X53.5Y-86.5
X90.0Y-62.18
X90.0Y-67.26
X90.0Y-72.34
X90.0Y-77.42
X90.0Y-82.5
X90.0Y-87.58
T8
X69.5Y-105.0
X93.2Y-105.0
T9
X72.0Y-34.3
X72.0Y-58.0
T10
X52.5Y-36.0
X52.5Y-124.0
X90.5Y-36.0
X90.5Y-124.0
M30
